%TF.GenerationSoftware,KiCad,Pcbnew,8.0.0*%
%TF.CreationDate,2024-03-23T10:43:55+02:00*%
%TF.ProjectId,Sensing systemV3,53656e73-696e-4672-9073-797374656d56,rev?*%
%TF.SameCoordinates,Original*%
%TF.FileFunction,Copper,L1,Top*%
%TF.FilePolarity,Positive*%
%FSLAX46Y46*%
G04 Gerber Fmt 4.6, Leading zero omitted, Abs format (unit mm)*
G04 Created by KiCad (PCBNEW 8.0.0) date 2024-03-23 10:43:55*
%MOMM*%
%LPD*%
G01*
G04 APERTURE LIST*
G04 Aperture macros list*
%AMRoundRect*
0 Rectangle with rounded corners*
0 $1 Rounding radius*
0 $2 $3 $4 $5 $6 $7 $8 $9 X,Y pos of 4 corners*
0 Add a 4 corners polygon primitive as box body*
4,1,4,$2,$3,$4,$5,$6,$7,$8,$9,$2,$3,0*
0 Add four circle primitives for the rounded corners*
1,1,$1+$1,$2,$3*
1,1,$1+$1,$4,$5*
1,1,$1+$1,$6,$7*
1,1,$1+$1,$8,$9*
0 Add four rect primitives between the rounded corners*
20,1,$1+$1,$2,$3,$4,$5,0*
20,1,$1+$1,$4,$5,$6,$7,0*
20,1,$1+$1,$6,$7,$8,$9,0*
20,1,$1+$1,$8,$9,$2,$3,0*%
%AMFreePoly0*
4,1,19,0.000000,0.744911,0.071157,0.744911,0.207708,0.704816,0.327430,0.627875,0.420627,0.520320,0.479746,0.390866,0.500000,0.250000,0.500000,-0.250000,0.479746,-0.390866,0.420627,-0.520320,0.327430,-0.627875,0.207708,-0.704816,0.071157,-0.744911,0.000000,-0.744911,0.000000,-0.750000,-0.500000,-0.750000,-0.500000,0.750000,0.000000,0.750000,0.000000,0.744911,0.000000,0.744911,
$1*%
%AMFreePoly1*
4,1,19,0.500000,-0.750000,0.000000,-0.750000,0.000000,-0.744911,-0.071157,-0.744911,-0.207708,-0.704816,-0.327430,-0.627875,-0.420627,-0.520320,-0.479746,-0.390866,-0.500000,-0.250000,-0.500000,0.250000,-0.479746,0.390866,-0.420627,0.520320,-0.327430,0.627875,-0.207708,0.704816,-0.071157,0.744911,0.000000,0.744911,0.000000,0.750000,0.500000,0.750000,0.500000,-0.750000,0.500000,-0.750000,
$1*%
G04 Aperture macros list end*
%TA.AperFunction,SMDPad,CuDef*%
%ADD10RoundRect,0.250000X0.262500X0.450000X-0.262500X0.450000X-0.262500X-0.450000X0.262500X-0.450000X0*%
%TD*%
%TA.AperFunction,SMDPad,CuDef*%
%ADD11RoundRect,0.250000X-0.450000X0.262500X-0.450000X-0.262500X0.450000X-0.262500X0.450000X0.262500X0*%
%TD*%
%TA.AperFunction,SMDPad,CuDef*%
%ADD12FreePoly0,270.000000*%
%TD*%
%TA.AperFunction,SMDPad,CuDef*%
%ADD13FreePoly1,270.000000*%
%TD*%
%TA.AperFunction,SMDPad,CuDef*%
%ADD14RoundRect,0.250000X-0.262500X-0.450000X0.262500X-0.450000X0.262500X0.450000X-0.262500X0.450000X0*%
%TD*%
%TA.AperFunction,ComponentPad*%
%ADD15R,1.800000X1.800000*%
%TD*%
%TA.AperFunction,ComponentPad*%
%ADD16C,1.800000*%
%TD*%
%TA.AperFunction,SMDPad,CuDef*%
%ADD17RoundRect,0.150000X-0.512500X-0.150000X0.512500X-0.150000X0.512500X0.150000X-0.512500X0.150000X0*%
%TD*%
%TA.AperFunction,SMDPad,CuDef*%
%ADD18RoundRect,0.250000X0.450000X-0.262500X0.450000X0.262500X-0.450000X0.262500X-0.450000X-0.262500X0*%
%TD*%
%TA.AperFunction,ComponentPad*%
%ADD19R,1.700000X1.700000*%
%TD*%
%TA.AperFunction,ComponentPad*%
%ADD20O,1.700000X1.700000*%
%TD*%
%TA.AperFunction,ViaPad*%
%ADD21C,0.600000*%
%TD*%
%TA.AperFunction,Conductor*%
%ADD22C,0.500000*%
%TD*%
%TA.AperFunction,Conductor*%
%ADD23C,0.250000*%
%TD*%
%TA.AperFunction,Conductor*%
%ADD24C,0.200000*%
%TD*%
G04 APERTURE END LIST*
D10*
%TO.P,R8,2*%
%TO.N,/PA7*%
X67870000Y-83980000D03*
%TO.P,R8,1*%
%TO.N,Net-(JP3-B)*%
X69695000Y-83980000D03*
%TD*%
D11*
%TO.P,R2,1*%
%TO.N,Net-(D2-K)*%
X76600000Y-90200000D03*
%TO.P,R2,2*%
%TO.N,Net-(Q1-C)*%
X76600000Y-92025000D03*
%TD*%
D12*
%TO.P,JP4,2,B*%
%TO.N,Net-(JP4-B)*%
X73152000Y-86750000D03*
D13*
%TO.P,JP4,1,A*%
%TO.N,Net-(JP3-B)*%
X73152000Y-85450000D03*
%TD*%
D12*
%TO.P,JP1,2,B*%
%TO.N,Net-(JP1-B)*%
X73152000Y-75320000D03*
D13*
%TO.P,JP1,1,A*%
%TO.N,3V3*%
X73152000Y-74020000D03*
%TD*%
D14*
%TO.P,R16,1*%
%TO.N,Net-(JP10-A)*%
X97574400Y-76803200D03*
%TO.P,R16,2*%
%TO.N,/PA4*%
X99399400Y-76803200D03*
%TD*%
%TO.P,R14,1*%
%TO.N,Net-(JP8-B)*%
X85600000Y-90050000D03*
%TO.P,R14,2*%
%TO.N,/PA3*%
X87425000Y-90050000D03*
%TD*%
D13*
%TO.P,JP12,1,A*%
%TO.N,Net-(JP11-B)*%
X93152900Y-85283200D03*
D12*
%TO.P,JP12,2,B*%
%TO.N,Net-(JP12-B)*%
X93152900Y-86583200D03*
%TD*%
D11*
%TO.P,R3,1*%
%TO.N,Net-(D3-K)*%
X103971400Y-89956800D03*
%TO.P,R3,2*%
%TO.N,Net-(Q1-C)*%
X103971400Y-91781800D03*
%TD*%
D12*
%TO.P,JP2,2,B*%
%TO.N,Net-(JP2-B)*%
X73152000Y-79130000D03*
D13*
%TO.P,JP2,1,A*%
%TO.N,Net-(JP1-B)*%
X73152000Y-77830000D03*
%TD*%
D11*
%TO.P,R1,1*%
%TO.N,Net-(D1-K)*%
X64464200Y-90398600D03*
%TO.P,R1,2*%
%TO.N,Net-(Q1-C)*%
X64464200Y-92223600D03*
%TD*%
D15*
%TO.P,D2,1,K*%
%TO.N,Net-(D2-K)*%
X80935000Y-71374000D03*
D16*
%TO.P,D2,2,A*%
%TO.N,BATT*%
X78395000Y-71374000D03*
%TD*%
D12*
%TO.P,JP3,2,B*%
%TO.N,Net-(JP3-B)*%
X73152000Y-82940000D03*
D13*
%TO.P,JP3,1,A*%
%TO.N,Net-(JP2-B)*%
X73152000Y-81640000D03*
%TD*%
%TO.P,JP10,1,A*%
%TO.N,Net-(JP10-A)*%
X93152900Y-77663200D03*
D12*
%TO.P,JP10,2,B*%
%TO.N,Net-(JP10-B)*%
X93152900Y-78963200D03*
%TD*%
D15*
%TO.P,D5,1,K*%
%TO.N,/PA3*%
X87440000Y-71378600D03*
D16*
%TO.P,D5,2,A*%
%TO.N,GND*%
X84900000Y-71378600D03*
%TD*%
D15*
%TO.P,D6,1,K*%
%TO.N,/PA4*%
X106070400Y-82438400D03*
D16*
%TO.P,D6,2,A*%
%TO.N,GND*%
X106070400Y-79898400D03*
%TD*%
D14*
%TO.P,R13,1*%
%TO.N,Net-(JP7-B)*%
X85600000Y-86556000D03*
%TO.P,R13,2*%
%TO.N,/PA3*%
X87425000Y-86556000D03*
%TD*%
%TO.P,R17,1*%
%TO.N,Net-(JP10-B)*%
X97574400Y-80399200D03*
%TO.P,R17,2*%
%TO.N,/PA4*%
X99399400Y-80399200D03*
%TD*%
D13*
%TO.P,JP8,1,A*%
%TO.N,Net-(JP7-B)*%
X82192600Y-87671000D03*
D12*
%TO.P,JP8,2,B*%
%TO.N,Net-(JP8-B)*%
X82192600Y-88971000D03*
%TD*%
D14*
%TO.P,R10,1*%
%TO.N,3V3*%
X85600000Y-75825000D03*
%TO.P,R10,2*%
%TO.N,/PA3*%
X87425000Y-75825000D03*
%TD*%
D13*
%TO.P,JP6,1,A*%
%TO.N,Net-(JP5-B)*%
X82192600Y-80051000D03*
D12*
%TO.P,JP6,2,B*%
%TO.N,Net-(JP6-B)*%
X82192600Y-81351000D03*
%TD*%
D14*
%TO.P,R15,1*%
%TO.N,3V3*%
X97574400Y-73345200D03*
%TO.P,R15,2*%
%TO.N,/PA4*%
X99399400Y-73345200D03*
%TD*%
D13*
%TO.P,JP5,1,A*%
%TO.N,3V3*%
X82192600Y-76211000D03*
D12*
%TO.P,JP5,2,B*%
%TO.N,Net-(JP5-B)*%
X82192600Y-77511000D03*
%TD*%
D10*
%TO.P,R9,2*%
%TO.N,/PA7*%
X67812000Y-87020000D03*
%TO.P,R9,1*%
%TO.N,Net-(JP4-B)*%
X69637000Y-87020000D03*
%TD*%
%TO.P,R6,2*%
%TO.N,/PA7*%
X67874000Y-77056000D03*
%TO.P,R6,1*%
%TO.N,Net-(JP1-B)*%
X69699000Y-77056000D03*
%TD*%
D17*
%TO.P,Q1,1,C*%
%TO.N,Net-(Q1-C)*%
X96520000Y-94200000D03*
%TO.P,Q1,2,B*%
%TO.N,Net-(Q1-B)*%
X96520000Y-96100000D03*
%TO.P,Q1,3,E*%
%TO.N,GND*%
X98795000Y-95150000D03*
%TD*%
D15*
%TO.P,D4,1,K*%
%TO.N,/PA7*%
X61441600Y-73507600D03*
D16*
%TO.P,D4,2,A*%
%TO.N,GND*%
X61441600Y-76047600D03*
%TD*%
D13*
%TO.P,JP9,1,A*%
%TO.N,3V3*%
X93152900Y-73965200D03*
D12*
%TO.P,JP9,2,B*%
%TO.N,Net-(JP10-A)*%
X93152900Y-75265200D03*
%TD*%
D14*
%TO.P,R18,1*%
%TO.N,Net-(JP11-B)*%
X97574400Y-83857200D03*
%TO.P,R18,2*%
%TO.N,/PA4*%
X99399400Y-83857200D03*
%TD*%
D13*
%TO.P,JP11,1,A*%
%TO.N,Net-(JP10-B)*%
X93152900Y-81473200D03*
D12*
%TO.P,JP11,2,B*%
%TO.N,Net-(JP11-B)*%
X93152900Y-82773200D03*
%TD*%
D14*
%TO.P,R11,1*%
%TO.N,Net-(JP5-B)*%
X85600000Y-79350000D03*
%TO.P,R11,2*%
%TO.N,/PA3*%
X87425000Y-79350000D03*
%TD*%
%TO.P,R12,1*%
%TO.N,Net-(JP6-B)*%
X85600000Y-83000000D03*
%TO.P,R12,2*%
%TO.N,/PA3*%
X87425000Y-83000000D03*
%TD*%
D13*
%TO.P,JP7,1,A*%
%TO.N,Net-(JP6-B)*%
X82192600Y-83861000D03*
D12*
%TO.P,JP7,2,B*%
%TO.N,Net-(JP7-B)*%
X82192600Y-85161000D03*
%TD*%
D18*
%TO.P,R4,1*%
%TO.N,/PE15*%
X92700000Y-97925000D03*
%TO.P,R4,2*%
%TO.N,Net-(Q1-B)*%
X92700000Y-96100000D03*
%TD*%
D14*
%TO.P,R19,1*%
%TO.N,Net-(JP12-B)*%
X97574400Y-87315200D03*
%TO.P,R19,2*%
%TO.N,/PA4*%
X99399400Y-87315200D03*
%TD*%
D10*
%TO.P,R7,2*%
%TO.N,/PA7*%
X67870000Y-80612000D03*
%TO.P,R7,1*%
%TO.N,Net-(JP2-B)*%
X69695000Y-80612000D03*
%TD*%
%TO.P,R5,2*%
%TO.N,/PA7*%
X67874000Y-73500000D03*
%TO.P,R5,1*%
%TO.N,3V3*%
X69699000Y-73500000D03*
%TD*%
D15*
%TO.P,D1,1,K*%
%TO.N,Net-(D1-K)*%
X61468000Y-79972000D03*
D16*
%TO.P,D1,2,A*%
%TO.N,BATT*%
X61468000Y-82512000D03*
%TD*%
D15*
%TO.P,D3,1,K*%
%TO.N,Net-(D3-K)*%
X106078400Y-75939800D03*
D16*
%TO.P,D3,2,A*%
%TO.N,BATT*%
X106078400Y-73399800D03*
%TD*%
D19*
%TO.P,J1,1,Pin_1*%
%TO.N,/RESV3*%
X100330000Y-104140000D03*
D20*
%TO.P,J1,2,Pin_2*%
%TO.N,3V3*%
X100330000Y-101600000D03*
%TO.P,J1,3,Pin_3*%
%TO.N,GND*%
X97790000Y-104140000D03*
%TO.P,J1,4,Pin_4*%
%TO.N,BATT*%
X97790000Y-101600000D03*
%TO.P,J1,5,Pin_5*%
%TO.N,/PA3*%
X95250000Y-104140000D03*
%TO.P,J1,6,Pin_6*%
%TO.N,/RESV2*%
X95250000Y-101600000D03*
%TO.P,J1,7,Pin_7*%
%TO.N,/PA4*%
X92710000Y-104140000D03*
%TO.P,J1,8,Pin_8*%
%TO.N,/PE15*%
X92710000Y-101600000D03*
%TO.P,J1,9,Pin_9*%
%TO.N,GND*%
X90170000Y-104140000D03*
%TO.P,J1,10,Pin_10*%
%TO.N,/PE14*%
X90170000Y-101600000D03*
%TO.P,J1,11,Pin_11*%
%TO.N,/PA5*%
X87630000Y-104140000D03*
%TO.P,J1,12,Pin_12*%
%TO.N,/PE13*%
X87630000Y-101600000D03*
%TO.P,J1,13,Pin_13*%
%TO.N,/PA6*%
X85090000Y-104140000D03*
%TO.P,J1,14,Pin_14*%
%TO.N,/PE12*%
X85090000Y-101600000D03*
%TO.P,J1,15,Pin_15*%
%TO.N,GND*%
X82550000Y-104140000D03*
%TO.P,J1,16,Pin_16*%
%TO.N,/PE11*%
X82550000Y-101600000D03*
%TO.P,J1,17,Pin_17*%
%TO.N,/PA7*%
X80010000Y-104140000D03*
%TO.P,J1,18,Pin_18*%
%TO.N,/PE10*%
X80010000Y-101600000D03*
%TO.P,J1,19,Pin_19*%
%TO.N,/PC4*%
X77470000Y-104140000D03*
%TO.P,J1,20,Pin_20*%
%TO.N,/PE9*%
X77470000Y-101600000D03*
%TO.P,J1,21,Pin_21*%
%TO.N,GND*%
X74930000Y-104140000D03*
%TO.P,J1,22,Pin_22*%
%TO.N,/PE8*%
X74930000Y-101600000D03*
%TO.P,J1,23,Pin_23*%
%TO.N,/PC5*%
X72390000Y-104140000D03*
%TO.P,J1,24,Pin_24*%
%TO.N,/RESV1*%
X72390000Y-101600000D03*
%TO.P,J1,25,Pin_25*%
%TO.N,/AB0*%
X69850000Y-104140000D03*
%TO.P,J1,26,Pin_26*%
%TO.N,BATT*%
X69850000Y-101600000D03*
%TO.P,J1,27,Pin_27*%
%TO.N,GND*%
X67310000Y-104140000D03*
%TO.P,J1,28,Pin_28*%
%TO.N,3V3*%
X67310000Y-101600000D03*
%TD*%
D21*
%TO.N,3V3*%
X82194400Y-74015600D03*
X90538400Y-75239200D03*
X90538400Y-88429200D03*
%TO.N,/PA7*%
X67818000Y-90271600D03*
%TO.N,/PA3*%
X91710000Y-90050000D03*
%TO.N,3V3*%
X76962000Y-74015600D03*
%TD*%
D22*
%TO.N,Net-(D1-K)*%
X64465200Y-82969200D02*
X64465200Y-90397600D01*
X64465200Y-90397600D02*
X64464200Y-90398600D01*
X61468000Y-79972000D02*
X64465200Y-82969200D01*
D23*
%TO.N,3V3*%
X82192600Y-74017400D02*
X82194400Y-74015600D01*
X82192600Y-76211000D02*
X82192600Y-74017400D01*
X76957600Y-74020000D02*
X73152000Y-74020000D01*
X76962000Y-74015600D02*
X76957600Y-74020000D01*
D24*
%TO.N,/PA7*%
X67812000Y-88336000D02*
X67812000Y-87020000D01*
X67818000Y-88342000D02*
X67812000Y-88336000D01*
X67818000Y-90271600D02*
X67818000Y-88342000D01*
D23*
%TO.N,/PA3*%
X87425000Y-90050000D02*
X91710000Y-90050000D01*
%TO.N,/PA4*%
X101955600Y-78323600D02*
X106070400Y-82438400D01*
X100726400Y-73345200D02*
X101955600Y-74574400D01*
X101955600Y-74574400D02*
X101955600Y-78323600D01*
X99399400Y-73345200D02*
X100726400Y-73345200D01*
D22*
%TO.N,Net-(D3-K)*%
X107899200Y-86029000D02*
X107899200Y-77760600D01*
X107899200Y-77760600D02*
X106078400Y-75939800D01*
X103971400Y-89956800D02*
X107899200Y-86029000D01*
%TO.N,BATT*%
X79745000Y-70024000D02*
X78395000Y-71374000D01*
X102702600Y-70024000D02*
X79745000Y-70024000D01*
X106078400Y-73399800D02*
X102702600Y-70024000D01*
%TO.N,Net-(Q1-C)*%
X101553200Y-94200000D02*
X103971400Y-91781800D01*
X96520000Y-94200000D02*
X101553200Y-94200000D01*
D23*
%TO.N,3V3*%
X90538400Y-75239200D02*
X90538400Y-75250200D01*
%TO.N,/PA7*%
X61449200Y-73500000D02*
X61441600Y-73507600D01*
X67874000Y-73500000D02*
X61449200Y-73500000D01*
D22*
%TO.N,Net-(Q1-C)*%
X66440600Y-94200000D02*
X78200000Y-94200000D01*
%TO.N,BATT*%
X61467000Y-82513000D02*
X61467000Y-93217000D01*
X61467000Y-93217000D02*
X69850000Y-101600000D01*
X61468000Y-82512000D02*
X61467000Y-82513000D01*
%TO.N,Net-(D2-K)*%
X76600000Y-75709000D02*
X76600000Y-90200000D01*
X80935000Y-71374000D02*
X76600000Y-75709000D01*
D23*
%TO.N,/PA4*%
X99399400Y-83857200D02*
X99399400Y-80399200D01*
X99399400Y-80399200D02*
X99399400Y-76803200D01*
X99399400Y-87315200D02*
X99399400Y-83857200D01*
X99399400Y-76803200D02*
X99399400Y-73345200D01*
%TO.N,3V3*%
X97574400Y-73345200D02*
X93772900Y-73345200D01*
X91823400Y-73965200D02*
X93152900Y-73965200D01*
X72632000Y-73500000D02*
X73152000Y-74020000D01*
X93772900Y-73345200D02*
X93152900Y-73965200D01*
X85214000Y-76211000D02*
X85600000Y-75825000D01*
X90538400Y-88429200D02*
X90538400Y-75250200D01*
X82192600Y-76211000D02*
X85214000Y-76211000D01*
X69699000Y-73500000D02*
X72632000Y-73500000D01*
X90538400Y-75250200D02*
X91823400Y-73965200D01*
%TO.N,/PA3*%
X87425000Y-90050000D02*
X87425000Y-86556000D01*
X87425000Y-79350000D02*
X87425000Y-83000000D01*
X87425000Y-75825000D02*
X87425000Y-79350000D01*
D24*
X87440000Y-75810000D02*
X87425000Y-75825000D01*
D23*
X87425000Y-83000000D02*
X87425000Y-86556000D01*
D24*
X87440000Y-71378600D02*
X87440000Y-75810000D01*
D23*
%TO.N,/PA7*%
X67874000Y-73500000D02*
X67874000Y-77056000D01*
X67874000Y-77500000D02*
X67870000Y-77504000D01*
X67865000Y-83985000D02*
X67870000Y-83980000D01*
X67870000Y-83980000D02*
X67870000Y-80612000D01*
X67874000Y-77056000D02*
X67874000Y-77500000D01*
X67870000Y-77504000D02*
X67870000Y-80612000D01*
X67865000Y-87250000D02*
X67865000Y-83985000D01*
X67866400Y-73507600D02*
X67874000Y-73500000D01*
%TO.N,/PE8*%
X74900000Y-101570000D02*
X74930000Y-101600000D01*
%TO.N,/PE15*%
X92710000Y-101600000D02*
X92710000Y-97935000D01*
X92710000Y-97935000D02*
X92700000Y-97925000D01*
%TO.N,Net-(JP1-B)*%
X73152000Y-75320000D02*
X73152000Y-77830000D01*
X69699000Y-77056000D02*
X72378000Y-77056000D01*
X72378000Y-77056000D02*
X73152000Y-77830000D01*
%TO.N,Net-(JP2-B)*%
X72124000Y-80612000D02*
X73152000Y-81640000D01*
X73152000Y-79130000D02*
X73152000Y-81640000D01*
X69695000Y-80612000D02*
X72124000Y-80612000D01*
%TO.N,Net-(JP3-B)*%
X73152000Y-82940000D02*
X73152000Y-85450000D01*
X69695000Y-83980000D02*
X71682000Y-83980000D01*
X71682000Y-83980000D02*
X73152000Y-85450000D01*
%TO.N,Net-(JP4-B)*%
X72652000Y-87250000D02*
X69690000Y-87250000D01*
X73152000Y-86750000D02*
X72652000Y-87250000D01*
%TO.N,Net-(JP6-B)*%
X83053600Y-83000000D02*
X82192600Y-83861000D01*
X85600000Y-83000000D02*
X83053600Y-83000000D01*
X82192600Y-81351000D02*
X82192600Y-83861000D01*
%TO.N,Net-(JP7-B)*%
X83307600Y-86556000D02*
X82192600Y-87671000D01*
X82192600Y-85161000D02*
X82192600Y-87671000D01*
X85600000Y-86556000D02*
X83307600Y-86556000D01*
D22*
%TO.N,Net-(Q1-C)*%
X76600000Y-92600000D02*
X78200000Y-94200000D01*
X96520000Y-94200000D02*
X78600000Y-94200000D01*
X66440600Y-94200000D02*
X64464200Y-92223600D01*
X78600000Y-94200000D02*
X78200000Y-94200000D01*
X76600000Y-92025000D02*
X76600000Y-92600000D01*
D23*
%TO.N,Net-(Q1-B)*%
X92700000Y-96100000D02*
X96562500Y-96100000D01*
%TO.N,Net-(JP5-B)*%
X82893600Y-79350000D02*
X82192600Y-80051000D01*
X85600000Y-79350000D02*
X82893600Y-79350000D01*
X82192600Y-77511000D02*
X82192600Y-80051000D01*
%TO.N,Net-(JP8-B)*%
X83271600Y-90050000D02*
X82192600Y-88971000D01*
X85600000Y-90050000D02*
X83271600Y-90050000D01*
%TO.N,Net-(JP10-A)*%
X97574400Y-76803200D02*
X94012900Y-76803200D01*
X94012900Y-76803200D02*
X93152900Y-77663200D01*
X93152900Y-75265200D02*
X93152900Y-77663200D01*
%TO.N,Net-(JP10-B)*%
X97574400Y-80399200D02*
X94226900Y-80399200D01*
X94226900Y-80399200D02*
X93152900Y-81473200D01*
X93152900Y-78963200D02*
X93152900Y-81473200D01*
%TO.N,Net-(JP11-B)*%
X97574400Y-83857200D02*
X94578900Y-83857200D01*
X94578900Y-83857200D02*
X93152900Y-85283200D01*
X93152900Y-82773200D02*
X93152900Y-85283200D01*
%TO.N,Net-(JP12-B)*%
X97574400Y-87315200D02*
X93884900Y-87315200D01*
X93884900Y-87315200D02*
X93152900Y-86583200D01*
%TD*%
%TA.AperFunction,Conductor*%
%TO.N,GND*%
G36*
X83516511Y-70794185D02*
G01*
X83562266Y-70846989D01*
X83572210Y-70916147D01*
X83569678Y-70928940D01*
X83514361Y-71147381D01*
X83495202Y-71378594D01*
X83495202Y-71378605D01*
X83514361Y-71609818D01*
X83571317Y-71834735D01*
X83664515Y-72047206D01*
X83748812Y-72176232D01*
X84457861Y-71467183D01*
X84480667Y-71552294D01*
X84539910Y-71654906D01*
X84623694Y-71738690D01*
X84726306Y-71797933D01*
X84811414Y-71820738D01*
X84101201Y-72530951D01*
X84131649Y-72554650D01*
X84335697Y-72665076D01*
X84335706Y-72665079D01*
X84555139Y-72740411D01*
X84783993Y-72778600D01*
X85016007Y-72778600D01*
X85244860Y-72740411D01*
X85464293Y-72665079D01*
X85464301Y-72665076D01*
X85668355Y-72554647D01*
X85698797Y-72530951D01*
X85698798Y-72530950D01*
X84988585Y-71820737D01*
X85073694Y-71797933D01*
X85176306Y-71738690D01*
X85260090Y-71654906D01*
X85319333Y-71552294D01*
X85342138Y-71467184D01*
X86003181Y-72128227D01*
X86036666Y-72189550D01*
X86039500Y-72215907D01*
X86039500Y-72326469D01*
X86039501Y-72326476D01*
X86045908Y-72386083D01*
X86096202Y-72520928D01*
X86096206Y-72520935D01*
X86182452Y-72636144D01*
X86182455Y-72636147D01*
X86297664Y-72722393D01*
X86297671Y-72722397D01*
X86334942Y-72736298D01*
X86432517Y-72772691D01*
X86492127Y-72779100D01*
X86715500Y-72779099D01*
X86782539Y-72798783D01*
X86828294Y-72851587D01*
X86839500Y-72903099D01*
X86839500Y-74623239D01*
X86819815Y-74690278D01*
X86780597Y-74728777D01*
X86693847Y-74782285D01*
X86693843Y-74782288D01*
X86600181Y-74875951D01*
X86538858Y-74909436D01*
X86469166Y-74904452D01*
X86424819Y-74875951D01*
X86331157Y-74782289D01*
X86331156Y-74782288D01*
X86186818Y-74693260D01*
X86181836Y-74690187D01*
X86181831Y-74690185D01*
X86157891Y-74682252D01*
X86015297Y-74635001D01*
X86015295Y-74635000D01*
X85912510Y-74624500D01*
X85287498Y-74624500D01*
X85287480Y-74624501D01*
X85184703Y-74635000D01*
X85184700Y-74635001D01*
X85018168Y-74690185D01*
X85018163Y-74690187D01*
X84868842Y-74782289D01*
X84744789Y-74906342D01*
X84652687Y-75055663D01*
X84652685Y-75055668D01*
X84646229Y-75075151D01*
X84597501Y-75222203D01*
X84597501Y-75222204D01*
X84597500Y-75222204D01*
X84587000Y-75324983D01*
X84587000Y-75461500D01*
X84567315Y-75528539D01*
X84514511Y-75574294D01*
X84463000Y-75585500D01*
X83287694Y-75585500D01*
X83220655Y-75565815D01*
X83193982Y-75542704D01*
X83190547Y-75538740D01*
X83155391Y-75498168D01*
X83046735Y-75404018D01*
X83046732Y-75404015D01*
X83007791Y-75378990D01*
X82925694Y-75326230D01*
X82925687Y-75326227D01*
X82925681Y-75326223D01*
X82890588Y-75310197D01*
X82837784Y-75264442D01*
X82818100Y-75197403D01*
X82818100Y-74563319D01*
X82837106Y-74497347D01*
X82847997Y-74480014D01*
X82920189Y-74365122D01*
X82979768Y-74194855D01*
X82979769Y-74194849D01*
X82999965Y-74015603D01*
X82999965Y-74015596D01*
X82979769Y-73836350D01*
X82979768Y-73836345D01*
X82920188Y-73666076D01*
X82834924Y-73530380D01*
X82824216Y-73513338D01*
X82696662Y-73385784D01*
X82679205Y-73374815D01*
X82543923Y-73289811D01*
X82373654Y-73230231D01*
X82373649Y-73230230D01*
X82194404Y-73210035D01*
X82194396Y-73210035D01*
X82015150Y-73230230D01*
X82015145Y-73230231D01*
X81844876Y-73289811D01*
X81692137Y-73385784D01*
X81564584Y-73513337D01*
X81468611Y-73666076D01*
X81409031Y-73836345D01*
X81409030Y-73836350D01*
X81388835Y-74015596D01*
X81388835Y-74015603D01*
X81409030Y-74194849D01*
X81409031Y-74194854D01*
X81468611Y-74365123D01*
X81548094Y-74491618D01*
X81567100Y-74557590D01*
X81567100Y-75197403D01*
X81547415Y-75264442D01*
X81494612Y-75310197D01*
X81459518Y-75326223D01*
X81459508Y-75326228D01*
X81459506Y-75326230D01*
X81425853Y-75347857D01*
X81338467Y-75404015D01*
X81338463Y-75404018D01*
X81229826Y-75498152D01*
X81229807Y-75498169D01*
X81229806Y-75498171D01*
X81135585Y-75606909D01*
X81135583Y-75606911D01*
X81135583Y-75606912D01*
X81135581Y-75606915D01*
X81057855Y-75727857D01*
X81057852Y-75727863D01*
X80998083Y-75858741D01*
X80957577Y-75996691D01*
X80957574Y-75996703D01*
X80937100Y-76139110D01*
X80937100Y-76711002D01*
X80942244Y-76782939D01*
X80953203Y-76820262D01*
X80956963Y-76872841D01*
X80937100Y-77010998D01*
X80937100Y-77582889D01*
X80957574Y-77725296D01*
X80957576Y-77725304D01*
X80998083Y-77863259D01*
X81019922Y-77911080D01*
X81057852Y-77994136D01*
X81057853Y-77994138D01*
X81131976Y-78109476D01*
X81132796Y-78110917D01*
X81135588Y-78115098D01*
X81229807Y-78223830D01*
X81229810Y-78223833D01*
X81338464Y-78317981D01*
X81338467Y-78317984D01*
X81338469Y-78317985D01*
X81338470Y-78317986D01*
X81459506Y-78395770D01*
X81494610Y-78411801D01*
X81547415Y-78457556D01*
X81567100Y-78524595D01*
X81567100Y-79037403D01*
X81547415Y-79104442D01*
X81494612Y-79150197D01*
X81459518Y-79166223D01*
X81459508Y-79166228D01*
X81459506Y-79166230D01*
X81441976Y-79177496D01*
X81338467Y-79244015D01*
X81338463Y-79244018D01*
X81229826Y-79338152D01*
X81229807Y-79338169D01*
X81229806Y-79338171D01*
X81135585Y-79446909D01*
X81135583Y-79446911D01*
X81135583Y-79446912D01*
X81135581Y-79446915D01*
X81057855Y-79567857D01*
X81057852Y-79567863D01*
X80998083Y-79698741D01*
X80957577Y-79836691D01*
X80957574Y-79836703D01*
X80937100Y-79979110D01*
X80937100Y-80551002D01*
X80942244Y-80622939D01*
X80953203Y-80660262D01*
X80956963Y-80712841D01*
X80937100Y-80850998D01*
X80937100Y-81422889D01*
X80957574Y-81565296D01*
X80957577Y-81565308D01*
X80972676Y-81616730D01*
X80983828Y-81654712D01*
X80998083Y-81703258D01*
X81057852Y-81834136D01*
X81057853Y-81834138D01*
X81131976Y-81949476D01*
X81132796Y-81950917D01*
X81135588Y-81955098D01*
X81229807Y-82063830D01*
X81229810Y-82063833D01*
X81338464Y-82157981D01*
X81338467Y-82157984D01*
X81338469Y-82157985D01*
X81338470Y-82157986D01*
X81459506Y-82235770D01*
X81494610Y-82251801D01*
X81547415Y-82297556D01*
X81567100Y-82364595D01*
X81567100Y-82847403D01*
X81547415Y-82914442D01*
X81494612Y-82960197D01*
X81459518Y-82976223D01*
X81459508Y-82976228D01*
X81459506Y-82976230D01*
X81441976Y-82987496D01*
X81338467Y-83054015D01*
X81338463Y-83054018D01*
X81229826Y-83148152D01*
X81229807Y-83148169D01*
X81229806Y-83148171D01*
X81135585Y-83256909D01*
X81135583Y-83256911D01*
X81135583Y-83256912D01*
X81135581Y-83256915D01*
X81057855Y-83377857D01*
X81057852Y-83377863D01*
X80998083Y-83508741D01*
X80957577Y-83646691D01*
X80957574Y-83646703D01*
X80937100Y-83789110D01*
X80937100Y-84361002D01*
X80942244Y-84432939D01*
X80953203Y-84470262D01*
X80956963Y-84522841D01*
X80937100Y-84660998D01*
X80937100Y-85232889D01*
X80957574Y-85375296D01*
X80957576Y-85375304D01*
X80998083Y-85513259D01*
X80998097Y-85513289D01*
X81057852Y-85644136D01*
X81057853Y-85644138D01*
X81131976Y-85759476D01*
X81132796Y-85760917D01*
X81135588Y-85765098D01*
X81229807Y-85873830D01*
X81229810Y-85873833D01*
X81338464Y-85967981D01*
X81338467Y-85967984D01*
X81338469Y-85967985D01*
X81338470Y-85967986D01*
X81459506Y-86045770D01*
X81494610Y-86061801D01*
X81547415Y-86107556D01*
X81567100Y-86174595D01*
X81567100Y-86657403D01*
X81547415Y-86724442D01*
X81494612Y-86770197D01*
X81459518Y-86786223D01*
X81459508Y-86786228D01*
X81459506Y-86786230D01*
X81441976Y-86797496D01*
X81338467Y-86864015D01*
X81338463Y-86864018D01*
X81229826Y-86958152D01*
X81229807Y-86958169D01*
X81229806Y-86958171D01*
X81135585Y-87066909D01*
X81135583Y-87066911D01*
X81135583Y-87066912D01*
X81135581Y-87066915D01*
X81057855Y-87187857D01*
X81057852Y-87187863D01*
X80998083Y-87318741D01*
X80957577Y-87456691D01*
X80957574Y-87456703D01*
X80937100Y-87599110D01*
X80937100Y-88171002D01*
X80942244Y-88242939D01*
X80953203Y-88280262D01*
X80956963Y-88332841D01*
X80937100Y-88470998D01*
X80937100Y-89042889D01*
X80957574Y-89185296D01*
X80957575Y-89185300D01*
X80957576Y-89185304D01*
X80998083Y-89323259D01*
X81011214Y-89352011D01*
X81057852Y-89454136D01*
X81057853Y-89454138D01*
X81131976Y-89569476D01*
X81132796Y-89570917D01*
X81135588Y-89575098D01*
X81229807Y-89683830D01*
X81229810Y-89683833D01*
X81338464Y-89777981D01*
X81338467Y-89777984D01*
X81338469Y-89777985D01*
X81338470Y-89777986D01*
X81459506Y-89855770D01*
X81459514Y-89855774D01*
X81459523Y-89855779D01*
X81584242Y-89912736D01*
X81588541Y-89914985D01*
X81590292Y-89915499D01*
X81728344Y-89956035D01*
X81728345Y-89956035D01*
X81728348Y-89956036D01*
X81770783Y-89962136D01*
X81870659Y-89976497D01*
X81926999Y-89976497D01*
X81927009Y-89976500D01*
X81978364Y-89976500D01*
X82262147Y-89976500D01*
X82329186Y-89996185D01*
X82349828Y-90012819D01*
X82785741Y-90448732D01*
X82785742Y-90448733D01*
X82872867Y-90535858D01*
X82902256Y-90555495D01*
X82975314Y-90604311D01*
X83089148Y-90651463D01*
X83209988Y-90675499D01*
X83209992Y-90675500D01*
X83209993Y-90675500D01*
X83209994Y-90675500D01*
X84515483Y-90675500D01*
X84582522Y-90695185D01*
X84628277Y-90747989D01*
X84633186Y-90760489D01*
X84650885Y-90813899D01*
X84652686Y-90819333D01*
X84652687Y-90819336D01*
X84662576Y-90835368D01*
X84744788Y-90968656D01*
X84868844Y-91092712D01*
X85018166Y-91184814D01*
X85184703Y-91239999D01*
X85287491Y-91250500D01*
X85912508Y-91250499D01*
X85912516Y-91250498D01*
X85912519Y-91250498D01*
X85968802Y-91244748D01*
X86015297Y-91239999D01*
X86181834Y-91184814D01*
X86331156Y-91092712D01*
X86424819Y-90999049D01*
X86486142Y-90965564D01*
X86555834Y-90970548D01*
X86600181Y-90999049D01*
X86693844Y-91092712D01*
X86843166Y-91184814D01*
X87009703Y-91239999D01*
X87112491Y-91250500D01*
X87737508Y-91250499D01*
X87737516Y-91250498D01*
X87737519Y-91250498D01*
X87793802Y-91244748D01*
X87840297Y-91239999D01*
X88006834Y-91184814D01*
X88156156Y-91092712D01*
X88280212Y-90968656D01*
X88372314Y-90819334D01*
X88391811Y-90760493D01*
X88431584Y-90703051D01*
X88496100Y-90676228D01*
X88509517Y-90675500D01*
X91165145Y-90675500D01*
X91231117Y-90694506D01*
X91336137Y-90760495D01*
X91360478Y-90775789D01*
X91484928Y-90819336D01*
X91530745Y-90835368D01*
X91530750Y-90835369D01*
X91709996Y-90855565D01*
X91710000Y-90855565D01*
X91710004Y-90855565D01*
X91889249Y-90835369D01*
X91889252Y-90835368D01*
X91889255Y-90835368D01*
X92059522Y-90775789D01*
X92212262Y-90679816D01*
X92339816Y-90552262D01*
X92435789Y-90399522D01*
X92495368Y-90229255D01*
X92495369Y-90229249D01*
X92515565Y-90050003D01*
X92515565Y-90049996D01*
X92495369Y-89870750D01*
X92495368Y-89870745D01*
X92490127Y-89855768D01*
X92435789Y-89700478D01*
X92428694Y-89689187D01*
X92357007Y-89575098D01*
X92339816Y-89547738D01*
X92212262Y-89420184D01*
X92188883Y-89405494D01*
X92059523Y-89324211D01*
X91889254Y-89264631D01*
X91889249Y-89264630D01*
X91710004Y-89244435D01*
X91709996Y-89244435D01*
X91530750Y-89264630D01*
X91530745Y-89264631D01*
X91360476Y-89324211D01*
X91231117Y-89405494D01*
X91165145Y-89424500D01*
X90847517Y-89424500D01*
X90780478Y-89404815D01*
X90734723Y-89352011D01*
X90724779Y-89282853D01*
X90753804Y-89219297D01*
X90806563Y-89183458D01*
X90840833Y-89171465D01*
X90887922Y-89154989D01*
X91040662Y-89059016D01*
X91168216Y-88931462D01*
X91264189Y-88778722D01*
X91323768Y-88608455D01*
X91335402Y-88505198D01*
X91343965Y-88429203D01*
X91343965Y-88429196D01*
X91323769Y-88249950D01*
X91323768Y-88249945D01*
X91290480Y-88154814D01*
X91264189Y-88079678D01*
X91253527Y-88062710D01*
X91182906Y-87950317D01*
X91163900Y-87884345D01*
X91163900Y-75784054D01*
X91182907Y-75718081D01*
X91264189Y-75588722D01*
X91323768Y-75418455D01*
X91327675Y-75383772D01*
X91354739Y-75319361D01*
X91363204Y-75309984D01*
X91685720Y-74987469D01*
X91747042Y-74953985D01*
X91816734Y-74958969D01*
X91872667Y-75000841D01*
X91897084Y-75066305D01*
X91897400Y-75075151D01*
X91897400Y-75337089D01*
X91917874Y-75479496D01*
X91917877Y-75479508D01*
X91923357Y-75498171D01*
X91958383Y-75617459D01*
X91963319Y-75628267D01*
X92018152Y-75748336D01*
X92018153Y-75748338D01*
X92092276Y-75863676D01*
X92093096Y-75865117D01*
X92095888Y-75869298D01*
X92190107Y-75978030D01*
X92190110Y-75978033D01*
X92298764Y-76072181D01*
X92298767Y-76072184D01*
X92298769Y-76072185D01*
X92298770Y-76072186D01*
X92419806Y-76149970D01*
X92454910Y-76166001D01*
X92507715Y-76211756D01*
X92527400Y-76278795D01*
X92527400Y-76649603D01*
X92507715Y-76716642D01*
X92454912Y-76762397D01*
X92419818Y-76778423D01*
X92419808Y-76778428D01*
X92419806Y-76778430D01*
X92386153Y-76800057D01*
X92298767Y-76856215D01*
X92298763Y-76856218D01*
X92190126Y-76950352D01*
X92190107Y-76950369D01*
X92190106Y-76950371D01*
X92095885Y-77059109D01*
X92095883Y-77059111D01*
X92095883Y-77059112D01*
X92095881Y-77059115D01*
X92018155Y-77180057D01*
X92018152Y-77180063D01*
X91958383Y-77310941D01*
X91917877Y-77448891D01*
X91917874Y-77448903D01*
X91897400Y-77591310D01*
X91897400Y-78163202D01*
X91902544Y-78235139D01*
X91913503Y-78272462D01*
X91917263Y-78325041D01*
X91897400Y-78463198D01*
X91897400Y-79035089D01*
X91917874Y-79177496D01*
X91917876Y-79177504D01*
X91958383Y-79315459D01*
X91971556Y-79344304D01*
X92018152Y-79446336D01*
X92018153Y-79446338D01*
X92092276Y-79561676D01*
X92093096Y-79563117D01*
X92095888Y-79567298D01*
X92190107Y-79676030D01*
X92190110Y-79676033D01*
X92298764Y-79770181D01*
X92298767Y-79770184D01*
X92298769Y-79770185D01*
X92298770Y-79770186D01*
X92419806Y-79847970D01*
X92454910Y-79864001D01*
X92507715Y-79909756D01*
X92527400Y-79976795D01*
X92527400Y-80459603D01*
X92507715Y-80526642D01*
X92454912Y-80572397D01*
X92419818Y-80588423D01*
X92419808Y-80588428D01*
X92419806Y-80588430D01*
X92386153Y-80610057D01*
X92298767Y-80666215D01*
X92298763Y-80666218D01*
X92190126Y-80760352D01*
X92190107Y-80760369D01*
X92190106Y-80760371D01*
X92095885Y-80869109D01*
X92095883Y-80869111D01*
X92095883Y-80869112D01*
X92095881Y-80869115D01*
X92018155Y-80990057D01*
X92018152Y-80990063D01*
X91958383Y-81120941D01*
X91917877Y-81258891D01*
X91917874Y-81258903D01*
X91897400Y-81401310D01*
X91897400Y-81973202D01*
X91902544Y-82045139D01*
X91913503Y-82082462D01*
X91917263Y-82135041D01*
X91897400Y-82273198D01*
X91897400Y-82845089D01*
X91917874Y-82987496D01*
X91917876Y-82987504D01*
X91958383Y-83125459D01*
X91971556Y-83154304D01*
X92018152Y-83256336D01*
X92018153Y-83256338D01*
X92092276Y-83371676D01*
X92093096Y-83373117D01*
X92095888Y-83377298D01*
X92190107Y-83486030D01*
X92190110Y-83486033D01*
X92298764Y-83580181D01*
X92298767Y-83580184D01*
X92298769Y-83580185D01*
X92298770Y-83580186D01*
X92419806Y-83657970D01*
X92454910Y-83674001D01*
X92507715Y-83719756D01*
X92527400Y-83786795D01*
X92527400Y-84269603D01*
X92507715Y-84336642D01*
X92454912Y-84382397D01*
X92419818Y-84398423D01*
X92419808Y-84398428D01*
X92419806Y-84398430D01*
X92386153Y-84420057D01*
X92298767Y-84476215D01*
X92298763Y-84476218D01*
X92190126Y-84570352D01*
X92190107Y-84570369D01*
X92190106Y-84570371D01*
X92095885Y-84679109D01*
X92095883Y-84679111D01*
X92095883Y-84679112D01*
X92095881Y-84679115D01*
X92018155Y-84800057D01*
X92018152Y-84800063D01*
X91958383Y-84930941D01*
X91917877Y-85068891D01*
X91917874Y-85068903D01*
X91897400Y-85211310D01*
X91897400Y-85783202D01*
X91902544Y-85855139D01*
X91913503Y-85892462D01*
X91917263Y-85945041D01*
X91897400Y-86083198D01*
X91897400Y-86655089D01*
X91917874Y-86797496D01*
X91917876Y-86797504D01*
X91958383Y-86935459D01*
X91971556Y-86964304D01*
X92018152Y-87066336D01*
X92018153Y-87066338D01*
X92092276Y-87181676D01*
X92093096Y-87183117D01*
X92095888Y-87187298D01*
X92190107Y-87296030D01*
X92190110Y-87296033D01*
X92298764Y-87390181D01*
X92298767Y-87390184D01*
X92298769Y-87390185D01*
X92298770Y-87390186D01*
X92419806Y-87467970D01*
X92419814Y-87467974D01*
X92419823Y-87467979D01*
X92544542Y-87524936D01*
X92548841Y-87527185D01*
X92550592Y-87527699D01*
X92688644Y-87568235D01*
X92688645Y-87568235D01*
X92688648Y-87568236D01*
X92731083Y-87574336D01*
X92830959Y-87588697D01*
X92887299Y-87588697D01*
X92887309Y-87588700D01*
X92938664Y-87588700D01*
X93222447Y-87588700D01*
X93289486Y-87608385D01*
X93310128Y-87625019D01*
X93399041Y-87713932D01*
X93399042Y-87713933D01*
X93461507Y-87776398D01*
X93486168Y-87801059D01*
X93588607Y-87869507D01*
X93588616Y-87869512D01*
X93609639Y-87878220D01*
X93702448Y-87916663D01*
X93729585Y-87922060D01*
X93754064Y-87926930D01*
X93754084Y-87926933D01*
X93754106Y-87926938D01*
X93823291Y-87940699D01*
X93823292Y-87940700D01*
X93823293Y-87940700D01*
X93823294Y-87940700D01*
X96489883Y-87940700D01*
X96556922Y-87960385D01*
X96602677Y-88013189D01*
X96607586Y-88025689D01*
X96627086Y-88084534D01*
X96719188Y-88233856D01*
X96843244Y-88357912D01*
X96992566Y-88450014D01*
X97159103Y-88505199D01*
X97261891Y-88515700D01*
X97886908Y-88515699D01*
X97886916Y-88515698D01*
X97886919Y-88515698D01*
X97943202Y-88509948D01*
X97989697Y-88505199D01*
X98156234Y-88450014D01*
X98305556Y-88357912D01*
X98399219Y-88264249D01*
X98460542Y-88230764D01*
X98530234Y-88235748D01*
X98574581Y-88264249D01*
X98668244Y-88357912D01*
X98817566Y-88450014D01*
X98984103Y-88505199D01*
X99086891Y-88515700D01*
X99711908Y-88515699D01*
X99711916Y-88515698D01*
X99711919Y-88515698D01*
X99768202Y-88509948D01*
X99814697Y-88505199D01*
X99981234Y-88450014D01*
X100130556Y-88357912D01*
X100254612Y-88233856D01*
X100346714Y-88084534D01*
X100401899Y-87917997D01*
X100412400Y-87815209D01*
X100412399Y-86815192D01*
X100410591Y-86797496D01*
X100401899Y-86712403D01*
X100401898Y-86712400D01*
X100382907Y-86655089D01*
X100346714Y-86545866D01*
X100254612Y-86396544D01*
X100130556Y-86272488D01*
X100130555Y-86272487D01*
X100083802Y-86243649D01*
X100037078Y-86191700D01*
X100024900Y-86138111D01*
X100024900Y-85034287D01*
X100044585Y-84967248D01*
X100083802Y-84928748D01*
X100130556Y-84899912D01*
X100254612Y-84775856D01*
X100346714Y-84626534D01*
X100401899Y-84459997D01*
X100412400Y-84357209D01*
X100412399Y-83357192D01*
X100409828Y-83332028D01*
X100401899Y-83254403D01*
X100401898Y-83254400D01*
X100394135Y-83230972D01*
X100346714Y-83087866D01*
X100254612Y-82938544D01*
X100130556Y-82814488D01*
X100130555Y-82814487D01*
X100083802Y-82785649D01*
X100037078Y-82733700D01*
X100024900Y-82680111D01*
X100024900Y-81576287D01*
X100044585Y-81509248D01*
X100083802Y-81470748D01*
X100130556Y-81441912D01*
X100254612Y-81317856D01*
X100346714Y-81168534D01*
X100401899Y-81001997D01*
X100412400Y-80899209D01*
X100412399Y-79899192D01*
X100407166Y-79847968D01*
X100401899Y-79796403D01*
X100401898Y-79796400D01*
X100394135Y-79772972D01*
X100346714Y-79629866D01*
X100254612Y-79480544D01*
X100130556Y-79356488D01*
X100130555Y-79356487D01*
X100083802Y-79327649D01*
X100037078Y-79275700D01*
X100024900Y-79222111D01*
X100024900Y-77980287D01*
X100044585Y-77913248D01*
X100083802Y-77874748D01*
X100130556Y-77845912D01*
X100254612Y-77721856D01*
X100346714Y-77572534D01*
X100401899Y-77405997D01*
X100412400Y-77303209D01*
X100412399Y-76303192D01*
X100407364Y-76253906D01*
X100401899Y-76200403D01*
X100401898Y-76200400D01*
X100381003Y-76137344D01*
X100346714Y-76033866D01*
X100254612Y-75884544D01*
X100130556Y-75760488D01*
X100130555Y-75760487D01*
X100083802Y-75731649D01*
X100037078Y-75679700D01*
X100024900Y-75626111D01*
X100024900Y-74522287D01*
X100044585Y-74455248D01*
X100083802Y-74416748D01*
X100130556Y-74387912D01*
X100254612Y-74263856D01*
X100346714Y-74114534D01*
X100349293Y-74106749D01*
X100389060Y-74049306D01*
X100453575Y-74022480D01*
X100522351Y-74034791D01*
X100554680Y-74058070D01*
X101293781Y-74797171D01*
X101327266Y-74858494D01*
X101330100Y-74884852D01*
X101330100Y-78385206D01*
X101352615Y-78498400D01*
X101354138Y-78506055D01*
X101354139Y-78506059D01*
X101358463Y-78516498D01*
X101358465Y-78516500D01*
X101401288Y-78619886D01*
X101414397Y-78639505D01*
X101435514Y-78671107D01*
X101435515Y-78671109D01*
X101469741Y-78722333D01*
X101561186Y-78813778D01*
X101561208Y-78813798D01*
X104633581Y-81886171D01*
X104667066Y-81947494D01*
X104669900Y-81973852D01*
X104669900Y-83386270D01*
X104669901Y-83386276D01*
X104676308Y-83445883D01*
X104726602Y-83580728D01*
X104726606Y-83580735D01*
X104812852Y-83695944D01*
X104812855Y-83695947D01*
X104928064Y-83782193D01*
X104928071Y-83782197D01*
X105062917Y-83832491D01*
X105062916Y-83832491D01*
X105069844Y-83833235D01*
X105122527Y-83838900D01*
X107018272Y-83838899D01*
X107021592Y-83838899D01*
X107021592Y-83839748D01*
X107086046Y-83854970D01*
X107134568Y-83905243D01*
X107148700Y-83962732D01*
X107148700Y-85666769D01*
X107129015Y-85733808D01*
X107112381Y-85754450D01*
X103959349Y-88907481D01*
X103898026Y-88940966D01*
X103871668Y-88943800D01*
X103471398Y-88943800D01*
X103471380Y-88943801D01*
X103368603Y-88954300D01*
X103368600Y-88954301D01*
X103202068Y-89009485D01*
X103202063Y-89009487D01*
X103052742Y-89101589D01*
X102928689Y-89225642D01*
X102836587Y-89374963D01*
X102836585Y-89374968D01*
X102826695Y-89404815D01*
X102781401Y-89541503D01*
X102781401Y-89541504D01*
X102781400Y-89541504D01*
X102770900Y-89644283D01*
X102770900Y-90269301D01*
X102770901Y-90269319D01*
X102781400Y-90372096D01*
X102781401Y-90372099D01*
X102807499Y-90450855D01*
X102836586Y-90538634D01*
X102923667Y-90679816D01*
X102928689Y-90687957D01*
X103022351Y-90781619D01*
X103055836Y-90842942D01*
X103050852Y-90912634D01*
X103022351Y-90956981D01*
X102928689Y-91050642D01*
X102836587Y-91199963D01*
X102836585Y-91199968D01*
X102828814Y-91223419D01*
X102781401Y-91366503D01*
X102781401Y-91366504D01*
X102781400Y-91366504D01*
X102770900Y-91469283D01*
X102770900Y-91869569D01*
X102751215Y-91936608D01*
X102734581Y-91957250D01*
X101278651Y-93413181D01*
X101217328Y-93446666D01*
X101190970Y-93449500D01*
X97314828Y-93449500D01*
X97280233Y-93444576D01*
X97135073Y-93402402D01*
X97135067Y-93402401D01*
X97098201Y-93399500D01*
X97098194Y-93399500D01*
X95941806Y-93399500D01*
X95941798Y-93399500D01*
X95904932Y-93402401D01*
X95904926Y-93402402D01*
X95759767Y-93444576D01*
X95725172Y-93449500D01*
X78562230Y-93449500D01*
X78495191Y-93429815D01*
X78474549Y-93413181D01*
X77772317Y-92710949D01*
X77738832Y-92649626D01*
X77742291Y-92584267D01*
X77789999Y-92440297D01*
X77800500Y-92337509D01*
X77800499Y-91712492D01*
X77793274Y-91641768D01*
X77789999Y-91609703D01*
X77789998Y-91609700D01*
X77743471Y-91469292D01*
X77734814Y-91443166D01*
X77642712Y-91293844D01*
X77549049Y-91200181D01*
X77515564Y-91138858D01*
X77520548Y-91069166D01*
X77549049Y-91024819D01*
X77593437Y-90980431D01*
X77642712Y-90931156D01*
X77734814Y-90781834D01*
X77789999Y-90615297D01*
X77800500Y-90512509D01*
X77800499Y-89887492D01*
X77797259Y-89855779D01*
X77789999Y-89784703D01*
X77789998Y-89784700D01*
X77787772Y-89777981D01*
X77734814Y-89618166D01*
X77642712Y-89468844D01*
X77518656Y-89344788D01*
X77409402Y-89277400D01*
X77362679Y-89225453D01*
X77350500Y-89171862D01*
X77350500Y-76071229D01*
X77370185Y-76004190D01*
X77386814Y-75983553D01*
X80559549Y-72810817D01*
X80620872Y-72777333D01*
X80647230Y-72774499D01*
X81882871Y-72774499D01*
X81882872Y-72774499D01*
X81942483Y-72768091D01*
X82077331Y-72717796D01*
X82192546Y-72631546D01*
X82278796Y-72516331D01*
X82329091Y-72381483D01*
X82335500Y-72321873D01*
X82335499Y-70898499D01*
X82355184Y-70831461D01*
X82407987Y-70785706D01*
X82459499Y-70774500D01*
X83449472Y-70774500D01*
X83516511Y-70794185D01*
G37*
%TD.AperFunction*%
%TA.AperFunction,Conductor*%
G36*
X102407409Y-70794185D02*
G01*
X102428051Y-70810819D01*
X104661330Y-73044097D01*
X104694815Y-73105420D01*
X104693856Y-73162212D01*
X104692266Y-73168491D01*
X104692265Y-73168495D01*
X104673100Y-73399793D01*
X104673100Y-73399806D01*
X104692264Y-73631097D01*
X104692266Y-73631108D01*
X104749242Y-73856100D01*
X104842475Y-74068648D01*
X104969416Y-74262947D01*
X104969419Y-74262951D01*
X104969421Y-74262953D01*
X105064203Y-74365914D01*
X105095124Y-74428567D01*
X105087264Y-74497993D01*
X105043116Y-74552148D01*
X105016306Y-74566077D01*
X104936069Y-74596003D01*
X104936064Y-74596006D01*
X104820855Y-74682252D01*
X104820852Y-74682255D01*
X104734606Y-74797464D01*
X104734602Y-74797471D01*
X104684308Y-74932317D01*
X104681979Y-74953985D01*
X104677901Y-74991923D01*
X104677900Y-74991935D01*
X104677900Y-76887670D01*
X104677901Y-76887676D01*
X104684308Y-76947283D01*
X104734602Y-77082128D01*
X104734606Y-77082135D01*
X104820852Y-77197344D01*
X104820855Y-77197347D01*
X104936064Y-77283593D01*
X104936071Y-77283597D01*
X105070917Y-77333891D01*
X105070916Y-77333891D01*
X105077844Y-77334635D01*
X105130527Y-77340300D01*
X106366169Y-77340299D01*
X106433208Y-77359984D01*
X106453850Y-77376618D01*
X107112381Y-78035149D01*
X107145866Y-78096472D01*
X107148700Y-78122830D01*
X107148700Y-78709946D01*
X107129015Y-78776985D01*
X107076211Y-78822740D01*
X107007053Y-78832684D01*
X106948538Y-78807800D01*
X106838749Y-78722348D01*
X106634702Y-78611923D01*
X106634693Y-78611920D01*
X106415260Y-78536588D01*
X106186407Y-78498400D01*
X105954393Y-78498400D01*
X105725539Y-78536588D01*
X105506106Y-78611920D01*
X105506097Y-78611923D01*
X105302050Y-78722349D01*
X105271600Y-78746047D01*
X105981814Y-79456261D01*
X105896706Y-79479067D01*
X105794094Y-79538310D01*
X105710310Y-79622094D01*
X105651067Y-79724706D01*
X105628261Y-79809815D01*
X104919211Y-79100765D01*
X104834916Y-79229790D01*
X104741717Y-79442264D01*
X104684761Y-79667181D01*
X104668516Y-79863228D01*
X104643363Y-79928413D01*
X104586961Y-79969651D01*
X104517217Y-79973849D01*
X104457259Y-79940669D01*
X102617419Y-78100829D01*
X102583934Y-78039506D01*
X102581100Y-78013148D01*
X102581100Y-74512798D01*
X102581100Y-74512794D01*
X102579721Y-74505864D01*
X102579722Y-74505857D01*
X102579720Y-74505858D01*
X102565355Y-74433635D01*
X102565355Y-74433634D01*
X102557064Y-74391953D01*
X102557063Y-74391952D01*
X102557063Y-74391948D01*
X102509911Y-74278114D01*
X102509910Y-74278113D01*
X102509907Y-74278107D01*
X102441458Y-74175667D01*
X102441455Y-74175663D01*
X102351237Y-74085445D01*
X102351206Y-74085416D01*
X101216598Y-72950808D01*
X101216578Y-72950786D01*
X101125133Y-72859341D01*
X101073909Y-72825115D01*
X101022686Y-72790888D01*
X101022683Y-72790886D01*
X101022680Y-72790885D01*
X100942192Y-72757547D01*
X100908852Y-72743737D01*
X100908853Y-72743737D01*
X100895782Y-72741137D01*
X100843138Y-72730666D01*
X100815572Y-72725183D01*
X100788008Y-72719700D01*
X100788007Y-72719700D01*
X100788006Y-72719700D01*
X100483917Y-72719700D01*
X100416878Y-72700015D01*
X100371123Y-72647211D01*
X100366211Y-72634705D01*
X100365165Y-72631547D01*
X100346714Y-72575866D01*
X100254612Y-72426544D01*
X100130556Y-72302488D01*
X100037788Y-72245269D01*
X99981236Y-72210387D01*
X99981231Y-72210385D01*
X99979762Y-72209898D01*
X99814697Y-72155201D01*
X99814695Y-72155200D01*
X99711910Y-72144700D01*
X99086898Y-72144700D01*
X99086880Y-72144701D01*
X98984103Y-72155200D01*
X98984100Y-72155201D01*
X98817568Y-72210385D01*
X98817563Y-72210387D01*
X98668242Y-72302489D01*
X98574581Y-72396151D01*
X98513258Y-72429636D01*
X98443566Y-72424652D01*
X98399219Y-72396151D01*
X98305557Y-72302489D01*
X98305556Y-72302488D01*
X98212788Y-72245269D01*
X98156236Y-72210387D01*
X98156231Y-72210385D01*
X98154762Y-72209898D01*
X97989697Y-72155201D01*
X97989695Y-72155200D01*
X97886910Y-72144700D01*
X97261898Y-72144700D01*
X97261880Y-72144701D01*
X97159103Y-72155200D01*
X97159100Y-72155201D01*
X96992568Y-72210385D01*
X96992563Y-72210387D01*
X96843242Y-72302489D01*
X96719189Y-72426542D01*
X96627087Y-72575863D01*
X96627086Y-72575866D01*
X96608636Y-72631546D01*
X96607589Y-72634705D01*
X96567816Y-72692149D01*
X96503300Y-72718972D01*
X96489883Y-72719700D01*
X93711288Y-72719700D01*
X93597158Y-72742401D01*
X93597159Y-72742402D01*
X93590452Y-72743736D01*
X93590449Y-72743736D01*
X93590448Y-72743737D01*
X93590446Y-72743737D01*
X93590445Y-72743738D01*
X93476616Y-72790887D01*
X93395346Y-72845191D01*
X93395345Y-72845192D01*
X93374165Y-72859343D01*
X93346991Y-72886518D01*
X93310126Y-72923382D01*
X93248806Y-72956866D01*
X93222447Y-72959700D01*
X92887327Y-72959700D01*
X92887299Y-72959703D01*
X92830959Y-72959703D01*
X92697421Y-72978903D01*
X92697419Y-72978903D01*
X92688644Y-72980164D01*
X92550586Y-73020703D01*
X92419818Y-73080423D01*
X92419808Y-73080428D01*
X92419806Y-73080430D01*
X92398818Y-73093918D01*
X92298767Y-73158215D01*
X92298763Y-73158218D01*
X92190126Y-73252352D01*
X92190107Y-73252369D01*
X92190106Y-73252371D01*
X92151519Y-73296903D01*
X92092743Y-73334677D01*
X92057807Y-73339700D01*
X91761788Y-73339700D01*
X91654180Y-73361105D01*
X91649747Y-73361986D01*
X91640949Y-73363736D01*
X91640947Y-73363737D01*
X91527116Y-73410887D01*
X91429198Y-73476315D01*
X91429196Y-73476316D01*
X91424669Y-73479340D01*
X91424664Y-73479344D01*
X90492416Y-74411591D01*
X90431093Y-74445076D01*
X90418621Y-74447130D01*
X90359145Y-74453832D01*
X90188878Y-74513410D01*
X90036137Y-74609384D01*
X89908584Y-74736937D01*
X89812611Y-74889676D01*
X89753031Y-75059945D01*
X89753030Y-75059950D01*
X89732835Y-75239196D01*
X89732835Y-75239203D01*
X89753030Y-75418449D01*
X89753031Y-75418454D01*
X89812611Y-75588724D01*
X89893893Y-75718081D01*
X89912900Y-75784054D01*
X89912900Y-87884345D01*
X89893894Y-87950317D01*
X89812611Y-88079676D01*
X89753031Y-88249945D01*
X89753030Y-88249950D01*
X89732835Y-88429196D01*
X89732835Y-88429203D01*
X89753030Y-88608449D01*
X89753031Y-88608454D01*
X89812611Y-88778723D01*
X89857084Y-88849501D01*
X89908584Y-88931462D01*
X90036138Y-89059016D01*
X90148236Y-89129452D01*
X90188878Y-89154989D01*
X90270237Y-89183458D01*
X90327014Y-89224180D01*
X90352761Y-89289133D01*
X90339305Y-89357694D01*
X90290918Y-89408097D01*
X90229283Y-89424500D01*
X88509517Y-89424500D01*
X88442478Y-89404815D01*
X88396723Y-89352011D01*
X88391811Y-89339505D01*
X88386743Y-89324211D01*
X88372314Y-89280666D01*
X88280212Y-89131344D01*
X88156156Y-89007288D01*
X88156155Y-89007287D01*
X88109402Y-88978449D01*
X88062678Y-88926500D01*
X88050500Y-88872911D01*
X88050500Y-87733087D01*
X88070185Y-87666048D01*
X88109402Y-87627548D01*
X88156156Y-87598712D01*
X88280212Y-87474656D01*
X88372314Y-87325334D01*
X88427499Y-87158797D01*
X88438000Y-87056009D01*
X88437999Y-86055992D01*
X88434520Y-86021939D01*
X88427499Y-85953203D01*
X88427498Y-85953200D01*
X88419048Y-85927700D01*
X88372314Y-85786666D01*
X88280212Y-85637344D01*
X88156156Y-85513288D01*
X88156155Y-85513287D01*
X88109402Y-85484449D01*
X88062678Y-85432500D01*
X88050500Y-85378911D01*
X88050500Y-84177087D01*
X88070185Y-84110048D01*
X88109402Y-84071548D01*
X88156156Y-84042712D01*
X88280212Y-83918656D01*
X88372314Y-83769334D01*
X88427499Y-83602797D01*
X88438000Y-83500009D01*
X88437999Y-82499992D01*
X88437058Y-82490784D01*
X88427499Y-82397203D01*
X88427498Y-82397200D01*
X88417842Y-82368060D01*
X88372314Y-82230666D01*
X88280212Y-82081344D01*
X88156156Y-81957288D01*
X88156155Y-81957287D01*
X88109402Y-81928449D01*
X88062678Y-81876500D01*
X88050500Y-81822911D01*
X88050500Y-80527087D01*
X88070185Y-80460048D01*
X88109402Y-80421548D01*
X88156156Y-80392712D01*
X88280212Y-80268656D01*
X88372314Y-80119334D01*
X88427499Y-79952797D01*
X88438000Y-79850009D01*
X88437999Y-78849992D01*
X88435922Y-78829664D01*
X88427499Y-78747203D01*
X88427498Y-78747200D01*
X88415153Y-78709946D01*
X88372314Y-78580666D01*
X88280212Y-78431344D01*
X88156156Y-78307288D01*
X88156155Y-78307287D01*
X88109402Y-78278449D01*
X88062678Y-78226500D01*
X88050500Y-78172911D01*
X88050500Y-77002087D01*
X88070185Y-76935048D01*
X88109402Y-76896548D01*
X88156156Y-76867712D01*
X88280212Y-76743656D01*
X88372314Y-76594334D01*
X88427499Y-76427797D01*
X88438000Y-76325009D01*
X88437999Y-75324992D01*
X88427499Y-75222203D01*
X88372314Y-75055666D01*
X88280212Y-74906344D01*
X88156156Y-74782288D01*
X88156155Y-74782287D01*
X88099402Y-74747281D01*
X88052678Y-74695333D01*
X88040500Y-74641743D01*
X88040500Y-72903099D01*
X88060185Y-72836060D01*
X88112989Y-72790305D01*
X88164500Y-72779099D01*
X88387871Y-72779099D01*
X88387872Y-72779099D01*
X88447483Y-72772691D01*
X88582331Y-72722396D01*
X88697546Y-72636146D01*
X88783796Y-72520931D01*
X88834091Y-72386083D01*
X88840500Y-72326473D01*
X88840499Y-70898499D01*
X88860184Y-70831461D01*
X88912987Y-70785706D01*
X88964499Y-70774500D01*
X102340370Y-70774500D01*
X102407409Y-70794185D01*
G37*
%TD.AperFunction*%
%TA.AperFunction,Conductor*%
G36*
X115686339Y-68952785D02*
G01*
X115732094Y-69005589D01*
X115743300Y-69057100D01*
X115743300Y-107808100D01*
X115723615Y-107875139D01*
X115670811Y-107920894D01*
X115619300Y-107932100D01*
X51868300Y-107932100D01*
X51801261Y-107912415D01*
X51755506Y-107859611D01*
X51744300Y-107808100D01*
X51744300Y-76047605D01*
X60036802Y-76047605D01*
X60055961Y-76278818D01*
X60112917Y-76503735D01*
X60206115Y-76716206D01*
X60290412Y-76845233D01*
X60999461Y-76136184D01*
X61022267Y-76221294D01*
X61081510Y-76323906D01*
X61165294Y-76407690D01*
X61267906Y-76466933D01*
X61353014Y-76489738D01*
X60642801Y-77199951D01*
X60673249Y-77223650D01*
X60877297Y-77334076D01*
X60877306Y-77334079D01*
X61096739Y-77409411D01*
X61325593Y-77447600D01*
X61557607Y-77447600D01*
X61786460Y-77409411D01*
X62005893Y-77334079D01*
X62005901Y-77334076D01*
X62209955Y-77223647D01*
X62240397Y-77199951D01*
X62240398Y-77199950D01*
X61530185Y-76489737D01*
X61615294Y-76466933D01*
X61717906Y-76407690D01*
X61801690Y-76323906D01*
X61860933Y-76221294D01*
X61883738Y-76136185D01*
X62592786Y-76845233D01*
X62677082Y-76716211D01*
X62770282Y-76503735D01*
X62827238Y-76278818D01*
X62846398Y-76047605D01*
X62846398Y-76047594D01*
X62827238Y-75816381D01*
X62770282Y-75591464D01*
X62677084Y-75378993D01*
X62592786Y-75249965D01*
X61883737Y-75959014D01*
X61860933Y-75873906D01*
X61801690Y-75771294D01*
X61717906Y-75687510D01*
X61615294Y-75628267D01*
X61530184Y-75605461D01*
X62191227Y-74944418D01*
X62252550Y-74910933D01*
X62278907Y-74908099D01*
X62389472Y-74908099D01*
X62449083Y-74901691D01*
X62583931Y-74851396D01*
X62699146Y-74765146D01*
X62785396Y-74649931D01*
X62835691Y-74515083D01*
X62842100Y-74455473D01*
X62842100Y-74249500D01*
X62861785Y-74182461D01*
X62914589Y-74136706D01*
X62966100Y-74125500D01*
X66789483Y-74125500D01*
X66856522Y-74145185D01*
X66902277Y-74197989D01*
X66907186Y-74210489D01*
X66924570Y-74262947D01*
X66926686Y-74269333D01*
X66926687Y-74269336D01*
X66961499Y-74325776D01*
X67018788Y-74418656D01*
X67142844Y-74542712D01*
X67189596Y-74571548D01*
X67236320Y-74623494D01*
X67248500Y-74677087D01*
X67248500Y-75878911D01*
X67228815Y-75945950D01*
X67189598Y-75984449D01*
X67142844Y-76013287D01*
X67018789Y-76137342D01*
X66926687Y-76286663D01*
X66926686Y-76286666D01*
X66871501Y-76453203D01*
X66871501Y-76453204D01*
X66871500Y-76453204D01*
X66861000Y-76555983D01*
X66861000Y-77556001D01*
X66861001Y-77556019D01*
X66871500Y-77658796D01*
X66871501Y-77658799D01*
X66926685Y-77825331D01*
X66926687Y-77825336D01*
X66950078Y-77863259D01*
X67018788Y-77974656D01*
X67142844Y-78098712D01*
X67185596Y-78125081D01*
X67232320Y-78177027D01*
X67244500Y-78230620D01*
X67244500Y-79434911D01*
X67224815Y-79501950D01*
X67185598Y-79540449D01*
X67138844Y-79569287D01*
X67014789Y-79693342D01*
X66922687Y-79842663D01*
X66922685Y-79842668D01*
X66899266Y-79913343D01*
X66867501Y-80009203D01*
X66867501Y-80009204D01*
X66867500Y-80009204D01*
X66857000Y-80111983D01*
X66857000Y-81112001D01*
X66857001Y-81112019D01*
X66867500Y-81214796D01*
X66867501Y-81214799D01*
X66922685Y-81381331D01*
X66922687Y-81381336D01*
X66950053Y-81425703D01*
X67014788Y-81530656D01*
X67138844Y-81654712D01*
X67185596Y-81683548D01*
X67232320Y-81735494D01*
X67244500Y-81789087D01*
X67244500Y-82802911D01*
X67224815Y-82869950D01*
X67185598Y-82908449D01*
X67138844Y-82937287D01*
X67014789Y-83061342D01*
X66922687Y-83210663D01*
X66922685Y-83210668D01*
X66903189Y-83269505D01*
X66867501Y-83377203D01*
X66867501Y-83377204D01*
X66867500Y-83377204D01*
X66857000Y-83479983D01*
X66857000Y-84480001D01*
X66857001Y-84480019D01*
X66867500Y-84582796D01*
X66867501Y-84582799D01*
X66918654Y-84737166D01*
X66922686Y-84749334D01*
X67014788Y-84898656D01*
X67138844Y-85022712D01*
X67180596Y-85048464D01*
X67227320Y-85100410D01*
X67239500Y-85154003D01*
X67239500Y-85810221D01*
X67219815Y-85877260D01*
X67180597Y-85915760D01*
X67080842Y-85977289D01*
X66956789Y-86101342D01*
X66864687Y-86250663D01*
X66864685Y-86250668D01*
X66836849Y-86334670D01*
X66809501Y-86417203D01*
X66809501Y-86417204D01*
X66809500Y-86417204D01*
X66799000Y-86519983D01*
X66799000Y-87520001D01*
X66799001Y-87520019D01*
X66809500Y-87622796D01*
X66809501Y-87622799D01*
X66853806Y-87756500D01*
X66864686Y-87789334D01*
X66956788Y-87938656D01*
X67080844Y-88062712D01*
X67152596Y-88106968D01*
X67199321Y-88158915D01*
X67211500Y-88212507D01*
X67211500Y-88249330D01*
X67211499Y-88249348D01*
X67211499Y-88256943D01*
X67211499Y-88415057D01*
X67213274Y-88421683D01*
X67217500Y-88453776D01*
X67217500Y-89689187D01*
X67197815Y-89756226D01*
X67190450Y-89766496D01*
X67188186Y-89769334D01*
X67092211Y-89922076D01*
X67032631Y-90092345D01*
X67032630Y-90092350D01*
X67012435Y-90271596D01*
X67012435Y-90271603D01*
X67032630Y-90450849D01*
X67032631Y-90450854D01*
X67092211Y-90621123D01*
X67148758Y-90711116D01*
X67188184Y-90773862D01*
X67315738Y-90901416D01*
X67404169Y-90956981D01*
X67441489Y-90980431D01*
X67468478Y-90997389D01*
X67620666Y-91050642D01*
X67638745Y-91056968D01*
X67638750Y-91056969D01*
X67817996Y-91077165D01*
X67818000Y-91077165D01*
X67818004Y-91077165D01*
X67997249Y-91056969D01*
X67997252Y-91056968D01*
X67997255Y-91056968D01*
X68167522Y-90997389D01*
X68320262Y-90901416D01*
X68447816Y-90773862D01*
X68543789Y-90621122D01*
X68603368Y-90450855D01*
X68603607Y-90448733D01*
X68623565Y-90271603D01*
X68623565Y-90271596D01*
X68603369Y-90092350D01*
X68603368Y-90092345D01*
X68565213Y-89983304D01*
X68543789Y-89922078D01*
X68522051Y-89887483D01*
X68510456Y-89869029D01*
X68447816Y-89769338D01*
X68447814Y-89769336D01*
X68447813Y-89769334D01*
X68445550Y-89766496D01*
X68444659Y-89764315D01*
X68444111Y-89763442D01*
X68444264Y-89763345D01*
X68419144Y-89701809D01*
X68418500Y-89689187D01*
X68418500Y-88262944D01*
X68416891Y-88256937D01*
X68416891Y-88256935D01*
X68416722Y-88256304D01*
X68412500Y-88224224D01*
X68412500Y-88212507D01*
X68432185Y-88145468D01*
X68471403Y-88106968D01*
X68543156Y-88062712D01*
X68636819Y-87969049D01*
X68698142Y-87935564D01*
X68767834Y-87940548D01*
X68812181Y-87969049D01*
X68905844Y-88062712D01*
X69055166Y-88154814D01*
X69221703Y-88209999D01*
X69324491Y-88220500D01*
X69949508Y-88220499D01*
X69949516Y-88220498D01*
X69949519Y-88220498D01*
X70027745Y-88212507D01*
X70052297Y-88209999D01*
X70218834Y-88154814D01*
X70368156Y-88062712D01*
X70492212Y-87938656D01*
X70494836Y-87934402D01*
X70546785Y-87887678D01*
X70600374Y-87875500D01*
X72713607Y-87875500D01*
X72774029Y-87863481D01*
X72834452Y-87851463D01*
X72834455Y-87851461D01*
X72834458Y-87851461D01*
X72867787Y-87837654D01*
X72867786Y-87837654D01*
X72867792Y-87837652D01*
X72948286Y-87804312D01*
X72990061Y-87776397D01*
X73056738Y-87755520D01*
X73058952Y-87755500D01*
X73417573Y-87755500D01*
X73417601Y-87755497D01*
X73473940Y-87755497D01*
X73473941Y-87755497D01*
X73607479Y-87736297D01*
X73607481Y-87736297D01*
X73613612Y-87735415D01*
X73616256Y-87735035D01*
X73616257Y-87735035D01*
X73754309Y-87694498D01*
X73885094Y-87634770D01*
X74006130Y-87556986D01*
X74114791Y-87462832D01*
X74114794Y-87462829D01*
X74209015Y-87354091D01*
X74286747Y-87233137D01*
X74346517Y-87102259D01*
X74387024Y-86964304D01*
X74407500Y-86821889D01*
X74407500Y-86250000D01*
X74402355Y-86178060D01*
X74396250Y-86157270D01*
X74391397Y-86140741D01*
X74387636Y-86088158D01*
X74390226Y-86070142D01*
X74407500Y-85950000D01*
X74407500Y-85378111D01*
X74387024Y-85235696D01*
X74346517Y-85097741D01*
X74286747Y-84966863D01*
X74263661Y-84930941D01*
X74212623Y-84851523D01*
X74211802Y-84850081D01*
X74209011Y-84845901D01*
X74114792Y-84737169D01*
X74114789Y-84737166D01*
X74006135Y-84643018D01*
X74006132Y-84643015D01*
X73947756Y-84605500D01*
X73885094Y-84565230D01*
X73885087Y-84565227D01*
X73885081Y-84565223D01*
X73849988Y-84549197D01*
X73797184Y-84503442D01*
X73777500Y-84436403D01*
X73777500Y-83953596D01*
X73797185Y-83886557D01*
X73849989Y-83840802D01*
X73849989Y-83840801D01*
X73885094Y-83824770D01*
X74006130Y-83746986D01*
X74114791Y-83652832D01*
X74114794Y-83652829D01*
X74209015Y-83544091D01*
X74286747Y-83423137D01*
X74346517Y-83292259D01*
X74387024Y-83154304D01*
X74407500Y-83011889D01*
X74407500Y-82440000D01*
X74402355Y-82368060D01*
X74391396Y-82330740D01*
X74387636Y-82278158D01*
X74388349Y-82273197D01*
X74407500Y-82140000D01*
X74407500Y-81568111D01*
X74387024Y-81425696D01*
X74346517Y-81287741D01*
X74286747Y-81156863D01*
X74285156Y-81154388D01*
X74212623Y-81041523D01*
X74211802Y-81040081D01*
X74209011Y-81035901D01*
X74114792Y-80927169D01*
X74114789Y-80927166D01*
X74006135Y-80833018D01*
X74006132Y-80833015D01*
X73979264Y-80815749D01*
X73885094Y-80755230D01*
X73885087Y-80755227D01*
X73885081Y-80755223D01*
X73849988Y-80739197D01*
X73797184Y-80693442D01*
X73777500Y-80626403D01*
X73777500Y-80143596D01*
X73797185Y-80076557D01*
X73849989Y-80030802D01*
X73849989Y-80030801D01*
X73885094Y-80014770D01*
X74006130Y-79936986D01*
X74114791Y-79842832D01*
X74114794Y-79842829D01*
X74209015Y-79734091D01*
X74286747Y-79613137D01*
X74346517Y-79482259D01*
X74387024Y-79344304D01*
X74407500Y-79201889D01*
X74407500Y-78630000D01*
X74402355Y-78558060D01*
X74391396Y-78520740D01*
X74387636Y-78468158D01*
X74389160Y-78457557D01*
X74407500Y-78330000D01*
X74407500Y-77758111D01*
X74387024Y-77615696D01*
X74346517Y-77477741D01*
X74286747Y-77346863D01*
X74282529Y-77340300D01*
X74212623Y-77231523D01*
X74211802Y-77230081D01*
X74209011Y-77225901D01*
X74114792Y-77117169D01*
X74114789Y-77117166D01*
X74006135Y-77023018D01*
X74006132Y-77023015D01*
X73973566Y-77002087D01*
X73885094Y-76945230D01*
X73885087Y-76945227D01*
X73885081Y-76945223D01*
X73849988Y-76929197D01*
X73797184Y-76883442D01*
X73777500Y-76816403D01*
X73777500Y-76333596D01*
X73797185Y-76266557D01*
X73849989Y-76220802D01*
X73849989Y-76220801D01*
X73885094Y-76204770D01*
X74006130Y-76126986D01*
X74114791Y-76032832D01*
X74114794Y-76032829D01*
X74209015Y-75924091D01*
X74286747Y-75803137D01*
X74346517Y-75672259D01*
X74387024Y-75534304D01*
X74407500Y-75391889D01*
X74407500Y-74820000D01*
X74404521Y-74778346D01*
X74419373Y-74710073D01*
X74468778Y-74660668D01*
X74528205Y-74645500D01*
X76302769Y-74645500D01*
X76369808Y-74665185D01*
X76415563Y-74717989D01*
X76425507Y-74787147D01*
X76396482Y-74850703D01*
X76390450Y-74857181D01*
X76017045Y-75230586D01*
X75987563Y-75274713D01*
X75987561Y-75274716D01*
X75934919Y-75353498D01*
X75934912Y-75353511D01*
X75878343Y-75490082D01*
X75878340Y-75490092D01*
X75849500Y-75635079D01*
X75849500Y-89171862D01*
X75829815Y-89238901D01*
X75790598Y-89277399D01*
X75722288Y-89319533D01*
X75681342Y-89344789D01*
X75557289Y-89468842D01*
X75465187Y-89618163D01*
X75465185Y-89618168D01*
X75448857Y-89667444D01*
X75410001Y-89784703D01*
X75410001Y-89784704D01*
X75410000Y-89784704D01*
X75399500Y-89887483D01*
X75399500Y-90512501D01*
X75399501Y-90512519D01*
X75410000Y-90615296D01*
X75410001Y-90615299D01*
X75441750Y-90711109D01*
X75465186Y-90781834D01*
X75554470Y-90926588D01*
X75557289Y-90931157D01*
X75650951Y-91024819D01*
X75684436Y-91086142D01*
X75679452Y-91155834D01*
X75650951Y-91200181D01*
X75557289Y-91293842D01*
X75465187Y-91443163D01*
X75465185Y-91443168D01*
X75448857Y-91492444D01*
X75410001Y-91609703D01*
X75410001Y-91609704D01*
X75410000Y-91609704D01*
X75399500Y-91712483D01*
X75399500Y-92337501D01*
X75399501Y-92337519D01*
X75410000Y-92440296D01*
X75410001Y-92440299D01*
X75465185Y-92606831D01*
X75465187Y-92606836D01*
X75483800Y-92637012D01*
X75557288Y-92756156D01*
X75681344Y-92880212D01*
X75830666Y-92972314D01*
X75938562Y-93008067D01*
X75996006Y-93047838D01*
X76002659Y-93056881D01*
X76017049Y-93078418D01*
X76176450Y-93237819D01*
X76209935Y-93299142D01*
X76204951Y-93368834D01*
X76163079Y-93424767D01*
X76097615Y-93449184D01*
X76088769Y-93449500D01*
X66802829Y-93449500D01*
X66735790Y-93429815D01*
X66715148Y-93413181D01*
X65701018Y-92399051D01*
X65667533Y-92337728D01*
X65664699Y-92311370D01*
X65664699Y-91911098D01*
X65664698Y-91911081D01*
X65654199Y-91808303D01*
X65654198Y-91808300D01*
X65622446Y-91712480D01*
X65599014Y-91641766D01*
X65506912Y-91492444D01*
X65413249Y-91398781D01*
X65379764Y-91337458D01*
X65384748Y-91267766D01*
X65413249Y-91223419D01*
X65451856Y-91184812D01*
X65506912Y-91129756D01*
X65599014Y-90980434D01*
X65654199Y-90813897D01*
X65664700Y-90711109D01*
X65664699Y-90086092D01*
X65661012Y-90050003D01*
X65654199Y-89983303D01*
X65654198Y-89983300D01*
X65651943Y-89976496D01*
X65599014Y-89816766D01*
X65506912Y-89667444D01*
X65382856Y-89543388D01*
X65382852Y-89543385D01*
X65274603Y-89476616D01*
X65227878Y-89424668D01*
X65215700Y-89371078D01*
X65215700Y-82895279D01*
X65186859Y-82750292D01*
X65186858Y-82750291D01*
X65186858Y-82750287D01*
X65130284Y-82613705D01*
X65081883Y-82541267D01*
X65081883Y-82541266D01*
X65048150Y-82490781D01*
X62904818Y-80347449D01*
X62871333Y-80286126D01*
X62868499Y-80259768D01*
X62868499Y-79024129D01*
X62868498Y-79024123D01*
X62868497Y-79024116D01*
X62862091Y-78964517D01*
X62811796Y-78829669D01*
X62811795Y-78829668D01*
X62811793Y-78829664D01*
X62725547Y-78714455D01*
X62725544Y-78714452D01*
X62610335Y-78628206D01*
X62610328Y-78628202D01*
X62475482Y-78577908D01*
X62475483Y-78577908D01*
X62415883Y-78571501D01*
X62415881Y-78571500D01*
X62415873Y-78571500D01*
X62415864Y-78571500D01*
X60520129Y-78571500D01*
X60520123Y-78571501D01*
X60460516Y-78577908D01*
X60325671Y-78628202D01*
X60325664Y-78628206D01*
X60210455Y-78714452D01*
X60210452Y-78714455D01*
X60124206Y-78829664D01*
X60124202Y-78829671D01*
X60073908Y-78964517D01*
X60067501Y-79024116D01*
X60067501Y-79024123D01*
X60067500Y-79024135D01*
X60067500Y-80919870D01*
X60067501Y-80919876D01*
X60073908Y-80979483D01*
X60124202Y-81114328D01*
X60124206Y-81114335D01*
X60210452Y-81229544D01*
X60210455Y-81229547D01*
X60325664Y-81315793D01*
X60325673Y-81315798D01*
X60405904Y-81345722D01*
X60461838Y-81387593D01*
X60486256Y-81453057D01*
X60471405Y-81521330D01*
X60453802Y-81545886D01*
X60359019Y-81648849D01*
X60232075Y-81843151D01*
X60138842Y-82055699D01*
X60081866Y-82280691D01*
X60081864Y-82280702D01*
X60062700Y-82511993D01*
X60062700Y-82512006D01*
X60081864Y-82743297D01*
X60081866Y-82743308D01*
X60138842Y-82968300D01*
X60232075Y-83180848D01*
X60359016Y-83375147D01*
X60359019Y-83375151D01*
X60359021Y-83375153D01*
X60516216Y-83545913D01*
X60516219Y-83545915D01*
X60516222Y-83545918D01*
X60668662Y-83664567D01*
X60709475Y-83721277D01*
X60716500Y-83762420D01*
X60716500Y-93290918D01*
X60716500Y-93290920D01*
X60716499Y-93290920D01*
X60745340Y-93435907D01*
X60745343Y-93435917D01*
X60801912Y-93572488D01*
X60801920Y-93572503D01*
X60831684Y-93617046D01*
X60831685Y-93617049D01*
X60831686Y-93617049D01*
X60884051Y-93695420D01*
X60884052Y-93695421D01*
X67235048Y-100046415D01*
X67268533Y-100107738D01*
X67263549Y-100177430D01*
X67221677Y-100233363D01*
X67158175Y-100257624D01*
X67074596Y-100264936D01*
X67074586Y-100264938D01*
X66846344Y-100326094D01*
X66846335Y-100326098D01*
X66632171Y-100425964D01*
X66632169Y-100425965D01*
X66438597Y-100561505D01*
X66271505Y-100728597D01*
X66135965Y-100922169D01*
X66135964Y-100922171D01*
X66036098Y-101136335D01*
X66036094Y-101136344D01*
X65974938Y-101364586D01*
X65974936Y-101364596D01*
X65954341Y-101599999D01*
X65954341Y-101600000D01*
X65974936Y-101835403D01*
X65974938Y-101835413D01*
X66036094Y-102063655D01*
X66036096Y-102063659D01*
X66036097Y-102063663D01*
X66040000Y-102072032D01*
X66135965Y-102277830D01*
X66135967Y-102277834D01*
X66244281Y-102432521D01*
X66271505Y-102471401D01*
X66438599Y-102638495D01*
X66605439Y-102755318D01*
X66624594Y-102768730D01*
X66668219Y-102823307D01*
X66675413Y-102892805D01*
X66643890Y-102955160D01*
X66624595Y-102971880D01*
X66438922Y-103101890D01*
X66438920Y-103101891D01*
X66271891Y-103268920D01*
X66271886Y-103268926D01*
X66136400Y-103462420D01*
X66136399Y-103462422D01*
X66036570Y-103676507D01*
X66036567Y-103676513D01*
X65979364Y-103889999D01*
X65979364Y-103890000D01*
X66876988Y-103890000D01*
X66844075Y-103947007D01*
X66810000Y-104074174D01*
X66810000Y-104205826D01*
X66844075Y-104332993D01*
X66876988Y-104390000D01*
X65979364Y-104390000D01*
X66036567Y-104603486D01*
X66036570Y-104603492D01*
X66136399Y-104817578D01*
X66271894Y-105011082D01*
X66438917Y-105178105D01*
X66632421Y-105313600D01*
X66846507Y-105413429D01*
X66846516Y-105413433D01*
X67060000Y-105470634D01*
X67060000Y-104573012D01*
X67117007Y-104605925D01*
X67244174Y-104640000D01*
X67375826Y-104640000D01*
X67502993Y-104605925D01*
X67560000Y-104573012D01*
X67560000Y-105470633D01*
X67773483Y-105413433D01*
X67773492Y-105413429D01*
X67987578Y-105313600D01*
X68181082Y-105178105D01*
X68348105Y-105011082D01*
X68478119Y-104825405D01*
X68532696Y-104781781D01*
X68602195Y-104774588D01*
X68664549Y-104806110D01*
X68681269Y-104825405D01*
X68811505Y-105011401D01*
X68978599Y-105178495D01*
X69075384Y-105246265D01*
X69172165Y-105314032D01*
X69172167Y-105314033D01*
X69172170Y-105314035D01*
X69386337Y-105413903D01*
X69614592Y-105475063D01*
X69791034Y-105490500D01*
X69849999Y-105495659D01*
X69850000Y-105495659D01*
X69850001Y-105495659D01*
X69908966Y-105490500D01*
X70085408Y-105475063D01*
X70313663Y-105413903D01*
X70527830Y-105314035D01*
X70721401Y-105178495D01*
X70888495Y-105011401D01*
X71018425Y-104825842D01*
X71073002Y-104782217D01*
X71142500Y-104775023D01*
X71204855Y-104806546D01*
X71221575Y-104825842D01*
X71351281Y-105011082D01*
X71351505Y-105011401D01*
X71518599Y-105178495D01*
X71615384Y-105246265D01*
X71712165Y-105314032D01*
X71712167Y-105314033D01*
X71712170Y-105314035D01*
X71926337Y-105413903D01*
X72154592Y-105475063D01*
X72331034Y-105490500D01*
X72389999Y-105495659D01*
X72390000Y-105495659D01*
X72390001Y-105495659D01*
X72448966Y-105490500D01*
X72625408Y-105475063D01*
X72853663Y-105413903D01*
X73067830Y-105314035D01*
X73261401Y-105178495D01*
X73428495Y-105011401D01*
X73558730Y-104825405D01*
X73613307Y-104781781D01*
X73682805Y-104774587D01*
X73745160Y-104806110D01*
X73761879Y-104825405D01*
X73891890Y-105011078D01*
X74058917Y-105178105D01*
X74252421Y-105313600D01*
X74466507Y-105413429D01*
X74466516Y-105413433D01*
X74680000Y-105470634D01*
X74680000Y-104573012D01*
X74737007Y-104605925D01*
X74864174Y-104640000D01*
X74995826Y-104640000D01*
X75122993Y-104605925D01*
X75180000Y-104573012D01*
X75180000Y-105470633D01*
X75393483Y-105413433D01*
X75393492Y-105413429D01*
X75607578Y-105313600D01*
X75801082Y-105178105D01*
X75968105Y-105011082D01*
X76098119Y-104825405D01*
X76152696Y-104781781D01*
X76222195Y-104774588D01*
X76284549Y-104806110D01*
X76301269Y-104825405D01*
X76431505Y-105011401D01*
X76598599Y-105178495D01*
X76695384Y-105246265D01*
X76792165Y-105314032D01*
X76792167Y-105314033D01*
X76792170Y-105314035D01*
X77006337Y-105413903D01*
X77234592Y-105475063D01*
X77411034Y-105490500D01*
X77469999Y-105495659D01*
X77470000Y-105495659D01*
X77470001Y-105495659D01*
X77528966Y-105490500D01*
X77705408Y-105475063D01*
X77933663Y-105413903D01*
X78147830Y-105314035D01*
X78341401Y-105178495D01*
X78508495Y-105011401D01*
X78638425Y-104825842D01*
X78693002Y-104782217D01*
X78762500Y-104775023D01*
X78824855Y-104806546D01*
X78841575Y-104825842D01*
X78971281Y-105011082D01*
X78971505Y-105011401D01*
X79138599Y-105178495D01*
X79235384Y-105246265D01*
X79332165Y-105314032D01*
X79332167Y-105314033D01*
X79332170Y-105314035D01*
X79546337Y-105413903D01*
X79774592Y-105475063D01*
X79951034Y-105490500D01*
X80009999Y-105495659D01*
X80010000Y-105495659D01*
X80010001Y-105495659D01*
X80068966Y-105490500D01*
X80245408Y-105475063D01*
X80473663Y-105413903D01*
X80687830Y-105314035D01*
X80881401Y-105178495D01*
X81048495Y-105011401D01*
X81178730Y-104825405D01*
X81233307Y-104781781D01*
X81302805Y-104774587D01*
X81365160Y-104806110D01*
X81381879Y-104825405D01*
X81511890Y-105011078D01*
X81678917Y-105178105D01*
X81872421Y-105313600D01*
X82086507Y-105413429D01*
X82086516Y-105413433D01*
X82300000Y-105470634D01*
X82300000Y-104573012D01*
X82357007Y-104605925D01*
X82484174Y-104640000D01*
X82615826Y-104640000D01*
X82742993Y-104605925D01*
X82800000Y-104573012D01*
X82800000Y-105470633D01*
X83013483Y-105413433D01*
X83013492Y-105413429D01*
X83227578Y-105313600D01*
X83421082Y-105178105D01*
X83588105Y-105011082D01*
X83718119Y-104825405D01*
X83772696Y-104781781D01*
X83842195Y-104774588D01*
X83904549Y-104806110D01*
X83921269Y-104825405D01*
X84051505Y-105011401D01*
X84218599Y-105178495D01*
X84315384Y-105246265D01*
X84412165Y-105314032D01*
X84412167Y-105314033D01*
X84412170Y-105314035D01*
X84626337Y-105413903D01*
X84854592Y-105475063D01*
X85031034Y-105490500D01*
X85089999Y-105495659D01*
X85090000Y-105495659D01*
X85090001Y-105495659D01*
X85148966Y-105490500D01*
X85325408Y-105475063D01*
X85553663Y-105413903D01*
X85767830Y-105314035D01*
X85961401Y-105178495D01*
X86128495Y-105011401D01*
X86258425Y-104825842D01*
X86313002Y-104782217D01*
X86382500Y-104775023D01*
X86444855Y-104806546D01*
X86461575Y-104825842D01*
X86591281Y-105011082D01*
X86591505Y-105011401D01*
X86758599Y-105178495D01*
X86855384Y-105246265D01*
X86952165Y-105314032D01*
X86952167Y-105314033D01*
X86952170Y-105314035D01*
X87166337Y-105413903D01*
X87394592Y-105475063D01*
X87571034Y-105490500D01*
X87629999Y-105495659D01*
X87630000Y-105495659D01*
X87630001Y-105495659D01*
X87688966Y-105490500D01*
X87865408Y-105475063D01*
X88093663Y-105413903D01*
X88307830Y-105314035D01*
X88501401Y-105178495D01*
X88668495Y-105011401D01*
X88798730Y-104825405D01*
X88853307Y-104781781D01*
X88922805Y-104774587D01*
X88985160Y-104806110D01*
X89001879Y-104825405D01*
X89131890Y-105011078D01*
X89298917Y-105178105D01*
X89492421Y-105313600D01*
X89706507Y-105413429D01*
X89706516Y-105413433D01*
X89920000Y-105470634D01*
X89920000Y-104573012D01*
X89977007Y-104605925D01*
X90104174Y-104640000D01*
X90235826Y-104640000D01*
X90362993Y-104605925D01*
X90420000Y-104573012D01*
X90420000Y-105470633D01*
X90633483Y-105413433D01*
X90633492Y-105413429D01*
X90847578Y-105313600D01*
X91041082Y-105178105D01*
X91208105Y-105011082D01*
X91338119Y-104825405D01*
X91392696Y-104781781D01*
X91462195Y-104774588D01*
X91524549Y-104806110D01*
X91541269Y-104825405D01*
X91671505Y-105011401D01*
X91838599Y-105178495D01*
X91935384Y-105246265D01*
X92032165Y-105314032D01*
X92032167Y-105314033D01*
X92032170Y-105314035D01*
X92246337Y-105413903D01*
X92474592Y-105475063D01*
X92651034Y-105490500D01*
X92709999Y-105495659D01*
X92710000Y-105495659D01*
X92710001Y-105495659D01*
X92768966Y-105490500D01*
X92945408Y-105475063D01*
X93173663Y-105413903D01*
X93387830Y-105314035D01*
X93581401Y-105178495D01*
X93748495Y-105011401D01*
X93878425Y-104825842D01*
X93933002Y-104782217D01*
X94002500Y-104775023D01*
X94064855Y-104806546D01*
X94081575Y-104825842D01*
X94211281Y-105011082D01*
X94211505Y-105011401D01*
X94378599Y-105178495D01*
X94475384Y-105246265D01*
X94572165Y-105314032D01*
X94572167Y-105314033D01*
X94572170Y-105314035D01*
X94786337Y-105413903D01*
X95014592Y-105475063D01*
X95191034Y-105490500D01*
X95249999Y-105495659D01*
X95250000Y-105495659D01*
X95250001Y-105495659D01*
X95308966Y-105490500D01*
X95485408Y-105475063D01*
X95713663Y-105413903D01*
X95927830Y-105314035D01*
X96121401Y-105178495D01*
X96288495Y-105011401D01*
X96418730Y-104825405D01*
X96473307Y-104781781D01*
X96542805Y-104774587D01*
X96605160Y-104806110D01*
X96621879Y-104825405D01*
X96751890Y-105011078D01*
X96918917Y-105178105D01*
X97112421Y-105313600D01*
X97326507Y-105413429D01*
X97326516Y-105413433D01*
X97540000Y-105470634D01*
X97540000Y-104573012D01*
X97597007Y-104605925D01*
X97724174Y-104640000D01*
X97855826Y-104640000D01*
X97982993Y-104605925D01*
X98040000Y-104573012D01*
X98040000Y-105470633D01*
X98253483Y-105413433D01*
X98253492Y-105413429D01*
X98467578Y-105313600D01*
X98661078Y-105178108D01*
X98783133Y-105056053D01*
X98844456Y-105022568D01*
X98914148Y-105027552D01*
X98970082Y-105069423D01*
X98986997Y-105100401D01*
X99036202Y-105232328D01*
X99036206Y-105232335D01*
X99122452Y-105347544D01*
X99122455Y-105347547D01*
X99237664Y-105433793D01*
X99237671Y-105433797D01*
X99372517Y-105484091D01*
X99372516Y-105484091D01*
X99379444Y-105484835D01*
X99432127Y-105490500D01*
X101227872Y-105490499D01*
X101287483Y-105484091D01*
X101422331Y-105433796D01*
X101537546Y-105347546D01*
X101623796Y-105232331D01*
X101674091Y-105097483D01*
X101680500Y-105037873D01*
X101680499Y-103242128D01*
X101674091Y-103182517D01*
X101673002Y-103179598D01*
X101623797Y-103047671D01*
X101623793Y-103047664D01*
X101537547Y-102932455D01*
X101537544Y-102932452D01*
X101422335Y-102846206D01*
X101422328Y-102846202D01*
X101290917Y-102797189D01*
X101234983Y-102755318D01*
X101210566Y-102689853D01*
X101225418Y-102621580D01*
X101246563Y-102593332D01*
X101368495Y-102471401D01*
X101504035Y-102277830D01*
X101603903Y-102063663D01*
X101665063Y-101835408D01*
X101685659Y-101600000D01*
X101665063Y-101364592D01*
X101603903Y-101136337D01*
X101504035Y-100922171D01*
X101498425Y-100914158D01*
X101368494Y-100728597D01*
X101201402Y-100561506D01*
X101201395Y-100561501D01*
X101007834Y-100425967D01*
X101007830Y-100425965D01*
X100955500Y-100401563D01*
X100793663Y-100326097D01*
X100793659Y-100326096D01*
X100793655Y-100326094D01*
X100565413Y-100264938D01*
X100565403Y-100264936D01*
X100330001Y-100244341D01*
X100329999Y-100244341D01*
X100094596Y-100264936D01*
X100094586Y-100264938D01*
X99866344Y-100326094D01*
X99866335Y-100326098D01*
X99652171Y-100425964D01*
X99652169Y-100425965D01*
X99458597Y-100561505D01*
X99291505Y-100728597D01*
X99161575Y-100914158D01*
X99106998Y-100957783D01*
X99037500Y-100964977D01*
X98975145Y-100933454D01*
X98958425Y-100914158D01*
X98828494Y-100728597D01*
X98661402Y-100561506D01*
X98661395Y-100561501D01*
X98467834Y-100425967D01*
X98467830Y-100425965D01*
X98415500Y-100401563D01*
X98253663Y-100326097D01*
X98253659Y-100326096D01*
X98253655Y-100326094D01*
X98025413Y-100264938D01*
X98025403Y-100264936D01*
X97790001Y-100244341D01*
X97789999Y-100244341D01*
X97554596Y-100264936D01*
X97554586Y-100264938D01*
X97326344Y-100326094D01*
X97326335Y-100326098D01*
X97112171Y-100425964D01*
X97112169Y-100425965D01*
X96918597Y-100561505D01*
X96751505Y-100728597D01*
X96621575Y-100914158D01*
X96566998Y-100957783D01*
X96497500Y-100964977D01*
X96435145Y-100933454D01*
X96418425Y-100914158D01*
X96288494Y-100728597D01*
X96121402Y-100561506D01*
X96121395Y-100561501D01*
X95927834Y-100425967D01*
X95927830Y-100425965D01*
X95875500Y-100401563D01*
X95713663Y-100326097D01*
X95713659Y-100326096D01*
X95713655Y-100326094D01*
X95485413Y-100264938D01*
X95485403Y-100264936D01*
X95250001Y-100244341D01*
X95249999Y-100244341D01*
X95014596Y-100264936D01*
X95014586Y-100264938D01*
X94786344Y-100326094D01*
X94786335Y-100326098D01*
X94572171Y-100425964D01*
X94572169Y-100425965D01*
X94378597Y-100561505D01*
X94211505Y-100728597D01*
X94081575Y-100914158D01*
X94026998Y-100957783D01*
X93957500Y-100964977D01*
X93895145Y-100933454D01*
X93878425Y-100914158D01*
X93748494Y-100728597D01*
X93581402Y-100561506D01*
X93581401Y-100561505D01*
X93388376Y-100426347D01*
X93344751Y-100371770D01*
X93335500Y-100324772D01*
X93335500Y-99006202D01*
X93355185Y-98939163D01*
X93407989Y-98893408D01*
X93420488Y-98888499D01*
X93469334Y-98872314D01*
X93618656Y-98780212D01*
X93742712Y-98656156D01*
X93834814Y-98506834D01*
X93889999Y-98340297D01*
X93900500Y-98237509D01*
X93900499Y-97612492D01*
X93889999Y-97509703D01*
X93834814Y-97343166D01*
X93742712Y-97193844D01*
X93649049Y-97100181D01*
X93615564Y-97038858D01*
X93620548Y-96969166D01*
X93649049Y-96924819D01*
X93676271Y-96897597D01*
X93742712Y-96831156D01*
X93771549Y-96784402D01*
X93823497Y-96737679D01*
X93877088Y-96725500D01*
X95511691Y-96725500D01*
X95578730Y-96745185D01*
X95599372Y-96761819D01*
X95605629Y-96768076D01*
X95605633Y-96768079D01*
X95605635Y-96768081D01*
X95747102Y-96851744D01*
X95788724Y-96863836D01*
X95904926Y-96897597D01*
X95904929Y-96897597D01*
X95904931Y-96897598D01*
X95941806Y-96900500D01*
X95941814Y-96900500D01*
X97098186Y-96900500D01*
X97098194Y-96900500D01*
X97135069Y-96897598D01*
X97135071Y-96897597D01*
X97135073Y-96897597D01*
X97176691Y-96885505D01*
X97292898Y-96851744D01*
X97434365Y-96768081D01*
X97550581Y-96651865D01*
X97634244Y-96510398D01*
X97680098Y-96352569D01*
X97683000Y-96315694D01*
X97683000Y-95917257D01*
X97702685Y-95850218D01*
X97755489Y-95804463D01*
X97824647Y-95794519D01*
X97873355Y-95815188D01*
X97874229Y-95813712D01*
X98022303Y-95901282D01*
X98022306Y-95901283D01*
X98180004Y-95947099D01*
X98180010Y-95947100D01*
X98216850Y-95949999D01*
X98216866Y-95950000D01*
X98545000Y-95950000D01*
X98545000Y-95400000D01*
X99045000Y-95400000D01*
X99045000Y-95950000D01*
X99373134Y-95950000D01*
X99373149Y-95949999D01*
X99409989Y-95947100D01*
X99409995Y-95947099D01*
X99567693Y-95901283D01*
X99567696Y-95901282D01*
X99709052Y-95817685D01*
X99709061Y-95817678D01*
X99825178Y-95701561D01*
X99825185Y-95701552D01*
X99908781Y-95560198D01*
X99954600Y-95402486D01*
X99954795Y-95400001D01*
X99954795Y-95400000D01*
X99045000Y-95400000D01*
X98545000Y-95400000D01*
X97635204Y-95400000D01*
X97610940Y-95426248D01*
X97550979Y-95462114D01*
X97481145Y-95459869D01*
X97441487Y-95435468D01*
X97440531Y-95436702D01*
X97434362Y-95431917D01*
X97356181Y-95385681D01*
X97292898Y-95348256D01*
X97292897Y-95348255D01*
X97292896Y-95348255D01*
X97292893Y-95348254D01*
X97135073Y-95302402D01*
X97135067Y-95302401D01*
X97098201Y-95299500D01*
X97098194Y-95299500D01*
X95941806Y-95299500D01*
X95941798Y-95299500D01*
X95904932Y-95302401D01*
X95904926Y-95302402D01*
X95747106Y-95348254D01*
X95747103Y-95348255D01*
X95605637Y-95431917D01*
X95605629Y-95431923D01*
X95599372Y-95438181D01*
X95538049Y-95471666D01*
X95511691Y-95474500D01*
X93877088Y-95474500D01*
X93810049Y-95454815D01*
X93771549Y-95415597D01*
X93742712Y-95368844D01*
X93618656Y-95244788D01*
X93513679Y-95180038D01*
X93466956Y-95128091D01*
X93455733Y-95059128D01*
X93483577Y-94995046D01*
X93541645Y-94956190D01*
X93578777Y-94950500D01*
X95725172Y-94950500D01*
X95759767Y-94955424D01*
X95904926Y-94997597D01*
X95904929Y-94997597D01*
X95904931Y-94997598D01*
X95941806Y-95000500D01*
X95941814Y-95000500D01*
X97098186Y-95000500D01*
X97098194Y-95000500D01*
X97135069Y-94997598D01*
X97135071Y-94997597D01*
X97135073Y-94997597D01*
X97280233Y-94955424D01*
X97314828Y-94950500D01*
X101627120Y-94950500D01*
X101724662Y-94931096D01*
X101772113Y-94921658D01*
X101908695Y-94865084D01*
X101957929Y-94832186D01*
X102031616Y-94782952D01*
X103983448Y-92831117D01*
X104044771Y-92797633D01*
X104071129Y-92794799D01*
X104471402Y-92794799D01*
X104471408Y-92794799D01*
X104574197Y-92784299D01*
X104740734Y-92729114D01*
X104890056Y-92637012D01*
X105014112Y-92512956D01*
X105106214Y-92363634D01*
X105161399Y-92197097D01*
X105171900Y-92094309D01*
X105171899Y-91469292D01*
X105169230Y-91443168D01*
X105161399Y-91366503D01*
X105161398Y-91366500D01*
X105134306Y-91284742D01*
X105106214Y-91199966D01*
X105014112Y-91050644D01*
X104920449Y-90956981D01*
X104886964Y-90895658D01*
X104891948Y-90825966D01*
X104920449Y-90781619D01*
X104954079Y-90747989D01*
X105014112Y-90687956D01*
X105106214Y-90538634D01*
X105161399Y-90372097D01*
X105171900Y-90269309D01*
X105171899Y-89869028D01*
X105191583Y-89801990D01*
X105208213Y-89781353D01*
X108482152Y-86507416D01*
X108556233Y-86396544D01*
X108564284Y-86384495D01*
X108620858Y-86247913D01*
X108634290Y-86180386D01*
X108649700Y-86102920D01*
X108649700Y-77686679D01*
X108620859Y-77541692D01*
X108620858Y-77541691D01*
X108620858Y-77541687D01*
X108620856Y-77541682D01*
X108564287Y-77405111D01*
X108564285Y-77405107D01*
X108564284Y-77405105D01*
X108520982Y-77340299D01*
X108482152Y-77282184D01*
X107515218Y-76315250D01*
X107481733Y-76253927D01*
X107478899Y-76227569D01*
X107478899Y-74991929D01*
X107478898Y-74991923D01*
X107478897Y-74991916D01*
X107472491Y-74932317D01*
X107464515Y-74910933D01*
X107422197Y-74797471D01*
X107422193Y-74797464D01*
X107335947Y-74682255D01*
X107335944Y-74682252D01*
X107220735Y-74596006D01*
X107220728Y-74596002D01*
X107140494Y-74566077D01*
X107084560Y-74524206D01*
X107060143Y-74458741D01*
X107074995Y-74390468D01*
X107092590Y-74365921D01*
X107187379Y-74262953D01*
X107314324Y-74068649D01*
X107407557Y-73856100D01*
X107464534Y-73631105D01*
X107467042Y-73600836D01*
X107483700Y-73399806D01*
X107483700Y-73399793D01*
X107464535Y-73168502D01*
X107464533Y-73168491D01*
X107407557Y-72943499D01*
X107314324Y-72730951D01*
X107187383Y-72536652D01*
X107187380Y-72536649D01*
X107187379Y-72536647D01*
X107030184Y-72365887D01*
X107030179Y-72365883D01*
X107030177Y-72365881D01*
X106847034Y-72223335D01*
X106847028Y-72223331D01*
X106642904Y-72112864D01*
X106642895Y-72112861D01*
X106423384Y-72037502D01*
X106251682Y-72008850D01*
X106194449Y-71999300D01*
X105962351Y-71999300D01*
X105834125Y-72020696D01*
X105764760Y-72012314D01*
X105726035Y-71986068D01*
X103181021Y-69441052D01*
X103181014Y-69441046D01*
X103107329Y-69391812D01*
X103107329Y-69391813D01*
X103058091Y-69358913D01*
X102921517Y-69302343D01*
X102921507Y-69302340D01*
X102776520Y-69273500D01*
X102776518Y-69273500D01*
X79818917Y-69273500D01*
X79671082Y-69273500D01*
X79671080Y-69273500D01*
X79526092Y-69302340D01*
X79526082Y-69302343D01*
X79389511Y-69358912D01*
X79389498Y-69358919D01*
X79266584Y-69441048D01*
X79266580Y-69441051D01*
X78747363Y-69960268D01*
X78686040Y-69993753D01*
X78639273Y-69994896D01*
X78511049Y-69973500D01*
X78278951Y-69973500D01*
X78233164Y-69981140D01*
X78050015Y-70011702D01*
X77830504Y-70087061D01*
X77830495Y-70087064D01*
X77626371Y-70197531D01*
X77626365Y-70197535D01*
X77443222Y-70340081D01*
X77443219Y-70340084D01*
X77286016Y-70510852D01*
X77159075Y-70705151D01*
X77065842Y-70917699D01*
X77008866Y-71142691D01*
X77008864Y-71142702D01*
X76989700Y-71373993D01*
X76989700Y-71374006D01*
X77008864Y-71605297D01*
X77008866Y-71605308D01*
X77065842Y-71830300D01*
X77159075Y-72042848D01*
X77286016Y-72237147D01*
X77286019Y-72237151D01*
X77286021Y-72237153D01*
X77443216Y-72407913D01*
X77443219Y-72407915D01*
X77443222Y-72407918D01*
X77626365Y-72550464D01*
X77626371Y-72550468D01*
X77626374Y-72550470D01*
X77830497Y-72660936D01*
X78050019Y-72736298D01*
X78207752Y-72762618D01*
X78270635Y-72793068D01*
X78307075Y-72852683D01*
X78305500Y-72922535D01*
X78275022Y-72972608D01*
X77750735Y-73496895D01*
X77689412Y-73530380D01*
X77619720Y-73525396D01*
X77575373Y-73496895D01*
X77464262Y-73385784D01*
X77311523Y-73289811D01*
X77141254Y-73230231D01*
X77141249Y-73230230D01*
X76962004Y-73210035D01*
X76961996Y-73210035D01*
X76782750Y-73230230D01*
X76782745Y-73230231D01*
X76612477Y-73289811D01*
X76541074Y-73334677D01*
X76476113Y-73375494D01*
X76410143Y-73394500D01*
X74247094Y-73394500D01*
X74180055Y-73374815D01*
X74153382Y-73351704D01*
X74142980Y-73339700D01*
X74114791Y-73307168D01*
X74006135Y-73213018D01*
X74006132Y-73213015D01*
X73979264Y-73195749D01*
X73885094Y-73135230D01*
X73885087Y-73135227D01*
X73885081Y-73135223D01*
X73760356Y-73078263D01*
X73756057Y-73076014D01*
X73616261Y-73034966D01*
X73616251Y-73034963D01*
X73488300Y-73016567D01*
X73473941Y-73014503D01*
X73473940Y-73014503D01*
X73417601Y-73014503D01*
X73417591Y-73014500D01*
X73366236Y-73014500D01*
X73068884Y-73014500D01*
X73001845Y-72994815D01*
X72999993Y-72993602D01*
X72979509Y-72979915D01*
X72977994Y-72978903D01*
X72928286Y-72945688D01*
X72928283Y-72945686D01*
X72928280Y-72945685D01*
X72847792Y-72912347D01*
X72814453Y-72898537D01*
X72804427Y-72896543D01*
X72754029Y-72886518D01*
X72693610Y-72874500D01*
X72693607Y-72874500D01*
X72693606Y-72874500D01*
X70783517Y-72874500D01*
X70716478Y-72854815D01*
X70670723Y-72802011D01*
X70665811Y-72789505D01*
X70662363Y-72779099D01*
X70646314Y-72730666D01*
X70554212Y-72581344D01*
X70430156Y-72457288D01*
X70280969Y-72365269D01*
X70280836Y-72365187D01*
X70280831Y-72365185D01*
X70279362Y-72364698D01*
X70114297Y-72310001D01*
X70114295Y-72310000D01*
X70011510Y-72299500D01*
X69386498Y-72299500D01*
X69386480Y-72299501D01*
X69283703Y-72310000D01*
X69283700Y-72310001D01*
X69117168Y-72365185D01*
X69117163Y-72365187D01*
X68967842Y-72457289D01*
X68874181Y-72550951D01*
X68812858Y-72584436D01*
X68743166Y-72579452D01*
X68698819Y-72550951D01*
X68605157Y-72457289D01*
X68605156Y-72457288D01*
X68455969Y-72365269D01*
X68455836Y-72365187D01*
X68455831Y-72365185D01*
X68454362Y-72364698D01*
X68289297Y-72310001D01*
X68289295Y-72310000D01*
X68186510Y-72299500D01*
X67561498Y-72299500D01*
X67561480Y-72299501D01*
X67458703Y-72310000D01*
X67458700Y-72310001D01*
X67292168Y-72365185D01*
X67292163Y-72365187D01*
X67142842Y-72457289D01*
X67018789Y-72581342D01*
X66926687Y-72730663D01*
X66926686Y-72730666D01*
X66910803Y-72778600D01*
X66907189Y-72789505D01*
X66867416Y-72846949D01*
X66802900Y-72873772D01*
X66789483Y-72874500D01*
X62966099Y-72874500D01*
X62899060Y-72854815D01*
X62853305Y-72802011D01*
X62842099Y-72750500D01*
X62842099Y-72559729D01*
X62842098Y-72559723D01*
X62842097Y-72559716D01*
X62835691Y-72500117D01*
X62819717Y-72457289D01*
X62785397Y-72365271D01*
X62785393Y-72365264D01*
X62699147Y-72250055D01*
X62699144Y-72250052D01*
X62583935Y-72163806D01*
X62583928Y-72163802D01*
X62449082Y-72113508D01*
X62449083Y-72113508D01*
X62389483Y-72107101D01*
X62389481Y-72107100D01*
X62389473Y-72107100D01*
X62389464Y-72107100D01*
X60493729Y-72107100D01*
X60493723Y-72107101D01*
X60434116Y-72113508D01*
X60299271Y-72163802D01*
X60299264Y-72163806D01*
X60184055Y-72250052D01*
X60184052Y-72250055D01*
X60097806Y-72365264D01*
X60097802Y-72365271D01*
X60047508Y-72500117D01*
X60041646Y-72554647D01*
X60041101Y-72559723D01*
X60041100Y-72559735D01*
X60041100Y-74455470D01*
X60041101Y-74455476D01*
X60047508Y-74515083D01*
X60097802Y-74649928D01*
X60097806Y-74649935D01*
X60184052Y-74765144D01*
X60184055Y-74765147D01*
X60299264Y-74851393D01*
X60299271Y-74851397D01*
X60344218Y-74868161D01*
X60434117Y-74901691D01*
X60493727Y-74908100D01*
X60604293Y-74908099D01*
X60671330Y-74927783D01*
X60691972Y-74944418D01*
X61353015Y-75605461D01*
X61267906Y-75628267D01*
X61165294Y-75687510D01*
X61081510Y-75771294D01*
X61022267Y-75873906D01*
X60999461Y-75959015D01*
X60290411Y-75249965D01*
X60206116Y-75378990D01*
X60112917Y-75591464D01*
X60055961Y-75816381D01*
X60036802Y-76047594D01*
X60036802Y-76047605D01*
X51744300Y-76047605D01*
X51744300Y-69057100D01*
X51763985Y-68990061D01*
X51816789Y-68944306D01*
X51868300Y-68933100D01*
X115619300Y-68933100D01*
X115686339Y-68952785D01*
G37*
%TD.AperFunction*%
%TD*%
M02*
