%TF.GenerationSoftware,KiCad,Pcbnew,8.0.0*%
%TF.CreationDate,2024-03-23T10:43:56+02:00*%
%TF.ProjectId,Sensing systemV3,53656e73-696e-4672-9073-797374656d56,rev?*%
%TF.SameCoordinates,Original*%
%TF.FileFunction,Soldermask,Bot*%
%TF.FilePolarity,Negative*%
%FSLAX46Y46*%
G04 Gerber Fmt 4.6, Leading zero omitted, Abs format (unit mm)*
G04 Created by KiCad (PCBNEW 8.0.0) date 2024-03-23 10:43:56*
%MOMM*%
%LPD*%
G01*
G04 APERTURE LIST*
%ADD10R,1.800000X1.800000*%
%ADD11C,1.800000*%
%ADD12R,1.700000X1.700000*%
%ADD13O,1.700000X1.700000*%
G04 APERTURE END LIST*
D10*
%TO.C,D2*%
X80935000Y-71374000D03*
D11*
X78395000Y-71374000D03*
%TD*%
D10*
%TO.C,D5*%
X87440000Y-71378600D03*
D11*
X84900000Y-71378600D03*
%TD*%
D10*
%TO.C,D6*%
X106070400Y-82438400D03*
D11*
X106070400Y-79898400D03*
%TD*%
D10*
%TO.C,D4*%
X61441600Y-73507600D03*
D11*
X61441600Y-76047600D03*
%TD*%
D10*
%TO.C,D1*%
X61468000Y-79972000D03*
D11*
X61468000Y-82512000D03*
%TD*%
D10*
%TO.C,D3*%
X106078400Y-75939800D03*
D11*
X106078400Y-73399800D03*
%TD*%
D12*
%TO.C,J1*%
X100330000Y-104140000D03*
D13*
X100330000Y-101600000D03*
X97790000Y-104140000D03*
X97790000Y-101600000D03*
X95250000Y-104140000D03*
X95250000Y-101600000D03*
X92710000Y-104140000D03*
X92710000Y-101600000D03*
X90170000Y-104140000D03*
X90170000Y-101600000D03*
X87630000Y-104140000D03*
X87630000Y-101600000D03*
X85090000Y-104140000D03*
X85090000Y-101600000D03*
X82550000Y-104140000D03*
X82550000Y-101600000D03*
X80010000Y-104140000D03*
X80010000Y-101600000D03*
X77470000Y-104140000D03*
X77470000Y-101600000D03*
X74930000Y-104140000D03*
X74930000Y-101600000D03*
X72390000Y-104140000D03*
X72390000Y-101600000D03*
X69850000Y-104140000D03*
X69850000Y-101600000D03*
X67310000Y-104140000D03*
X67310000Y-101600000D03*
%TD*%
M02*
