%TF.GenerationSoftware,KiCad,Pcbnew,8.0.1*%
%TF.CreationDate,2024-03-24T23:27:44+02:00*%
%TF.ProjectId,Power Project PCB  v0,506f7765-7220-4507-926f-6a6563742050,rev?*%
%TF.SameCoordinates,Original*%
%TF.FileFunction,Soldermask,Top*%
%TF.FilePolarity,Negative*%
%FSLAX46Y46*%
G04 Gerber Fmt 4.6, Leading zero omitted, Abs format (unit mm)*
G04 Created by KiCad (PCBNEW 8.0.1) date 2024-03-24 23:27:44*
%MOMM*%
%LPD*%
G01*
G04 APERTURE LIST*
G04 Aperture macros list*
%AMRoundRect*
0 Rectangle with rounded corners*
0 $1 Rounding radius*
0 $2 $3 $4 $5 $6 $7 $8 $9 X,Y pos of 4 corners*
0 Add a 4 corners polygon primitive as box body*
4,1,4,$2,$3,$4,$5,$6,$7,$8,$9,$2,$3,0*
0 Add four circle primitives for the rounded corners*
1,1,$1+$1,$2,$3*
1,1,$1+$1,$4,$5*
1,1,$1+$1,$6,$7*
1,1,$1+$1,$8,$9*
0 Add four rect primitives between the rounded corners*
20,1,$1+$1,$2,$3,$4,$5,0*
20,1,$1+$1,$4,$5,$6,$7,0*
20,1,$1+$1,$6,$7,$8,$9,0*
20,1,$1+$1,$8,$9,$2,$3,0*%
%AMFreePoly0*
4,1,19,0.500000,-0.750000,0.000000,-0.750000,0.000000,-0.744911,-0.071157,-0.744911,-0.207708,-0.704816,-0.327430,-0.627875,-0.420627,-0.520320,-0.479746,-0.390866,-0.500000,-0.250000,-0.500000,0.250000,-0.479746,0.390866,-0.420627,0.520320,-0.327430,0.627875,-0.207708,0.704816,-0.071157,0.744911,0.000000,0.744911,0.000000,0.750000,0.500000,0.750000,0.500000,-0.750000,0.500000,-0.750000,
$1*%
%AMFreePoly1*
4,1,19,0.000000,0.744911,0.071157,0.744911,0.207708,0.704816,0.327430,0.627875,0.420627,0.520320,0.479746,0.390866,0.500000,0.250000,0.500000,-0.250000,0.479746,-0.390866,0.420627,-0.520320,0.327430,-0.627875,0.207708,-0.704816,0.071157,-0.744911,0.000000,-0.744911,0.000000,-0.750000,-0.500000,-0.750000,-0.500000,0.750000,0.000000,0.750000,0.000000,0.744911,0.000000,0.744911,
$1*%
G04 Aperture macros list end*
%ADD10RoundRect,0.250000X-0.250000X-0.475000X0.250000X-0.475000X0.250000X0.475000X-0.250000X0.475000X0*%
%ADD11RoundRect,0.250000X0.250000X0.475000X-0.250000X0.475000X-0.250000X-0.475000X0.250000X-0.475000X0*%
%ADD12FreePoly0,270.000000*%
%ADD13FreePoly1,270.000000*%
%ADD14FreePoly0,90.000000*%
%ADD15FreePoly1,90.000000*%
%ADD16RoundRect,0.250000X0.475000X-0.250000X0.475000X0.250000X-0.475000X0.250000X-0.475000X-0.250000X0*%
%ADD17O,1.350000X1.350000*%
%ADD18R,1.350000X1.350000*%
%ADD19RoundRect,0.150000X-0.512500X-0.150000X0.512500X-0.150000X0.512500X0.150000X-0.512500X0.150000X0*%
%ADD20R,2.000000X0.900000*%
%ADD21C,0.900000*%
%ADD22R,1.700000X1.700000*%
%ADD23O,1.700000X1.700000*%
%ADD24R,2.000000X3.800000*%
%ADD25RoundRect,0.243750X-0.243750X-0.456250X0.243750X-0.456250X0.243750X0.456250X-0.243750X0.456250X0*%
%ADD26RoundRect,0.250000X-0.262500X-0.450000X0.262500X-0.450000X0.262500X0.450000X-0.262500X0.450000X0*%
%ADD27RoundRect,0.250000X-0.450000X0.262500X-0.450000X-0.262500X0.450000X-0.262500X0.450000X0.262500X0*%
%ADD28RoundRect,0.062500X0.062500X-0.187500X0.062500X0.187500X-0.062500X0.187500X-0.062500X-0.187500X0*%
%ADD29R,1.600000X0.900000*%
G04 APERTURE END LIST*
D10*
%TO.C,C2*%
X151450000Y-48768000D03*
X153350000Y-48768000D03*
%TD*%
D11*
%TO.C,C1*%
X151826000Y-55880000D03*
X149926000Y-55880000D03*
%TD*%
D12*
%TO.C,JP6*%
X150368000Y-59436000D03*
D13*
X150368000Y-60736000D03*
%TD*%
D14*
%TO.C,JP5*%
X143764000Y-60228000D03*
D15*
X143764000Y-58928000D03*
%TD*%
D12*
%TO.C,JP4*%
X133096000Y-59944000D03*
D13*
X133096000Y-61244000D03*
%TD*%
D14*
%TO.C,JP3*%
X120904000Y-61752000D03*
D15*
X120904000Y-60452000D03*
%TD*%
D16*
%TO.C,C8*%
X150368000Y-64958000D03*
X150368000Y-63058000D03*
%TD*%
%TO.C,C7*%
X143764000Y-64084000D03*
X143764000Y-62184000D03*
%TD*%
%TO.C,C6*%
X120904000Y-65974000D03*
X120904000Y-64074000D03*
%TD*%
%TO.C,C5*%
X133096000Y-65466000D03*
X133096000Y-63566000D03*
%TD*%
D17*
%TO.C,J2*%
X135000000Y-44000000D03*
D18*
X137000000Y-44000000D03*
%TD*%
D19*
%TO.C,U1*%
X144537000Y-52000000D03*
X144537000Y-52950000D03*
X144537000Y-53900000D03*
X146812000Y-53900000D03*
X146812000Y-52000000D03*
%TD*%
D20*
%TO.C,S1*%
X115364000Y-48954000D03*
X115364000Y-46954000D03*
X115364000Y-44954000D03*
X121364000Y-48954000D03*
X121364000Y-46954000D03*
X121364000Y-44954000D03*
D21*
X118364000Y-49204000D03*
X118364000Y-44704000D03*
%TD*%
D22*
%TO.C,J1*%
X144040000Y-31500000D03*
D23*
X144040000Y-34040000D03*
X141500000Y-31500000D03*
X141500000Y-34040000D03*
X138960000Y-31500000D03*
X138960000Y-34040000D03*
X136420000Y-31500000D03*
X136420000Y-34040000D03*
X133880000Y-31500000D03*
X133880000Y-34040000D03*
X131340000Y-31500000D03*
X131340000Y-34040000D03*
X128800000Y-31500000D03*
X128800000Y-34040000D03*
X126260000Y-31500000D03*
X126260000Y-34040000D03*
%TD*%
D24*
%TO.C,TP5*%
X154432000Y-59944000D03*
%TD*%
%TO.C,TP4*%
X139192000Y-60452000D03*
%TD*%
%TO.C,TP3*%
X128524000Y-60452000D03*
%TD*%
%TO.C,TP2*%
X146812000Y-60000000D03*
%TD*%
%TO.C,TP1*%
X116332000Y-60452000D03*
%TD*%
D25*
%TO.C,D1*%
X135714500Y-49784000D03*
X137589500Y-49784000D03*
%TD*%
D26*
%TO.C,R12*%
X142447000Y-48260000D03*
X144272000Y-48260000D03*
%TD*%
%TO.C,R7*%
X135739500Y-53848000D03*
X137564500Y-53848000D03*
%TD*%
D27*
%TO.C,R6*%
X126492000Y-53443500D03*
X126492000Y-55268500D03*
%TD*%
%TO.C,R5*%
X120904000Y-54459500D03*
X120904000Y-56284500D03*
%TD*%
D28*
%TO.C,U3*%
X148360000Y-45588000D03*
X148860000Y-45588000D03*
X149360000Y-45588000D03*
X149860000Y-45588000D03*
X149860000Y-43688000D03*
X149360000Y-43688000D03*
X148860000Y-43688000D03*
X148360000Y-43688000D03*
D29*
X149110000Y-44638000D03*
%TD*%
D28*
%TO.C,U2*%
X126500000Y-46096000D03*
X127000000Y-46096000D03*
X127500000Y-46096000D03*
X128000000Y-46096000D03*
X128000000Y-44196000D03*
X127500000Y-44196000D03*
X127000000Y-44196000D03*
X126500000Y-44196000D03*
D29*
X127250000Y-45146000D03*
%TD*%
M02*
