%TF.GenerationSoftware,KiCad,Pcbnew,8.0.1*%
%TF.CreationDate,2024-03-24T23:27:44+02:00*%
%TF.ProjectId,Power Project PCB  v0,506f7765-7220-4507-926f-6a6563742050,rev?*%
%TF.SameCoordinates,Original*%
%TF.FileFunction,Copper,L1,Top*%
%TF.FilePolarity,Positive*%
%FSLAX46Y46*%
G04 Gerber Fmt 4.6, Leading zero omitted, Abs format (unit mm)*
G04 Created by KiCad (PCBNEW 8.0.1) date 2024-03-24 23:27:44*
%MOMM*%
%LPD*%
G01*
G04 APERTURE LIST*
G04 Aperture macros list*
%AMRoundRect*
0 Rectangle with rounded corners*
0 $1 Rounding radius*
0 $2 $3 $4 $5 $6 $7 $8 $9 X,Y pos of 4 corners*
0 Add a 4 corners polygon primitive as box body*
4,1,4,$2,$3,$4,$5,$6,$7,$8,$9,$2,$3,0*
0 Add four circle primitives for the rounded corners*
1,1,$1+$1,$2,$3*
1,1,$1+$1,$4,$5*
1,1,$1+$1,$6,$7*
1,1,$1+$1,$8,$9*
0 Add four rect primitives between the rounded corners*
20,1,$1+$1,$2,$3,$4,$5,0*
20,1,$1+$1,$4,$5,$6,$7,0*
20,1,$1+$1,$6,$7,$8,$9,0*
20,1,$1+$1,$8,$9,$2,$3,0*%
%AMFreePoly0*
4,1,19,0.500000,-0.750000,0.000000,-0.750000,0.000000,-0.744911,-0.071157,-0.744911,-0.207708,-0.704816,-0.327430,-0.627875,-0.420627,-0.520320,-0.479746,-0.390866,-0.500000,-0.250000,-0.500000,0.250000,-0.479746,0.390866,-0.420627,0.520320,-0.327430,0.627875,-0.207708,0.704816,-0.071157,0.744911,0.000000,0.744911,0.000000,0.750000,0.500000,0.750000,0.500000,-0.750000,0.500000,-0.750000,
$1*%
%AMFreePoly1*
4,1,19,0.000000,0.744911,0.071157,0.744911,0.207708,0.704816,0.327430,0.627875,0.420627,0.520320,0.479746,0.390866,0.500000,0.250000,0.500000,-0.250000,0.479746,-0.390866,0.420627,-0.520320,0.327430,-0.627875,0.207708,-0.704816,0.071157,-0.744911,0.000000,-0.744911,0.000000,-0.750000,-0.500000,-0.750000,-0.500000,0.750000,0.000000,0.750000,0.000000,0.744911,0.000000,0.744911,
$1*%
G04 Aperture macros list end*
%TA.AperFunction,SMDPad,CuDef*%
%ADD10RoundRect,0.250000X-0.250000X-0.475000X0.250000X-0.475000X0.250000X0.475000X-0.250000X0.475000X0*%
%TD*%
%TA.AperFunction,SMDPad,CuDef*%
%ADD11RoundRect,0.250000X0.250000X0.475000X-0.250000X0.475000X-0.250000X-0.475000X0.250000X-0.475000X0*%
%TD*%
%TA.AperFunction,SMDPad,CuDef*%
%ADD12FreePoly0,270.000000*%
%TD*%
%TA.AperFunction,SMDPad,CuDef*%
%ADD13FreePoly1,270.000000*%
%TD*%
%TA.AperFunction,SMDPad,CuDef*%
%ADD14FreePoly0,90.000000*%
%TD*%
%TA.AperFunction,SMDPad,CuDef*%
%ADD15FreePoly1,90.000000*%
%TD*%
%TA.AperFunction,SMDPad,CuDef*%
%ADD16RoundRect,0.250000X0.475000X-0.250000X0.475000X0.250000X-0.475000X0.250000X-0.475000X-0.250000X0*%
%TD*%
%TA.AperFunction,ComponentPad*%
%ADD17O,1.350000X1.350000*%
%TD*%
%TA.AperFunction,ComponentPad*%
%ADD18R,1.350000X1.350000*%
%TD*%
%TA.AperFunction,SMDPad,CuDef*%
%ADD19RoundRect,0.150000X-0.512500X-0.150000X0.512500X-0.150000X0.512500X0.150000X-0.512500X0.150000X0*%
%TD*%
%TA.AperFunction,SMDPad,CuDef*%
%ADD20R,2.000000X0.900000*%
%TD*%
%TA.AperFunction,ComponentPad*%
%ADD21R,1.700000X1.700000*%
%TD*%
%TA.AperFunction,ComponentPad*%
%ADD22O,1.700000X1.700000*%
%TD*%
%TA.AperFunction,SMDPad,CuDef*%
%ADD23R,2.000000X3.800000*%
%TD*%
%TA.AperFunction,SMDPad,CuDef*%
%ADD24RoundRect,0.243750X-0.243750X-0.456250X0.243750X-0.456250X0.243750X0.456250X-0.243750X0.456250X0*%
%TD*%
%TA.AperFunction,SMDPad,CuDef*%
%ADD25RoundRect,0.250000X-0.262500X-0.450000X0.262500X-0.450000X0.262500X0.450000X-0.262500X0.450000X0*%
%TD*%
%TA.AperFunction,SMDPad,CuDef*%
%ADD26RoundRect,0.250000X-0.450000X0.262500X-0.450000X-0.262500X0.450000X-0.262500X0.450000X0.262500X0*%
%TD*%
%TA.AperFunction,SMDPad,CuDef*%
%ADD27RoundRect,0.062500X0.062500X-0.187500X0.062500X0.187500X-0.062500X0.187500X-0.062500X-0.187500X0*%
%TD*%
%TA.AperFunction,SMDPad,CuDef*%
%ADD28R,1.600000X0.900000*%
%TD*%
%TA.AperFunction,ViaPad*%
%ADD29C,0.600000*%
%TD*%
%TA.AperFunction,Conductor*%
%ADD30C,0.200000*%
%TD*%
%TA.AperFunction,Conductor*%
%ADD31C,0.600000*%
%TD*%
G04 APERTURE END LIST*
D10*
%TO.P,C2,1*%
%TO.N,+5V*%
X151450000Y-48768000D03*
%TO.P,C2,2*%
%TO.N,GND*%
X153350000Y-48768000D03*
%TD*%
D11*
%TO.P,C1,1*%
%TO.N,Charge*%
X151826000Y-55880000D03*
%TO.P,C1,2*%
%TO.N,GND*%
X149926000Y-55880000D03*
%TD*%
D12*
%TO.P,JP6,1,A*%
%TO.N,BATT*%
X150368000Y-59436000D03*
D13*
%TO.P,JP6,2,B*%
%TO.N,Net-(JP6-B)*%
X150368000Y-60736000D03*
%TD*%
D14*
%TO.P,JP5,1,A*%
%TO.N,Net-(JP5-A)*%
X143764000Y-60228000D03*
D15*
%TO.P,JP5,2,B*%
%TO.N,BATT*%
X143764000Y-58928000D03*
%TD*%
D12*
%TO.P,JP4,1,A*%
%TO.N,BATT*%
X133096000Y-59944000D03*
D13*
%TO.P,JP4,2,B*%
%TO.N,Net-(JP4-B)*%
X133096000Y-61244000D03*
%TD*%
D14*
%TO.P,JP3,1,A*%
%TO.N,Net-(JP3-A)*%
X120904000Y-61752000D03*
D15*
%TO.P,JP3,2,B*%
%TO.N,BATT*%
X120904000Y-60452000D03*
%TD*%
D16*
%TO.P,C8,1*%
%TO.N,GND*%
X150368000Y-64958000D03*
%TO.P,C8,2*%
%TO.N,Net-(JP6-B)*%
X150368000Y-63058000D03*
%TD*%
%TO.P,C7,1*%
%TO.N,GND*%
X143764000Y-64084000D03*
%TO.P,C7,2*%
%TO.N,Net-(JP5-A)*%
X143764000Y-62184000D03*
%TD*%
%TO.P,C6,1*%
%TO.N,GND*%
X120904000Y-65974000D03*
%TO.P,C6,2*%
%TO.N,Net-(JP3-A)*%
X120904000Y-64074000D03*
%TD*%
%TO.P,C5,1*%
%TO.N,GND*%
X133096000Y-65466000D03*
%TO.P,C5,2*%
%TO.N,Net-(JP4-B)*%
X133096000Y-63566000D03*
%TD*%
D17*
%TO.P,J2,2,Pin_2*%
%TO.N,Charge*%
X135000000Y-44000000D03*
D18*
%TO.P,J2,1,Pin_1*%
%TO.N,GND*%
X137000000Y-44000000D03*
%TD*%
D19*
%TO.P,U1,1,STAT*%
%TO.N,Net-(U1-STAT)*%
X144537000Y-52000000D03*
%TO.P,U1,2,V_{SS}*%
%TO.N,GND*%
X144537000Y-52950000D03*
%TO.P,U1,3,V_{BAT}*%
%TO.N,Charge*%
X144537000Y-53900000D03*
%TO.P,U1,4,V_{DD}*%
%TO.N,+5V*%
X146812000Y-53900000D03*
%TO.P,U1,5,PROG*%
%TO.N,Net-(U1-PROG)*%
X146812000Y-52000000D03*
%TD*%
D20*
%TO.P,S1,1,NO_1*%
%TO.N,unconnected-(S1-NO_1-Pad1)*%
X115364000Y-48954000D03*
%TO.P,S1,2,COM_1*%
%TO.N,unconnected-(S1-COM_1-Pad2)*%
X115364000Y-46954000D03*
%TO.P,S1,3,NC_1*%
%TO.N,unconnected-(S1-NC_1-Pad3)*%
X115364000Y-44954000D03*
%TO.P,S1,4,NO_2*%
%TO.N,Charge*%
X121364000Y-48954000D03*
%TO.P,S1,5,COM_2*%
%TO.N,BATT*%
X121364000Y-46954000D03*
%TO.P,S1,6,NC_2*%
%TO.N,unconnected-(S1-NC_2-Pad6)*%
X121364000Y-44954000D03*
%TD*%
D21*
%TO.P,J1,1,Pin_1*%
%TO.N,Motor2_A*%
X144040000Y-31500000D03*
D22*
%TO.P,J1,2,Pin_2*%
%TO.N,PWM1*%
X144040000Y-34040000D03*
%TO.P,J1,3,Pin_3*%
%TO.N,Motor2_B*%
X141500000Y-31500000D03*
%TO.P,J1,4,Pin_4*%
%TO.N,PWM2*%
X141500000Y-34040000D03*
%TO.P,J1,5,Pin_5*%
%TO.N,GND*%
X138960000Y-31500000D03*
%TO.P,J1,6,Pin_6*%
X138960000Y-34040000D03*
%TO.P,J1,7,Pin_7*%
%TO.N,BATT*%
X136420000Y-31500000D03*
%TO.P,J1,8,Pin_8*%
X136420000Y-34040000D03*
%TO.P,J1,9,Pin_9*%
%TO.N,RESV*%
X133880000Y-31500000D03*
%TO.P,J1,10,Pin_10*%
%TO.N,BATT_ADC*%
X133880000Y-34040000D03*
%TO.P,J1,11,Pin_11*%
%TO.N,+5V*%
X131340000Y-31500000D03*
%TO.P,J1,12,Pin_12*%
X131340000Y-34040000D03*
%TO.P,J1,13,Pin_13*%
%TO.N,Motor1_A*%
X128800000Y-31500000D03*
%TO.P,J1,14,Pin_14*%
%TO.N,PWM3*%
X128800000Y-34040000D03*
%TO.P,J1,15,Pin_15*%
%TO.N,Motor1_B*%
X126260000Y-31500000D03*
%TO.P,J1,16,Pin_16*%
%TO.N,PWM4*%
X126260000Y-34040000D03*
%TD*%
D23*
%TO.P,TP5,1,1*%
%TO.N,Motor2_B*%
X154432000Y-59944000D03*
%TD*%
%TO.P,TP4,1,1*%
%TO.N,Motor1_B*%
X139192000Y-60452000D03*
%TD*%
%TO.P,TP3,1,1*%
%TO.N,Motor1_A*%
X128524000Y-60452000D03*
%TD*%
%TO.P,TP2,1,1*%
%TO.N,Motor2_A*%
X146812000Y-60000000D03*
%TD*%
%TO.P,TP1,1,1*%
%TO.N,Charge*%
X116332000Y-60452000D03*
%TD*%
D24*
%TO.P,D1,1,K*%
%TO.N,Net-(D1-K)*%
X135714500Y-49784000D03*
%TO.P,D1,2,A*%
%TO.N,+5V*%
X137589500Y-49784000D03*
%TD*%
D25*
%TO.P,R12,1*%
%TO.N,GND*%
X142447000Y-48260000D03*
%TO.P,R12,2*%
%TO.N,Net-(U1-PROG)*%
X144272000Y-48260000D03*
%TD*%
%TO.P,R7,1*%
%TO.N,Net-(D1-K)*%
X135739500Y-53848000D03*
%TO.P,R7,2*%
%TO.N,Net-(U1-STAT)*%
X137564500Y-53848000D03*
%TD*%
D26*
%TO.P,R6,1*%
%TO.N,BATT_ADC*%
X126492000Y-53443500D03*
%TO.P,R6,2*%
%TO.N,GND*%
X126492000Y-55268500D03*
%TD*%
%TO.P,R5,1*%
%TO.N,BATT*%
X120904000Y-54459500D03*
%TO.P,R5,2*%
%TO.N,BATT_ADC*%
X120904000Y-56284500D03*
%TD*%
D27*
%TO.P,U3,1,VM*%
%TO.N,BATT*%
X148360000Y-45588000D03*
%TO.P,U3,2,OUT1*%
%TO.N,Motor2_A*%
X148860000Y-45588000D03*
%TO.P,U3,3,OUT2*%
%TO.N,Motor2_B*%
X149360000Y-45588000D03*
%TO.P,U3,4,GND*%
%TO.N,GND*%
X149860000Y-45588000D03*
%TO.P,U3,5,IN2*%
%TO.N,PWM2*%
X149860000Y-43688000D03*
%TO.P,U3,6,IN1*%
%TO.N,PWM1*%
X149360000Y-43688000D03*
%TO.P,U3,7,~{SLEEP}*%
%TO.N,BATT*%
X148860000Y-43688000D03*
%TO.P,U3,8,VCC*%
X148360000Y-43688000D03*
D28*
%TO.P,U3,9,GND*%
%TO.N,GND*%
X149110000Y-44638000D03*
%TD*%
D27*
%TO.P,U2,1,VM*%
%TO.N,BATT*%
X126500000Y-46096000D03*
%TO.P,U2,2,OUT1*%
%TO.N,Motor1_A*%
X127000000Y-46096000D03*
%TO.P,U2,3,OUT2*%
%TO.N,Motor1_B*%
X127500000Y-46096000D03*
%TO.P,U2,4,GND*%
%TO.N,GND*%
X128000000Y-46096000D03*
%TO.P,U2,5,IN2*%
%TO.N,PWM4*%
X128000000Y-44196000D03*
%TO.P,U2,6,IN1*%
%TO.N,PWM3*%
X127500000Y-44196000D03*
%TO.P,U2,7,~{SLEEP}*%
%TO.N,BATT*%
X127000000Y-44196000D03*
%TO.P,U2,8,VCC*%
X126500000Y-44196000D03*
D28*
%TO.P,U2,9,GND*%
%TO.N,GND*%
X127250000Y-45146000D03*
%TD*%
D29*
%TO.N,BATT*%
X146904000Y-43237687D03*
X154848000Y-47752000D03*
X145288000Y-40640000D03*
X141732000Y-43180000D03*
X139700000Y-56172000D03*
X139700000Y-44704000D03*
X127000000Y-56896000D03*
X125984000Y-42672000D03*
X120798863Y-58525137D03*
%TO.N,GND*%
X147828000Y-56896000D03*
X142748000Y-52832000D03*
X133096000Y-56896000D03*
X150876000Y-42800000D03*
%TO.N,Motor2_A*%
X146304000Y-42672000D03*
X148844000Y-54356000D03*
%TO.N,Motor1_B*%
X128524000Y-47752000D03*
X130048000Y-52832000D03*
%TO.N,Motor1_A*%
X126492000Y-49754000D03*
X125060000Y-46228000D03*
%TO.N,BATT*%
X125568000Y-37084000D03*
%TO.N,PWM4*%
X128100000Y-40640000D03*
%TO.N,BATT*%
X143764000Y-38100000D03*
%TO.N,PWM2*%
X149959194Y-42798959D03*
%TO.N,BATT_ADC*%
X132080000Y-49276000D03*
%TO.N,Charge*%
X149352000Y-52832000D03*
X140716000Y-52832000D03*
%TO.N,+5V*%
X133604000Y-47244000D03*
%TD*%
D30*
%TO.N,GND*%
X153350000Y-48768000D02*
X151718000Y-47136000D01*
X151017000Y-56971000D02*
X151017000Y-57413000D01*
X149926000Y-55880000D02*
X151017000Y-56971000D01*
X149484000Y-56322000D02*
X149926000Y-55880000D01*
X149484000Y-56896000D02*
X149484000Y-56322000D01*
D31*
%TO.N,Charge*%
X151892000Y-54356000D02*
X151826000Y-54422000D01*
X151892000Y-53340000D02*
X151892000Y-54356000D01*
X151826000Y-54422000D02*
X151826000Y-55880000D01*
X151384000Y-52832000D02*
X151892000Y-53340000D01*
X149352000Y-52832000D02*
X151384000Y-52832000D01*
D30*
%TO.N,GND*%
X152391000Y-57413000D02*
X153350000Y-56454000D01*
X153350000Y-56454000D02*
X153350000Y-48768000D01*
X151017000Y-57413000D02*
X152391000Y-57413000D01*
D31*
%TO.N,+5V*%
X151450000Y-50734000D02*
X151450000Y-48768000D01*
X151384000Y-50800000D02*
X151450000Y-50734000D01*
X149912000Y-50800000D02*
X146812000Y-53900000D01*
X151384000Y-50800000D02*
X149912000Y-50800000D01*
D30*
%TO.N,GND*%
X155956000Y-46678315D02*
X153149685Y-43872000D01*
X155956000Y-61920000D02*
X155956000Y-46678315D01*
X153149685Y-43872000D02*
X150876000Y-43872000D01*
X152918000Y-64958000D02*
X155956000Y-61920000D01*
X150368000Y-64958000D02*
X152918000Y-64958000D01*
X131638000Y-65974000D02*
X120904000Y-65974000D01*
X132146000Y-65466000D02*
X131638000Y-65974000D01*
X133096000Y-65466000D02*
X132146000Y-65466000D01*
X142306000Y-65466000D02*
X133096000Y-65466000D01*
X143688000Y-64084000D02*
X142306000Y-65466000D01*
X143764000Y-64084000D02*
X143688000Y-64084000D01*
X144638000Y-64958000D02*
X143764000Y-64084000D01*
X150368000Y-64958000D02*
X144638000Y-64958000D01*
%TO.N,Net-(JP6-B)*%
X150368000Y-60736000D02*
X150368000Y-63058000D01*
%TO.N,BATT*%
X146904000Y-43237687D02*
X146904000Y-43088000D01*
X147828000Y-42164000D02*
X145796000Y-40132000D01*
X148336000Y-42672000D02*
X147828000Y-42164000D01*
X154848000Y-48860000D02*
X154848000Y-47752000D01*
X154032000Y-49676000D02*
X154848000Y-48860000D01*
X151123000Y-59436000D02*
X154032000Y-56527000D01*
X150368000Y-59436000D02*
X151123000Y-59436000D01*
X154032000Y-56527000D02*
X154032000Y-49676000D01*
X146904000Y-43088000D02*
X147828000Y-42164000D01*
%TO.N,Net-(JP5-A)*%
X143764000Y-60228000D02*
X143764000Y-62184000D01*
%TO.N,BATT*%
X145288000Y-40640000D02*
X145796000Y-40132000D01*
X145796000Y-40132000D02*
X143764000Y-38100000D01*
X141224000Y-43180000D02*
X141732000Y-43180000D01*
X139700000Y-44704000D02*
X141224000Y-43180000D01*
X142456000Y-58928000D02*
X139700000Y-56172000D01*
X143764000Y-58928000D02*
X142456000Y-58928000D01*
%TO.N,Net-(JP4-B)*%
X133096000Y-61244000D02*
X133096000Y-63566000D01*
%TO.N,Net-(JP3-A)*%
X120904000Y-61752000D02*
X120904000Y-64074000D01*
%TO.N,BATT*%
X130048000Y-56896000D02*
X127000000Y-56896000D01*
X133096000Y-59944000D02*
X130048000Y-56896000D01*
X125984000Y-42672000D02*
X125476000Y-42164000D01*
X125476000Y-43180000D02*
X125476000Y-42164000D01*
X125476000Y-42164000D02*
X125476000Y-37176000D01*
X120904000Y-58630274D02*
X120798863Y-58525137D01*
X120904000Y-60452000D02*
X120904000Y-58630274D01*
%TO.N,Motor2_A*%
X145796000Y-58984000D02*
X146812000Y-60000000D01*
X145796000Y-57404000D02*
X145796000Y-58984000D01*
%TO.N,GND*%
X147828000Y-56896000D02*
X149484000Y-56896000D01*
X142866000Y-52950000D02*
X142748000Y-52832000D01*
X144537000Y-52950000D02*
X142866000Y-52950000D01*
X131468500Y-55268500D02*
X133096000Y-56896000D01*
X126492000Y-55268500D02*
X131468500Y-55268500D01*
X142447000Y-48260000D02*
X142447000Y-42371000D01*
X142240000Y-42164000D02*
X138960000Y-38884000D01*
X142447000Y-42371000D02*
X142240000Y-42164000D01*
X147212000Y-47136000D02*
X142240000Y-42164000D01*
X138960000Y-38884000D02*
X138960000Y-34040000D01*
X151718000Y-47136000D02*
X147212000Y-47136000D01*
X150110000Y-44638000D02*
X150876000Y-43872000D01*
X149110000Y-44638000D02*
X150110000Y-44638000D01*
X150876000Y-43872000D02*
X150876000Y-42800000D01*
X137000000Y-36000000D02*
X138960000Y-34040000D01*
X137000000Y-44000000D02*
X137000000Y-36000000D01*
X127250000Y-45146000D02*
X127854000Y-45146000D01*
X127854000Y-45146000D02*
X138960000Y-34040000D01*
%TO.N,Motor2_B*%
X148938071Y-46736000D02*
X148740071Y-46538000D01*
X155448000Y-46736000D02*
X148938071Y-46736000D01*
X155448000Y-50343744D02*
X155448000Y-46736000D01*
X154432000Y-51359744D02*
X155448000Y-50343744D01*
X154432000Y-59944000D02*
X154432000Y-51359744D01*
%TO.N,Motor2_A*%
X144780000Y-42672000D02*
X144729807Y-42722193D01*
X146304000Y-42672000D02*
X144780000Y-42672000D01*
X144729807Y-42722193D02*
X142748000Y-40740386D01*
X148145614Y-46138000D02*
X144729807Y-42722193D01*
X145796000Y-57404000D02*
X148844000Y-54356000D01*
%TO.N,Motor1_B*%
X128000000Y-47752000D02*
X127500000Y-47252000D01*
X128524000Y-47752000D02*
X128000000Y-47752000D01*
X137668000Y-60452000D02*
X130048000Y-52832000D01*
X139192000Y-60452000D02*
X137668000Y-60452000D01*
%TO.N,Motor1_A*%
X125060000Y-45812000D02*
X124968000Y-45720000D01*
X125060000Y-46228000D02*
X125060000Y-45812000D01*
X124968000Y-45720000D02*
X124968000Y-33528000D01*
X124968000Y-46228000D02*
X124968000Y-45720000D01*
X124968000Y-47244000D02*
X124968000Y-46228000D01*
X125060000Y-46228000D02*
X124968000Y-46228000D01*
X126492000Y-50800000D02*
X126492000Y-49754000D01*
X121820000Y-55472000D02*
X126492000Y-50800000D01*
X120219256Y-55472000D02*
X121820000Y-55472000D01*
X119904000Y-55787256D02*
X120219256Y-55472000D01*
X123574256Y-60452000D02*
X119904000Y-56781744D01*
X119904000Y-56781744D02*
X119904000Y-55787256D01*
X128524000Y-60452000D02*
X123574256Y-60452000D01*
D31*
%TO.N,BATT*%
X120178000Y-46954000D02*
X121364000Y-46954000D01*
X119380000Y-47752000D02*
X120178000Y-46954000D01*
X119380000Y-52935500D02*
X119380000Y-47752000D01*
X120904000Y-54459500D02*
X119380000Y-52935500D01*
X116864000Y-48236000D02*
X118146000Y-46954000D01*
X116864000Y-59920000D02*
X116864000Y-48236000D01*
X116332000Y-60452000D02*
X116864000Y-59920000D01*
X118146000Y-46954000D02*
X121364000Y-46954000D01*
D30*
X125476000Y-37176000D02*
X125568000Y-37084000D01*
X125484000Y-43180000D02*
X125476000Y-43180000D01*
X126500000Y-44196000D02*
X125484000Y-43180000D01*
X127000000Y-44196000D02*
X126500000Y-44196000D01*
X126150000Y-45746000D02*
X126150000Y-44546000D01*
X126150000Y-44546000D02*
X126500000Y-44196000D01*
X126500000Y-46096000D02*
X126150000Y-45746000D01*
%TO.N,Motor1_A*%
X124968000Y-33528000D02*
X125846000Y-32650000D01*
X125846000Y-32650000D02*
X127650000Y-32650000D01*
X126492000Y-47244000D02*
X124968000Y-47244000D01*
X127000000Y-46736000D02*
X126492000Y-47244000D01*
X127000000Y-46096000D02*
X127000000Y-46736000D01*
X127650000Y-32650000D02*
X128800000Y-31500000D01*
%TO.N,Motor1_B*%
X127000000Y-47752000D02*
X124460000Y-47752000D01*
X124460000Y-47752000D02*
X124460000Y-33300000D01*
X127500000Y-47252000D02*
X127000000Y-47752000D01*
X124460000Y-33300000D02*
X126260000Y-31500000D01*
X127500000Y-46096000D02*
X127500000Y-47252000D01*
%TO.N,PWM3*%
X127500000Y-35340000D02*
X128800000Y-34040000D01*
X127500000Y-44196000D02*
X127500000Y-35340000D01*
%TO.N,PWM4*%
X128000000Y-40740000D02*
X128100000Y-40640000D01*
X128000000Y-44196000D02*
X128000000Y-40740000D01*
%TO.N,BATT*%
X148360000Y-42696000D02*
X148336000Y-42672000D01*
X148360000Y-43688000D02*
X148360000Y-42696000D01*
X148860000Y-43688000D02*
X148360000Y-43688000D01*
X148010000Y-44038000D02*
X148360000Y-43688000D01*
X148010000Y-45238000D02*
X148010000Y-44038000D01*
X148360000Y-45588000D02*
X148010000Y-45238000D01*
%TO.N,Motor2_B*%
X140350000Y-32650000D02*
X141500000Y-31500000D01*
X147630000Y-46538000D02*
X140350000Y-39258000D01*
X149360000Y-45918072D02*
X148740071Y-46538000D01*
X140350000Y-39258000D02*
X140350000Y-32650000D01*
X149360000Y-45588000D02*
X149360000Y-45918072D01*
X148740071Y-46538000D02*
X147630000Y-46538000D01*
%TO.N,Motor2_A*%
X148860000Y-45852386D02*
X148574386Y-46138000D01*
X148574386Y-46138000D02*
X148145614Y-46138000D01*
X148860000Y-45588000D02*
X148860000Y-45852386D01*
X142748000Y-40740386D02*
X142748000Y-32792000D01*
X142748000Y-32792000D02*
X144040000Y-31500000D01*
%TO.N,PWM2*%
X149860000Y-42898153D02*
X149959194Y-42798959D01*
X149860000Y-43688000D02*
X149860000Y-42898153D01*
%TO.N,PWM1*%
X149360000Y-39360000D02*
X144040000Y-34040000D01*
X149360000Y-43688000D02*
X149360000Y-39360000D01*
%TO.N,BATT*%
X136456000Y-34040000D02*
X136420000Y-34040000D01*
D31*
%TO.N,BATT_ADC*%
X126492000Y-53443500D02*
X127912500Y-53443500D01*
X127912500Y-53443500D02*
X132080000Y-49276000D01*
X120904000Y-56284500D02*
X123651000Y-56284500D01*
X123651000Y-56284500D02*
X126492000Y-53443500D01*
%TO.N,Net-(U1-STAT)*%
X137564500Y-53811500D02*
X139376000Y-52000000D01*
X137564500Y-53848000D02*
X137564500Y-53811500D01*
%TO.N,+5V*%
X133604000Y-55372000D02*
X133096000Y-54864000D01*
X133096000Y-47752000D02*
X133604000Y-47244000D01*
X146812000Y-55372000D02*
X133604000Y-55372000D01*
X146812000Y-53900000D02*
X146812000Y-55372000D01*
X133096000Y-54864000D02*
X133096000Y-47752000D01*
%TO.N,Net-(U1-PROG)*%
X146812000Y-49276000D02*
X146812000Y-52000000D01*
X145796000Y-48260000D02*
X146812000Y-49276000D01*
X144272000Y-48260000D02*
X145796000Y-48260000D01*
%TO.N,Charge*%
X141784000Y-53900000D02*
X140716000Y-52832000D01*
X144537000Y-53900000D02*
X141784000Y-53900000D01*
%TO.N,Net-(U1-STAT)*%
X139376000Y-52000000D02*
X144537000Y-52000000D01*
%TO.N,+5V*%
X135049500Y-47244000D02*
X133604000Y-47244000D01*
X137589500Y-49784000D02*
X135049500Y-47244000D01*
X131340000Y-34040000D02*
X131340000Y-31500000D01*
%TO.N,Net-(D1-K)*%
X135714500Y-53823000D02*
X135739500Y-53848000D01*
X135714500Y-49784000D02*
X135714500Y-53823000D01*
%TO.N,BATT*%
X121914000Y-46954000D02*
X122936000Y-45932000D01*
X122936000Y-45932000D02*
X122936000Y-27940000D01*
X121364000Y-46954000D02*
X121914000Y-46954000D01*
X122936000Y-27940000D02*
X136144000Y-27940000D01*
X136144000Y-27940000D02*
X136420000Y-28216000D01*
X136420000Y-28216000D02*
X136420000Y-31500000D01*
%TO.N,Charge*%
X130046000Y-48954000D02*
X135000000Y-44000000D01*
X121364000Y-48954000D02*
X130046000Y-48954000D01*
%TO.N,BATT*%
X136420000Y-34040000D02*
X136420000Y-31500000D01*
%TO.N,GND*%
X138960000Y-34040000D02*
X138960000Y-31500000D01*
D30*
X139000000Y-34080000D02*
X138960000Y-34040000D01*
%TD*%
M02*
