%TF.GenerationSoftware,KiCad,Pcbnew,8.0.1*%
%TF.CreationDate,2024-03-24T23:27:44+02:00*%
%TF.ProjectId,Power Project PCB  v0,506f7765-7220-4507-926f-6a6563742050,rev?*%
%TF.SameCoordinates,Original*%
%TF.FileFunction,Copper,L2,Bot*%
%TF.FilePolarity,Positive*%
%FSLAX46Y46*%
G04 Gerber Fmt 4.6, Leading zero omitted, Abs format (unit mm)*
G04 Created by KiCad (PCBNEW 8.0.1) date 2024-03-24 23:27:44*
%MOMM*%
%LPD*%
G01*
G04 APERTURE LIST*
%TA.AperFunction,ComponentPad*%
%ADD10O,1.350000X1.350000*%
%TD*%
%TA.AperFunction,ComponentPad*%
%ADD11R,1.350000X1.350000*%
%TD*%
%TA.AperFunction,ComponentPad*%
%ADD12R,1.700000X1.700000*%
%TD*%
%TA.AperFunction,ComponentPad*%
%ADD13O,1.700000X1.700000*%
%TD*%
%TA.AperFunction,ViaPad*%
%ADD14C,0.600000*%
%TD*%
%TA.AperFunction,Conductor*%
%ADD15C,0.200000*%
%TD*%
%TA.AperFunction,Conductor*%
%ADD16C,0.600000*%
%TD*%
G04 APERTURE END LIST*
D10*
%TO.P,J2,2,Pin_2*%
%TO.N,Charge*%
X135000000Y-44000000D03*
D11*
%TO.P,J2,1,Pin_1*%
%TO.N,GND*%
X137000000Y-44000000D03*
%TD*%
D12*
%TO.P,J1,1,Pin_1*%
%TO.N,Motor2_A*%
X144040000Y-31500000D03*
D13*
%TO.P,J1,2,Pin_2*%
%TO.N,PWM1*%
X144040000Y-34040000D03*
%TO.P,J1,3,Pin_3*%
%TO.N,Motor2_B*%
X141500000Y-31500000D03*
%TO.P,J1,4,Pin_4*%
%TO.N,PWM2*%
X141500000Y-34040000D03*
%TO.P,J1,5,Pin_5*%
%TO.N,GND*%
X138960000Y-31500000D03*
%TO.P,J1,6,Pin_6*%
X138960000Y-34040000D03*
%TO.P,J1,7,Pin_7*%
%TO.N,BATT*%
X136420000Y-31500000D03*
%TO.P,J1,8,Pin_8*%
X136420000Y-34040000D03*
%TO.P,J1,9,Pin_9*%
%TO.N,RESV*%
X133880000Y-31500000D03*
%TO.P,J1,10,Pin_10*%
%TO.N,BATT_ADC*%
X133880000Y-34040000D03*
%TO.P,J1,11,Pin_11*%
%TO.N,+5V*%
X131340000Y-31500000D03*
%TO.P,J1,12,Pin_12*%
X131340000Y-34040000D03*
%TO.P,J1,13,Pin_13*%
%TO.N,Motor1_A*%
X128800000Y-31500000D03*
%TO.P,J1,14,Pin_14*%
%TO.N,PWM3*%
X128800000Y-34040000D03*
%TO.P,J1,15,Pin_15*%
%TO.N,Motor1_B*%
X126260000Y-31500000D03*
%TO.P,J1,16,Pin_16*%
%TO.N,PWM4*%
X126260000Y-34040000D03*
%TD*%
D14*
%TO.N,BATT*%
X146904000Y-43237687D03*
X154848000Y-47752000D03*
X145288000Y-40640000D03*
X141732000Y-43180000D03*
X139700000Y-56172000D03*
X139700000Y-44704000D03*
X127000000Y-56896000D03*
X125984000Y-42672000D03*
X120798863Y-58525137D03*
%TO.N,GND*%
X147828000Y-56896000D03*
X142748000Y-52832000D03*
X133096000Y-56896000D03*
X150876000Y-42800000D03*
%TO.N,Motor2_A*%
X146304000Y-42672000D03*
X148844000Y-54356000D03*
%TO.N,Motor1_B*%
X128524000Y-47752000D03*
X130048000Y-52832000D03*
%TO.N,Motor1_A*%
X126492000Y-49754000D03*
X125060000Y-46228000D03*
%TO.N,BATT*%
X125568000Y-37084000D03*
%TO.N,PWM4*%
X128100000Y-40640000D03*
%TO.N,BATT*%
X143764000Y-38100000D03*
%TO.N,PWM2*%
X149959194Y-42798959D03*
%TO.N,BATT_ADC*%
X132080000Y-49276000D03*
%TO.N,Charge*%
X149352000Y-52832000D03*
X140716000Y-52832000D03*
%TO.N,+5V*%
X133604000Y-47244000D03*
%TD*%
D15*
%TO.N,BATT*%
X151418313Y-47752000D02*
X146904000Y-43237687D01*
X154848000Y-47752000D02*
X151418313Y-47752000D01*
X144947470Y-40640000D02*
X145288000Y-40640000D01*
X144609735Y-40302265D02*
X144947470Y-40640000D01*
X141732000Y-43180000D02*
X144609735Y-40302265D01*
X139700000Y-56172000D02*
X139700000Y-44704000D01*
X125878863Y-56896000D02*
X120798863Y-51816000D01*
X120798863Y-58525137D02*
X120798863Y-51816000D01*
X120798863Y-51816000D02*
X120798863Y-47857137D01*
X127000000Y-56896000D02*
X125878863Y-56896000D01*
X120798863Y-47857137D02*
X125984000Y-42672000D01*
%TO.N,GND*%
X142748000Y-56896000D02*
X147828000Y-56896000D01*
X142748000Y-52832000D02*
X142748000Y-56896000D01*
X133096000Y-56896000D02*
X142748000Y-56896000D01*
X142420000Y-37500000D02*
X138960000Y-34040000D01*
X144085786Y-37500000D02*
X142420000Y-37500000D01*
X144478893Y-38306893D02*
X144478893Y-37893107D01*
X149570959Y-43398959D02*
X144478893Y-38306893D01*
X150277041Y-43398959D02*
X149570959Y-43398959D01*
X150876000Y-42800000D02*
X150277041Y-43398959D01*
X144478893Y-37893107D02*
X144085786Y-37500000D01*
%TO.N,Motor2_A*%
X146304000Y-45720000D02*
X146304000Y-42672000D01*
X148844000Y-54356000D02*
X149952000Y-53248000D01*
X149952000Y-49876000D02*
X146304000Y-46228000D01*
X146304000Y-46228000D02*
X146304000Y-45720000D01*
X149952000Y-53248000D02*
X149952000Y-49876000D01*
%TO.N,Motor1_B*%
X128524000Y-51308000D02*
X128524000Y-47752000D01*
X130048000Y-52832000D02*
X128524000Y-51308000D01*
%TO.N,Motor1_A*%
X126492000Y-47660000D02*
X125060000Y-46228000D01*
X126492000Y-49754000D02*
X126492000Y-47660000D01*
%TO.N,BATT*%
X125606000Y-30350000D02*
X135270000Y-30350000D01*
X125110000Y-30846000D02*
X125606000Y-30350000D01*
X135270000Y-30350000D02*
X136420000Y-31500000D01*
X125110000Y-36626000D02*
X125110000Y-30846000D01*
X125568000Y-37084000D02*
X125110000Y-36626000D01*
%TO.N,PWM4*%
X126260000Y-38800000D02*
X126260000Y-34040000D01*
X128100000Y-40640000D02*
X126260000Y-38800000D01*
%TO.N,BATT*%
X143764000Y-38100000D02*
X140480000Y-38100000D01*
X140480000Y-38100000D02*
X136420000Y-34040000D01*
%TO.N,PWM2*%
X141500000Y-34348528D02*
X141500000Y-34040000D01*
X149950431Y-42798959D02*
X141500000Y-34348528D01*
X149959194Y-42798959D02*
X149950431Y-42798959D01*
D16*
%TO.N,BATT_ADC*%
X133825000Y-34095000D02*
X133880000Y-34040000D01*
X134513299Y-45175000D02*
X133825000Y-44486701D01*
X134513299Y-47466072D02*
X134513299Y-45175000D01*
X132703371Y-49276000D02*
X134513299Y-47466072D01*
X132080000Y-49276000D02*
X132703371Y-49276000D01*
X133825000Y-44486701D02*
X133825000Y-34095000D01*
%TO.N,+5V*%
X131340000Y-44980000D02*
X131340000Y-34040000D01*
X133604000Y-47244000D02*
X131340000Y-44980000D01*
%TO.N,Charge*%
X146812000Y-50292000D02*
X140716000Y-50292000D01*
X149352000Y-52832000D02*
X146812000Y-50292000D01*
X140716000Y-52832000D02*
X140716000Y-50292000D01*
X140716000Y-50292000D02*
X140716000Y-42164000D01*
X135128000Y-43872000D02*
X135000000Y-44000000D01*
X135128000Y-42164000D02*
X135128000Y-43872000D01*
X140716000Y-42164000D02*
X135128000Y-42164000D01*
%TO.N,+5V*%
X131572000Y-34272000D02*
X131340000Y-34040000D01*
D15*
%TO.N,Motor1_B*%
X125760000Y-31000000D02*
X126260000Y-31500000D01*
%TD*%
M02*
