M48
; DRILL file {KiCad 8.0.1} date 2024-03-24T23:27:44+0200
; FORMAT={-:-/ absolute / inch / decimal}
; #@! TF.CreationDate,2024-03-24T23:27:44+02:00
; #@! TF.GenerationSoftware,Kicad,Pcbnew,8.0.1
; #@! TF.FileFunction,Plated,1,2,PTH
FMAT,2
INCH
; #@! TA.AperFunction,Plated,PTH,ViaDrill
T1C0.0118
; #@! TA.AperFunction,Plated,PTH,ComponentDrill
T2C0.0315
; #@! TA.AperFunction,Plated,PTH,ComponentDrill
T3C0.0394
%
G90
G05
T1
X4.7559Y-2.3041
X4.9236Y-1.82
X4.9436Y-1.46
X4.96Y-1.68
X4.98Y-1.9588
X5.0Y-2.24
X5.0433Y-1.6
X5.06Y-1.88
X5.12Y-2.08
X5.2Y-1.94
X5.24Y-2.24
X5.26Y-1.86
X5.5Y-1.76
X5.5Y-2.2115
X5.54Y-2.08
X5.58Y-1.7
X5.62Y-2.08
X5.66Y-1.5
X5.72Y-1.6
X5.76Y-1.68
X5.7836Y-1.7023
X5.82Y-2.24
X5.86Y-2.14
X5.88Y-2.08
X5.9039Y-1.685
X5.94Y-1.685
X6.0964Y-1.88
T2
X5.315Y-1.7323
X5.3937Y-1.7323
T3
X4.9709Y-1.2402
X4.9709Y-1.3402
X5.0709Y-1.2402
X5.0709Y-1.3402
X5.1709Y-1.2402
X5.1709Y-1.3402
X5.2709Y-1.2402
X5.2709Y-1.3402
X5.3709Y-1.2402
X5.3709Y-1.3402
X5.4709Y-1.2402
X5.4709Y-1.3402
X5.5709Y-1.2402
X5.5709Y-1.3402
X5.6709Y-1.2402
X5.6709Y-1.3402
M30
