%TF.GenerationSoftware,KiCad,Pcbnew,8.0.0*%
%TF.CreationDate,2024-03-22T14:44:16+02:00*%
%TF.ProjectId,Sensing systemv2,53656e73-696e-4672-9073-797374656d76,rev?*%
%TF.SameCoordinates,Original*%
%TF.FileFunction,Soldermask,Top*%
%TF.FilePolarity,Negative*%
%FSLAX46Y46*%
G04 Gerber Fmt 4.6, Leading zero omitted, Abs format (unit mm)*
G04 Created by KiCad (PCBNEW 8.0.0) date 2024-03-22 14:44:16*
%MOMM*%
%LPD*%
G01*
G04 APERTURE LIST*
G04 Aperture macros list*
%AMRoundRect*
0 Rectangle with rounded corners*
0 $1 Rounding radius*
0 $2 $3 $4 $5 $6 $7 $8 $9 X,Y pos of 4 corners*
0 Add a 4 corners polygon primitive as box body*
4,1,4,$2,$3,$4,$5,$6,$7,$8,$9,$2,$3,0*
0 Add four circle primitives for the rounded corners*
1,1,$1+$1,$2,$3*
1,1,$1+$1,$4,$5*
1,1,$1+$1,$6,$7*
1,1,$1+$1,$8,$9*
0 Add four rect primitives between the rounded corners*
20,1,$1+$1,$2,$3,$4,$5,0*
20,1,$1+$1,$4,$5,$6,$7,0*
20,1,$1+$1,$6,$7,$8,$9,0*
20,1,$1+$1,$8,$9,$2,$3,0*%
%AMFreePoly0*
4,1,19,0.500000,-0.750000,0.000000,-0.750000,0.000000,-0.744911,-0.071157,-0.744911,-0.207708,-0.704816,-0.327430,-0.627875,-0.420627,-0.520320,-0.479746,-0.390866,-0.500000,-0.250000,-0.500000,0.250000,-0.479746,0.390866,-0.420627,0.520320,-0.327430,0.627875,-0.207708,0.704816,-0.071157,0.744911,0.000000,0.744911,0.000000,0.750000,0.500000,0.750000,0.500000,-0.750000,0.500000,-0.750000,
$1*%
%AMFreePoly1*
4,1,19,0.000000,0.744911,0.071157,0.744911,0.207708,0.704816,0.327430,0.627875,0.420627,0.520320,0.479746,0.390866,0.500000,0.250000,0.500000,-0.250000,0.479746,-0.390866,0.420627,-0.520320,0.327430,-0.627875,0.207708,-0.704816,0.071157,-0.744911,0.000000,-0.744911,0.000000,-0.750000,-0.500000,-0.750000,-0.500000,0.750000,0.000000,0.750000,0.000000,0.744911,0.000000,0.744911,
$1*%
G04 Aperture macros list end*
%ADD10RoundRect,0.250000X0.262500X0.450000X-0.262500X0.450000X-0.262500X-0.450000X0.262500X-0.450000X0*%
%ADD11R,2.000000X2.000000*%
%ADD12RoundRect,0.250000X-0.450000X0.262500X-0.450000X-0.262500X0.450000X-0.262500X0.450000X0.262500X0*%
%ADD13FreePoly0,270.000000*%
%ADD14FreePoly1,270.000000*%
%ADD15RoundRect,0.250000X-0.262500X-0.450000X0.262500X-0.450000X0.262500X0.450000X-0.262500X0.450000X0*%
%ADD16R,1.800000X1.800000*%
%ADD17C,1.800000*%
%ADD18RoundRect,0.150000X-0.512500X-0.150000X0.512500X-0.150000X0.512500X0.150000X-0.512500X0.150000X0*%
%ADD19RoundRect,0.250000X0.450000X-0.262500X0.450000X0.262500X-0.450000X0.262500X-0.450000X-0.262500X0*%
%ADD20R,1.700000X1.700000*%
%ADD21O,1.700000X1.700000*%
G04 APERTURE END LIST*
D10*
%TO.C,R8*%
X59996000Y-79480000D03*
X61821000Y-79480000D03*
%TD*%
D11*
%TO.C,TP4*%
X110475000Y-87375000D03*
%TD*%
D12*
%TO.C,R2*%
X76600000Y-90200000D03*
X76600000Y-92025000D03*
%TD*%
D13*
%TO.C,JP4*%
X65278000Y-80950000D03*
D14*
X65278000Y-82250000D03*
%TD*%
D13*
%TO.C,JP1*%
X65278000Y-69520000D03*
D14*
X65278000Y-70820000D03*
%TD*%
D15*
%TO.C,R16*%
X105236000Y-76864000D03*
X107061000Y-76864000D03*
%TD*%
%TO.C,R14*%
X85600000Y-90050000D03*
X87425000Y-90050000D03*
%TD*%
D13*
%TO.C,JP12*%
X100814500Y-85344000D03*
D14*
X100814500Y-86644000D03*
%TD*%
D12*
%TO.C,R3*%
X112850000Y-92375000D03*
X112850000Y-94200000D03*
%TD*%
D13*
%TO.C,JP2*%
X65278000Y-73330000D03*
D14*
X65278000Y-74630000D03*
%TD*%
D11*
%TO.C,TP1*%
X56760000Y-86190000D03*
%TD*%
%TO.C,TP3*%
X91000000Y-89600000D03*
%TD*%
D12*
%TO.C,R1*%
X56718200Y-90398600D03*
X56718200Y-92223600D03*
%TD*%
D16*
%TO.C,D2*%
X80935000Y-71374000D03*
D17*
X78395000Y-71374000D03*
%TD*%
D13*
%TO.C,JP3*%
X65278000Y-77140000D03*
D14*
X65278000Y-78440000D03*
%TD*%
D13*
%TO.C,JP10*%
X100814500Y-77724000D03*
D14*
X100814500Y-79024000D03*
%TD*%
D16*
%TO.C,D5*%
X87440000Y-71378600D03*
D17*
X84900000Y-71378600D03*
%TD*%
D16*
%TO.C,D6*%
X113732000Y-82153600D03*
D17*
X113732000Y-79613600D03*
%TD*%
D15*
%TO.C,R13*%
X85600000Y-86556000D03*
X87425000Y-86556000D03*
%TD*%
%TO.C,R17*%
X105236000Y-80460000D03*
X107061000Y-80460000D03*
%TD*%
D13*
%TO.C,JP8*%
X82192600Y-87671000D03*
D14*
X82192600Y-88971000D03*
%TD*%
D15*
%TO.C,R10*%
X85600000Y-75825000D03*
X87425000Y-75825000D03*
%TD*%
D13*
%TO.C,JP6*%
X82192600Y-80051000D03*
D14*
X82192600Y-81351000D03*
%TD*%
D15*
%TO.C,R15*%
X105236000Y-73406000D03*
X107061000Y-73406000D03*
%TD*%
D13*
%TO.C,JP5*%
X82192600Y-76211000D03*
D14*
X82192600Y-77511000D03*
%TD*%
D10*
%TO.C,R9*%
X59991000Y-82750000D03*
X61816000Y-82750000D03*
%TD*%
%TO.C,R6*%
X61825000Y-72556000D03*
X60000000Y-72556000D03*
%TD*%
D18*
%TO.C,Q1*%
X96520000Y-94200000D03*
X96520000Y-96100000D03*
X98795000Y-95150000D03*
%TD*%
D16*
%TO.C,D4*%
X53695600Y-73507600D03*
D17*
X53695600Y-76047600D03*
%TD*%
D13*
%TO.C,JP9*%
X100814500Y-74026000D03*
D14*
X100814500Y-75326000D03*
%TD*%
D15*
%TO.C,R18*%
X105236000Y-83918000D03*
X107061000Y-83918000D03*
%TD*%
D13*
%TO.C,JP11*%
X100814500Y-81534000D03*
D14*
X100814500Y-82834000D03*
%TD*%
D15*
%TO.C,R11*%
X85600000Y-79350000D03*
X87425000Y-79350000D03*
%TD*%
%TO.C,R12*%
X85600000Y-83000000D03*
X87425000Y-83000000D03*
%TD*%
D13*
%TO.C,JP7*%
X82192600Y-83861000D03*
D14*
X82192600Y-85161000D03*
%TD*%
D19*
%TO.C,R4*%
X92700000Y-97925000D03*
X92700000Y-96100000D03*
%TD*%
D15*
%TO.C,R19*%
X105236000Y-87376000D03*
X107061000Y-87376000D03*
%TD*%
D10*
%TO.C,R7*%
X61821000Y-76112000D03*
X59996000Y-76112000D03*
%TD*%
D11*
%TO.C,TP2*%
X61620400Y-88646000D03*
%TD*%
D10*
%TO.C,R5*%
X61825000Y-69000000D03*
X60000000Y-69000000D03*
%TD*%
D16*
%TO.C,D1*%
X53722000Y-79972000D03*
D17*
X53722000Y-82512000D03*
%TD*%
D16*
%TO.C,D3*%
X113740000Y-75655000D03*
D17*
X113740000Y-73115000D03*
%TD*%
D20*
%TO.C,J1*%
X100330000Y-104140000D03*
D21*
X100330000Y-101600000D03*
X97790000Y-104140000D03*
X97790000Y-101600000D03*
X95250000Y-104140000D03*
X95250000Y-101600000D03*
X92710000Y-104140000D03*
X92710000Y-101600000D03*
X90170000Y-104140000D03*
X90170000Y-101600000D03*
X87630000Y-104140000D03*
X87630000Y-101600000D03*
X85090000Y-104140000D03*
X85090000Y-101600000D03*
X82550000Y-104140000D03*
X82550000Y-101600000D03*
X80010000Y-104140000D03*
X80010000Y-101600000D03*
X77470000Y-104140000D03*
X77470000Y-101600000D03*
X74930000Y-104140000D03*
X74930000Y-101600000D03*
X72390000Y-104140000D03*
X72390000Y-101600000D03*
X69850000Y-104140000D03*
X69850000Y-101600000D03*
X67310000Y-104140000D03*
X67310000Y-101600000D03*
%TD*%
M02*
