M48
; DRILL file {KiCad 8.0.0} date 2024-03-22T14:44:16+0200
; FORMAT={-:-/ absolute / inch / decimal}
; #@! TF.CreationDate,2024-03-22T14:44:16+02:00
; #@! TF.GenerationSoftware,Kicad,Pcbnew,8.0.0
; #@! TF.FileFunction,Plated,1,2,PTH
FMAT,2
INCH
; #@! TA.AperFunction,Plated,PTH,ViaDrill
T1C0.0118
; #@! TA.AperFunction,Plated,PTH,ComponentDrill
T2C0.0354
; #@! TA.AperFunction,Plated,PTH,ComponentDrill
T3C0.0394
%
G90
G05
T1
X3.0157Y-3.3698
X3.865Y-3.505
X4.13Y-3.75
T2
X2.114Y-2.894
X2.114Y-2.994
X2.115Y-3.1485
X2.115Y-3.2485
X3.0864Y-2.81
X3.1864Y-2.81
X3.3425Y-2.8102
X3.4425Y-2.8102
X4.4776Y-3.1344
X4.4776Y-3.2344
X4.478Y-2.8785
X4.478Y-2.9785
T3
X2.65Y-4.0
X2.65Y-4.1
X2.75Y-4.0
X2.75Y-4.1
X2.85Y-4.0
X2.85Y-4.1
X2.95Y-4.0
X2.95Y-4.1
X3.05Y-4.0
X3.05Y-4.1
X3.15Y-4.0
X3.15Y-4.1
X3.25Y-4.0
X3.25Y-4.1
X3.35Y-4.0
X3.35Y-4.1
X3.45Y-4.0
X3.45Y-4.1
X3.55Y-4.0
X3.55Y-4.1
X3.65Y-4.0
X3.65Y-4.1
X3.75Y-4.0
X3.75Y-4.1
X3.85Y-4.0
X3.85Y-4.1
X3.95Y-4.0
X3.95Y-4.1
M30
