%TF.GenerationSoftware,KiCad,Pcbnew,8.0.0*%
%TF.CreationDate,2024-03-22T14:44:15+02:00*%
%TF.ProjectId,Sensing systemv2,53656e73-696e-4672-9073-797374656d76,rev?*%
%TF.SameCoordinates,Original*%
%TF.FileFunction,Copper,L1,Top*%
%TF.FilePolarity,Positive*%
%FSLAX46Y46*%
G04 Gerber Fmt 4.6, Leading zero omitted, Abs format (unit mm)*
G04 Created by KiCad (PCBNEW 8.0.0) date 2024-03-22 14:44:15*
%MOMM*%
%LPD*%
G01*
G04 APERTURE LIST*
G04 Aperture macros list*
%AMRoundRect*
0 Rectangle with rounded corners*
0 $1 Rounding radius*
0 $2 $3 $4 $5 $6 $7 $8 $9 X,Y pos of 4 corners*
0 Add a 4 corners polygon primitive as box body*
4,1,4,$2,$3,$4,$5,$6,$7,$8,$9,$2,$3,0*
0 Add four circle primitives for the rounded corners*
1,1,$1+$1,$2,$3*
1,1,$1+$1,$4,$5*
1,1,$1+$1,$6,$7*
1,1,$1+$1,$8,$9*
0 Add four rect primitives between the rounded corners*
20,1,$1+$1,$2,$3,$4,$5,0*
20,1,$1+$1,$4,$5,$6,$7,0*
20,1,$1+$1,$6,$7,$8,$9,0*
20,1,$1+$1,$8,$9,$2,$3,0*%
%AMFreePoly0*
4,1,19,0.500000,-0.750000,0.000000,-0.750000,0.000000,-0.744911,-0.071157,-0.744911,-0.207708,-0.704816,-0.327430,-0.627875,-0.420627,-0.520320,-0.479746,-0.390866,-0.500000,-0.250000,-0.500000,0.250000,-0.479746,0.390866,-0.420627,0.520320,-0.327430,0.627875,-0.207708,0.704816,-0.071157,0.744911,0.000000,0.744911,0.000000,0.750000,0.500000,0.750000,0.500000,-0.750000,0.500000,-0.750000,
$1*%
%AMFreePoly1*
4,1,19,0.000000,0.744911,0.071157,0.744911,0.207708,0.704816,0.327430,0.627875,0.420627,0.520320,0.479746,0.390866,0.500000,0.250000,0.500000,-0.250000,0.479746,-0.390866,0.420627,-0.520320,0.327430,-0.627875,0.207708,-0.704816,0.071157,-0.744911,0.000000,-0.744911,0.000000,-0.750000,-0.500000,-0.750000,-0.500000,0.750000,0.000000,0.750000,0.000000,0.744911,0.000000,0.744911,
$1*%
G04 Aperture macros list end*
%TA.AperFunction,SMDPad,CuDef*%
%ADD10RoundRect,0.250000X0.262500X0.450000X-0.262500X0.450000X-0.262500X-0.450000X0.262500X-0.450000X0*%
%TD*%
%TA.AperFunction,SMDPad,CuDef*%
%ADD11R,2.000000X2.000000*%
%TD*%
%TA.AperFunction,SMDPad,CuDef*%
%ADD12RoundRect,0.250000X-0.450000X0.262500X-0.450000X-0.262500X0.450000X-0.262500X0.450000X0.262500X0*%
%TD*%
%TA.AperFunction,SMDPad,CuDef*%
%ADD13FreePoly0,270.000000*%
%TD*%
%TA.AperFunction,SMDPad,CuDef*%
%ADD14FreePoly1,270.000000*%
%TD*%
%TA.AperFunction,SMDPad,CuDef*%
%ADD15RoundRect,0.250000X-0.262500X-0.450000X0.262500X-0.450000X0.262500X0.450000X-0.262500X0.450000X0*%
%TD*%
%TA.AperFunction,ComponentPad*%
%ADD16R,1.800000X1.800000*%
%TD*%
%TA.AperFunction,ComponentPad*%
%ADD17C,1.800000*%
%TD*%
%TA.AperFunction,SMDPad,CuDef*%
%ADD18RoundRect,0.150000X-0.512500X-0.150000X0.512500X-0.150000X0.512500X0.150000X-0.512500X0.150000X0*%
%TD*%
%TA.AperFunction,SMDPad,CuDef*%
%ADD19RoundRect,0.250000X0.450000X-0.262500X0.450000X0.262500X-0.450000X0.262500X-0.450000X-0.262500X0*%
%TD*%
%TA.AperFunction,ComponentPad*%
%ADD20R,1.700000X1.700000*%
%TD*%
%TA.AperFunction,ComponentPad*%
%ADD21O,1.700000X1.700000*%
%TD*%
%TA.AperFunction,ViaPad*%
%ADD22C,0.600000*%
%TD*%
%TA.AperFunction,Conductor*%
%ADD23C,0.250000*%
%TD*%
%TA.AperFunction,Conductor*%
%ADD24C,0.500000*%
%TD*%
G04 APERTURE END LIST*
D10*
%TO.P,R8,2*%
%TO.N,/PA5*%
X59996000Y-79480000D03*
%TO.P,R8,1*%
%TO.N,Net-(JP3-B)*%
X61821000Y-79480000D03*
%TD*%
D11*
%TO.P,TP4,1,1*%
%TO.N,/PA3*%
X110475000Y-87375000D03*
%TD*%
D12*
%TO.P,R2,1*%
%TO.N,Net-(D2-K)*%
X76600000Y-90200000D03*
%TO.P,R2,2*%
%TO.N,Net-(Q1-C)*%
X76600000Y-92025000D03*
%TD*%
D13*
%TO.P,JP4,1,A*%
%TO.N,Net-(JP3-B)*%
X65278000Y-80950000D03*
D14*
%TO.P,JP4,2,B*%
%TO.N,Net-(JP4-B)*%
X65278000Y-82250000D03*
%TD*%
D13*
%TO.P,JP1,1,A*%
%TO.N,3V3*%
X65278000Y-69520000D03*
D14*
%TO.P,JP1,2,B*%
%TO.N,Net-(JP1-B)*%
X65278000Y-70820000D03*
%TD*%
D15*
%TO.P,R16,1*%
%TO.N,Net-(JP10-A)*%
X105236000Y-76864000D03*
%TO.P,R16,2*%
%TO.N,/PA3*%
X107061000Y-76864000D03*
%TD*%
%TO.P,R14,1*%
%TO.N,Net-(JP8-B)*%
X85600000Y-90050000D03*
%TO.P,R14,2*%
%TO.N,/PA4*%
X87425000Y-90050000D03*
%TD*%
D13*
%TO.P,JP12,1,A*%
%TO.N,Net-(JP11-B)*%
X100814500Y-85344000D03*
D14*
%TO.P,JP12,2,B*%
%TO.N,Net-(JP12-B)*%
X100814500Y-86644000D03*
%TD*%
D12*
%TO.P,R3,1*%
%TO.N,Net-(D3-K)*%
X112850000Y-92375000D03*
%TO.P,R3,2*%
%TO.N,Net-(Q1-C)*%
X112850000Y-94200000D03*
%TD*%
D13*
%TO.P,JP2,1,A*%
%TO.N,Net-(JP1-B)*%
X65278000Y-73330000D03*
D14*
%TO.P,JP2,2,B*%
%TO.N,Net-(JP2-B)*%
X65278000Y-74630000D03*
%TD*%
D11*
%TO.P,TP1,1,1*%
%TO.N,Net-(D1-K)*%
X56760000Y-86190000D03*
%TD*%
%TO.P,TP3,1,1*%
%TO.N,/PA4*%
X91000000Y-89600000D03*
%TD*%
D12*
%TO.P,R1,1*%
%TO.N,Net-(D1-K)*%
X56718200Y-90398600D03*
%TO.P,R1,2*%
%TO.N,Net-(Q1-C)*%
X56718200Y-92223600D03*
%TD*%
D16*
%TO.P,D2,1,K*%
%TO.N,Net-(D2-K)*%
X80935000Y-71374000D03*
D17*
%TO.P,D2,2,A*%
%TO.N,BATT*%
X78395000Y-71374000D03*
%TD*%
D13*
%TO.P,JP3,1,A*%
%TO.N,Net-(JP2-B)*%
X65278000Y-77140000D03*
D14*
%TO.P,JP3,2,B*%
%TO.N,Net-(JP3-B)*%
X65278000Y-78440000D03*
%TD*%
D13*
%TO.P,JP10,1,A*%
%TO.N,Net-(JP10-A)*%
X100814500Y-77724000D03*
D14*
%TO.P,JP10,2,B*%
%TO.N,Net-(JP10-B)*%
X100814500Y-79024000D03*
%TD*%
D16*
%TO.P,D5,1,K*%
%TO.N,/PA4*%
X87440000Y-71378600D03*
D17*
%TO.P,D5,2,A*%
%TO.N,GND*%
X84900000Y-71378600D03*
%TD*%
D16*
%TO.P,D6,1,K*%
%TO.N,/PA3*%
X113732000Y-82153600D03*
D17*
%TO.P,D6,2,A*%
%TO.N,GND*%
X113732000Y-79613600D03*
%TD*%
D15*
%TO.P,R13,1*%
%TO.N,Net-(JP7-B)*%
X85600000Y-86556000D03*
%TO.P,R13,2*%
%TO.N,/PA4*%
X87425000Y-86556000D03*
%TD*%
%TO.P,R17,1*%
%TO.N,Net-(JP10-B)*%
X105236000Y-80460000D03*
%TO.P,R17,2*%
%TO.N,/PA3*%
X107061000Y-80460000D03*
%TD*%
D13*
%TO.P,JP8,1,A*%
%TO.N,Net-(JP7-B)*%
X82192600Y-87671000D03*
D14*
%TO.P,JP8,2,B*%
%TO.N,Net-(JP8-B)*%
X82192600Y-88971000D03*
%TD*%
D15*
%TO.P,R10,1*%
%TO.N,3V3*%
X85600000Y-75825000D03*
%TO.P,R10,2*%
%TO.N,/PA4*%
X87425000Y-75825000D03*
%TD*%
D13*
%TO.P,JP6,1,A*%
%TO.N,Net-(JP5-B)*%
X82192600Y-80051000D03*
D14*
%TO.P,JP6,2,B*%
%TO.N,Net-(JP6-B)*%
X82192600Y-81351000D03*
%TD*%
D15*
%TO.P,R15,1*%
%TO.N,3V3*%
X105236000Y-73406000D03*
%TO.P,R15,2*%
%TO.N,/PA3*%
X107061000Y-73406000D03*
%TD*%
D13*
%TO.P,JP5,1,A*%
%TO.N,3V3*%
X82192600Y-76211000D03*
D14*
%TO.P,JP5,2,B*%
%TO.N,Net-(JP5-B)*%
X82192600Y-77511000D03*
%TD*%
D10*
%TO.P,R9,2*%
%TO.N,/PA5*%
X59991000Y-82750000D03*
%TO.P,R9,1*%
%TO.N,Net-(JP4-B)*%
X61816000Y-82750000D03*
%TD*%
%TO.P,R6,1*%
%TO.N,Net-(JP1-B)*%
X61825000Y-72556000D03*
%TO.P,R6,2*%
%TO.N,/PA5*%
X60000000Y-72556000D03*
%TD*%
D18*
%TO.P,Q1,1,C*%
%TO.N,Net-(Q1-C)*%
X96520000Y-94200000D03*
%TO.P,Q1,2,B*%
%TO.N,Net-(Q1-B)*%
X96520000Y-96100000D03*
%TO.P,Q1,3,E*%
%TO.N,GND*%
X98795000Y-95150000D03*
%TD*%
D16*
%TO.P,D4,1,K*%
%TO.N,/PA5*%
X53695600Y-73507600D03*
D17*
%TO.P,D4,2,A*%
%TO.N,GND*%
X53695600Y-76047600D03*
%TD*%
D13*
%TO.P,JP9,1,A*%
%TO.N,3V3*%
X100814500Y-74026000D03*
D14*
%TO.P,JP9,2,B*%
%TO.N,Net-(JP10-A)*%
X100814500Y-75326000D03*
%TD*%
D15*
%TO.P,R18,1*%
%TO.N,Net-(JP11-B)*%
X105236000Y-83918000D03*
%TO.P,R18,2*%
%TO.N,/PA3*%
X107061000Y-83918000D03*
%TD*%
D13*
%TO.P,JP11,1,A*%
%TO.N,Net-(JP10-B)*%
X100814500Y-81534000D03*
D14*
%TO.P,JP11,2,B*%
%TO.N,Net-(JP11-B)*%
X100814500Y-82834000D03*
%TD*%
D15*
%TO.P,R11,1*%
%TO.N,Net-(JP5-B)*%
X85600000Y-79350000D03*
%TO.P,R11,2*%
%TO.N,/PA4*%
X87425000Y-79350000D03*
%TD*%
%TO.P,R12,1*%
%TO.N,Net-(JP6-B)*%
X85600000Y-83000000D03*
%TO.P,R12,2*%
%TO.N,/PA4*%
X87425000Y-83000000D03*
%TD*%
D13*
%TO.P,JP7,1,A*%
%TO.N,Net-(JP6-B)*%
X82192600Y-83861000D03*
D14*
%TO.P,JP7,2,B*%
%TO.N,Net-(JP7-B)*%
X82192600Y-85161000D03*
%TD*%
D19*
%TO.P,R4,1*%
%TO.N,/PE15*%
X92700000Y-97925000D03*
%TO.P,R4,2*%
%TO.N,Net-(Q1-B)*%
X92700000Y-96100000D03*
%TD*%
D15*
%TO.P,R19,1*%
%TO.N,Net-(JP12-B)*%
X105236000Y-87376000D03*
%TO.P,R19,2*%
%TO.N,/PA3*%
X107061000Y-87376000D03*
%TD*%
D10*
%TO.P,R7,1*%
%TO.N,Net-(JP2-B)*%
X61821000Y-76112000D03*
%TO.P,R7,2*%
%TO.N,/PA5*%
X59996000Y-76112000D03*
%TD*%
D11*
%TO.P,TP2,1,1*%
%TO.N,/PA5*%
X61620400Y-88646000D03*
%TD*%
D10*
%TO.P,R5,1*%
%TO.N,3V3*%
X61825000Y-69000000D03*
%TO.P,R5,2*%
%TO.N,/PA5*%
X60000000Y-69000000D03*
%TD*%
D16*
%TO.P,D1,1,K*%
%TO.N,Net-(D1-K)*%
X53722000Y-79972000D03*
D17*
%TO.P,D1,2,A*%
%TO.N,BATT*%
X53722000Y-82512000D03*
%TD*%
D16*
%TO.P,D3,1,K*%
%TO.N,Net-(D3-K)*%
X113740000Y-75655000D03*
D17*
%TO.P,D3,2,A*%
%TO.N,BATT*%
X113740000Y-73115000D03*
%TD*%
D20*
%TO.P,J1,1,Pin_1*%
%TO.N,/RESV3*%
X100330000Y-104140000D03*
D21*
%TO.P,J1,2,Pin_2*%
%TO.N,3V3*%
X100330000Y-101600000D03*
%TO.P,J1,3,Pin_3*%
%TO.N,GND*%
X97790000Y-104140000D03*
%TO.P,J1,4,Pin_4*%
%TO.N,BATT*%
X97790000Y-101600000D03*
%TO.P,J1,5,Pin_5*%
%TO.N,/PA3*%
X95250000Y-104140000D03*
%TO.P,J1,6,Pin_6*%
%TO.N,/RESV2*%
X95250000Y-101600000D03*
%TO.P,J1,7,Pin_7*%
%TO.N,/PA4*%
X92710000Y-104140000D03*
%TO.P,J1,8,Pin_8*%
%TO.N,/PE15*%
X92710000Y-101600000D03*
%TO.P,J1,9,Pin_9*%
%TO.N,GND*%
X90170000Y-104140000D03*
%TO.P,J1,10,Pin_10*%
%TO.N,/PE14*%
X90170000Y-101600000D03*
%TO.P,J1,11,Pin_11*%
%TO.N,/PA5*%
X87630000Y-104140000D03*
%TO.P,J1,12,Pin_12*%
%TO.N,/PE13*%
X87630000Y-101600000D03*
%TO.P,J1,13,Pin_13*%
%TO.N,/PA6*%
X85090000Y-104140000D03*
%TO.P,J1,14,Pin_14*%
%TO.N,/PE12*%
X85090000Y-101600000D03*
%TO.P,J1,15,Pin_15*%
%TO.N,GND*%
X82550000Y-104140000D03*
%TO.P,J1,16,Pin_16*%
%TO.N,/PE11*%
X82550000Y-101600000D03*
%TO.P,J1,17,Pin_17*%
%TO.N,/PA7*%
X80010000Y-104140000D03*
%TO.P,J1,18,Pin_18*%
%TO.N,/PE10*%
X80010000Y-101600000D03*
%TO.P,J1,19,Pin_19*%
%TO.N,/PC4*%
X77470000Y-104140000D03*
%TO.P,J1,20,Pin_20*%
%TO.N,/PE9*%
X77470000Y-101600000D03*
%TO.P,J1,21,Pin_21*%
%TO.N,GND*%
X74930000Y-104140000D03*
%TO.P,J1,22,Pin_22*%
%TO.N,/PE8*%
X74930000Y-101600000D03*
%TO.P,J1,23,Pin_23*%
%TO.N,/PC5*%
X72390000Y-104140000D03*
%TO.P,J1,24,Pin_24*%
%TO.N,/RESV1*%
X72390000Y-101600000D03*
%TO.P,J1,25,Pin_25*%
%TO.N,/AB0*%
X69850000Y-104140000D03*
%TO.P,J1,26,Pin_26*%
%TO.N,BATT*%
X69850000Y-101600000D03*
%TO.P,J1,27,Pin_27*%
%TO.N,GND*%
X67310000Y-104140000D03*
%TO.P,J1,28,Pin_28*%
%TO.N,3V3*%
X67310000Y-101600000D03*
%TD*%
D22*
%TO.N,Net-(D2-K)*%
X76600000Y-85594000D03*
%TO.N,3V3*%
X98171000Y-89027000D03*
%TO.N,GND*%
X104902000Y-95250000D03*
%TD*%
D23*
%TO.N,/PA4*%
X88200000Y-89600000D02*
X91000000Y-89600000D01*
X87750000Y-90050000D02*
X88200000Y-89600000D01*
X87425000Y-90050000D02*
X87750000Y-90050000D01*
D24*
%TO.N,Net-(Q1-C)*%
X58694600Y-94200000D02*
X78600000Y-94200000D01*
X78600000Y-94200000D02*
X78200000Y-94200000D01*
X96520000Y-94200000D02*
X78600000Y-94200000D01*
X76600000Y-92025000D02*
X76600000Y-92600000D01*
X76600000Y-92600000D02*
X78200000Y-94200000D01*
%TO.N,Net-(D2-K)*%
X76600000Y-85594000D02*
X76600000Y-90250000D01*
%TO.N,Net-(Q1-C)*%
X112850000Y-94200000D02*
X96520000Y-94200000D01*
%TO.N,Net-(D3-K)*%
X116078000Y-77993000D02*
X116078000Y-89147000D01*
X116078000Y-89147000D02*
X112850000Y-92375000D01*
X113740000Y-75655000D02*
X116078000Y-77993000D01*
D23*
%TO.N,3V3*%
X82950000Y-73133000D02*
X82169000Y-73914000D01*
X84491000Y-68925000D02*
X82950000Y-70466000D01*
X95631000Y-68925000D02*
X84491000Y-68925000D01*
X82950000Y-70466000D02*
X82950000Y-73133000D01*
X71298000Y-69520000D02*
X65278000Y-69520000D01*
X82169000Y-73914000D02*
X75692000Y-73914000D01*
X75692000Y-73914000D02*
X71298000Y-69520000D01*
X82192600Y-73937600D02*
X82192600Y-76211000D01*
X82169000Y-73914000D02*
X82192600Y-73937600D01*
X99485000Y-74026000D02*
X98200000Y-75311000D01*
X100814500Y-74026000D02*
X99485000Y-74026000D01*
X98200000Y-75311000D02*
X98200000Y-71494000D01*
X98200000Y-88490000D02*
X98200000Y-75311000D01*
X98171000Y-89027000D02*
X98171000Y-88519000D01*
X98200000Y-71494000D02*
X95631000Y-68925000D01*
X95713500Y-68925000D02*
X95631000Y-68925000D01*
X98171000Y-88519000D02*
X98200000Y-88490000D01*
D24*
%TO.N,GND*%
X104802000Y-95150000D02*
X98837500Y-95150000D01*
X104902000Y-95250000D02*
X104802000Y-95150000D01*
D23*
%TO.N,Net-(JP8-B)*%
X85600000Y-90050000D02*
X83271600Y-90050000D01*
X83271600Y-90050000D02*
X82192600Y-88971000D01*
%TO.N,Net-(JP7-B)*%
X83307600Y-86556000D02*
X82192600Y-87671000D01*
X85600000Y-86556000D02*
X83307600Y-86556000D01*
%TO.N,Net-(JP6-B)*%
X83053600Y-83000000D02*
X82192600Y-83861000D01*
X85600000Y-83000000D02*
X83053600Y-83000000D01*
%TO.N,Net-(JP5-B)*%
X82893600Y-79350000D02*
X82192600Y-80051000D01*
X85600000Y-79350000D02*
X82893600Y-79350000D01*
%TO.N,Net-(JP7-B)*%
X82192600Y-85161000D02*
X82192600Y-87671000D01*
%TO.N,Net-(JP6-B)*%
X82192600Y-81351000D02*
X82192600Y-83861000D01*
%TO.N,Net-(JP5-B)*%
X82192600Y-77511000D02*
X82192600Y-80051000D01*
%TO.N,3V3*%
X82192600Y-76211000D02*
X85214000Y-76211000D01*
X85214000Y-76211000D02*
X85600000Y-75825000D01*
%TO.N,/PA4*%
X87425000Y-90050000D02*
X87425000Y-86556000D01*
X87425000Y-83000000D02*
X87425000Y-86556000D01*
X87425000Y-79350000D02*
X87425000Y-83000000D01*
X87425000Y-75825000D02*
X87425000Y-79350000D01*
X87440000Y-75810000D02*
X87425000Y-75825000D01*
X87440000Y-71378600D02*
X87440000Y-75810000D01*
%TO.N,Net-(JP12-B)*%
X105236000Y-87376000D02*
X101546500Y-87376000D01*
X101546500Y-87376000D02*
X100814500Y-86644000D01*
%TO.N,Net-(JP11-B)*%
X102240500Y-83918000D02*
X100814500Y-85344000D01*
X105236000Y-83918000D02*
X102240500Y-83918000D01*
%TO.N,Net-(JP10-B)*%
X101888500Y-80460000D02*
X100814500Y-81534000D01*
X105236000Y-80460000D02*
X101888500Y-80460000D01*
%TO.N,Net-(JP10-A)*%
X101674500Y-76864000D02*
X100814500Y-77724000D01*
X105236000Y-76864000D02*
X101674500Y-76864000D01*
%TO.N,Net-(JP11-B)*%
X100814500Y-82834000D02*
X100814500Y-85344000D01*
%TO.N,Net-(JP10-B)*%
X100814500Y-79024000D02*
X100814500Y-81534000D01*
%TO.N,Net-(JP10-A)*%
X100814500Y-75326000D02*
X100814500Y-77724000D01*
%TO.N,3V3*%
X105236000Y-73406000D02*
X101434500Y-73406000D01*
X101434500Y-73406000D02*
X100814500Y-74026000D01*
%TO.N,/PA3*%
X107061000Y-76864000D02*
X107061000Y-73406000D01*
X107061000Y-80460000D02*
X107061000Y-76864000D01*
X107061000Y-83918000D02*
X107061000Y-80460000D01*
X107061000Y-87376000D02*
X107061000Y-83918000D01*
X107061000Y-87376000D02*
X110474000Y-87376000D01*
X110474000Y-87376000D02*
X110475000Y-87375000D01*
X113732000Y-84118000D02*
X110475000Y-87375000D01*
X113732000Y-82153600D02*
X113732000Y-84118000D01*
%TO.N,/PA5*%
X59991000Y-85741000D02*
X59991000Y-82750000D01*
X61620400Y-87370400D02*
X59991000Y-85741000D01*
X61620400Y-88646000D02*
X61620400Y-87370400D01*
%TO.N,Net-(JP4-B)*%
X64778000Y-82750000D02*
X61816000Y-82750000D01*
X65278000Y-82250000D02*
X64778000Y-82750000D01*
%TO.N,Net-(JP3-B)*%
X63808000Y-79480000D02*
X65278000Y-80950000D01*
X61821000Y-79480000D02*
X63808000Y-79480000D01*
%TO.N,Net-(JP2-B)*%
X64250000Y-76112000D02*
X65278000Y-77140000D01*
X61821000Y-76112000D02*
X64250000Y-76112000D01*
%TO.N,Net-(JP1-B)*%
X64504000Y-72556000D02*
X65278000Y-73330000D01*
X61825000Y-72556000D02*
X64504000Y-72556000D01*
%TO.N,Net-(JP3-B)*%
X65278000Y-78440000D02*
X65278000Y-80950000D01*
%TO.N,Net-(JP2-B)*%
X65278000Y-74630000D02*
X65278000Y-77140000D01*
%TO.N,Net-(JP1-B)*%
X65278000Y-70820000D02*
X65278000Y-73330000D01*
%TO.N,3V3*%
X64758000Y-69000000D02*
X65278000Y-69520000D01*
X61825000Y-69000000D02*
X64758000Y-69000000D01*
%TO.N,/PA5*%
X59991000Y-79485000D02*
X59996000Y-79480000D01*
X59991000Y-82750000D02*
X59991000Y-79485000D01*
X59996000Y-79480000D02*
X59996000Y-76112000D01*
X60000000Y-73000000D02*
X59996000Y-73004000D01*
X60000000Y-72556000D02*
X60000000Y-73000000D01*
X59996000Y-73004000D02*
X59996000Y-76112000D01*
X60000000Y-69000000D02*
X60000000Y-72556000D01*
X55492400Y-73507600D02*
X60000000Y-69000000D01*
X53695600Y-73507600D02*
X55492400Y-73507600D01*
D24*
%TO.N,Net-(D1-K)*%
X56760000Y-86190000D02*
X56760000Y-86605000D01*
X56718200Y-86231800D02*
X56760000Y-86190000D01*
X56760000Y-83010000D02*
X56760000Y-86190000D01*
X56760000Y-86605000D02*
X56722000Y-86643000D01*
X53722000Y-79972000D02*
X56760000Y-83010000D01*
X56718200Y-90398600D02*
X56718200Y-86231800D01*
%TO.N,BATT*%
X53722000Y-82512000D02*
X50700000Y-79490000D01*
X74621000Y-67600000D02*
X78395000Y-71374000D01*
X50700000Y-71800000D02*
X54900000Y-67600000D01*
X53721000Y-98933000D02*
X53721000Y-82513000D01*
X113740000Y-73115000D02*
X113740000Y-71440000D01*
X67183000Y-98933000D02*
X53721000Y-98933000D01*
X69850000Y-101600000D02*
X67183000Y-98933000D01*
X54900000Y-67600000D02*
X74621000Y-67600000D01*
X53721000Y-82513000D02*
X53722000Y-82512000D01*
X82069000Y-67700000D02*
X78395000Y-71374000D01*
X110000000Y-67700000D02*
X82069000Y-67700000D01*
X50700000Y-79490000D02*
X50700000Y-71800000D01*
X113740000Y-71440000D02*
X110000000Y-67700000D01*
D23*
%TO.N,/PE8*%
X74900000Y-101570000D02*
X74930000Y-101600000D01*
%TO.N,/PE15*%
X92710000Y-101600000D02*
X92710000Y-97935000D01*
X92710000Y-97935000D02*
X92700000Y-97925000D01*
D24*
%TO.N,Net-(Q1-C)*%
X58694600Y-94200000D02*
X56718200Y-92223600D01*
D23*
%TO.N,Net-(Q1-B)*%
X92700000Y-96100000D02*
X96562500Y-96100000D01*
%TD*%
M02*
