%TF.GenerationSoftware,KiCad,Pcbnew,8.0.0*%
%TF.CreationDate,2024-03-21T20:48:15+02:00*%
%TF.ProjectId,Sensing system,53656e73-696e-4672-9073-797374656d2e,rev?*%
%TF.SameCoordinates,Original*%
%TF.FileFunction,Soldermask,Bot*%
%TF.FilePolarity,Negative*%
%FSLAX46Y46*%
G04 Gerber Fmt 4.6, Leading zero omitted, Abs format (unit mm)*
G04 Created by KiCad (PCBNEW 8.0.0) date 2024-03-21 20:48:15*
%MOMM*%
%LPD*%
G01*
G04 APERTURE LIST*
%ADD10O,1.700000X1.700000*%
%ADD11R,1.700000X1.700000*%
%ADD12C,1.800000*%
%ADD13R,1.800000X1.800000*%
G04 APERTURE END LIST*
D10*
%TO.C,J1*%
X67310000Y-101600000D03*
X67310000Y-104140000D03*
X69850000Y-101600000D03*
X69850000Y-104140000D03*
X72390000Y-101600000D03*
X72390000Y-104140000D03*
X74930000Y-101600000D03*
X74930000Y-104140000D03*
X77470000Y-101600000D03*
X77470000Y-104140000D03*
X80010000Y-101600000D03*
X80010000Y-104140000D03*
X82550000Y-101600000D03*
X82550000Y-104140000D03*
X85090000Y-101600000D03*
X85090000Y-104140000D03*
X87630000Y-101600000D03*
X87630000Y-104140000D03*
X90170000Y-101600000D03*
X90170000Y-104140000D03*
X92710000Y-101600000D03*
X92710000Y-104140000D03*
X95250000Y-101600000D03*
X95250000Y-104140000D03*
X97790000Y-101600000D03*
X97790000Y-104140000D03*
X100330000Y-101600000D03*
D11*
X100330000Y-104140000D03*
%TD*%
D12*
%TO.C,D6*%
X113740000Y-82097000D03*
D13*
X113740000Y-79557000D03*
%TD*%
%TO.C,D5*%
X84890000Y-71140000D03*
D12*
X87430000Y-71140000D03*
%TD*%
%TO.C,D4*%
X53720000Y-73490000D03*
D13*
X53720000Y-76030000D03*
%TD*%
D12*
%TO.C,D3*%
X113740000Y-73115000D03*
D13*
X113740000Y-75655000D03*
%TD*%
D12*
%TO.C,D2*%
X78395000Y-71150000D03*
D13*
X80935000Y-71150000D03*
%TD*%
D12*
%TO.C,D1*%
X53722000Y-82512000D03*
D13*
X53722000Y-79972000D03*
%TD*%
M02*
