%TF.GenerationSoftware,KiCad,Pcbnew,8.0.0*%
%TF.CreationDate,2024-03-21T20:48:15+02:00*%
%TF.ProjectId,Sensing system,53656e73-696e-4672-9073-797374656d2e,rev?*%
%TF.SameCoordinates,Original*%
%TF.FileFunction,Legend,Top*%
%TF.FilePolarity,Positive*%
%FSLAX46Y46*%
G04 Gerber Fmt 4.6, Leading zero omitted, Abs format (unit mm)*
G04 Created by KiCad (PCBNEW 8.0.0) date 2024-03-21 20:48:15*
%MOMM*%
%LPD*%
G01*
G04 APERTURE LIST*
G04 Aperture macros list*
%AMRoundRect*
0 Rectangle with rounded corners*
0 $1 Rounding radius*
0 $2 $3 $4 $5 $6 $7 $8 $9 X,Y pos of 4 corners*
0 Add a 4 corners polygon primitive as box body*
4,1,4,$2,$3,$4,$5,$6,$7,$8,$9,$2,$3,0*
0 Add four circle primitives for the rounded corners*
1,1,$1+$1,$2,$3*
1,1,$1+$1,$4,$5*
1,1,$1+$1,$6,$7*
1,1,$1+$1,$8,$9*
0 Add four rect primitives between the rounded corners*
20,1,$1+$1,$2,$3,$4,$5,0*
20,1,$1+$1,$4,$5,$6,$7,0*
20,1,$1+$1,$6,$7,$8,$9,0*
20,1,$1+$1,$8,$9,$2,$3,0*%
%AMFreePoly0*
4,1,19,0.000000,0.744911,0.071157,0.744911,0.207708,0.704816,0.327430,0.627875,0.420627,0.520320,0.479746,0.390866,0.500000,0.250000,0.500000,-0.250000,0.479746,-0.390866,0.420627,-0.520320,0.327430,-0.627875,0.207708,-0.704816,0.071157,-0.744911,0.000000,-0.744911,0.000000,-0.750000,-0.550000,-0.750000,-0.550000,0.750000,0.000000,0.750000,0.000000,0.744911,0.000000,0.744911,
$1*%
%AMFreePoly1*
4,1,19,0.550000,-0.750000,0.000000,-0.750000,0.000000,-0.744911,-0.071157,-0.744911,-0.207708,-0.704816,-0.327430,-0.627875,-0.420627,-0.520320,-0.479746,-0.390866,-0.500000,-0.250000,-0.500000,0.250000,-0.479746,0.390866,-0.420627,0.520320,-0.327430,0.627875,-0.207708,0.704816,-0.071157,0.744911,0.000000,0.744911,0.000000,0.750000,0.550000,0.750000,0.550000,-0.750000,0.550000,-0.750000,
$1*%
%AMFreePoly2*
4,1,19,0.000000,0.744911,0.071157,0.744911,0.207708,0.704816,0.327430,0.627875,0.420627,0.520320,0.479746,0.390866,0.500000,0.250000,0.500000,-0.250000,0.479746,-0.390866,0.420627,-0.520320,0.327430,-0.627875,0.207708,-0.704816,0.071157,-0.744911,0.000000,-0.744911,0.000000,-0.750000,-0.500000,-0.750000,-0.500000,0.750000,0.000000,0.750000,0.000000,0.744911,0.000000,0.744911,
$1*%
%AMFreePoly3*
4,1,19,0.500000,-0.750000,0.000000,-0.750000,0.000000,-0.744911,-0.071157,-0.744911,-0.207708,-0.704816,-0.327430,-0.627875,-0.420627,-0.520320,-0.479746,-0.390866,-0.500000,-0.250000,-0.500000,0.250000,-0.479746,0.390866,-0.420627,0.520320,-0.327430,0.627875,-0.207708,0.704816,-0.071157,0.744911,0.000000,0.744911,0.000000,0.750000,0.500000,0.750000,0.500000,-0.750000,0.500000,-0.750000,
$1*%
G04 Aperture macros list end*
%ADD10C,0.150000*%
%ADD11C,0.120000*%
%ADD12R,2.000000X2.000000*%
%ADD13RoundRect,0.250000X0.262500X0.450000X-0.262500X0.450000X-0.262500X-0.450000X0.262500X-0.450000X0*%
%ADD14RoundRect,0.250000X-0.262500X-0.450000X0.262500X-0.450000X0.262500X0.450000X-0.262500X0.450000X0*%
%ADD15RoundRect,0.250000X-0.450000X0.262500X-0.450000X-0.262500X0.450000X-0.262500X0.450000X0.262500X0*%
%ADD16RoundRect,0.250000X0.450000X-0.262500X0.450000X0.262500X-0.450000X0.262500X-0.450000X-0.262500X0*%
%ADD17RoundRect,0.150000X0.512500X0.150000X-0.512500X0.150000X-0.512500X-0.150000X0.512500X-0.150000X0*%
%ADD18FreePoly0,0.000000*%
%ADD19R,1.000000X1.500000*%
%ADD20FreePoly1,0.000000*%
%ADD21FreePoly2,90.000000*%
%ADD22FreePoly3,90.000000*%
%ADD23FreePoly2,0.000000*%
%ADD24FreePoly3,0.000000*%
%ADD25O,1.700000X1.700000*%
%ADD26R,1.700000X1.700000*%
%ADD27C,1.800000*%
%ADD28R,1.800000X1.800000*%
G04 APERTURE END LIST*
D10*
X112754095Y-84391819D02*
X113325523Y-84391819D01*
X113039809Y-85391819D02*
X113039809Y-84391819D01*
X113658857Y-85391819D02*
X113658857Y-84391819D01*
X113658857Y-84391819D02*
X114039809Y-84391819D01*
X114039809Y-84391819D02*
X114135047Y-84439438D01*
X114135047Y-84439438D02*
X114182666Y-84487057D01*
X114182666Y-84487057D02*
X114230285Y-84582295D01*
X114230285Y-84582295D02*
X114230285Y-84725152D01*
X114230285Y-84725152D02*
X114182666Y-84820390D01*
X114182666Y-84820390D02*
X114135047Y-84868009D01*
X114135047Y-84868009D02*
X114039809Y-84915628D01*
X114039809Y-84915628D02*
X113658857Y-84915628D01*
X115087428Y-84725152D02*
X115087428Y-85391819D01*
X114849333Y-84344200D02*
X114611238Y-85058485D01*
X114611238Y-85058485D02*
X115230285Y-85058485D01*
X92845095Y-66798819D02*
X93416523Y-66798819D01*
X93130809Y-67798819D02*
X93130809Y-66798819D01*
X93749857Y-67798819D02*
X93749857Y-66798819D01*
X93749857Y-66798819D02*
X94130809Y-66798819D01*
X94130809Y-66798819D02*
X94226047Y-66846438D01*
X94226047Y-66846438D02*
X94273666Y-66894057D01*
X94273666Y-66894057D02*
X94321285Y-66989295D01*
X94321285Y-66989295D02*
X94321285Y-67132152D01*
X94321285Y-67132152D02*
X94273666Y-67227390D01*
X94273666Y-67227390D02*
X94226047Y-67275009D01*
X94226047Y-67275009D02*
X94130809Y-67322628D01*
X94130809Y-67322628D02*
X93749857Y-67322628D01*
X94654619Y-66798819D02*
X95273666Y-66798819D01*
X95273666Y-66798819D02*
X94940333Y-67179771D01*
X94940333Y-67179771D02*
X95083190Y-67179771D01*
X95083190Y-67179771D02*
X95178428Y-67227390D01*
X95178428Y-67227390D02*
X95226047Y-67275009D01*
X95226047Y-67275009D02*
X95273666Y-67370247D01*
X95273666Y-67370247D02*
X95273666Y-67608342D01*
X95273666Y-67608342D02*
X95226047Y-67703580D01*
X95226047Y-67703580D02*
X95178428Y-67751200D01*
X95178428Y-67751200D02*
X95083190Y-67798819D01*
X95083190Y-67798819D02*
X94797476Y-67798819D01*
X94797476Y-67798819D02*
X94702238Y-67751200D01*
X94702238Y-67751200D02*
X94654619Y-67703580D01*
X52768095Y-66936819D02*
X53339523Y-66936819D01*
X53053809Y-67936819D02*
X53053809Y-66936819D01*
X53672857Y-67936819D02*
X53672857Y-66936819D01*
X53672857Y-66936819D02*
X54053809Y-66936819D01*
X54053809Y-66936819D02*
X54149047Y-66984438D01*
X54149047Y-66984438D02*
X54196666Y-67032057D01*
X54196666Y-67032057D02*
X54244285Y-67127295D01*
X54244285Y-67127295D02*
X54244285Y-67270152D01*
X54244285Y-67270152D02*
X54196666Y-67365390D01*
X54196666Y-67365390D02*
X54149047Y-67413009D01*
X54149047Y-67413009D02*
X54053809Y-67460628D01*
X54053809Y-67460628D02*
X53672857Y-67460628D01*
X54625238Y-67032057D02*
X54672857Y-66984438D01*
X54672857Y-66984438D02*
X54768095Y-66936819D01*
X54768095Y-66936819D02*
X55006190Y-66936819D01*
X55006190Y-66936819D02*
X55101428Y-66984438D01*
X55101428Y-66984438D02*
X55149047Y-67032057D01*
X55149047Y-67032057D02*
X55196666Y-67127295D01*
X55196666Y-67127295D02*
X55196666Y-67222533D01*
X55196666Y-67222533D02*
X55149047Y-67365390D01*
X55149047Y-67365390D02*
X54577619Y-67936819D01*
X54577619Y-67936819D02*
X55196666Y-67936819D01*
X52668095Y-84466819D02*
X53239523Y-84466819D01*
X52953809Y-85466819D02*
X52953809Y-84466819D01*
X53572857Y-85466819D02*
X53572857Y-84466819D01*
X53572857Y-84466819D02*
X53953809Y-84466819D01*
X53953809Y-84466819D02*
X54049047Y-84514438D01*
X54049047Y-84514438D02*
X54096666Y-84562057D01*
X54096666Y-84562057D02*
X54144285Y-84657295D01*
X54144285Y-84657295D02*
X54144285Y-84800152D01*
X54144285Y-84800152D02*
X54096666Y-84895390D01*
X54096666Y-84895390D02*
X54049047Y-84943009D01*
X54049047Y-84943009D02*
X53953809Y-84990628D01*
X53953809Y-84990628D02*
X53572857Y-84990628D01*
X55096666Y-85466819D02*
X54525238Y-85466819D01*
X54810952Y-85466819D02*
X54810952Y-84466819D01*
X54810952Y-84466819D02*
X54715714Y-84609676D01*
X54715714Y-84609676D02*
X54620476Y-84704914D01*
X54620476Y-84704914D02*
X54525238Y-84752533D01*
X94964642Y-81480819D02*
X94631309Y-81004628D01*
X94393214Y-81480819D02*
X94393214Y-80480819D01*
X94393214Y-80480819D02*
X94774166Y-80480819D01*
X94774166Y-80480819D02*
X94869404Y-80528438D01*
X94869404Y-80528438D02*
X94917023Y-80576057D01*
X94917023Y-80576057D02*
X94964642Y-80671295D01*
X94964642Y-80671295D02*
X94964642Y-80814152D01*
X94964642Y-80814152D02*
X94917023Y-80909390D01*
X94917023Y-80909390D02*
X94869404Y-80957009D01*
X94869404Y-80957009D02*
X94774166Y-81004628D01*
X94774166Y-81004628D02*
X94393214Y-81004628D01*
X95917023Y-81480819D02*
X95345595Y-81480819D01*
X95631309Y-81480819D02*
X95631309Y-80480819D01*
X95631309Y-80480819D02*
X95536071Y-80623676D01*
X95536071Y-80623676D02*
X95440833Y-80718914D01*
X95440833Y-80718914D02*
X95345595Y-80766533D01*
X96774166Y-80480819D02*
X96583690Y-80480819D01*
X96583690Y-80480819D02*
X96488452Y-80528438D01*
X96488452Y-80528438D02*
X96440833Y-80576057D01*
X96440833Y-80576057D02*
X96345595Y-80718914D01*
X96345595Y-80718914D02*
X96297976Y-80909390D01*
X96297976Y-80909390D02*
X96297976Y-81290342D01*
X96297976Y-81290342D02*
X96345595Y-81385580D01*
X96345595Y-81385580D02*
X96393214Y-81433200D01*
X96393214Y-81433200D02*
X96488452Y-81480819D01*
X96488452Y-81480819D02*
X96678928Y-81480819D01*
X96678928Y-81480819D02*
X96774166Y-81433200D01*
X96774166Y-81433200D02*
X96821785Y-81385580D01*
X96821785Y-81385580D02*
X96869404Y-81290342D01*
X96869404Y-81290342D02*
X96869404Y-81052247D01*
X96869404Y-81052247D02*
X96821785Y-80957009D01*
X96821785Y-80957009D02*
X96774166Y-80909390D01*
X96774166Y-80909390D02*
X96678928Y-80861771D01*
X96678928Y-80861771D02*
X96488452Y-80861771D01*
X96488452Y-80861771D02*
X96393214Y-80909390D01*
X96393214Y-80909390D02*
X96345595Y-80957009D01*
X96345595Y-80957009D02*
X96297976Y-81052247D01*
X104513142Y-73480819D02*
X104179809Y-73004628D01*
X103941714Y-73480819D02*
X103941714Y-72480819D01*
X103941714Y-72480819D02*
X104322666Y-72480819D01*
X104322666Y-72480819D02*
X104417904Y-72528438D01*
X104417904Y-72528438D02*
X104465523Y-72576057D01*
X104465523Y-72576057D02*
X104513142Y-72671295D01*
X104513142Y-72671295D02*
X104513142Y-72814152D01*
X104513142Y-72814152D02*
X104465523Y-72909390D01*
X104465523Y-72909390D02*
X104417904Y-72957009D01*
X104417904Y-72957009D02*
X104322666Y-73004628D01*
X104322666Y-73004628D02*
X103941714Y-73004628D01*
X105465523Y-73480819D02*
X104894095Y-73480819D01*
X105179809Y-73480819D02*
X105179809Y-72480819D01*
X105179809Y-72480819D02*
X105084571Y-72623676D01*
X105084571Y-72623676D02*
X104989333Y-72718914D01*
X104989333Y-72718914D02*
X104894095Y-72766533D01*
X106370285Y-72480819D02*
X105894095Y-72480819D01*
X105894095Y-72480819D02*
X105846476Y-72957009D01*
X105846476Y-72957009D02*
X105894095Y-72909390D01*
X105894095Y-72909390D02*
X105989333Y-72861771D01*
X105989333Y-72861771D02*
X106227428Y-72861771D01*
X106227428Y-72861771D02*
X106322666Y-72909390D01*
X106322666Y-72909390D02*
X106370285Y-72957009D01*
X106370285Y-72957009D02*
X106417904Y-73052247D01*
X106417904Y-73052247D02*
X106417904Y-73290342D01*
X106417904Y-73290342D02*
X106370285Y-73385580D01*
X106370285Y-73385580D02*
X106322666Y-73433200D01*
X106322666Y-73433200D02*
X106227428Y-73480819D01*
X106227428Y-73480819D02*
X105989333Y-73480819D01*
X105989333Y-73480819D02*
X105894095Y-73433200D01*
X105894095Y-73433200D02*
X105846476Y-73385580D01*
X104513142Y-82878819D02*
X104179809Y-82402628D01*
X103941714Y-82878819D02*
X103941714Y-81878819D01*
X103941714Y-81878819D02*
X104322666Y-81878819D01*
X104322666Y-81878819D02*
X104417904Y-81926438D01*
X104417904Y-81926438D02*
X104465523Y-81974057D01*
X104465523Y-81974057D02*
X104513142Y-82069295D01*
X104513142Y-82069295D02*
X104513142Y-82212152D01*
X104513142Y-82212152D02*
X104465523Y-82307390D01*
X104465523Y-82307390D02*
X104417904Y-82355009D01*
X104417904Y-82355009D02*
X104322666Y-82402628D01*
X104322666Y-82402628D02*
X103941714Y-82402628D01*
X105465523Y-82878819D02*
X104894095Y-82878819D01*
X105179809Y-82878819D02*
X105179809Y-81878819D01*
X105179809Y-81878819D02*
X105084571Y-82021676D01*
X105084571Y-82021676D02*
X104989333Y-82116914D01*
X104989333Y-82116914D02*
X104894095Y-82164533D01*
X106322666Y-82212152D02*
X106322666Y-82878819D01*
X106084571Y-81831200D02*
X105846476Y-82545485D01*
X105846476Y-82545485D02*
X106465523Y-82545485D01*
X86432819Y-89519357D02*
X85956628Y-89852690D01*
X86432819Y-90090785D02*
X85432819Y-90090785D01*
X85432819Y-90090785D02*
X85432819Y-89709833D01*
X85432819Y-89709833D02*
X85480438Y-89614595D01*
X85480438Y-89614595D02*
X85528057Y-89566976D01*
X85528057Y-89566976D02*
X85623295Y-89519357D01*
X85623295Y-89519357D02*
X85766152Y-89519357D01*
X85766152Y-89519357D02*
X85861390Y-89566976D01*
X85861390Y-89566976D02*
X85909009Y-89614595D01*
X85909009Y-89614595D02*
X85956628Y-89709833D01*
X85956628Y-89709833D02*
X85956628Y-90090785D01*
X86432819Y-88566976D02*
X86432819Y-89138404D01*
X86432819Y-88852690D02*
X85432819Y-88852690D01*
X85432819Y-88852690D02*
X85575676Y-88947928D01*
X85575676Y-88947928D02*
X85670914Y-89043166D01*
X85670914Y-89043166D02*
X85718533Y-89138404D01*
X85432819Y-88233642D02*
X85432819Y-87614595D01*
X85432819Y-87614595D02*
X85813771Y-87947928D01*
X85813771Y-87947928D02*
X85813771Y-87805071D01*
X85813771Y-87805071D02*
X85861390Y-87709833D01*
X85861390Y-87709833D02*
X85909009Y-87662214D01*
X85909009Y-87662214D02*
X86004247Y-87614595D01*
X86004247Y-87614595D02*
X86242342Y-87614595D01*
X86242342Y-87614595D02*
X86337580Y-87662214D01*
X86337580Y-87662214D02*
X86385200Y-87709833D01*
X86385200Y-87709833D02*
X86432819Y-87805071D01*
X86432819Y-87805071D02*
X86432819Y-88090785D01*
X86432819Y-88090785D02*
X86385200Y-88186023D01*
X86385200Y-88186023D02*
X86337580Y-88233642D01*
X88767819Y-79382857D02*
X88291628Y-79716190D01*
X88767819Y-79954285D02*
X87767819Y-79954285D01*
X87767819Y-79954285D02*
X87767819Y-79573333D01*
X87767819Y-79573333D02*
X87815438Y-79478095D01*
X87815438Y-79478095D02*
X87863057Y-79430476D01*
X87863057Y-79430476D02*
X87958295Y-79382857D01*
X87958295Y-79382857D02*
X88101152Y-79382857D01*
X88101152Y-79382857D02*
X88196390Y-79430476D01*
X88196390Y-79430476D02*
X88244009Y-79478095D01*
X88244009Y-79478095D02*
X88291628Y-79573333D01*
X88291628Y-79573333D02*
X88291628Y-79954285D01*
X88767819Y-78430476D02*
X88767819Y-79001904D01*
X88767819Y-78716190D02*
X87767819Y-78716190D01*
X87767819Y-78716190D02*
X87910676Y-78811428D01*
X87910676Y-78811428D02*
X88005914Y-78906666D01*
X88005914Y-78906666D02*
X88053533Y-79001904D01*
X87863057Y-78049523D02*
X87815438Y-78001904D01*
X87815438Y-78001904D02*
X87767819Y-77906666D01*
X87767819Y-77906666D02*
X87767819Y-77668571D01*
X87767819Y-77668571D02*
X87815438Y-77573333D01*
X87815438Y-77573333D02*
X87863057Y-77525714D01*
X87863057Y-77525714D02*
X87958295Y-77478095D01*
X87958295Y-77478095D02*
X88053533Y-77478095D01*
X88053533Y-77478095D02*
X88196390Y-77525714D01*
X88196390Y-77525714D02*
X88767819Y-78097142D01*
X88767819Y-78097142D02*
X88767819Y-77478095D01*
X78814819Y-79382857D02*
X78338628Y-79716190D01*
X78814819Y-79954285D02*
X77814819Y-79954285D01*
X77814819Y-79954285D02*
X77814819Y-79573333D01*
X77814819Y-79573333D02*
X77862438Y-79478095D01*
X77862438Y-79478095D02*
X77910057Y-79430476D01*
X77910057Y-79430476D02*
X78005295Y-79382857D01*
X78005295Y-79382857D02*
X78148152Y-79382857D01*
X78148152Y-79382857D02*
X78243390Y-79430476D01*
X78243390Y-79430476D02*
X78291009Y-79478095D01*
X78291009Y-79478095D02*
X78338628Y-79573333D01*
X78338628Y-79573333D02*
X78338628Y-79954285D01*
X78814819Y-78430476D02*
X78814819Y-79001904D01*
X78814819Y-78716190D02*
X77814819Y-78716190D01*
X77814819Y-78716190D02*
X77957676Y-78811428D01*
X77957676Y-78811428D02*
X78052914Y-78906666D01*
X78052914Y-78906666D02*
X78100533Y-79001904D01*
X78814819Y-77478095D02*
X78814819Y-78049523D01*
X78814819Y-77763809D02*
X77814819Y-77763809D01*
X77814819Y-77763809D02*
X77957676Y-77859047D01*
X77957676Y-77859047D02*
X78052914Y-77954285D01*
X78052914Y-77954285D02*
X78100533Y-78049523D01*
X72231642Y-78304819D02*
X71898309Y-77828628D01*
X71660214Y-78304819D02*
X71660214Y-77304819D01*
X71660214Y-77304819D02*
X72041166Y-77304819D01*
X72041166Y-77304819D02*
X72136404Y-77352438D01*
X72136404Y-77352438D02*
X72184023Y-77400057D01*
X72184023Y-77400057D02*
X72231642Y-77495295D01*
X72231642Y-77495295D02*
X72231642Y-77638152D01*
X72231642Y-77638152D02*
X72184023Y-77733390D01*
X72184023Y-77733390D02*
X72136404Y-77781009D01*
X72136404Y-77781009D02*
X72041166Y-77828628D01*
X72041166Y-77828628D02*
X71660214Y-77828628D01*
X73184023Y-78304819D02*
X72612595Y-78304819D01*
X72898309Y-78304819D02*
X72898309Y-77304819D01*
X72898309Y-77304819D02*
X72803071Y-77447676D01*
X72803071Y-77447676D02*
X72707833Y-77542914D01*
X72707833Y-77542914D02*
X72612595Y-77590533D01*
X73803071Y-77304819D02*
X73898309Y-77304819D01*
X73898309Y-77304819D02*
X73993547Y-77352438D01*
X73993547Y-77352438D02*
X74041166Y-77400057D01*
X74041166Y-77400057D02*
X74088785Y-77495295D01*
X74088785Y-77495295D02*
X74136404Y-77685771D01*
X74136404Y-77685771D02*
X74136404Y-77923866D01*
X74136404Y-77923866D02*
X74088785Y-78114342D01*
X74088785Y-78114342D02*
X74041166Y-78209580D01*
X74041166Y-78209580D02*
X73993547Y-78257200D01*
X73993547Y-78257200D02*
X73898309Y-78304819D01*
X73898309Y-78304819D02*
X73803071Y-78304819D01*
X73803071Y-78304819D02*
X73707833Y-78257200D01*
X73707833Y-78257200D02*
X73660214Y-78209580D01*
X73660214Y-78209580D02*
X73612595Y-78114342D01*
X73612595Y-78114342D02*
X73564976Y-77923866D01*
X73564976Y-77923866D02*
X73564976Y-77685771D01*
X73564976Y-77685771D02*
X73612595Y-77495295D01*
X73612595Y-77495295D02*
X73660214Y-77400057D01*
X73660214Y-77400057D02*
X73707833Y-77352438D01*
X73707833Y-77352438D02*
X73803071Y-77304819D01*
X62166833Y-70314819D02*
X61833500Y-69838628D01*
X61595405Y-70314819D02*
X61595405Y-69314819D01*
X61595405Y-69314819D02*
X61976357Y-69314819D01*
X61976357Y-69314819D02*
X62071595Y-69362438D01*
X62071595Y-69362438D02*
X62119214Y-69410057D01*
X62119214Y-69410057D02*
X62166833Y-69505295D01*
X62166833Y-69505295D02*
X62166833Y-69648152D01*
X62166833Y-69648152D02*
X62119214Y-69743390D01*
X62119214Y-69743390D02*
X62071595Y-69791009D01*
X62071595Y-69791009D02*
X61976357Y-69838628D01*
X61976357Y-69838628D02*
X61595405Y-69838628D01*
X62643024Y-70314819D02*
X62833500Y-70314819D01*
X62833500Y-70314819D02*
X62928738Y-70267200D01*
X62928738Y-70267200D02*
X62976357Y-70219580D01*
X62976357Y-70219580D02*
X63071595Y-70076723D01*
X63071595Y-70076723D02*
X63119214Y-69886247D01*
X63119214Y-69886247D02*
X63119214Y-69505295D01*
X63119214Y-69505295D02*
X63071595Y-69410057D01*
X63071595Y-69410057D02*
X63023976Y-69362438D01*
X63023976Y-69362438D02*
X62928738Y-69314819D01*
X62928738Y-69314819D02*
X62738262Y-69314819D01*
X62738262Y-69314819D02*
X62643024Y-69362438D01*
X62643024Y-69362438D02*
X62595405Y-69410057D01*
X62595405Y-69410057D02*
X62547786Y-69505295D01*
X62547786Y-69505295D02*
X62547786Y-69743390D01*
X62547786Y-69743390D02*
X62595405Y-69838628D01*
X62595405Y-69838628D02*
X62643024Y-69886247D01*
X62643024Y-69886247D02*
X62738262Y-69933866D01*
X62738262Y-69933866D02*
X62928738Y-69933866D01*
X62928738Y-69933866D02*
X63023976Y-69886247D01*
X63023976Y-69886247D02*
X63071595Y-69838628D01*
X63071595Y-69838628D02*
X63119214Y-69743390D01*
X62166833Y-79576819D02*
X61833500Y-79100628D01*
X61595405Y-79576819D02*
X61595405Y-78576819D01*
X61595405Y-78576819D02*
X61976357Y-78576819D01*
X61976357Y-78576819D02*
X62071595Y-78624438D01*
X62071595Y-78624438D02*
X62119214Y-78672057D01*
X62119214Y-78672057D02*
X62166833Y-78767295D01*
X62166833Y-78767295D02*
X62166833Y-78910152D01*
X62166833Y-78910152D02*
X62119214Y-79005390D01*
X62119214Y-79005390D02*
X62071595Y-79053009D01*
X62071595Y-79053009D02*
X61976357Y-79100628D01*
X61976357Y-79100628D02*
X61595405Y-79100628D01*
X62738262Y-79005390D02*
X62643024Y-78957771D01*
X62643024Y-78957771D02*
X62595405Y-78910152D01*
X62595405Y-78910152D02*
X62547786Y-78814914D01*
X62547786Y-78814914D02*
X62547786Y-78767295D01*
X62547786Y-78767295D02*
X62595405Y-78672057D01*
X62595405Y-78672057D02*
X62643024Y-78624438D01*
X62643024Y-78624438D02*
X62738262Y-78576819D01*
X62738262Y-78576819D02*
X62928738Y-78576819D01*
X62928738Y-78576819D02*
X63023976Y-78624438D01*
X63023976Y-78624438D02*
X63071595Y-78672057D01*
X63071595Y-78672057D02*
X63119214Y-78767295D01*
X63119214Y-78767295D02*
X63119214Y-78814914D01*
X63119214Y-78814914D02*
X63071595Y-78910152D01*
X63071595Y-78910152D02*
X63023976Y-78957771D01*
X63023976Y-78957771D02*
X62928738Y-79005390D01*
X62928738Y-79005390D02*
X62738262Y-79005390D01*
X62738262Y-79005390D02*
X62643024Y-79053009D01*
X62643024Y-79053009D02*
X62595405Y-79100628D01*
X62595405Y-79100628D02*
X62547786Y-79195866D01*
X62547786Y-79195866D02*
X62547786Y-79386342D01*
X62547786Y-79386342D02*
X62595405Y-79481580D01*
X62595405Y-79481580D02*
X62643024Y-79529200D01*
X62643024Y-79529200D02*
X62738262Y-79576819D01*
X62738262Y-79576819D02*
X62928738Y-79576819D01*
X62928738Y-79576819D02*
X63023976Y-79529200D01*
X63023976Y-79529200D02*
X63071595Y-79481580D01*
X63071595Y-79481580D02*
X63119214Y-79386342D01*
X63119214Y-79386342D02*
X63119214Y-79195866D01*
X63119214Y-79195866D02*
X63071595Y-79100628D01*
X63071595Y-79100628D02*
X63023976Y-79053009D01*
X63023976Y-79053009D02*
X62928738Y-79005390D01*
X104989333Y-78306819D02*
X104656000Y-77830628D01*
X104417905Y-78306819D02*
X104417905Y-77306819D01*
X104417905Y-77306819D02*
X104798857Y-77306819D01*
X104798857Y-77306819D02*
X104894095Y-77354438D01*
X104894095Y-77354438D02*
X104941714Y-77402057D01*
X104941714Y-77402057D02*
X104989333Y-77497295D01*
X104989333Y-77497295D02*
X104989333Y-77640152D01*
X104989333Y-77640152D02*
X104941714Y-77735390D01*
X104941714Y-77735390D02*
X104894095Y-77783009D01*
X104894095Y-77783009D02*
X104798857Y-77830628D01*
X104798857Y-77830628D02*
X104417905Y-77830628D01*
X105322667Y-77306819D02*
X105989333Y-77306819D01*
X105989333Y-77306819D02*
X105560762Y-78306819D01*
X83640819Y-78906666D02*
X83164628Y-79239999D01*
X83640819Y-79478094D02*
X82640819Y-79478094D01*
X82640819Y-79478094D02*
X82640819Y-79097142D01*
X82640819Y-79097142D02*
X82688438Y-79001904D01*
X82688438Y-79001904D02*
X82736057Y-78954285D01*
X82736057Y-78954285D02*
X82831295Y-78906666D01*
X82831295Y-78906666D02*
X82974152Y-78906666D01*
X82974152Y-78906666D02*
X83069390Y-78954285D01*
X83069390Y-78954285D02*
X83117009Y-79001904D01*
X83117009Y-79001904D02*
X83164628Y-79097142D01*
X83164628Y-79097142D02*
X83164628Y-79478094D01*
X82640819Y-78049523D02*
X82640819Y-78239999D01*
X82640819Y-78239999D02*
X82688438Y-78335237D01*
X82688438Y-78335237D02*
X82736057Y-78382856D01*
X82736057Y-78382856D02*
X82878914Y-78478094D01*
X82878914Y-78478094D02*
X83069390Y-78525713D01*
X83069390Y-78525713D02*
X83450342Y-78525713D01*
X83450342Y-78525713D02*
X83545580Y-78478094D01*
X83545580Y-78478094D02*
X83593200Y-78430475D01*
X83593200Y-78430475D02*
X83640819Y-78335237D01*
X83640819Y-78335237D02*
X83640819Y-78144761D01*
X83640819Y-78144761D02*
X83593200Y-78049523D01*
X83593200Y-78049523D02*
X83545580Y-78001904D01*
X83545580Y-78001904D02*
X83450342Y-77954285D01*
X83450342Y-77954285D02*
X83212247Y-77954285D01*
X83212247Y-77954285D02*
X83117009Y-78001904D01*
X83117009Y-78001904D02*
X83069390Y-78049523D01*
X83069390Y-78049523D02*
X83021771Y-78144761D01*
X83021771Y-78144761D02*
X83021771Y-78335237D01*
X83021771Y-78335237D02*
X83069390Y-78430475D01*
X83069390Y-78430475D02*
X83117009Y-78478094D01*
X83117009Y-78478094D02*
X83212247Y-78525713D01*
X62166833Y-75004819D02*
X61833500Y-74528628D01*
X61595405Y-75004819D02*
X61595405Y-74004819D01*
X61595405Y-74004819D02*
X61976357Y-74004819D01*
X61976357Y-74004819D02*
X62071595Y-74052438D01*
X62071595Y-74052438D02*
X62119214Y-74100057D01*
X62119214Y-74100057D02*
X62166833Y-74195295D01*
X62166833Y-74195295D02*
X62166833Y-74338152D01*
X62166833Y-74338152D02*
X62119214Y-74433390D01*
X62119214Y-74433390D02*
X62071595Y-74481009D01*
X62071595Y-74481009D02*
X61976357Y-74528628D01*
X61976357Y-74528628D02*
X61595405Y-74528628D01*
X63071595Y-74004819D02*
X62595405Y-74004819D01*
X62595405Y-74004819D02*
X62547786Y-74481009D01*
X62547786Y-74481009D02*
X62595405Y-74433390D01*
X62595405Y-74433390D02*
X62690643Y-74385771D01*
X62690643Y-74385771D02*
X62928738Y-74385771D01*
X62928738Y-74385771D02*
X63023976Y-74433390D01*
X63023976Y-74433390D02*
X63071595Y-74481009D01*
X63071595Y-74481009D02*
X63119214Y-74576247D01*
X63119214Y-74576247D02*
X63119214Y-74814342D01*
X63119214Y-74814342D02*
X63071595Y-74909580D01*
X63071595Y-74909580D02*
X63023976Y-74957200D01*
X63023976Y-74957200D02*
X62928738Y-75004819D01*
X62928738Y-75004819D02*
X62690643Y-75004819D01*
X62690643Y-75004819D02*
X62595405Y-74957200D01*
X62595405Y-74957200D02*
X62547786Y-74909580D01*
X73850833Y-95449819D02*
X73517500Y-94973628D01*
X73279405Y-95449819D02*
X73279405Y-94449819D01*
X73279405Y-94449819D02*
X73660357Y-94449819D01*
X73660357Y-94449819D02*
X73755595Y-94497438D01*
X73755595Y-94497438D02*
X73803214Y-94545057D01*
X73803214Y-94545057D02*
X73850833Y-94640295D01*
X73850833Y-94640295D02*
X73850833Y-94783152D01*
X73850833Y-94783152D02*
X73803214Y-94878390D01*
X73803214Y-94878390D02*
X73755595Y-94926009D01*
X73755595Y-94926009D02*
X73660357Y-94973628D01*
X73660357Y-94973628D02*
X73279405Y-94973628D01*
X74707976Y-94783152D02*
X74707976Y-95449819D01*
X74469881Y-94402200D02*
X74231786Y-95116485D01*
X74231786Y-95116485D02*
X74850833Y-95116485D01*
X101790833Y-97227819D02*
X101457500Y-96751628D01*
X101219405Y-97227819D02*
X101219405Y-96227819D01*
X101219405Y-96227819D02*
X101600357Y-96227819D01*
X101600357Y-96227819D02*
X101695595Y-96275438D01*
X101695595Y-96275438D02*
X101743214Y-96323057D01*
X101743214Y-96323057D02*
X101790833Y-96418295D01*
X101790833Y-96418295D02*
X101790833Y-96561152D01*
X101790833Y-96561152D02*
X101743214Y-96656390D01*
X101743214Y-96656390D02*
X101695595Y-96704009D01*
X101695595Y-96704009D02*
X101600357Y-96751628D01*
X101600357Y-96751628D02*
X101219405Y-96751628D01*
X102124167Y-96227819D02*
X102743214Y-96227819D01*
X102743214Y-96227819D02*
X102409881Y-96608771D01*
X102409881Y-96608771D02*
X102552738Y-96608771D01*
X102552738Y-96608771D02*
X102647976Y-96656390D01*
X102647976Y-96656390D02*
X102695595Y-96704009D01*
X102695595Y-96704009D02*
X102743214Y-96799247D01*
X102743214Y-96799247D02*
X102743214Y-97037342D01*
X102743214Y-97037342D02*
X102695595Y-97132580D01*
X102695595Y-97132580D02*
X102647976Y-97180200D01*
X102647976Y-97180200D02*
X102552738Y-97227819D01*
X102552738Y-97227819D02*
X102267024Y-97227819D01*
X102267024Y-97227819D02*
X102171786Y-97180200D01*
X102171786Y-97180200D02*
X102124167Y-97132580D01*
X80590819Y-94297166D02*
X80114628Y-94630499D01*
X80590819Y-94868594D02*
X79590819Y-94868594D01*
X79590819Y-94868594D02*
X79590819Y-94487642D01*
X79590819Y-94487642D02*
X79638438Y-94392404D01*
X79638438Y-94392404D02*
X79686057Y-94344785D01*
X79686057Y-94344785D02*
X79781295Y-94297166D01*
X79781295Y-94297166D02*
X79924152Y-94297166D01*
X79924152Y-94297166D02*
X80019390Y-94344785D01*
X80019390Y-94344785D02*
X80067009Y-94392404D01*
X80067009Y-94392404D02*
X80114628Y-94487642D01*
X80114628Y-94487642D02*
X80114628Y-94868594D01*
X79686057Y-93916213D02*
X79638438Y-93868594D01*
X79638438Y-93868594D02*
X79590819Y-93773356D01*
X79590819Y-93773356D02*
X79590819Y-93535261D01*
X79590819Y-93535261D02*
X79638438Y-93440023D01*
X79638438Y-93440023D02*
X79686057Y-93392404D01*
X79686057Y-93392404D02*
X79781295Y-93344785D01*
X79781295Y-93344785D02*
X79876533Y-93344785D01*
X79876533Y-93344785D02*
X80019390Y-93392404D01*
X80019390Y-93392404D02*
X80590819Y-93963832D01*
X80590819Y-93963832D02*
X80590819Y-93344785D01*
X54292833Y-93800819D02*
X53959500Y-93324628D01*
X53721405Y-93800819D02*
X53721405Y-92800819D01*
X53721405Y-92800819D02*
X54102357Y-92800819D01*
X54102357Y-92800819D02*
X54197595Y-92848438D01*
X54197595Y-92848438D02*
X54245214Y-92896057D01*
X54245214Y-92896057D02*
X54292833Y-92991295D01*
X54292833Y-92991295D02*
X54292833Y-93134152D01*
X54292833Y-93134152D02*
X54245214Y-93229390D01*
X54245214Y-93229390D02*
X54197595Y-93277009D01*
X54197595Y-93277009D02*
X54102357Y-93324628D01*
X54102357Y-93324628D02*
X53721405Y-93324628D01*
X55245214Y-93800819D02*
X54673786Y-93800819D01*
X54959500Y-93800819D02*
X54959500Y-92800819D01*
X54959500Y-92800819D02*
X54864262Y-92943676D01*
X54864262Y-92943676D02*
X54769024Y-93038914D01*
X54769024Y-93038914D02*
X54673786Y-93086533D01*
X62775261Y-97245057D02*
X62680023Y-97197438D01*
X62680023Y-97197438D02*
X62584785Y-97102200D01*
X62584785Y-97102200D02*
X62441928Y-96959342D01*
X62441928Y-96959342D02*
X62346690Y-96911723D01*
X62346690Y-96911723D02*
X62251452Y-96911723D01*
X62299071Y-97149819D02*
X62203833Y-97102200D01*
X62203833Y-97102200D02*
X62108595Y-97006961D01*
X62108595Y-97006961D02*
X62060976Y-96816485D01*
X62060976Y-96816485D02*
X62060976Y-96483152D01*
X62060976Y-96483152D02*
X62108595Y-96292676D01*
X62108595Y-96292676D02*
X62203833Y-96197438D01*
X62203833Y-96197438D02*
X62299071Y-96149819D01*
X62299071Y-96149819D02*
X62489547Y-96149819D01*
X62489547Y-96149819D02*
X62584785Y-96197438D01*
X62584785Y-96197438D02*
X62680023Y-96292676D01*
X62680023Y-96292676D02*
X62727642Y-96483152D01*
X62727642Y-96483152D02*
X62727642Y-96816485D01*
X62727642Y-96816485D02*
X62680023Y-97006961D01*
X62680023Y-97006961D02*
X62584785Y-97102200D01*
X62584785Y-97102200D02*
X62489547Y-97149819D01*
X62489547Y-97149819D02*
X62299071Y-97149819D01*
X63680023Y-97149819D02*
X63108595Y-97149819D01*
X63394309Y-97149819D02*
X63394309Y-96149819D01*
X63394309Y-96149819D02*
X63299071Y-96292676D01*
X63299071Y-96292676D02*
X63203833Y-96387914D01*
X63203833Y-96387914D02*
X63108595Y-96435533D01*
X95305666Y-83887819D02*
X95305666Y-84602104D01*
X95305666Y-84602104D02*
X95258047Y-84744961D01*
X95258047Y-84744961D02*
X95162809Y-84840200D01*
X95162809Y-84840200D02*
X95019952Y-84887819D01*
X95019952Y-84887819D02*
X94924714Y-84887819D01*
X95781857Y-84887819D02*
X95781857Y-83887819D01*
X95781857Y-83887819D02*
X96162809Y-83887819D01*
X96162809Y-83887819D02*
X96258047Y-83935438D01*
X96258047Y-83935438D02*
X96305666Y-83983057D01*
X96305666Y-83983057D02*
X96353285Y-84078295D01*
X96353285Y-84078295D02*
X96353285Y-84221152D01*
X96353285Y-84221152D02*
X96305666Y-84316390D01*
X96305666Y-84316390D02*
X96258047Y-84364009D01*
X96258047Y-84364009D02*
X96162809Y-84411628D01*
X96162809Y-84411628D02*
X95781857Y-84411628D01*
X96829476Y-84887819D02*
X97019952Y-84887819D01*
X97019952Y-84887819D02*
X97115190Y-84840200D01*
X97115190Y-84840200D02*
X97162809Y-84792580D01*
X97162809Y-84792580D02*
X97258047Y-84649723D01*
X97258047Y-84649723D02*
X97305666Y-84459247D01*
X97305666Y-84459247D02*
X97305666Y-84078295D01*
X97305666Y-84078295D02*
X97258047Y-83983057D01*
X97258047Y-83983057D02*
X97210428Y-83935438D01*
X97210428Y-83935438D02*
X97115190Y-83887819D01*
X97115190Y-83887819D02*
X96924714Y-83887819D01*
X96924714Y-83887819D02*
X96829476Y-83935438D01*
X96829476Y-83935438D02*
X96781857Y-83983057D01*
X96781857Y-83983057D02*
X96734238Y-84078295D01*
X96734238Y-84078295D02*
X96734238Y-84316390D01*
X96734238Y-84316390D02*
X96781857Y-84411628D01*
X96781857Y-84411628D02*
X96829476Y-84459247D01*
X96829476Y-84459247D02*
X96924714Y-84506866D01*
X96924714Y-84506866D02*
X97115190Y-84506866D01*
X97115190Y-84506866D02*
X97210428Y-84459247D01*
X97210428Y-84459247D02*
X97258047Y-84411628D01*
X97258047Y-84411628D02*
X97305666Y-84316390D01*
X98405667Y-85687819D02*
X99024714Y-85687819D01*
X99024714Y-85687819D02*
X98691381Y-86068771D01*
X98691381Y-86068771D02*
X98834238Y-86068771D01*
X98834238Y-86068771D02*
X98929476Y-86116390D01*
X98929476Y-86116390D02*
X98977095Y-86164009D01*
X98977095Y-86164009D02*
X99024714Y-86259247D01*
X99024714Y-86259247D02*
X99024714Y-86497342D01*
X99024714Y-86497342D02*
X98977095Y-86592580D01*
X98977095Y-86592580D02*
X98929476Y-86640200D01*
X98929476Y-86640200D02*
X98834238Y-86687819D01*
X98834238Y-86687819D02*
X98548524Y-86687819D01*
X98548524Y-86687819D02*
X98453286Y-86640200D01*
X98453286Y-86640200D02*
X98405667Y-86592580D01*
X93824714Y-86687819D02*
X93253286Y-86687819D01*
X93539000Y-86687819D02*
X93539000Y-85687819D01*
X93539000Y-85687819D02*
X93443762Y-85830676D01*
X93443762Y-85830676D02*
X93348524Y-85925914D01*
X93348524Y-85925914D02*
X93253286Y-85973533D01*
X97881319Y-83017333D02*
X98595604Y-83017333D01*
X98595604Y-83017333D02*
X98738461Y-83064952D01*
X98738461Y-83064952D02*
X98833700Y-83160190D01*
X98833700Y-83160190D02*
X98881319Y-83303047D01*
X98881319Y-83303047D02*
X98881319Y-83398285D01*
X98881319Y-82541142D02*
X97881319Y-82541142D01*
X97881319Y-82541142D02*
X97881319Y-82160190D01*
X97881319Y-82160190D02*
X97928938Y-82064952D01*
X97928938Y-82064952D02*
X97976557Y-82017333D01*
X97976557Y-82017333D02*
X98071795Y-81969714D01*
X98071795Y-81969714D02*
X98214652Y-81969714D01*
X98214652Y-81969714D02*
X98309890Y-82017333D01*
X98309890Y-82017333D02*
X98357509Y-82064952D01*
X98357509Y-82064952D02*
X98405128Y-82160190D01*
X98405128Y-82160190D02*
X98405128Y-82541142D01*
X98309890Y-81398285D02*
X98262271Y-81493523D01*
X98262271Y-81493523D02*
X98214652Y-81541142D01*
X98214652Y-81541142D02*
X98119414Y-81588761D01*
X98119414Y-81588761D02*
X98071795Y-81588761D01*
X98071795Y-81588761D02*
X97976557Y-81541142D01*
X97976557Y-81541142D02*
X97928938Y-81493523D01*
X97928938Y-81493523D02*
X97881319Y-81398285D01*
X97881319Y-81398285D02*
X97881319Y-81207809D01*
X97881319Y-81207809D02*
X97928938Y-81112571D01*
X97928938Y-81112571D02*
X97976557Y-81064952D01*
X97976557Y-81064952D02*
X98071795Y-81017333D01*
X98071795Y-81017333D02*
X98119414Y-81017333D01*
X98119414Y-81017333D02*
X98214652Y-81064952D01*
X98214652Y-81064952D02*
X98262271Y-81112571D01*
X98262271Y-81112571D02*
X98309890Y-81207809D01*
X98309890Y-81207809D02*
X98309890Y-81398285D01*
X98309890Y-81398285D02*
X98357509Y-81493523D01*
X98357509Y-81493523D02*
X98405128Y-81541142D01*
X98405128Y-81541142D02*
X98500366Y-81588761D01*
X98500366Y-81588761D02*
X98690842Y-81588761D01*
X98690842Y-81588761D02*
X98786080Y-81541142D01*
X98786080Y-81541142D02*
X98833700Y-81493523D01*
X98833700Y-81493523D02*
X98881319Y-81398285D01*
X98881319Y-81398285D02*
X98881319Y-81207809D01*
X98881319Y-81207809D02*
X98833700Y-81112571D01*
X98833700Y-81112571D02*
X98786080Y-81064952D01*
X98786080Y-81064952D02*
X98690842Y-81017333D01*
X98690842Y-81017333D02*
X98500366Y-81017333D01*
X98500366Y-81017333D02*
X98405128Y-81064952D01*
X98405128Y-81064952D02*
X98357509Y-81112571D01*
X98357509Y-81112571D02*
X98309890Y-81207809D01*
X97881319Y-77653333D02*
X98595604Y-77653333D01*
X98595604Y-77653333D02*
X98738461Y-77700952D01*
X98738461Y-77700952D02*
X98833700Y-77796190D01*
X98833700Y-77796190D02*
X98881319Y-77939047D01*
X98881319Y-77939047D02*
X98881319Y-78034285D01*
X98881319Y-77177142D02*
X97881319Y-77177142D01*
X97881319Y-77177142D02*
X97881319Y-76796190D01*
X97881319Y-76796190D02*
X97928938Y-76700952D01*
X97928938Y-76700952D02*
X97976557Y-76653333D01*
X97976557Y-76653333D02*
X98071795Y-76605714D01*
X98071795Y-76605714D02*
X98214652Y-76605714D01*
X98214652Y-76605714D02*
X98309890Y-76653333D01*
X98309890Y-76653333D02*
X98357509Y-76700952D01*
X98357509Y-76700952D02*
X98405128Y-76796190D01*
X98405128Y-76796190D02*
X98405128Y-77177142D01*
X97881319Y-76272380D02*
X97881319Y-75605714D01*
X97881319Y-75605714D02*
X98881319Y-76034285D01*
X84734666Y-91253819D02*
X84734666Y-91968104D01*
X84734666Y-91968104D02*
X84687047Y-92110961D01*
X84687047Y-92110961D02*
X84591809Y-92206200D01*
X84591809Y-92206200D02*
X84448952Y-92253819D01*
X84448952Y-92253819D02*
X84353714Y-92253819D01*
X85210857Y-92253819D02*
X85210857Y-91253819D01*
X85210857Y-91253819D02*
X85591809Y-91253819D01*
X85591809Y-91253819D02*
X85687047Y-91301438D01*
X85687047Y-91301438D02*
X85734666Y-91349057D01*
X85734666Y-91349057D02*
X85782285Y-91444295D01*
X85782285Y-91444295D02*
X85782285Y-91587152D01*
X85782285Y-91587152D02*
X85734666Y-91682390D01*
X85734666Y-91682390D02*
X85687047Y-91730009D01*
X85687047Y-91730009D02*
X85591809Y-91777628D01*
X85591809Y-91777628D02*
X85210857Y-91777628D01*
X86639428Y-91253819D02*
X86448952Y-91253819D01*
X86448952Y-91253819D02*
X86353714Y-91301438D01*
X86353714Y-91301438D02*
X86306095Y-91349057D01*
X86306095Y-91349057D02*
X86210857Y-91491914D01*
X86210857Y-91491914D02*
X86163238Y-91682390D01*
X86163238Y-91682390D02*
X86163238Y-92063342D01*
X86163238Y-92063342D02*
X86210857Y-92158580D01*
X86210857Y-92158580D02*
X86258476Y-92206200D01*
X86258476Y-92206200D02*
X86353714Y-92253819D01*
X86353714Y-92253819D02*
X86544190Y-92253819D01*
X86544190Y-92253819D02*
X86639428Y-92206200D01*
X86639428Y-92206200D02*
X86687047Y-92158580D01*
X86687047Y-92158580D02*
X86734666Y-92063342D01*
X86734666Y-92063342D02*
X86734666Y-91825247D01*
X86734666Y-91825247D02*
X86687047Y-91730009D01*
X86687047Y-91730009D02*
X86639428Y-91682390D01*
X86639428Y-91682390D02*
X86544190Y-91634771D01*
X86544190Y-91634771D02*
X86353714Y-91634771D01*
X86353714Y-91634771D02*
X86258476Y-91682390D01*
X86258476Y-91682390D02*
X86210857Y-91730009D01*
X86210857Y-91730009D02*
X86163238Y-91825247D01*
X87834667Y-93053819D02*
X88453714Y-93053819D01*
X88453714Y-93053819D02*
X88120381Y-93434771D01*
X88120381Y-93434771D02*
X88263238Y-93434771D01*
X88263238Y-93434771D02*
X88358476Y-93482390D01*
X88358476Y-93482390D02*
X88406095Y-93530009D01*
X88406095Y-93530009D02*
X88453714Y-93625247D01*
X88453714Y-93625247D02*
X88453714Y-93863342D01*
X88453714Y-93863342D02*
X88406095Y-93958580D01*
X88406095Y-93958580D02*
X88358476Y-94006200D01*
X88358476Y-94006200D02*
X88263238Y-94053819D01*
X88263238Y-94053819D02*
X87977524Y-94053819D01*
X87977524Y-94053819D02*
X87882286Y-94006200D01*
X87882286Y-94006200D02*
X87834667Y-93958580D01*
X83253714Y-94053819D02*
X82682286Y-94053819D01*
X82968000Y-94053819D02*
X82968000Y-93053819D01*
X82968000Y-93053819D02*
X82872762Y-93196676D01*
X82872762Y-93196676D02*
X82777524Y-93291914D01*
X82777524Y-93291914D02*
X82682286Y-93339533D01*
X80827666Y-81728819D02*
X80827666Y-82443104D01*
X80827666Y-82443104D02*
X80780047Y-82585961D01*
X80780047Y-82585961D02*
X80684809Y-82681200D01*
X80684809Y-82681200D02*
X80541952Y-82728819D01*
X80541952Y-82728819D02*
X80446714Y-82728819D01*
X81303857Y-82728819D02*
X81303857Y-81728819D01*
X81303857Y-81728819D02*
X81684809Y-81728819D01*
X81684809Y-81728819D02*
X81780047Y-81776438D01*
X81780047Y-81776438D02*
X81827666Y-81824057D01*
X81827666Y-81824057D02*
X81875285Y-81919295D01*
X81875285Y-81919295D02*
X81875285Y-82062152D01*
X81875285Y-82062152D02*
X81827666Y-82157390D01*
X81827666Y-82157390D02*
X81780047Y-82205009D01*
X81780047Y-82205009D02*
X81684809Y-82252628D01*
X81684809Y-82252628D02*
X81303857Y-82252628D01*
X82780047Y-81728819D02*
X82303857Y-81728819D01*
X82303857Y-81728819D02*
X82256238Y-82205009D01*
X82256238Y-82205009D02*
X82303857Y-82157390D01*
X82303857Y-82157390D02*
X82399095Y-82109771D01*
X82399095Y-82109771D02*
X82637190Y-82109771D01*
X82637190Y-82109771D02*
X82732428Y-82157390D01*
X82732428Y-82157390D02*
X82780047Y-82205009D01*
X82780047Y-82205009D02*
X82827666Y-82300247D01*
X82827666Y-82300247D02*
X82827666Y-82538342D01*
X82827666Y-82538342D02*
X82780047Y-82633580D01*
X82780047Y-82633580D02*
X82732428Y-82681200D01*
X82732428Y-82681200D02*
X82637190Y-82728819D01*
X82637190Y-82728819D02*
X82399095Y-82728819D01*
X82399095Y-82728819D02*
X82303857Y-82681200D01*
X82303857Y-82681200D02*
X82256238Y-82633580D01*
X71526666Y-79696819D02*
X71526666Y-80411104D01*
X71526666Y-80411104D02*
X71479047Y-80553961D01*
X71479047Y-80553961D02*
X71383809Y-80649200D01*
X71383809Y-80649200D02*
X71240952Y-80696819D01*
X71240952Y-80696819D02*
X71145714Y-80696819D01*
X72002857Y-80696819D02*
X72002857Y-79696819D01*
X72002857Y-79696819D02*
X72383809Y-79696819D01*
X72383809Y-79696819D02*
X72479047Y-79744438D01*
X72479047Y-79744438D02*
X72526666Y-79792057D01*
X72526666Y-79792057D02*
X72574285Y-79887295D01*
X72574285Y-79887295D02*
X72574285Y-80030152D01*
X72574285Y-80030152D02*
X72526666Y-80125390D01*
X72526666Y-80125390D02*
X72479047Y-80173009D01*
X72479047Y-80173009D02*
X72383809Y-80220628D01*
X72383809Y-80220628D02*
X72002857Y-80220628D01*
X72907619Y-79696819D02*
X73526666Y-79696819D01*
X73526666Y-79696819D02*
X73193333Y-80077771D01*
X73193333Y-80077771D02*
X73336190Y-80077771D01*
X73336190Y-80077771D02*
X73431428Y-80125390D01*
X73431428Y-80125390D02*
X73479047Y-80173009D01*
X73479047Y-80173009D02*
X73526666Y-80268247D01*
X73526666Y-80268247D02*
X73526666Y-80506342D01*
X73526666Y-80506342D02*
X73479047Y-80601580D01*
X73479047Y-80601580D02*
X73431428Y-80649200D01*
X73431428Y-80649200D02*
X73336190Y-80696819D01*
X73336190Y-80696819D02*
X73050476Y-80696819D01*
X73050476Y-80696819D02*
X72955238Y-80649200D01*
X72955238Y-80649200D02*
X72907619Y-80601580D01*
X74626667Y-81496819D02*
X75245714Y-81496819D01*
X75245714Y-81496819D02*
X74912381Y-81877771D01*
X74912381Y-81877771D02*
X75055238Y-81877771D01*
X75055238Y-81877771D02*
X75150476Y-81925390D01*
X75150476Y-81925390D02*
X75198095Y-81973009D01*
X75198095Y-81973009D02*
X75245714Y-82068247D01*
X75245714Y-82068247D02*
X75245714Y-82306342D01*
X75245714Y-82306342D02*
X75198095Y-82401580D01*
X75198095Y-82401580D02*
X75150476Y-82449200D01*
X75150476Y-82449200D02*
X75055238Y-82496819D01*
X75055238Y-82496819D02*
X74769524Y-82496819D01*
X74769524Y-82496819D02*
X74674286Y-82449200D01*
X74674286Y-82449200D02*
X74626667Y-82401580D01*
X70045714Y-82496819D02*
X69474286Y-82496819D01*
X69760000Y-82496819D02*
X69760000Y-81496819D01*
X69760000Y-81496819D02*
X69664762Y-81639676D01*
X69664762Y-81639676D02*
X69569524Y-81734914D01*
X69569524Y-81734914D02*
X69474286Y-81782533D01*
X86161666Y-81728819D02*
X86161666Y-82443104D01*
X86161666Y-82443104D02*
X86114047Y-82585961D01*
X86114047Y-82585961D02*
X86018809Y-82681200D01*
X86018809Y-82681200D02*
X85875952Y-82728819D01*
X85875952Y-82728819D02*
X85780714Y-82728819D01*
X86637857Y-82728819D02*
X86637857Y-81728819D01*
X86637857Y-81728819D02*
X87018809Y-81728819D01*
X87018809Y-81728819D02*
X87114047Y-81776438D01*
X87114047Y-81776438D02*
X87161666Y-81824057D01*
X87161666Y-81824057D02*
X87209285Y-81919295D01*
X87209285Y-81919295D02*
X87209285Y-82062152D01*
X87209285Y-82062152D02*
X87161666Y-82157390D01*
X87161666Y-82157390D02*
X87114047Y-82205009D01*
X87114047Y-82205009D02*
X87018809Y-82252628D01*
X87018809Y-82252628D02*
X86637857Y-82252628D01*
X88066428Y-82062152D02*
X88066428Y-82728819D01*
X87828333Y-81681200D02*
X87590238Y-82395485D01*
X87590238Y-82395485D02*
X88209285Y-82395485D01*
X68542819Y-74493333D02*
X69257104Y-74493333D01*
X69257104Y-74493333D02*
X69399961Y-74540952D01*
X69399961Y-74540952D02*
X69495200Y-74636190D01*
X69495200Y-74636190D02*
X69542819Y-74779047D01*
X69542819Y-74779047D02*
X69542819Y-74874285D01*
X69542819Y-74017142D02*
X68542819Y-74017142D01*
X68542819Y-74017142D02*
X68542819Y-73636190D01*
X68542819Y-73636190D02*
X68590438Y-73540952D01*
X68590438Y-73540952D02*
X68638057Y-73493333D01*
X68638057Y-73493333D02*
X68733295Y-73445714D01*
X68733295Y-73445714D02*
X68876152Y-73445714D01*
X68876152Y-73445714D02*
X68971390Y-73493333D01*
X68971390Y-73493333D02*
X69019009Y-73540952D01*
X69019009Y-73540952D02*
X69066628Y-73636190D01*
X69066628Y-73636190D02*
X69066628Y-74017142D01*
X68638057Y-73064761D02*
X68590438Y-73017142D01*
X68590438Y-73017142D02*
X68542819Y-72921904D01*
X68542819Y-72921904D02*
X68542819Y-72683809D01*
X68542819Y-72683809D02*
X68590438Y-72588571D01*
X68590438Y-72588571D02*
X68638057Y-72540952D01*
X68638057Y-72540952D02*
X68733295Y-72493333D01*
X68733295Y-72493333D02*
X68828533Y-72493333D01*
X68828533Y-72493333D02*
X68971390Y-72540952D01*
X68971390Y-72540952D02*
X69542819Y-73112380D01*
X69542819Y-73112380D02*
X69542819Y-72493333D01*
X68542819Y-79969333D02*
X69257104Y-79969333D01*
X69257104Y-79969333D02*
X69399961Y-80016952D01*
X69399961Y-80016952D02*
X69495200Y-80112190D01*
X69495200Y-80112190D02*
X69542819Y-80255047D01*
X69542819Y-80255047D02*
X69542819Y-80350285D01*
X69542819Y-79493142D02*
X68542819Y-79493142D01*
X68542819Y-79493142D02*
X68542819Y-79112190D01*
X68542819Y-79112190D02*
X68590438Y-79016952D01*
X68590438Y-79016952D02*
X68638057Y-78969333D01*
X68638057Y-78969333D02*
X68733295Y-78921714D01*
X68733295Y-78921714D02*
X68876152Y-78921714D01*
X68876152Y-78921714D02*
X68971390Y-78969333D01*
X68971390Y-78969333D02*
X69019009Y-79016952D01*
X69019009Y-79016952D02*
X69066628Y-79112190D01*
X69066628Y-79112190D02*
X69066628Y-79493142D01*
X69542819Y-77969333D02*
X69542819Y-78540761D01*
X69542819Y-78255047D02*
X68542819Y-78255047D01*
X68542819Y-78255047D02*
X68685676Y-78350285D01*
X68685676Y-78350285D02*
X68780914Y-78445523D01*
X68780914Y-78445523D02*
X68828533Y-78540761D01*
X118154820Y-81565093D02*
X117154820Y-81565093D01*
X117154820Y-81565093D02*
X117154820Y-81326998D01*
X117154820Y-81326998D02*
X117202439Y-81184141D01*
X117202439Y-81184141D02*
X117297677Y-81088903D01*
X117297677Y-81088903D02*
X117392915Y-81041284D01*
X117392915Y-81041284D02*
X117583391Y-80993665D01*
X117583391Y-80993665D02*
X117726248Y-80993665D01*
X117726248Y-80993665D02*
X117916724Y-81041284D01*
X117916724Y-81041284D02*
X118011962Y-81088903D01*
X118011962Y-81088903D02*
X118107201Y-81184141D01*
X118107201Y-81184141D02*
X118154820Y-81326998D01*
X118154820Y-81326998D02*
X118154820Y-81565093D01*
X117154820Y-80136522D02*
X117154820Y-80326998D01*
X117154820Y-80326998D02*
X117202439Y-80422236D01*
X117202439Y-80422236D02*
X117250058Y-80469855D01*
X117250058Y-80469855D02*
X117392915Y-80565093D01*
X117392915Y-80565093D02*
X117583391Y-80612712D01*
X117583391Y-80612712D02*
X117964343Y-80612712D01*
X117964343Y-80612712D02*
X118059581Y-80565093D01*
X118059581Y-80565093D02*
X118107201Y-80517474D01*
X118107201Y-80517474D02*
X118154820Y-80422236D01*
X118154820Y-80422236D02*
X118154820Y-80231760D01*
X118154820Y-80231760D02*
X118107201Y-80136522D01*
X118107201Y-80136522D02*
X118059581Y-80088903D01*
X118059581Y-80088903D02*
X117964343Y-80041284D01*
X117964343Y-80041284D02*
X117726248Y-80041284D01*
X117726248Y-80041284D02*
X117631010Y-80088903D01*
X117631010Y-80088903D02*
X117583391Y-80136522D01*
X117583391Y-80136522D02*
X117535772Y-80231760D01*
X117535772Y-80231760D02*
X117535772Y-80422236D01*
X117535772Y-80422236D02*
X117583391Y-80517474D01*
X117583391Y-80517474D02*
X117631010Y-80565093D01*
X117631010Y-80565093D02*
X117726248Y-80612712D01*
X85211905Y-67594819D02*
X85211905Y-66594819D01*
X85211905Y-66594819D02*
X85450000Y-66594819D01*
X85450000Y-66594819D02*
X85592857Y-66642438D01*
X85592857Y-66642438D02*
X85688095Y-66737676D01*
X85688095Y-66737676D02*
X85735714Y-66832914D01*
X85735714Y-66832914D02*
X85783333Y-67023390D01*
X85783333Y-67023390D02*
X85783333Y-67166247D01*
X85783333Y-67166247D02*
X85735714Y-67356723D01*
X85735714Y-67356723D02*
X85688095Y-67451961D01*
X85688095Y-67451961D02*
X85592857Y-67547200D01*
X85592857Y-67547200D02*
X85450000Y-67594819D01*
X85450000Y-67594819D02*
X85211905Y-67594819D01*
X86688095Y-66594819D02*
X86211905Y-66594819D01*
X86211905Y-66594819D02*
X86164286Y-67071009D01*
X86164286Y-67071009D02*
X86211905Y-67023390D01*
X86211905Y-67023390D02*
X86307143Y-66975771D01*
X86307143Y-66975771D02*
X86545238Y-66975771D01*
X86545238Y-66975771D02*
X86640476Y-67023390D01*
X86640476Y-67023390D02*
X86688095Y-67071009D01*
X86688095Y-67071009D02*
X86735714Y-67166247D01*
X86735714Y-67166247D02*
X86735714Y-67404342D01*
X86735714Y-67404342D02*
X86688095Y-67499580D01*
X86688095Y-67499580D02*
X86640476Y-67547200D01*
X86640476Y-67547200D02*
X86545238Y-67594819D01*
X86545238Y-67594819D02*
X86307143Y-67594819D01*
X86307143Y-67594819D02*
X86211905Y-67547200D01*
X86211905Y-67547200D02*
X86164286Y-67499580D01*
X50214819Y-75498094D02*
X49214819Y-75498094D01*
X49214819Y-75498094D02*
X49214819Y-75259999D01*
X49214819Y-75259999D02*
X49262438Y-75117142D01*
X49262438Y-75117142D02*
X49357676Y-75021904D01*
X49357676Y-75021904D02*
X49452914Y-74974285D01*
X49452914Y-74974285D02*
X49643390Y-74926666D01*
X49643390Y-74926666D02*
X49786247Y-74926666D01*
X49786247Y-74926666D02*
X49976723Y-74974285D01*
X49976723Y-74974285D02*
X50071961Y-75021904D01*
X50071961Y-75021904D02*
X50167200Y-75117142D01*
X50167200Y-75117142D02*
X50214819Y-75259999D01*
X50214819Y-75259999D02*
X50214819Y-75498094D01*
X49548152Y-74069523D02*
X50214819Y-74069523D01*
X49167200Y-74307618D02*
X49881485Y-74545713D01*
X49881485Y-74545713D02*
X49881485Y-73926666D01*
X118394822Y-75653091D02*
X117394822Y-75653091D01*
X117394822Y-75653091D02*
X117394822Y-75414996D01*
X117394822Y-75414996D02*
X117442441Y-75272139D01*
X117442441Y-75272139D02*
X117537679Y-75176901D01*
X117537679Y-75176901D02*
X117632917Y-75129282D01*
X117632917Y-75129282D02*
X117823393Y-75081663D01*
X117823393Y-75081663D02*
X117966250Y-75081663D01*
X117966250Y-75081663D02*
X118156726Y-75129282D01*
X118156726Y-75129282D02*
X118251964Y-75176901D01*
X118251964Y-75176901D02*
X118347203Y-75272139D01*
X118347203Y-75272139D02*
X118394822Y-75414996D01*
X118394822Y-75414996D02*
X118394822Y-75653091D01*
X117394822Y-74748329D02*
X117394822Y-74129282D01*
X117394822Y-74129282D02*
X117775774Y-74462615D01*
X117775774Y-74462615D02*
X117775774Y-74319758D01*
X117775774Y-74319758D02*
X117823393Y-74224520D01*
X117823393Y-74224520D02*
X117871012Y-74176901D01*
X117871012Y-74176901D02*
X117966250Y-74129282D01*
X117966250Y-74129282D02*
X118204345Y-74129282D01*
X118204345Y-74129282D02*
X118299583Y-74176901D01*
X118299583Y-74176901D02*
X118347203Y-74224520D01*
X118347203Y-74224520D02*
X118394822Y-74319758D01*
X118394822Y-74319758D02*
X118394822Y-74605472D01*
X118394822Y-74605472D02*
X118347203Y-74700710D01*
X118347203Y-74700710D02*
X118299583Y-74748329D01*
X78976905Y-67684819D02*
X78976905Y-66684819D01*
X78976905Y-66684819D02*
X79215000Y-66684819D01*
X79215000Y-66684819D02*
X79357857Y-66732438D01*
X79357857Y-66732438D02*
X79453095Y-66827676D01*
X79453095Y-66827676D02*
X79500714Y-66922914D01*
X79500714Y-66922914D02*
X79548333Y-67113390D01*
X79548333Y-67113390D02*
X79548333Y-67256247D01*
X79548333Y-67256247D02*
X79500714Y-67446723D01*
X79500714Y-67446723D02*
X79453095Y-67541961D01*
X79453095Y-67541961D02*
X79357857Y-67637200D01*
X79357857Y-67637200D02*
X79215000Y-67684819D01*
X79215000Y-67684819D02*
X78976905Y-67684819D01*
X79929286Y-66780057D02*
X79976905Y-66732438D01*
X79976905Y-66732438D02*
X80072143Y-66684819D01*
X80072143Y-66684819D02*
X80310238Y-66684819D01*
X80310238Y-66684819D02*
X80405476Y-66732438D01*
X80405476Y-66732438D02*
X80453095Y-66780057D01*
X80453095Y-66780057D02*
X80500714Y-66875295D01*
X80500714Y-66875295D02*
X80500714Y-66970533D01*
X80500714Y-66970533D02*
X80453095Y-67113390D01*
X80453095Y-67113390D02*
X79881667Y-67684819D01*
X79881667Y-67684819D02*
X80500714Y-67684819D01*
X50176819Y-82310094D02*
X49176819Y-82310094D01*
X49176819Y-82310094D02*
X49176819Y-82071999D01*
X49176819Y-82071999D02*
X49224438Y-81929142D01*
X49224438Y-81929142D02*
X49319676Y-81833904D01*
X49319676Y-81833904D02*
X49414914Y-81786285D01*
X49414914Y-81786285D02*
X49605390Y-81738666D01*
X49605390Y-81738666D02*
X49748247Y-81738666D01*
X49748247Y-81738666D02*
X49938723Y-81786285D01*
X49938723Y-81786285D02*
X50033961Y-81833904D01*
X50033961Y-81833904D02*
X50129200Y-81929142D01*
X50129200Y-81929142D02*
X50176819Y-82071999D01*
X50176819Y-82071999D02*
X50176819Y-82310094D01*
X50176819Y-80786285D02*
X50176819Y-81357713D01*
X50176819Y-81071999D02*
X49176819Y-81071999D01*
X49176819Y-81071999D02*
X49319676Y-81167237D01*
X49319676Y-81167237D02*
X49414914Y-81262475D01*
X49414914Y-81262475D02*
X49462533Y-81357713D01*
D11*
%TO.C,TP4*%
X115216000Y-88135000D02*
X112816000Y-88135000D01*
X115216000Y-85735000D02*
X115216000Y-88135000D01*
X112816000Y-88135000D02*
X112816000Y-85735000D01*
X112816000Y-85735000D02*
X115216000Y-85735000D01*
%TO.C,TP3*%
X95307000Y-70542000D02*
X92907000Y-70542000D01*
X95307000Y-68142000D02*
X95307000Y-70542000D01*
X92907000Y-70542000D02*
X92907000Y-68142000D01*
X92907000Y-68142000D02*
X95307000Y-68142000D01*
%TO.C,TP2*%
X55230000Y-70680000D02*
X52830000Y-70680000D01*
X55230000Y-68280000D02*
X55230000Y-70680000D01*
X52830000Y-70680000D02*
X52830000Y-68280000D01*
X52830000Y-68280000D02*
X55230000Y-68280000D01*
%TO.C,TP1*%
X55130000Y-88210000D02*
X52730000Y-88210000D01*
X55130000Y-85810000D02*
X55130000Y-88210000D01*
X52730000Y-88210000D02*
X52730000Y-85810000D01*
X52730000Y-85810000D02*
X55130000Y-85810000D01*
%TO.C,R16*%
X95858064Y-78513000D02*
X95403936Y-78513000D01*
X95858064Y-79983000D02*
X95403936Y-79983000D01*
%TO.C,R15*%
X104928936Y-75411000D02*
X105383064Y-75411000D01*
X104928936Y-73941000D02*
X105383064Y-73941000D01*
%TO.C,R14*%
X104928936Y-84809000D02*
X105383064Y-84809000D01*
X104928936Y-83339000D02*
X105383064Y-83339000D01*
%TO.C,R13*%
X83593000Y-88649436D02*
X83593000Y-89103564D01*
X85063000Y-88649436D02*
X85063000Y-89103564D01*
%TO.C,R12*%
X90698000Y-78967064D02*
X90698000Y-78512936D01*
X89228000Y-78967064D02*
X89228000Y-78512936D01*
%TO.C,R11*%
X80745000Y-78967064D02*
X80745000Y-78512936D01*
X79275000Y-78967064D02*
X79275000Y-78512936D01*
%TO.C,R10*%
X73101564Y-75465000D02*
X72647436Y-75465000D01*
X73101564Y-76935000D02*
X72647436Y-76935000D01*
%TO.C,R9*%
X62106436Y-72245000D02*
X62560564Y-72245000D01*
X62106436Y-70775000D02*
X62560564Y-70775000D01*
%TO.C,R8*%
X62106436Y-81507000D02*
X62560564Y-81507000D01*
X62106436Y-80037000D02*
X62560564Y-80037000D01*
%TO.C,R7*%
X104928936Y-80237000D02*
X105383064Y-80237000D01*
X104928936Y-78767000D02*
X105383064Y-78767000D01*
%TO.C,R6*%
X85571000Y-78967064D02*
X85571000Y-78512936D01*
X84101000Y-78967064D02*
X84101000Y-78512936D01*
%TO.C,R5*%
X62106436Y-76935000D02*
X62560564Y-76935000D01*
X62106436Y-75465000D02*
X62560564Y-75465000D01*
%TO.C,R4*%
X74244564Y-92610000D02*
X73790436Y-92610000D01*
X74244564Y-94080000D02*
X73790436Y-94080000D01*
%TO.C,R3*%
X102184564Y-94388000D02*
X101730436Y-94388000D01*
X102184564Y-95858000D02*
X101730436Y-95858000D01*
%TO.C,R2*%
X77751000Y-93903436D02*
X77751000Y-94357564D01*
X79221000Y-93903436D02*
X79221000Y-94357564D01*
%TO.C,R1*%
X54232436Y-95731000D02*
X54686564Y-95731000D01*
X54232436Y-94261000D02*
X54686564Y-94261000D01*
%TO.C,Q1*%
X62870500Y-95855000D02*
X63670500Y-95855000D01*
X62870500Y-95855000D02*
X62070500Y-95855000D01*
X62870500Y-92735000D02*
X63670500Y-92735000D01*
X62870500Y-92735000D02*
X62070500Y-92735000D01*
X64410500Y-96135000D02*
X63930500Y-96135000D01*
X64170500Y-95805000D01*
X64410500Y-96135000D01*
G36*
X64410500Y-96135000D02*
G01*
X63930500Y-96135000D01*
X64170500Y-95805000D01*
X64410500Y-96135000D01*
G37*
%TO.C,JP9*%
X98189000Y-86533000D02*
G75*
G02*
X97489000Y-87233000I-700000J0D01*
G01*
X97489000Y-85233000D02*
G75*
G02*
X98189000Y-85933000I0J-700000D01*
G01*
X94789000Y-87233000D02*
G75*
G02*
X94089000Y-86533000I-1J699999D01*
G01*
X94089000Y-85933000D02*
G75*
G02*
X94789000Y-85233000I699999J1D01*
G01*
X98189000Y-85933000D02*
X98189000Y-86533000D01*
X97539000Y-87233000D02*
X94739000Y-87233000D01*
X94739000Y-85233000D02*
X97539000Y-85233000D01*
X94089000Y-86533000D02*
X94089000Y-85933000D01*
%TO.C,JP8*%
X100526500Y-80784000D02*
G75*
G02*
X101226500Y-81484000I0J-700000D01*
G01*
X99226500Y-81484000D02*
G75*
G02*
X99926500Y-80784000I700000J0D01*
G01*
X101226500Y-82884000D02*
G75*
G02*
X100526500Y-83584000I-699999J-1D01*
G01*
X99926500Y-83584000D02*
G75*
G02*
X99226500Y-82884000I-1J699999D01*
G01*
X99926500Y-80784000D02*
X100526500Y-80784000D01*
X101226500Y-81484000D02*
X101226500Y-82884000D01*
X99226500Y-82884000D02*
X99226500Y-81484000D01*
X100526500Y-83584000D02*
X99926500Y-83584000D01*
%TO.C,JP7*%
X100526500Y-75420000D02*
G75*
G02*
X101226500Y-76120000I0J-700000D01*
G01*
X99226500Y-76120000D02*
G75*
G02*
X99926500Y-75420000I700000J0D01*
G01*
X101226500Y-77520000D02*
G75*
G02*
X100526500Y-78220000I-699999J-1D01*
G01*
X99926500Y-78220000D02*
G75*
G02*
X99226500Y-77520000I-1J699999D01*
G01*
X99926500Y-75420000D02*
X100526500Y-75420000D01*
X101226500Y-76120000D02*
X101226500Y-77520000D01*
X99226500Y-77520000D02*
X99226500Y-76120000D01*
X100526500Y-78220000D02*
X99926500Y-78220000D01*
%TO.C,JP6*%
X87618000Y-93899000D02*
G75*
G02*
X86918000Y-94599000I-700000J0D01*
G01*
X86918000Y-92599000D02*
G75*
G02*
X87618000Y-93299000I0J-700000D01*
G01*
X84218000Y-94599000D02*
G75*
G02*
X83518000Y-93899000I-1J699999D01*
G01*
X83518000Y-93299000D02*
G75*
G02*
X84218000Y-92599000I699999J1D01*
G01*
X87618000Y-93299000D02*
X87618000Y-93899000D01*
X86968000Y-94599000D02*
X84168000Y-94599000D01*
X84168000Y-92599000D02*
X86968000Y-92599000D01*
X83518000Y-93899000D02*
X83518000Y-93299000D01*
%TO.C,JP5*%
X83061000Y-84374000D02*
G75*
G02*
X82361000Y-85074000I-700000J0D01*
G01*
X82361000Y-83074000D02*
G75*
G02*
X83061000Y-83774000I0J-700000D01*
G01*
X80961000Y-85074000D02*
G75*
G02*
X80261000Y-84374000I-1J699999D01*
G01*
X80261000Y-83774000D02*
G75*
G02*
X80961000Y-83074000I699999J1D01*
G01*
X83061000Y-83774000D02*
X83061000Y-84374000D01*
X82361000Y-85074000D02*
X80961000Y-85074000D01*
X80961000Y-83074000D02*
X82361000Y-83074000D01*
X80261000Y-84374000D02*
X80261000Y-83774000D01*
%TO.C,JP3*%
X74410000Y-82342000D02*
G75*
G02*
X73710000Y-83042000I-700000J0D01*
G01*
X73710000Y-81042000D02*
G75*
G02*
X74410000Y-81742000I0J-700000D01*
G01*
X71010000Y-83042000D02*
G75*
G02*
X70310000Y-82342000I-1J699999D01*
G01*
X70310000Y-81742000D02*
G75*
G02*
X71010000Y-81042000I699999J1D01*
G01*
X74410000Y-81742000D02*
X74410000Y-82342000D01*
X73760000Y-83042000D02*
X70960000Y-83042000D01*
X70960000Y-81042000D02*
X73760000Y-81042000D01*
X70310000Y-82342000D02*
X70310000Y-81742000D01*
%TO.C,JP4*%
X88395000Y-84374000D02*
G75*
G02*
X87695000Y-85074000I-700000J0D01*
G01*
X87695000Y-83074000D02*
G75*
G02*
X88395000Y-83774000I0J-700000D01*
G01*
X86295000Y-85074000D02*
G75*
G02*
X85595000Y-84374000I-1J699999D01*
G01*
X85595000Y-83774000D02*
G75*
G02*
X86295000Y-83074000I699999J1D01*
G01*
X88395000Y-83774000D02*
X88395000Y-84374000D01*
X87695000Y-85074000D02*
X86295000Y-85074000D01*
X86295000Y-83074000D02*
X87695000Y-83074000D01*
X85595000Y-84374000D02*
X85595000Y-83774000D01*
%TO.C,JP2*%
X67356000Y-72118000D02*
G75*
G02*
X68056000Y-72818000I0J-700000D01*
G01*
X66056000Y-72818000D02*
G75*
G02*
X66756000Y-72118000I700000J0D01*
G01*
X68056000Y-74218000D02*
G75*
G02*
X67356000Y-74918000I-699999J-1D01*
G01*
X66756000Y-74918000D02*
G75*
G02*
X66056000Y-74218000I-1J699999D01*
G01*
X66756000Y-72118000D02*
X67356000Y-72118000D01*
X68056000Y-72818000D02*
X68056000Y-74218000D01*
X66056000Y-74218000D02*
X66056000Y-72818000D01*
X67356000Y-74918000D02*
X66756000Y-74918000D01*
%TO.C,JP1*%
X67356000Y-77482000D02*
G75*
G02*
X68056000Y-78182000I0J-700000D01*
G01*
X66056000Y-78182000D02*
G75*
G02*
X66756000Y-77482000I700000J0D01*
G01*
X68056000Y-79582000D02*
G75*
G02*
X67356000Y-80282000I-699999J-1D01*
G01*
X66756000Y-80282000D02*
G75*
G02*
X66056000Y-79582000I-1J699999D01*
G01*
X66756000Y-77482000D02*
X67356000Y-77482000D01*
X68056000Y-78182000D02*
X68056000Y-79582000D01*
X66056000Y-79582000D02*
X66056000Y-78182000D01*
X67356000Y-80282000D02*
X66756000Y-80282000D01*
%TO.C,D6*%
X116240000Y-80827000D02*
G75*
G02*
X111240000Y-80827000I-2500000J0D01*
G01*
X111240000Y-80827000D02*
G75*
G02*
X116240000Y-80827000I2500000J0D01*
G01*
X113740462Y-83817000D02*
G75*
G02*
X112195170Y-78267000I-462J2990000D01*
G01*
X115284830Y-78267001D02*
G75*
G02*
X113739538Y-83816999I-1544830J-2559999D01*
G01*
X115285000Y-78267000D02*
X112195000Y-78267000D01*
%TO.C,D5*%
X83600000Y-69595000D02*
X83600000Y-72685000D01*
X83600001Y-69595170D02*
G75*
G02*
X89149999Y-71140462I2559999J-1544830D01*
G01*
X89150000Y-71139538D02*
G75*
G02*
X83600000Y-72684830I-2990000J-462D01*
G01*
X88660000Y-71140000D02*
G75*
G02*
X83660000Y-71140000I-2500000J0D01*
G01*
X83660000Y-71140000D02*
G75*
G02*
X88660000Y-71140000I2500000J0D01*
G01*
%TO.C,D4*%
X56220000Y-74760000D02*
G75*
G02*
X51220000Y-74760000I-2500000J0D01*
G01*
X51220000Y-74760000D02*
G75*
G02*
X56220000Y-74760000I2500000J0D01*
G01*
X53719538Y-71770000D02*
G75*
G02*
X55264830Y-77320000I462J-2990000D01*
G01*
X52175170Y-77319999D02*
G75*
G02*
X53720462Y-71770001I1544830J2559999D01*
G01*
X52175000Y-77320000D02*
X55265000Y-77320000D01*
%TO.C,D3*%
X116240000Y-74385000D02*
G75*
G02*
X111240000Y-74385000I-2500000J0D01*
G01*
X111240000Y-74385000D02*
G75*
G02*
X116240000Y-74385000I2500000J0D01*
G01*
X113739538Y-71395000D02*
G75*
G02*
X115284830Y-76945000I462J-2990000D01*
G01*
X112195170Y-76944999D02*
G75*
G02*
X113740462Y-71395001I1544830J2559999D01*
G01*
X112195000Y-76945000D02*
X115285000Y-76945000D01*
%TO.C,D2*%
X82165000Y-71150000D02*
G75*
G02*
X77165000Y-71150000I-2500000J0D01*
G01*
X77165000Y-71150000D02*
G75*
G02*
X82165000Y-71150000I2500000J0D01*
G01*
X76675000Y-71150462D02*
G75*
G02*
X82225000Y-69605170I2990000J462D01*
G01*
X82224999Y-72694830D02*
G75*
G02*
X76675001Y-71149538I-2559999J1544830D01*
G01*
X82225000Y-72695000D02*
X82225000Y-69605000D01*
%TO.C,D1*%
X56222000Y-81242000D02*
G75*
G02*
X51222000Y-81242000I-2500000J0D01*
G01*
X51222000Y-81242000D02*
G75*
G02*
X56222000Y-81242000I2500000J0D01*
G01*
X53722462Y-84232000D02*
G75*
G02*
X52177170Y-78682000I-462J2990000D01*
G01*
X55266830Y-78682001D02*
G75*
G02*
X53721538Y-84231999I-1544830J-2559999D01*
G01*
X55267000Y-78682000D02*
X52177000Y-78682000D01*
%TD*%
%LPC*%
D12*
%TO.C,TP4*%
X114016000Y-86935000D03*
%TD*%
%TO.C,TP3*%
X94107000Y-69342000D03*
%TD*%
%TO.C,TP2*%
X54030000Y-69480000D03*
%TD*%
%TO.C,TP1*%
X53930000Y-87010000D03*
%TD*%
D13*
%TO.C,R16*%
X94718500Y-79248000D03*
X96543500Y-79248000D03*
%TD*%
D14*
%TO.C,R15*%
X106068500Y-74676000D03*
X104243500Y-74676000D03*
%TD*%
%TO.C,R14*%
X106068500Y-84074000D03*
X104243500Y-84074000D03*
%TD*%
D15*
%TO.C,R13*%
X84328000Y-89789000D03*
X84328000Y-87964000D03*
%TD*%
D16*
%TO.C,R12*%
X89963000Y-77827500D03*
X89963000Y-79652500D03*
%TD*%
%TO.C,R11*%
X80010000Y-77827500D03*
X80010000Y-79652500D03*
%TD*%
D13*
%TO.C,R10*%
X71962000Y-76200000D03*
X73787000Y-76200000D03*
%TD*%
D14*
%TO.C,R9*%
X63246000Y-71510000D03*
X61421000Y-71510000D03*
%TD*%
%TO.C,R8*%
X63246000Y-80772000D03*
X61421000Y-80772000D03*
%TD*%
%TO.C,R7*%
X106068500Y-79502000D03*
X104243500Y-79502000D03*
%TD*%
D16*
%TO.C,R6*%
X84836000Y-77827500D03*
X84836000Y-79652500D03*
%TD*%
D14*
%TO.C,R5*%
X63246000Y-76200000D03*
X61421000Y-76200000D03*
%TD*%
D13*
%TO.C,R4*%
X73105000Y-93345000D03*
X74930000Y-93345000D03*
%TD*%
%TO.C,R3*%
X101045000Y-95123000D03*
X102870000Y-95123000D03*
%TD*%
D15*
%TO.C,R2*%
X78486000Y-95043000D03*
X78486000Y-93218000D03*
%TD*%
D14*
%TO.C,R1*%
X55372000Y-94996000D03*
X53547000Y-94996000D03*
%TD*%
D17*
%TO.C,Q1*%
X64008000Y-95245000D03*
X64008000Y-93345000D03*
X61733000Y-94295000D03*
%TD*%
D18*
%TO.C,JP9*%
X97439000Y-86233000D03*
D19*
X96139000Y-86233000D03*
D20*
X94839000Y-86233000D03*
%TD*%
D21*
%TO.C,JP8*%
X100226500Y-81534000D03*
D22*
X100226500Y-82834000D03*
%TD*%
D21*
%TO.C,JP7*%
X100226500Y-76170000D03*
D22*
X100226500Y-77470000D03*
%TD*%
D18*
%TO.C,JP6*%
X86868000Y-93599000D03*
D19*
X85568000Y-93599000D03*
D20*
X84268000Y-93599000D03*
%TD*%
D23*
%TO.C,JP5*%
X82311000Y-84074000D03*
D24*
X81011000Y-84074000D03*
%TD*%
D18*
%TO.C,JP3*%
X73660000Y-82042000D03*
D19*
X72360000Y-82042000D03*
D20*
X71060000Y-82042000D03*
%TD*%
D23*
%TO.C,JP4*%
X87645000Y-84074000D03*
D24*
X86345000Y-84074000D03*
%TD*%
D21*
%TO.C,JP2*%
X67056000Y-72868000D03*
D22*
X67056000Y-74168000D03*
%TD*%
D21*
%TO.C,JP1*%
X67056000Y-78232000D03*
D22*
X67056000Y-79532000D03*
%TD*%
D25*
%TO.C,J1*%
X67310000Y-101600000D03*
X67310000Y-104140000D03*
X69850000Y-101600000D03*
X69850000Y-104140000D03*
X72390000Y-101600000D03*
X72390000Y-104140000D03*
X74930000Y-101600000D03*
X74930000Y-104140000D03*
X77470000Y-101600000D03*
X77470000Y-104140000D03*
X80010000Y-101600000D03*
X80010000Y-104140000D03*
X82550000Y-101600000D03*
X82550000Y-104140000D03*
X85090000Y-101600000D03*
X85090000Y-104140000D03*
X87630000Y-101600000D03*
X87630000Y-104140000D03*
X90170000Y-101600000D03*
X90170000Y-104140000D03*
X92710000Y-101600000D03*
X92710000Y-104140000D03*
X95250000Y-101600000D03*
X95250000Y-104140000D03*
X97790000Y-101600000D03*
X97790000Y-104140000D03*
X100330000Y-101600000D03*
D26*
X100330000Y-104140000D03*
%TD*%
D27*
%TO.C,D6*%
X113740000Y-82097000D03*
D28*
X113740000Y-79557000D03*
%TD*%
%TO.C,D5*%
X84890000Y-71140000D03*
D27*
X87430000Y-71140000D03*
%TD*%
%TO.C,D4*%
X53720000Y-73490000D03*
D28*
X53720000Y-76030000D03*
%TD*%
D27*
%TO.C,D3*%
X113740000Y-73115000D03*
D28*
X113740000Y-75655000D03*
%TD*%
D27*
%TO.C,D2*%
X78395000Y-71150000D03*
D28*
X80935000Y-71150000D03*
%TD*%
D27*
%TO.C,D1*%
X53722000Y-82512000D03*
D28*
X53722000Y-79972000D03*
%TD*%
%LPD*%
M02*
