%TF.GenerationSoftware,KiCad,Pcbnew,8.0.0*%
%TF.CreationDate,2024-03-21T20:48:15+02:00*%
%TF.ProjectId,Sensing system,53656e73-696e-4672-9073-797374656d2e,rev?*%
%TF.SameCoordinates,Original*%
%TF.FileFunction,Legend,Bot*%
%TF.FilePolarity,Positive*%
%FSLAX46Y46*%
G04 Gerber Fmt 4.6, Leading zero omitted, Abs format (unit mm)*
G04 Created by KiCad (PCBNEW 8.0.0) date 2024-03-21 20:48:15*
%MOMM*%
%LPD*%
G01*
G04 APERTURE LIST*
%ADD10C,0.150000*%
%ADD11C,0.120000*%
%ADD12O,1.700000X1.700000*%
%ADD13R,1.700000X1.700000*%
%ADD14C,1.800000*%
%ADD15R,1.800000X1.800000*%
G04 APERTURE END LIST*
D10*
X102114819Y-102536666D02*
X102829104Y-102536666D01*
X102829104Y-102536666D02*
X102971961Y-102489047D01*
X102971961Y-102489047D02*
X103067200Y-102393809D01*
X103067200Y-102393809D02*
X103114819Y-102250952D01*
X103114819Y-102250952D02*
X103114819Y-102155714D01*
X103114819Y-103536666D02*
X103114819Y-102965238D01*
X103114819Y-103250952D02*
X102114819Y-103250952D01*
X102114819Y-103250952D02*
X102257676Y-103155714D01*
X102257676Y-103155714D02*
X102352914Y-103060476D01*
X102352914Y-103060476D02*
X102400533Y-102965238D01*
D11*
%TO.C,J1*%
X65980000Y-100270000D02*
X101660000Y-100270000D01*
X101660000Y-102870000D02*
X99060000Y-102870000D01*
X101660000Y-100270000D02*
X101660000Y-102870000D01*
X65980000Y-100270000D02*
X65980000Y-105470000D01*
X99060000Y-102870000D02*
X99060000Y-105470000D01*
X65980000Y-105470000D02*
X99060000Y-105470000D01*
X101660000Y-105470000D02*
X100330000Y-105470000D01*
X101660000Y-104140000D02*
X101660000Y-105470000D01*
%TD*%
%LPC*%
D12*
%TO.C,J1*%
X67310000Y-101600000D03*
X67310000Y-104140000D03*
X69850000Y-101600000D03*
X69850000Y-104140000D03*
X72390000Y-101600000D03*
X72390000Y-104140000D03*
X74930000Y-101600000D03*
X74930000Y-104140000D03*
X77470000Y-101600000D03*
X77470000Y-104140000D03*
X80010000Y-101600000D03*
X80010000Y-104140000D03*
X82550000Y-101600000D03*
X82550000Y-104140000D03*
X85090000Y-101600000D03*
X85090000Y-104140000D03*
X87630000Y-101600000D03*
X87630000Y-104140000D03*
X90170000Y-101600000D03*
X90170000Y-104140000D03*
X92710000Y-101600000D03*
X92710000Y-104140000D03*
X95250000Y-101600000D03*
X95250000Y-104140000D03*
X97790000Y-101600000D03*
X97790000Y-104140000D03*
X100330000Y-101600000D03*
D13*
X100330000Y-104140000D03*
%TD*%
D14*
%TO.C,D6*%
X113740000Y-82097000D03*
D15*
X113740000Y-79557000D03*
%TD*%
%TO.C,D5*%
X84890000Y-71140000D03*
D14*
X87430000Y-71140000D03*
%TD*%
%TO.C,D4*%
X53720000Y-73490000D03*
D15*
X53720000Y-76030000D03*
%TD*%
D14*
%TO.C,D3*%
X113740000Y-73115000D03*
D15*
X113740000Y-75655000D03*
%TD*%
D14*
%TO.C,D2*%
X78395000Y-71150000D03*
D15*
X80935000Y-71150000D03*
%TD*%
D14*
%TO.C,D1*%
X53722000Y-82512000D03*
D15*
X53722000Y-79972000D03*
%TD*%
%LPD*%
M02*
