%TF.GenerationSoftware,KiCad,Pcbnew,8.0.0*%
%TF.CreationDate,2024-03-21T20:48:15+02:00*%
%TF.ProjectId,Sensing system,53656e73-696e-4672-9073-797374656d2e,rev?*%
%TF.SameCoordinates,Original*%
%TF.FileFunction,Copper,L2,Bot*%
%TF.FilePolarity,Positive*%
%FSLAX46Y46*%
G04 Gerber Fmt 4.6, Leading zero omitted, Abs format (unit mm)*
G04 Created by KiCad (PCBNEW 8.0.0) date 2024-03-21 20:48:15*
%MOMM*%
%LPD*%
G01*
G04 APERTURE LIST*
%TA.AperFunction,ComponentPad*%
%ADD10O,1.700000X1.700000*%
%TD*%
%TA.AperFunction,ComponentPad*%
%ADD11R,1.700000X1.700000*%
%TD*%
%TA.AperFunction,ComponentPad*%
%ADD12C,1.800000*%
%TD*%
%TA.AperFunction,ComponentPad*%
%ADD13R,1.800000X1.800000*%
%TD*%
G04 APERTURE END LIST*
D10*
%TO.P,J1,28,Pin_28*%
%TO.N,3V3*%
X67310000Y-101600000D03*
%TO.P,J1,27,Pin_27*%
%TO.N,GND*%
X67310000Y-104140000D03*
%TO.P,J1,26,Pin_26*%
%TO.N,BATT*%
X69850000Y-101600000D03*
%TO.P,J1,25,Pin_25*%
%TO.N,/AB0*%
X69850000Y-104140000D03*
%TO.P,J1,24,Pin_24*%
%TO.N,/RESV1*%
X72390000Y-101600000D03*
%TO.P,J1,23,Pin_23*%
%TO.N,/PC5*%
X72390000Y-104140000D03*
%TO.P,J1,22,Pin_22*%
%TO.N,/PE8*%
X74930000Y-101600000D03*
%TO.P,J1,21,Pin_21*%
%TO.N,GND*%
X74930000Y-104140000D03*
%TO.P,J1,20,Pin_20*%
%TO.N,/PE9*%
X77470000Y-101600000D03*
%TO.P,J1,19,Pin_19*%
%TO.N,/PC4*%
X77470000Y-104140000D03*
%TO.P,J1,18,Pin_18*%
%TO.N,/PE10*%
X80010000Y-101600000D03*
%TO.P,J1,17,Pin_17*%
%TO.N,/PA7*%
X80010000Y-104140000D03*
%TO.P,J1,16,Pin_16*%
%TO.N,/PE11*%
X82550000Y-101600000D03*
%TO.P,J1,15,Pin_15*%
%TO.N,GND*%
X82550000Y-104140000D03*
%TO.P,J1,14,Pin_14*%
%TO.N,/PE12*%
X85090000Y-101600000D03*
%TO.P,J1,13,Pin_13*%
%TO.N,/PA6*%
X85090000Y-104140000D03*
%TO.P,J1,12,Pin_12*%
%TO.N,/PE13*%
X87630000Y-101600000D03*
%TO.P,J1,11,Pin_11*%
%TO.N,/PA5*%
X87630000Y-104140000D03*
%TO.P,J1,10,Pin_10*%
%TO.N,/PE14*%
X90170000Y-101600000D03*
%TO.P,J1,9,Pin_9*%
%TO.N,GND*%
X90170000Y-104140000D03*
%TO.P,J1,8,Pin_8*%
%TO.N,/PE15*%
X92710000Y-101600000D03*
%TO.P,J1,7,Pin_7*%
%TO.N,/PA4*%
X92710000Y-104140000D03*
%TO.P,J1,6,Pin_6*%
%TO.N,/RESV2*%
X95250000Y-101600000D03*
%TO.P,J1,5,Pin_5*%
%TO.N,/PA3*%
X95250000Y-104140000D03*
%TO.P,J1,4,Pin_4*%
%TO.N,BATT*%
X97790000Y-101600000D03*
%TO.P,J1,3,Pin_3*%
%TO.N,GND*%
X97790000Y-104140000D03*
%TO.P,J1,2,Pin_2*%
%TO.N,3V3*%
X100330000Y-101600000D03*
D11*
%TO.P,J1,1,Pin_1*%
%TO.N,/RESV3*%
X100330000Y-104140000D03*
%TD*%
D12*
%TO.P,D6,2,A*%
%TO.N,GND*%
X113740000Y-82097000D03*
D13*
%TO.P,D6,1,K*%
%TO.N,/PA6*%
X113740000Y-79557000D03*
%TD*%
%TO.P,D5,1,K*%
%TO.N,/PA5*%
X84890000Y-71140000D03*
D12*
%TO.P,D5,2,A*%
%TO.N,GND*%
X87430000Y-71140000D03*
%TD*%
%TO.P,D4,2,A*%
%TO.N,GND*%
X53720000Y-73490000D03*
D13*
%TO.P,D4,1,K*%
%TO.N,/PA4*%
X53720000Y-76030000D03*
%TD*%
D12*
%TO.P,D3,2,A*%
%TO.N,BATT*%
X113740000Y-73115000D03*
D13*
%TO.P,D3,1,K*%
%TO.N,Net-(D3-K)*%
X113740000Y-75655000D03*
%TD*%
D12*
%TO.P,D2,2,A*%
%TO.N,BATT*%
X78395000Y-71150000D03*
D13*
%TO.P,D2,1,K*%
%TO.N,Net-(D2-K)*%
X80935000Y-71150000D03*
%TD*%
D12*
%TO.P,D1,2,A*%
%TO.N,BATT*%
X53722000Y-82512000D03*
D13*
%TO.P,D1,1,K*%
%TO.N,Net-(D1-K)*%
X53722000Y-79972000D03*
%TD*%
M02*
