%TF.GenerationSoftware,KiCad,Pcbnew,8.0.0*%
%TF.CreationDate,2024-03-24T12:33:32+02:00*%
%TF.ProjectId,Sensing systemV3,53656e73-696e-4672-9073-797374656d56,rev?*%
%TF.SameCoordinates,Original*%
%TF.FileFunction,Soldermask,Top*%
%TF.FilePolarity,Negative*%
%FSLAX46Y46*%
G04 Gerber Fmt 4.6, Leading zero omitted, Abs format (unit mm)*
G04 Created by KiCad (PCBNEW 8.0.0) date 2024-03-24 12:33:32*
%MOMM*%
%LPD*%
G01*
G04 APERTURE LIST*
G04 Aperture macros list*
%AMRoundRect*
0 Rectangle with rounded corners*
0 $1 Rounding radius*
0 $2 $3 $4 $5 $6 $7 $8 $9 X,Y pos of 4 corners*
0 Add a 4 corners polygon primitive as box body*
4,1,4,$2,$3,$4,$5,$6,$7,$8,$9,$2,$3,0*
0 Add four circle primitives for the rounded corners*
1,1,$1+$1,$2,$3*
1,1,$1+$1,$4,$5*
1,1,$1+$1,$6,$7*
1,1,$1+$1,$8,$9*
0 Add four rect primitives between the rounded corners*
20,1,$1+$1,$2,$3,$4,$5,0*
20,1,$1+$1,$4,$5,$6,$7,0*
20,1,$1+$1,$6,$7,$8,$9,0*
20,1,$1+$1,$8,$9,$2,$3,0*%
%AMFreePoly0*
4,1,19,0.500000,-0.750000,0.000000,-0.750000,0.000000,-0.744911,-0.071157,-0.744911,-0.207708,-0.704816,-0.327430,-0.627875,-0.420627,-0.520320,-0.479746,-0.390866,-0.500000,-0.250000,-0.500000,0.250000,-0.479746,0.390866,-0.420627,0.520320,-0.327430,0.627875,-0.207708,0.704816,-0.071157,0.744911,0.000000,0.744911,0.000000,0.750000,0.500000,0.750000,0.500000,-0.750000,0.500000,-0.750000,
$1*%
%AMFreePoly1*
4,1,19,0.000000,0.744911,0.071157,0.744911,0.207708,0.704816,0.327430,0.627875,0.420627,0.520320,0.479746,0.390866,0.500000,0.250000,0.500000,-0.250000,0.479746,-0.390866,0.420627,-0.520320,0.327430,-0.627875,0.207708,-0.704816,0.071157,-0.744911,0.000000,-0.744911,0.000000,-0.750000,-0.500000,-0.750000,-0.500000,0.750000,0.000000,0.750000,0.000000,0.744911,0.000000,0.744911,
$1*%
G04 Aperture macros list end*
%ADD10R,2.000000X2.000000*%
%ADD11RoundRect,0.250000X0.262500X0.450000X-0.262500X0.450000X-0.262500X-0.450000X0.262500X-0.450000X0*%
%ADD12RoundRect,0.250000X-0.450000X0.262500X-0.450000X-0.262500X0.450000X-0.262500X0.450000X0.262500X0*%
%ADD13FreePoly0,270.000000*%
%ADD14FreePoly1,270.000000*%
%ADD15RoundRect,0.250000X-0.262500X-0.450000X0.262500X-0.450000X0.262500X0.450000X-0.262500X0.450000X0*%
%ADD16R,1.800000X1.800000*%
%ADD17C,1.800000*%
%ADD18RoundRect,0.150000X-0.512500X-0.150000X0.512500X-0.150000X0.512500X0.150000X-0.512500X0.150000X0*%
%ADD19RoundRect,0.250000X0.450000X-0.262500X0.450000X0.262500X-0.450000X0.262500X-0.450000X-0.262500X0*%
%ADD20O,1.700000X1.700000*%
%ADD21R,1.700000X1.700000*%
G04 APERTURE END LIST*
D10*
%TO.C,TP3*%
X90424000Y-90119200D03*
%TD*%
D11*
%TO.C,R8*%
X69695000Y-83980000D03*
X67870000Y-83980000D03*
%TD*%
D12*
%TO.C,R2*%
X76581000Y-93827600D03*
X76581000Y-95652600D03*
%TD*%
D13*
%TO.C,JP4*%
X73152000Y-85450000D03*
D14*
X73152000Y-86750000D03*
%TD*%
D13*
%TO.C,JP1*%
X73152000Y-73964800D03*
D14*
X73152000Y-75264800D03*
%TD*%
D15*
%TO.C,R16*%
X97574400Y-76803200D03*
X99399400Y-76803200D03*
%TD*%
%TO.C,R14*%
X85600000Y-96434900D03*
X87425000Y-96434900D03*
%TD*%
D13*
%TO.C,JP12*%
X93152900Y-85283200D03*
D14*
X93152900Y-86583200D03*
%TD*%
D12*
%TO.C,R3*%
X103971400Y-89956800D03*
X103971400Y-91781800D03*
%TD*%
D13*
%TO.C,JP2*%
X73152000Y-77830000D03*
D14*
X73152000Y-79130000D03*
%TD*%
D12*
%TO.C,R1*%
X64389000Y-87071200D03*
X64389000Y-88896200D03*
%TD*%
D10*
%TO.C,TP2*%
X64566800Y-71170800D03*
%TD*%
D16*
%TO.C,D2*%
X80935000Y-78638400D03*
D17*
X78395000Y-78638400D03*
%TD*%
D13*
%TO.C,JP3*%
X73152000Y-81640000D03*
D14*
X73152000Y-82940000D03*
%TD*%
D13*
%TO.C,JP10*%
X93152900Y-77663200D03*
D14*
X93152900Y-78963200D03*
%TD*%
D16*
%TO.C,D5*%
X87440000Y-78643000D03*
D17*
X84900000Y-78643000D03*
%TD*%
D16*
%TO.C,D6*%
X106070400Y-82438400D03*
D17*
X106070400Y-79898400D03*
%TD*%
D15*
%TO.C,R13*%
X85600000Y-92940900D03*
X87425000Y-92940900D03*
%TD*%
%TO.C,R17*%
X97574400Y-80399200D03*
X99399400Y-80399200D03*
%TD*%
D13*
%TO.C,JP8*%
X82192600Y-94055900D03*
D14*
X82192600Y-95355900D03*
%TD*%
D15*
%TO.C,R10*%
X85600000Y-82209900D03*
X87425000Y-82209900D03*
%TD*%
D13*
%TO.C,JP6*%
X82192600Y-86435900D03*
D14*
X82192600Y-87735900D03*
%TD*%
D10*
%TO.C,TP4*%
X103327200Y-85953600D03*
%TD*%
D15*
%TO.C,R15*%
X97574400Y-73345200D03*
X99399400Y-73345200D03*
%TD*%
D10*
%TO.C,TP1*%
X64871600Y-78892400D03*
%TD*%
D13*
%TO.C,JP5*%
X82192600Y-82595900D03*
D14*
X82192600Y-83895900D03*
%TD*%
D11*
%TO.C,R9*%
X69637000Y-87020000D03*
X67812000Y-87020000D03*
%TD*%
%TO.C,R6*%
X69699000Y-77056000D03*
X67874000Y-77056000D03*
%TD*%
D18*
%TO.C,Q1*%
X96520000Y-94200000D03*
X96520000Y-96100000D03*
X98795000Y-95150000D03*
%TD*%
D16*
%TO.C,D4*%
X61441600Y-73507600D03*
D17*
X61441600Y-76047600D03*
%TD*%
D13*
%TO.C,JP9*%
X93152900Y-73965200D03*
D14*
X93152900Y-75265200D03*
%TD*%
D15*
%TO.C,R18*%
X97574400Y-83857200D03*
X99399400Y-83857200D03*
%TD*%
D13*
%TO.C,JP11*%
X93152900Y-81473200D03*
D14*
X93152900Y-82773200D03*
%TD*%
D15*
%TO.C,R11*%
X85600000Y-85734900D03*
X87425000Y-85734900D03*
%TD*%
%TO.C,R12*%
X85600000Y-89384900D03*
X87425000Y-89384900D03*
%TD*%
D13*
%TO.C,JP7*%
X82192600Y-90245900D03*
D14*
X82192600Y-91545900D03*
%TD*%
D19*
%TO.C,R4*%
X92700000Y-97925000D03*
X92700000Y-96100000D03*
%TD*%
D15*
%TO.C,R19*%
X97574400Y-87315200D03*
X99399400Y-87315200D03*
%TD*%
D11*
%TO.C,R7*%
X69695000Y-80612000D03*
X67870000Y-80612000D03*
%TD*%
%TO.C,R5*%
X69699000Y-73500000D03*
X67874000Y-73500000D03*
%TD*%
D16*
%TO.C,D1*%
X61468000Y-79972000D03*
D17*
X61468000Y-82512000D03*
%TD*%
D16*
%TO.C,D3*%
X106078400Y-75939800D03*
D17*
X106078400Y-73399800D03*
%TD*%
D20*
%TO.C,J1*%
X67310000Y-101600000D03*
X67310000Y-104140000D03*
X69850000Y-101600000D03*
X69850000Y-104140000D03*
X72390000Y-101600000D03*
X72390000Y-104140000D03*
X74930000Y-101600000D03*
X74930000Y-104140000D03*
X77470000Y-101600000D03*
X77470000Y-104140000D03*
X80010000Y-101600000D03*
X80010000Y-104140000D03*
X82550000Y-101600000D03*
X82550000Y-104140000D03*
X85090000Y-101600000D03*
X85090000Y-104140000D03*
X87630000Y-101600000D03*
X87630000Y-104140000D03*
X90170000Y-101600000D03*
X90170000Y-104140000D03*
X92710000Y-101600000D03*
X92710000Y-104140000D03*
X95250000Y-101600000D03*
X95250000Y-104140000D03*
X97790000Y-101600000D03*
X97790000Y-104140000D03*
X100330000Y-101600000D03*
D21*
X100330000Y-104140000D03*
%TD*%
M02*
