%TF.GenerationSoftware,KiCad,Pcbnew,8.0.0*%
%TF.CreationDate,2024-03-24T12:33:32+02:00*%
%TF.ProjectId,Sensing systemV3,53656e73-696e-4672-9073-797374656d56,rev?*%
%TF.SameCoordinates,Original*%
%TF.FileFunction,Copper,L1,Top*%
%TF.FilePolarity,Positive*%
%FSLAX46Y46*%
G04 Gerber Fmt 4.6, Leading zero omitted, Abs format (unit mm)*
G04 Created by KiCad (PCBNEW 8.0.0) date 2024-03-24 12:33:32*
%MOMM*%
%LPD*%
G01*
G04 APERTURE LIST*
G04 Aperture macros list*
%AMRoundRect*
0 Rectangle with rounded corners*
0 $1 Rounding radius*
0 $2 $3 $4 $5 $6 $7 $8 $9 X,Y pos of 4 corners*
0 Add a 4 corners polygon primitive as box body*
4,1,4,$2,$3,$4,$5,$6,$7,$8,$9,$2,$3,0*
0 Add four circle primitives for the rounded corners*
1,1,$1+$1,$2,$3*
1,1,$1+$1,$4,$5*
1,1,$1+$1,$6,$7*
1,1,$1+$1,$8,$9*
0 Add four rect primitives between the rounded corners*
20,1,$1+$1,$2,$3,$4,$5,0*
20,1,$1+$1,$4,$5,$6,$7,0*
20,1,$1+$1,$6,$7,$8,$9,0*
20,1,$1+$1,$8,$9,$2,$3,0*%
%AMFreePoly0*
4,1,19,0.500000,-0.750000,0.000000,-0.750000,0.000000,-0.744911,-0.071157,-0.744911,-0.207708,-0.704816,-0.327430,-0.627875,-0.420627,-0.520320,-0.479746,-0.390866,-0.500000,-0.250000,-0.500000,0.250000,-0.479746,0.390866,-0.420627,0.520320,-0.327430,0.627875,-0.207708,0.704816,-0.071157,0.744911,0.000000,0.744911,0.000000,0.750000,0.500000,0.750000,0.500000,-0.750000,0.500000,-0.750000,
$1*%
%AMFreePoly1*
4,1,19,0.000000,0.744911,0.071157,0.744911,0.207708,0.704816,0.327430,0.627875,0.420627,0.520320,0.479746,0.390866,0.500000,0.250000,0.500000,-0.250000,0.479746,-0.390866,0.420627,-0.520320,0.327430,-0.627875,0.207708,-0.704816,0.071157,-0.744911,0.000000,-0.744911,0.000000,-0.750000,-0.500000,-0.750000,-0.500000,0.750000,0.000000,0.750000,0.000000,0.744911,0.000000,0.744911,
$1*%
G04 Aperture macros list end*
%TA.AperFunction,SMDPad,CuDef*%
%ADD10R,2.000000X2.000000*%
%TD*%
%TA.AperFunction,SMDPad,CuDef*%
%ADD11RoundRect,0.250000X0.262500X0.450000X-0.262500X0.450000X-0.262500X-0.450000X0.262500X-0.450000X0*%
%TD*%
%TA.AperFunction,SMDPad,CuDef*%
%ADD12RoundRect,0.250000X-0.450000X0.262500X-0.450000X-0.262500X0.450000X-0.262500X0.450000X0.262500X0*%
%TD*%
%TA.AperFunction,SMDPad,CuDef*%
%ADD13FreePoly0,270.000000*%
%TD*%
%TA.AperFunction,SMDPad,CuDef*%
%ADD14FreePoly1,270.000000*%
%TD*%
%TA.AperFunction,SMDPad,CuDef*%
%ADD15RoundRect,0.250000X-0.262500X-0.450000X0.262500X-0.450000X0.262500X0.450000X-0.262500X0.450000X0*%
%TD*%
%TA.AperFunction,ComponentPad*%
%ADD16R,1.800000X1.800000*%
%TD*%
%TA.AperFunction,ComponentPad*%
%ADD17C,1.800000*%
%TD*%
%TA.AperFunction,SMDPad,CuDef*%
%ADD18RoundRect,0.150000X-0.512500X-0.150000X0.512500X-0.150000X0.512500X0.150000X-0.512500X0.150000X0*%
%TD*%
%TA.AperFunction,SMDPad,CuDef*%
%ADD19RoundRect,0.250000X0.450000X-0.262500X0.450000X0.262500X-0.450000X0.262500X-0.450000X-0.262500X0*%
%TD*%
%TA.AperFunction,ComponentPad*%
%ADD20O,1.700000X1.700000*%
%TD*%
%TA.AperFunction,ComponentPad*%
%ADD21R,1.700000X1.700000*%
%TD*%
%TA.AperFunction,ViaPad*%
%ADD22C,0.600000*%
%TD*%
%TA.AperFunction,Conductor*%
%ADD23C,0.500000*%
%TD*%
%TA.AperFunction,Conductor*%
%ADD24C,0.200000*%
%TD*%
%TA.AperFunction,Conductor*%
%ADD25C,0.250000*%
%TD*%
G04 APERTURE END LIST*
D10*
%TO.P,TP3,1,1*%
%TO.N,/PA3*%
X90424000Y-90119200D03*
%TD*%
D11*
%TO.P,R8,1*%
%TO.N,Net-(JP3-B)*%
X69695000Y-83980000D03*
%TO.P,R8,2*%
%TO.N,/PA7*%
X67870000Y-83980000D03*
%TD*%
D12*
%TO.P,R2,1*%
%TO.N,Net-(D2-K)*%
X76581000Y-93827600D03*
%TO.P,R2,2*%
%TO.N,Net-(Q1-C)*%
X76581000Y-95652600D03*
%TD*%
D13*
%TO.P,JP4,1,A*%
%TO.N,Net-(JP3-B)*%
X73152000Y-85450000D03*
D14*
%TO.P,JP4,2,B*%
%TO.N,Net-(JP4-B)*%
X73152000Y-86750000D03*
%TD*%
D13*
%TO.P,JP1,1,A*%
%TO.N,3V3*%
X73152000Y-73964800D03*
D14*
%TO.P,JP1,2,B*%
%TO.N,Net-(JP1-B)*%
X73152000Y-75264800D03*
%TD*%
D15*
%TO.P,R16,1*%
%TO.N,Net-(JP10-A)*%
X97574400Y-76803200D03*
%TO.P,R16,2*%
%TO.N,/PA4*%
X99399400Y-76803200D03*
%TD*%
%TO.P,R14,1*%
%TO.N,Net-(JP8-B)*%
X85600000Y-96434900D03*
%TO.P,R14,2*%
%TO.N,/PA3*%
X87425000Y-96434900D03*
%TD*%
D13*
%TO.P,JP12,1,A*%
%TO.N,Net-(JP11-B)*%
X93152900Y-85283200D03*
D14*
%TO.P,JP12,2,B*%
%TO.N,Net-(JP12-B)*%
X93152900Y-86583200D03*
%TD*%
D12*
%TO.P,R3,1*%
%TO.N,Net-(D3-K)*%
X103971400Y-89956800D03*
%TO.P,R3,2*%
%TO.N,Net-(Q1-C)*%
X103971400Y-91781800D03*
%TD*%
D13*
%TO.P,JP2,1,A*%
%TO.N,Net-(JP1-B)*%
X73152000Y-77830000D03*
D14*
%TO.P,JP2,2,B*%
%TO.N,Net-(JP2-B)*%
X73152000Y-79130000D03*
%TD*%
D12*
%TO.P,R1,1*%
%TO.N,Net-(D1-K)*%
X64389000Y-87071200D03*
%TO.P,R1,2*%
%TO.N,Net-(Q1-C)*%
X64389000Y-88896200D03*
%TD*%
D10*
%TO.P,TP2,1,1*%
%TO.N,/PA7*%
X64566800Y-71170800D03*
%TD*%
D16*
%TO.P,D2,1,K*%
%TO.N,Net-(D2-K)*%
X80935000Y-78638400D03*
D17*
%TO.P,D2,2,A*%
%TO.N,BATT*%
X78395000Y-78638400D03*
%TD*%
D13*
%TO.P,JP3,1,A*%
%TO.N,Net-(JP2-B)*%
X73152000Y-81640000D03*
D14*
%TO.P,JP3,2,B*%
%TO.N,Net-(JP3-B)*%
X73152000Y-82940000D03*
%TD*%
D13*
%TO.P,JP10,1,A*%
%TO.N,Net-(JP10-A)*%
X93152900Y-77663200D03*
D14*
%TO.P,JP10,2,B*%
%TO.N,Net-(JP10-B)*%
X93152900Y-78963200D03*
%TD*%
D16*
%TO.P,D5,1,K*%
%TO.N,/PA3*%
X87440000Y-78643000D03*
D17*
%TO.P,D5,2,A*%
%TO.N,GND*%
X84900000Y-78643000D03*
%TD*%
D16*
%TO.P,D6,1,K*%
%TO.N,/PA4*%
X106070400Y-82438400D03*
D17*
%TO.P,D6,2,A*%
%TO.N,GND*%
X106070400Y-79898400D03*
%TD*%
D15*
%TO.P,R13,1*%
%TO.N,Net-(JP7-B)*%
X85600000Y-92940900D03*
%TO.P,R13,2*%
%TO.N,/PA3*%
X87425000Y-92940900D03*
%TD*%
%TO.P,R17,1*%
%TO.N,Net-(JP10-B)*%
X97574400Y-80399200D03*
%TO.P,R17,2*%
%TO.N,/PA4*%
X99399400Y-80399200D03*
%TD*%
D13*
%TO.P,JP8,1,A*%
%TO.N,Net-(JP7-B)*%
X82192600Y-94055900D03*
D14*
%TO.P,JP8,2,B*%
%TO.N,Net-(JP8-B)*%
X82192600Y-95355900D03*
%TD*%
D15*
%TO.P,R10,1*%
%TO.N,3V3*%
X85600000Y-82209900D03*
%TO.P,R10,2*%
%TO.N,/PA3*%
X87425000Y-82209900D03*
%TD*%
D13*
%TO.P,JP6,1,A*%
%TO.N,Net-(JP5-B)*%
X82192600Y-86435900D03*
D14*
%TO.P,JP6,2,B*%
%TO.N,Net-(JP6-B)*%
X82192600Y-87735900D03*
%TD*%
D10*
%TO.P,TP4,1,1*%
%TO.N,/PA4*%
X103327200Y-85953600D03*
%TD*%
D15*
%TO.P,R15,1*%
%TO.N,3V3*%
X97574400Y-73345200D03*
%TO.P,R15,2*%
%TO.N,/PA4*%
X99399400Y-73345200D03*
%TD*%
D10*
%TO.P,TP1,1,1*%
%TO.N,Net-(D1-K)*%
X64871600Y-78892400D03*
%TD*%
D13*
%TO.P,JP5,1,A*%
%TO.N,3V3*%
X82192600Y-82595900D03*
D14*
%TO.P,JP5,2,B*%
%TO.N,Net-(JP5-B)*%
X82192600Y-83895900D03*
%TD*%
D11*
%TO.P,R9,1*%
%TO.N,Net-(JP4-B)*%
X69637000Y-87020000D03*
%TO.P,R9,2*%
%TO.N,/PA7*%
X67812000Y-87020000D03*
%TD*%
%TO.P,R6,1*%
%TO.N,Net-(JP1-B)*%
X69699000Y-77056000D03*
%TO.P,R6,2*%
%TO.N,/PA7*%
X67874000Y-77056000D03*
%TD*%
D18*
%TO.P,Q1,1,C*%
%TO.N,Net-(Q1-C)*%
X96520000Y-94200000D03*
%TO.P,Q1,2,B*%
%TO.N,Net-(Q1-B)*%
X96520000Y-96100000D03*
%TO.P,Q1,3,E*%
%TO.N,GND*%
X98795000Y-95150000D03*
%TD*%
D16*
%TO.P,D4,1,K*%
%TO.N,/PA7*%
X61441600Y-73507600D03*
D17*
%TO.P,D4,2,A*%
%TO.N,GND*%
X61441600Y-76047600D03*
%TD*%
D13*
%TO.P,JP9,1,A*%
%TO.N,3V3*%
X93152900Y-73965200D03*
D14*
%TO.P,JP9,2,B*%
%TO.N,Net-(JP10-A)*%
X93152900Y-75265200D03*
%TD*%
D15*
%TO.P,R18,1*%
%TO.N,Net-(JP11-B)*%
X97574400Y-83857200D03*
%TO.P,R18,2*%
%TO.N,/PA4*%
X99399400Y-83857200D03*
%TD*%
D13*
%TO.P,JP11,1,A*%
%TO.N,Net-(JP10-B)*%
X93152900Y-81473200D03*
D14*
%TO.P,JP11,2,B*%
%TO.N,Net-(JP11-B)*%
X93152900Y-82773200D03*
%TD*%
D15*
%TO.P,R11,1*%
%TO.N,Net-(JP5-B)*%
X85600000Y-85734900D03*
%TO.P,R11,2*%
%TO.N,/PA3*%
X87425000Y-85734900D03*
%TD*%
%TO.P,R12,1*%
%TO.N,Net-(JP6-B)*%
X85600000Y-89384900D03*
%TO.P,R12,2*%
%TO.N,/PA3*%
X87425000Y-89384900D03*
%TD*%
D13*
%TO.P,JP7,1,A*%
%TO.N,Net-(JP6-B)*%
X82192600Y-90245900D03*
D14*
%TO.P,JP7,2,B*%
%TO.N,Net-(JP7-B)*%
X82192600Y-91545900D03*
%TD*%
D19*
%TO.P,R4,1*%
%TO.N,/PE15*%
X92700000Y-97925000D03*
%TO.P,R4,2*%
%TO.N,Net-(Q1-B)*%
X92700000Y-96100000D03*
%TD*%
D15*
%TO.P,R19,1*%
%TO.N,Net-(JP12-B)*%
X97574400Y-87315200D03*
%TO.P,R19,2*%
%TO.N,/PA4*%
X99399400Y-87315200D03*
%TD*%
D11*
%TO.P,R7,1*%
%TO.N,Net-(JP2-B)*%
X69695000Y-80612000D03*
%TO.P,R7,2*%
%TO.N,/PA7*%
X67870000Y-80612000D03*
%TD*%
%TO.P,R5,1*%
%TO.N,3V3*%
X69699000Y-73500000D03*
%TO.P,R5,2*%
%TO.N,/PA7*%
X67874000Y-73500000D03*
%TD*%
D16*
%TO.P,D1,1,K*%
%TO.N,Net-(D1-K)*%
X61468000Y-79972000D03*
D17*
%TO.P,D1,2,A*%
%TO.N,BATT*%
X61468000Y-82512000D03*
%TD*%
D16*
%TO.P,D3,1,K*%
%TO.N,Net-(D3-K)*%
X106078400Y-75939800D03*
D17*
%TO.P,D3,2,A*%
%TO.N,BATT*%
X106078400Y-73399800D03*
%TD*%
D20*
%TO.P,J1,28,Pin_28*%
%TO.N,3V3*%
X67310000Y-101600000D03*
%TO.P,J1,27,Pin_27*%
%TO.N,GND*%
X67310000Y-104140000D03*
%TO.P,J1,26,Pin_26*%
%TO.N,BATT*%
X69850000Y-101600000D03*
%TO.P,J1,25,Pin_25*%
%TO.N,/AB0*%
X69850000Y-104140000D03*
%TO.P,J1,24,Pin_24*%
%TO.N,/RESV1*%
X72390000Y-101600000D03*
%TO.P,J1,23,Pin_23*%
%TO.N,/PC5*%
X72390000Y-104140000D03*
%TO.P,J1,22,Pin_22*%
%TO.N,/PE8*%
X74930000Y-101600000D03*
%TO.P,J1,21,Pin_21*%
%TO.N,GND*%
X74930000Y-104140000D03*
%TO.P,J1,20,Pin_20*%
%TO.N,/PE9*%
X77470000Y-101600000D03*
%TO.P,J1,19,Pin_19*%
%TO.N,/PC4*%
X77470000Y-104140000D03*
%TO.P,J1,18,Pin_18*%
%TO.N,/PE10*%
X80010000Y-101600000D03*
%TO.P,J1,17,Pin_17*%
%TO.N,/PA7*%
X80010000Y-104140000D03*
%TO.P,J1,16,Pin_16*%
%TO.N,/PE11*%
X82550000Y-101600000D03*
%TO.P,J1,15,Pin_15*%
%TO.N,GND*%
X82550000Y-104140000D03*
%TO.P,J1,14,Pin_14*%
%TO.N,/PE12*%
X85090000Y-101600000D03*
%TO.P,J1,13,Pin_13*%
%TO.N,/PA6*%
X85090000Y-104140000D03*
%TO.P,J1,12,Pin_12*%
%TO.N,/PE13*%
X87630000Y-101600000D03*
%TO.P,J1,11,Pin_11*%
%TO.N,/PA5*%
X87630000Y-104140000D03*
%TO.P,J1,10,Pin_10*%
%TO.N,/PE14*%
X90170000Y-101600000D03*
%TO.P,J1,9,Pin_9*%
%TO.N,GND*%
X90170000Y-104140000D03*
%TO.P,J1,8,Pin_8*%
%TO.N,/PE15*%
X92710000Y-101600000D03*
%TO.P,J1,7,Pin_7*%
%TO.N,/PA4*%
X92710000Y-104140000D03*
%TO.P,J1,6,Pin_6*%
%TO.N,/RESV2*%
X95250000Y-101600000D03*
%TO.P,J1,5,Pin_5*%
%TO.N,/PA3*%
X95250000Y-104140000D03*
%TO.P,J1,4,Pin_4*%
%TO.N,BATT*%
X97790000Y-101600000D03*
%TO.P,J1,3,Pin_3*%
%TO.N,GND*%
X97790000Y-104140000D03*
%TO.P,J1,2,Pin_2*%
%TO.N,3V3*%
X100330000Y-101600000D03*
D21*
%TO.P,J1,1,Pin_1*%
%TO.N,/RESV3*%
X100330000Y-104140000D03*
%TD*%
D22*
%TO.N,3V3*%
X91033600Y-75438000D03*
%TO.N,/PA3*%
X93116400Y-90728800D03*
%TO.N,/PA4*%
X99400000Y-89400000D03*
%TO.N,/PA7*%
X67818000Y-90271600D03*
%TD*%
D23*
%TO.N,Net-(Q1-C)*%
X71145400Y-95652600D02*
X64389000Y-88896200D01*
X76581000Y-95652600D02*
X71145400Y-95652600D01*
X64389000Y-89154000D02*
X64389000Y-88896200D01*
X79378800Y-98450400D02*
X87934800Y-98450400D01*
X76581000Y-95652600D02*
X79378800Y-98450400D01*
%TO.N,Net-(D2-K)*%
X76581000Y-82992400D02*
X80935000Y-78638400D01*
X76581000Y-93827600D02*
X76581000Y-82992400D01*
%TO.N,Net-(Q1-C)*%
X92185200Y-94200000D02*
X96520000Y-94200000D01*
X87934800Y-98450400D02*
X92185200Y-94200000D01*
D24*
%TO.N,3V3*%
X91033600Y-74320800D02*
X91389200Y-73965200D01*
D25*
X91389200Y-73965200D02*
X83159600Y-73965200D01*
X93152900Y-73965200D02*
X91389200Y-73965200D01*
D24*
X91033600Y-75438000D02*
X91033600Y-74320800D01*
%TO.N,/PA3*%
X92506800Y-90119200D02*
X90424000Y-90119200D01*
X93116400Y-90728800D02*
X92506800Y-90119200D01*
X89689700Y-89384900D02*
X90424000Y-90119200D01*
X87425000Y-89384900D02*
X89689700Y-89384900D01*
D25*
%TO.N,3V3*%
X83159600Y-81628900D02*
X83159600Y-73965200D01*
X82192600Y-82595900D02*
X83159600Y-81628900D01*
X83159600Y-73965200D02*
X77012400Y-73965200D01*
D24*
%TO.N,/PA3*%
X87425000Y-82209900D02*
X87425000Y-78658000D01*
X87425000Y-78658000D02*
X87440000Y-78643000D01*
%TO.N,3V3*%
X72687200Y-73500000D02*
X73152000Y-73964800D01*
X69699000Y-73500000D02*
X72687200Y-73500000D01*
%TO.N,Net-(JP1-B)*%
X73152000Y-75264800D02*
X73152000Y-77830000D01*
D25*
%TO.N,3V3*%
X77012000Y-73964800D02*
X73152000Y-73964800D01*
X77012400Y-73965200D02*
X77012000Y-73964800D01*
D23*
%TO.N,BATT*%
X69850000Y-97993200D02*
X69850000Y-101600000D01*
X61467000Y-89610200D02*
X69850000Y-97993200D01*
X61467000Y-82513000D02*
X61467000Y-89610200D01*
X61468000Y-82512000D02*
X61467000Y-82513000D01*
%TO.N,Net-(D1-K)*%
X64389000Y-82893000D02*
X64389000Y-87071200D01*
X61468000Y-79972000D02*
X64389000Y-82893000D01*
X62547600Y-78892400D02*
X64871600Y-78892400D01*
X61468000Y-79972000D02*
X62547600Y-78892400D01*
%TO.N,Net-(D3-K)*%
X107899200Y-77760600D02*
X106078400Y-75939800D01*
X107899200Y-86029000D02*
X107899200Y-77760600D01*
X103971400Y-89956800D02*
X107899200Y-86029000D01*
D25*
%TO.N,/PA4*%
X100726400Y-73345200D02*
X101955600Y-74574400D01*
D24*
X99399400Y-89399400D02*
X99399400Y-87315200D01*
D25*
X99399400Y-73345200D02*
X100726400Y-73345200D01*
D24*
X99400000Y-89400000D02*
X99399400Y-89399400D01*
X103327200Y-85953600D02*
X103327200Y-85181600D01*
D25*
X101955600Y-78323600D02*
X106070400Y-82438400D01*
D24*
X103327200Y-85181600D02*
X105769880Y-82738920D01*
D25*
X99399400Y-83857200D02*
X99399400Y-80399200D01*
X99399400Y-80399200D02*
X99399400Y-76803200D01*
X99399400Y-87315200D02*
X99399400Y-83857200D01*
X101955600Y-74574400D02*
X101955600Y-78323600D01*
X99399400Y-76803200D02*
X99399400Y-73345200D01*
%TO.N,3V3*%
X97574400Y-73345200D02*
X93772900Y-73345200D01*
X93772900Y-73345200D02*
X93152900Y-73965200D01*
X85214000Y-82595900D02*
X85600000Y-82209900D01*
X82192600Y-82595900D02*
X85214000Y-82595900D01*
D24*
%TO.N,/PA3*%
X87425000Y-85734900D02*
X87425000Y-89384900D01*
X87440000Y-82194900D02*
X87425000Y-82209900D01*
X87425000Y-82209900D02*
X87425000Y-85734900D01*
X87425000Y-92940900D02*
X87425000Y-96009900D01*
X87425000Y-89384900D02*
X87425000Y-92940900D01*
X87440000Y-81769900D02*
X87425000Y-81784900D01*
D25*
%TO.N,/PA7*%
X67874000Y-73500000D02*
X67874000Y-77056000D01*
X67874000Y-77500000D02*
X67870000Y-77504000D01*
X61449200Y-73500000D02*
X61475600Y-73500000D01*
X67874000Y-73500000D02*
X61449200Y-73500000D01*
X67865000Y-83985000D02*
X67870000Y-83980000D01*
X67870000Y-83980000D02*
X67870000Y-80612000D01*
X67874000Y-77056000D02*
X67874000Y-77500000D01*
X67870000Y-77504000D02*
X67870000Y-80612000D01*
D24*
X67812000Y-88336000D02*
X67812000Y-87020000D01*
D25*
X61441600Y-73507600D02*
X61449200Y-73500000D01*
X67865000Y-87250000D02*
X67865000Y-83985000D01*
X61475600Y-73500000D02*
X63804800Y-71170800D01*
D24*
X67818000Y-90271600D02*
X67818000Y-88342000D01*
X67818000Y-88342000D02*
X67812000Y-88336000D01*
D25*
X63804800Y-71170800D02*
X64566800Y-71170800D01*
X67866400Y-73507600D02*
X67874000Y-73500000D01*
%TO.N,/PE8*%
X74900000Y-101570000D02*
X74930000Y-101600000D01*
%TO.N,/PE15*%
X92710000Y-101600000D02*
X92710000Y-97935000D01*
X92710000Y-97935000D02*
X92700000Y-97925000D01*
%TO.N,Net-(JP1-B)*%
X69699000Y-77056000D02*
X72378000Y-77056000D01*
X72378000Y-77056000D02*
X73152000Y-77830000D01*
%TO.N,Net-(JP2-B)*%
X72124000Y-80612000D02*
X73152000Y-81640000D01*
X73152000Y-79130000D02*
X73152000Y-81640000D01*
X69695000Y-80612000D02*
X72124000Y-80612000D01*
%TO.N,Net-(JP3-B)*%
X73152000Y-82940000D02*
X73152000Y-85450000D01*
X69695000Y-83980000D02*
X71682000Y-83980000D01*
X71682000Y-83980000D02*
X73152000Y-85450000D01*
%TO.N,Net-(JP4-B)*%
X72652000Y-87250000D02*
X69690000Y-87250000D01*
X73152000Y-86750000D02*
X72652000Y-87250000D01*
%TO.N,Net-(JP6-B)*%
X83053600Y-89384900D02*
X82192600Y-90245900D01*
X85600000Y-89384900D02*
X83053600Y-89384900D01*
X82192600Y-87735900D02*
X82192600Y-90245900D01*
%TO.N,Net-(JP7-B)*%
X83307600Y-92940900D02*
X82192600Y-94055900D01*
D24*
X82192600Y-91545900D02*
X82192600Y-94055900D01*
D25*
X85600000Y-92940900D02*
X83307600Y-92940900D01*
D23*
%TO.N,Net-(Q1-C)*%
X101553200Y-94200000D02*
X103971400Y-91781800D01*
X96520000Y-94200000D02*
X101553200Y-94200000D01*
D25*
%TO.N,Net-(Q1-B)*%
X92700000Y-96100000D02*
X96562500Y-96100000D01*
%TO.N,Net-(JP5-B)*%
X82893600Y-85734900D02*
X82192600Y-86435900D01*
X85600000Y-85734900D02*
X82893600Y-85734900D01*
X82192600Y-83895900D02*
X82192600Y-86435900D01*
%TO.N,Net-(JP8-B)*%
X83271600Y-96434900D02*
X82192600Y-95355900D01*
X85600000Y-96434900D02*
X83271600Y-96434900D01*
%TO.N,Net-(JP10-A)*%
X97574400Y-76803200D02*
X94012900Y-76803200D01*
X94012900Y-76803200D02*
X93152900Y-77663200D01*
X93152900Y-75265200D02*
X93152900Y-77663200D01*
%TO.N,Net-(JP10-B)*%
X97574400Y-80399200D02*
X94226900Y-80399200D01*
X94226900Y-80399200D02*
X93152900Y-81473200D01*
X93152900Y-78963200D02*
X93152900Y-81473200D01*
%TO.N,Net-(JP11-B)*%
X97574400Y-83857200D02*
X94578900Y-83857200D01*
X94578900Y-83857200D02*
X93152900Y-85283200D01*
X93152900Y-82773200D02*
X93152900Y-85283200D01*
%TO.N,Net-(JP12-B)*%
X97574400Y-87315200D02*
X93884900Y-87315200D01*
X93884900Y-87315200D02*
X93152900Y-86583200D01*
%TD*%
%TA.AperFunction,Conductor*%
%TO.N,GND*%
G36*
X108601100Y-68947785D02*
G01*
X108646855Y-69000589D01*
X108658058Y-69052721D01*
X108654670Y-69727006D01*
X108617524Y-77118819D01*
X108597503Y-77185759D01*
X108544470Y-77231248D01*
X108475262Y-77240844D01*
X108411853Y-77211500D01*
X108405845Y-77205877D01*
X107515218Y-76315250D01*
X107481733Y-76253927D01*
X107478899Y-76227569D01*
X107478899Y-74991929D01*
X107478898Y-74991923D01*
X107478897Y-74991916D01*
X107472491Y-74932317D01*
X107468876Y-74922626D01*
X107422197Y-74797471D01*
X107422193Y-74797464D01*
X107335947Y-74682255D01*
X107335944Y-74682252D01*
X107220735Y-74596006D01*
X107220728Y-74596002D01*
X107140494Y-74566077D01*
X107084560Y-74524206D01*
X107060143Y-74458741D01*
X107074995Y-74390468D01*
X107092590Y-74365921D01*
X107187379Y-74262953D01*
X107314324Y-74068649D01*
X107407557Y-73856100D01*
X107464534Y-73631105D01*
X107483700Y-73399800D01*
X107483700Y-73399793D01*
X107464535Y-73168502D01*
X107464533Y-73168491D01*
X107407557Y-72943499D01*
X107314324Y-72730951D01*
X107187383Y-72536652D01*
X107187380Y-72536649D01*
X107187379Y-72536647D01*
X107030184Y-72365887D01*
X107030179Y-72365883D01*
X107030177Y-72365881D01*
X106847034Y-72223335D01*
X106847028Y-72223331D01*
X106642904Y-72112864D01*
X106642895Y-72112861D01*
X106423384Y-72037502D01*
X106251682Y-72008850D01*
X106194449Y-71999300D01*
X105962351Y-71999300D01*
X105916564Y-72006940D01*
X105733415Y-72037502D01*
X105513904Y-72112861D01*
X105513895Y-72112864D01*
X105309771Y-72223331D01*
X105309765Y-72223335D01*
X105126622Y-72365881D01*
X105126619Y-72365884D01*
X104969416Y-72536652D01*
X104842475Y-72730951D01*
X104749242Y-72943499D01*
X104692266Y-73168491D01*
X104692264Y-73168502D01*
X104673100Y-73399793D01*
X104673100Y-73399806D01*
X104692264Y-73631097D01*
X104692266Y-73631108D01*
X104749242Y-73856100D01*
X104842475Y-74068648D01*
X104969416Y-74262947D01*
X104969419Y-74262951D01*
X104969421Y-74262953D01*
X105064203Y-74365914D01*
X105095124Y-74428567D01*
X105087264Y-74497993D01*
X105043116Y-74552148D01*
X105016306Y-74566077D01*
X104936069Y-74596003D01*
X104936064Y-74596006D01*
X104820855Y-74682252D01*
X104820852Y-74682255D01*
X104734606Y-74797464D01*
X104734602Y-74797471D01*
X104684308Y-74932317D01*
X104677901Y-74991916D01*
X104677901Y-74991923D01*
X104677900Y-74991935D01*
X104677900Y-76887670D01*
X104677901Y-76887676D01*
X104684308Y-76947283D01*
X104734602Y-77082128D01*
X104734606Y-77082135D01*
X104820852Y-77197344D01*
X104820855Y-77197347D01*
X104936064Y-77283593D01*
X104936071Y-77283597D01*
X105070917Y-77333891D01*
X105070916Y-77333891D01*
X105077844Y-77334635D01*
X105130527Y-77340300D01*
X106366169Y-77340299D01*
X106433208Y-77359984D01*
X106453850Y-77376618D01*
X107112381Y-78035149D01*
X107145866Y-78096472D01*
X107148700Y-78122830D01*
X107148700Y-78709946D01*
X107129015Y-78776985D01*
X107076211Y-78822740D01*
X107007053Y-78832684D01*
X106948538Y-78807800D01*
X106838749Y-78722348D01*
X106634702Y-78611923D01*
X106634693Y-78611920D01*
X106415260Y-78536588D01*
X106186407Y-78498400D01*
X105954393Y-78498400D01*
X105725539Y-78536588D01*
X105506106Y-78611920D01*
X105506097Y-78611923D01*
X105302050Y-78722349D01*
X105271600Y-78746047D01*
X105981814Y-79456261D01*
X105896706Y-79479067D01*
X105794094Y-79538310D01*
X105710310Y-79622094D01*
X105651067Y-79724706D01*
X105628261Y-79809815D01*
X104919211Y-79100765D01*
X104834916Y-79229790D01*
X104741717Y-79442264D01*
X104684761Y-79667181D01*
X104668516Y-79863228D01*
X104643363Y-79928413D01*
X104586961Y-79969651D01*
X104517217Y-79973849D01*
X104457259Y-79940669D01*
X102617419Y-78100829D01*
X102583934Y-78039506D01*
X102581100Y-78013148D01*
X102581100Y-74512793D01*
X102581099Y-74512789D01*
X102571554Y-74464800D01*
X102557063Y-74391948D01*
X102509911Y-74278114D01*
X102509910Y-74278113D01*
X102509907Y-74278107D01*
X102441458Y-74175667D01*
X102441455Y-74175663D01*
X102351237Y-74085445D01*
X102351206Y-74085416D01*
X101216598Y-72950808D01*
X101216578Y-72950786D01*
X101125133Y-72859341D01*
X101073909Y-72825115D01*
X101022687Y-72790889D01*
X101022686Y-72790888D01*
X101022683Y-72790886D01*
X101022680Y-72790885D01*
X100942192Y-72757547D01*
X100908852Y-72743737D01*
X100908853Y-72743737D01*
X100895782Y-72741137D01*
X100843138Y-72730666D01*
X100815572Y-72725183D01*
X100788008Y-72719700D01*
X100788007Y-72719700D01*
X100788006Y-72719700D01*
X100483917Y-72719700D01*
X100416878Y-72700015D01*
X100371123Y-72647211D01*
X100366211Y-72634705D01*
X100359548Y-72614597D01*
X100346714Y-72575866D01*
X100254612Y-72426544D01*
X100130556Y-72302488D01*
X100002228Y-72223335D01*
X99981236Y-72210387D01*
X99981231Y-72210385D01*
X99979762Y-72209898D01*
X99814697Y-72155201D01*
X99814695Y-72155200D01*
X99711910Y-72144700D01*
X99086898Y-72144700D01*
X99086880Y-72144701D01*
X98984103Y-72155200D01*
X98984100Y-72155201D01*
X98817568Y-72210385D01*
X98817563Y-72210387D01*
X98668242Y-72302489D01*
X98574581Y-72396151D01*
X98513258Y-72429636D01*
X98443566Y-72424652D01*
X98399219Y-72396151D01*
X98305557Y-72302489D01*
X98305556Y-72302488D01*
X98177228Y-72223335D01*
X98156236Y-72210387D01*
X98156231Y-72210385D01*
X98154762Y-72209898D01*
X97989697Y-72155201D01*
X97989695Y-72155200D01*
X97886910Y-72144700D01*
X97261898Y-72144700D01*
X97261880Y-72144701D01*
X97159103Y-72155200D01*
X97159100Y-72155201D01*
X96992568Y-72210385D01*
X96992563Y-72210387D01*
X96843242Y-72302489D01*
X96719189Y-72426542D01*
X96627087Y-72575863D01*
X96627086Y-72575866D01*
X96607589Y-72634705D01*
X96567816Y-72692149D01*
X96503300Y-72718972D01*
X96489883Y-72719700D01*
X93711288Y-72719700D01*
X93597158Y-72742401D01*
X93597159Y-72742402D01*
X93590452Y-72743736D01*
X93590449Y-72743736D01*
X93590448Y-72743737D01*
X93590446Y-72743737D01*
X93590445Y-72743738D01*
X93476616Y-72790887D01*
X93395346Y-72845191D01*
X93395345Y-72845192D01*
X93374165Y-72859343D01*
X93353694Y-72879815D01*
X93310126Y-72923382D01*
X93248806Y-72956866D01*
X93222447Y-72959700D01*
X92887327Y-72959700D01*
X92887299Y-72959703D01*
X92830959Y-72959703D01*
X92697421Y-72978903D01*
X92697419Y-72978903D01*
X92688644Y-72980164D01*
X92550586Y-73020703D01*
X92419818Y-73080423D01*
X92419808Y-73080428D01*
X92419806Y-73080430D01*
X92386153Y-73102057D01*
X92298767Y-73158215D01*
X92298763Y-73158218D01*
X92190126Y-73252352D01*
X92190107Y-73252369D01*
X92190106Y-73252371D01*
X92151519Y-73296903D01*
X92092743Y-73334677D01*
X92057807Y-73339700D01*
X77083761Y-73339700D01*
X77075619Y-73339300D01*
X77073607Y-73339300D01*
X77073606Y-73339300D01*
X74247094Y-73339300D01*
X74180055Y-73319615D01*
X74153382Y-73296504D01*
X74149947Y-73292540D01*
X74114791Y-73251968D01*
X74018452Y-73168491D01*
X74006135Y-73157818D01*
X74006132Y-73157815D01*
X73979264Y-73140549D01*
X73885094Y-73080030D01*
X73885087Y-73080027D01*
X73885081Y-73080023D01*
X73760356Y-73023063D01*
X73756057Y-73020814D01*
X73616261Y-72979766D01*
X73616251Y-72979763D01*
X73488300Y-72961367D01*
X73473941Y-72959303D01*
X73473940Y-72959303D01*
X73417601Y-72959303D01*
X73417591Y-72959300D01*
X73366236Y-72959300D01*
X72984906Y-72959300D01*
X72922905Y-72942686D01*
X72918985Y-72940423D01*
X72918986Y-72940423D01*
X72855384Y-72923381D01*
X72766257Y-72899499D01*
X72608143Y-72899499D01*
X72600547Y-72899499D01*
X72600531Y-72899500D01*
X70791801Y-72899500D01*
X70724762Y-72879815D01*
X70679007Y-72827011D01*
X70674095Y-72814504D01*
X70666270Y-72790889D01*
X70646314Y-72730666D01*
X70554212Y-72581344D01*
X70430156Y-72457288D01*
X70280969Y-72365269D01*
X70280836Y-72365187D01*
X70280831Y-72365185D01*
X70279362Y-72364698D01*
X70114297Y-72310001D01*
X70114295Y-72310000D01*
X70011510Y-72299500D01*
X69386498Y-72299500D01*
X69386480Y-72299501D01*
X69283703Y-72310000D01*
X69283700Y-72310001D01*
X69117168Y-72365185D01*
X69117163Y-72365187D01*
X68967842Y-72457289D01*
X68874181Y-72550951D01*
X68812858Y-72584436D01*
X68743166Y-72579452D01*
X68698819Y-72550951D01*
X68605157Y-72457289D01*
X68605156Y-72457288D01*
X68455969Y-72365269D01*
X68455836Y-72365187D01*
X68455831Y-72365185D01*
X68454362Y-72364698D01*
X68289297Y-72310001D01*
X68289295Y-72310000D01*
X68186510Y-72299500D01*
X67561498Y-72299500D01*
X67561480Y-72299501D01*
X67458703Y-72310000D01*
X67458700Y-72310001D01*
X67292168Y-72365185D01*
X67292163Y-72365187D01*
X67142842Y-72457289D01*
X67018789Y-72581342D01*
X66926687Y-72730663D01*
X66926686Y-72730666D01*
X66917779Y-72757547D01*
X66907189Y-72789505D01*
X66867416Y-72846949D01*
X66802900Y-72873772D01*
X66789483Y-72874500D01*
X65799587Y-72874500D01*
X65732548Y-72854815D01*
X65686793Y-72802011D01*
X65676849Y-72732853D01*
X65705874Y-72669297D01*
X65756254Y-72634318D01*
X65809128Y-72614597D01*
X65809127Y-72614597D01*
X65809131Y-72614596D01*
X65924346Y-72528346D01*
X66010596Y-72413131D01*
X66060891Y-72278283D01*
X66067300Y-72218673D01*
X66067299Y-70122928D01*
X66060891Y-70063317D01*
X66010596Y-69928469D01*
X66010595Y-69928468D01*
X66010593Y-69928464D01*
X65924347Y-69813255D01*
X65924344Y-69813252D01*
X65809135Y-69727006D01*
X65809128Y-69727002D01*
X65674282Y-69676708D01*
X65674283Y-69676708D01*
X65614683Y-69670301D01*
X65614681Y-69670300D01*
X65614673Y-69670300D01*
X65614664Y-69670300D01*
X63518929Y-69670300D01*
X63518923Y-69670301D01*
X63459316Y-69676708D01*
X63324471Y-69727002D01*
X63324464Y-69727006D01*
X63209255Y-69813252D01*
X63209252Y-69813255D01*
X63123006Y-69928464D01*
X63123002Y-69928471D01*
X63072708Y-70063317D01*
X63066301Y-70122916D01*
X63066301Y-70122923D01*
X63066300Y-70122935D01*
X63066300Y-70973347D01*
X63046615Y-71040386D01*
X63029981Y-71061028D01*
X62020227Y-72070781D01*
X61958904Y-72104266D01*
X61932546Y-72107100D01*
X60493729Y-72107100D01*
X60493723Y-72107101D01*
X60434116Y-72113508D01*
X60299271Y-72163802D01*
X60299264Y-72163806D01*
X60184055Y-72250052D01*
X60184052Y-72250055D01*
X60097806Y-72365264D01*
X60097802Y-72365271D01*
X60047508Y-72500117D01*
X60041101Y-72559716D01*
X60041100Y-72559735D01*
X60041100Y-74455470D01*
X60041101Y-74455476D01*
X60047508Y-74515083D01*
X60097802Y-74649928D01*
X60097806Y-74649935D01*
X60184052Y-74765144D01*
X60184055Y-74765147D01*
X60299264Y-74851393D01*
X60299271Y-74851397D01*
X60344218Y-74868161D01*
X60434117Y-74901691D01*
X60493727Y-74908100D01*
X60604293Y-74908099D01*
X60671330Y-74927783D01*
X60691972Y-74944418D01*
X61353015Y-75605461D01*
X61267906Y-75628267D01*
X61165294Y-75687510D01*
X61081510Y-75771294D01*
X61022267Y-75873906D01*
X60999461Y-75959015D01*
X60290411Y-75249965D01*
X60206116Y-75378990D01*
X60112917Y-75591464D01*
X60055961Y-75816381D01*
X60036802Y-76047594D01*
X60036802Y-76047605D01*
X60055961Y-76278818D01*
X60112917Y-76503735D01*
X60206115Y-76716206D01*
X60290412Y-76845233D01*
X60999461Y-76136184D01*
X61022267Y-76221294D01*
X61081510Y-76323906D01*
X61165294Y-76407690D01*
X61267906Y-76466933D01*
X61353014Y-76489738D01*
X60642801Y-77199951D01*
X60673249Y-77223650D01*
X60877297Y-77334076D01*
X60877306Y-77334079D01*
X61096739Y-77409411D01*
X61325593Y-77447600D01*
X61557607Y-77447600D01*
X61786460Y-77409411D01*
X62005893Y-77334079D01*
X62005901Y-77334076D01*
X62209955Y-77223647D01*
X62240397Y-77199951D01*
X62240398Y-77199950D01*
X61530185Y-76489737D01*
X61615294Y-76466933D01*
X61717906Y-76407690D01*
X61801690Y-76323906D01*
X61860933Y-76221294D01*
X61883738Y-76136185D01*
X62592786Y-76845233D01*
X62677082Y-76716211D01*
X62770282Y-76503735D01*
X62827238Y-76278818D01*
X62846398Y-76047605D01*
X62846398Y-76047594D01*
X62827238Y-75816381D01*
X62770282Y-75591464D01*
X62677084Y-75378993D01*
X62592786Y-75249965D01*
X61883737Y-75959014D01*
X61860933Y-75873906D01*
X61801690Y-75771294D01*
X61717906Y-75687510D01*
X61615294Y-75628267D01*
X61530184Y-75605461D01*
X62191227Y-74944418D01*
X62252550Y-74910933D01*
X62278907Y-74908099D01*
X62389472Y-74908099D01*
X62449083Y-74901691D01*
X62583931Y-74851396D01*
X62699146Y-74765146D01*
X62785396Y-74649931D01*
X62835691Y-74515083D01*
X62842100Y-74455473D01*
X62842100Y-74249500D01*
X62861785Y-74182461D01*
X62914589Y-74136706D01*
X62966100Y-74125500D01*
X66789483Y-74125500D01*
X66856522Y-74145185D01*
X66902277Y-74197989D01*
X66907186Y-74210489D01*
X66924570Y-74262947D01*
X66926686Y-74269333D01*
X66926687Y-74269336D01*
X66961499Y-74325776D01*
X67018788Y-74418656D01*
X67142844Y-74542712D01*
X67189596Y-74571548D01*
X67236320Y-74623494D01*
X67248500Y-74677087D01*
X67248500Y-75878911D01*
X67228815Y-75945950D01*
X67189598Y-75984449D01*
X67142844Y-76013287D01*
X67018789Y-76137342D01*
X66926687Y-76286663D01*
X66926685Y-76286668D01*
X66917214Y-76315250D01*
X66871501Y-76453203D01*
X66871501Y-76453204D01*
X66871500Y-76453204D01*
X66861000Y-76555983D01*
X66861000Y-77556001D01*
X66861001Y-77556019D01*
X66871500Y-77658796D01*
X66871501Y-77658799D01*
X66926685Y-77825331D01*
X66926687Y-77825336D01*
X66955920Y-77872730D01*
X67018788Y-77974656D01*
X67142844Y-78098712D01*
X67185596Y-78125081D01*
X67232320Y-78177027D01*
X67244500Y-78230620D01*
X67244500Y-79434911D01*
X67224815Y-79501950D01*
X67185598Y-79540449D01*
X67138844Y-79569287D01*
X67014789Y-79693342D01*
X66922687Y-79842663D01*
X66922685Y-79842668D01*
X66899266Y-79913343D01*
X66867501Y-80009203D01*
X66867501Y-80009204D01*
X66867500Y-80009204D01*
X66857000Y-80111983D01*
X66857000Y-81112001D01*
X66857001Y-81112019D01*
X66867500Y-81214796D01*
X66867501Y-81214799D01*
X66922685Y-81381331D01*
X66922687Y-81381336D01*
X66950053Y-81425703D01*
X67014788Y-81530656D01*
X67138844Y-81654712D01*
X67185596Y-81683548D01*
X67232320Y-81735494D01*
X67244500Y-81789087D01*
X67244500Y-82802911D01*
X67224815Y-82869950D01*
X67185598Y-82908449D01*
X67138844Y-82937287D01*
X67014789Y-83061342D01*
X66922687Y-83210663D01*
X66922685Y-83210668D01*
X66904036Y-83266948D01*
X66867501Y-83377203D01*
X66867501Y-83377204D01*
X66867500Y-83377204D01*
X66857000Y-83479983D01*
X66857000Y-84480001D01*
X66857001Y-84480019D01*
X66867500Y-84582796D01*
X66867501Y-84582799D01*
X66907319Y-84702959D01*
X66922686Y-84749334D01*
X67014788Y-84898656D01*
X67138844Y-85022712D01*
X67180596Y-85048464D01*
X67227320Y-85100410D01*
X67239500Y-85154003D01*
X67239500Y-85810221D01*
X67219815Y-85877260D01*
X67180597Y-85915760D01*
X67080842Y-85977289D01*
X66956789Y-86101342D01*
X66864687Y-86250663D01*
X66864685Y-86250668D01*
X66836849Y-86334670D01*
X66809501Y-86417203D01*
X66809501Y-86417204D01*
X66809500Y-86417204D01*
X66799000Y-86519983D01*
X66799000Y-87520001D01*
X66799001Y-87520019D01*
X66809500Y-87622796D01*
X66809501Y-87622799D01*
X66864685Y-87789331D01*
X66864687Y-87789336D01*
X66873924Y-87804312D01*
X66956788Y-87938656D01*
X67080844Y-88062712D01*
X67152596Y-88106968D01*
X67199321Y-88158915D01*
X67211500Y-88212507D01*
X67211500Y-88249330D01*
X67211499Y-88249348D01*
X67211499Y-88256943D01*
X67211499Y-88415057D01*
X67213274Y-88421683D01*
X67217500Y-88453776D01*
X67217500Y-89689187D01*
X67197815Y-89756226D01*
X67190450Y-89766496D01*
X67188186Y-89769334D01*
X67092211Y-89922076D01*
X67032631Y-90092345D01*
X67032630Y-90092349D01*
X67022361Y-90183495D01*
X66995294Y-90247909D01*
X66937699Y-90287464D01*
X66867862Y-90289601D01*
X66811460Y-90257292D01*
X65625818Y-89071650D01*
X65592333Y-89010327D01*
X65589499Y-88983969D01*
X65589499Y-88583698D01*
X65589498Y-88583681D01*
X65578999Y-88480903D01*
X65578998Y-88480900D01*
X65574141Y-88466242D01*
X65523814Y-88314366D01*
X65431712Y-88165044D01*
X65338049Y-88071381D01*
X65304564Y-88010058D01*
X65309548Y-87940366D01*
X65338049Y-87896019D01*
X65382607Y-87851461D01*
X65431712Y-87802356D01*
X65523814Y-87653034D01*
X65578999Y-87486497D01*
X65589500Y-87383709D01*
X65589499Y-86758692D01*
X65584607Y-86710806D01*
X65578999Y-86655903D01*
X65578998Y-86655900D01*
X65562070Y-86604815D01*
X65523814Y-86489366D01*
X65431712Y-86340044D01*
X65307656Y-86215988D01*
X65198402Y-86148600D01*
X65151679Y-86096653D01*
X65139500Y-86043062D01*
X65139500Y-82819079D01*
X65110659Y-82674092D01*
X65110658Y-82674091D01*
X65110658Y-82674087D01*
X65106722Y-82664585D01*
X65054085Y-82537507D01*
X65054084Y-82537505D01*
X65014790Y-82478697D01*
X65014789Y-82478695D01*
X65014788Y-82478693D01*
X64971953Y-82414585D01*
X64971947Y-82414578D01*
X62904818Y-80347449D01*
X62871333Y-80286126D01*
X62868499Y-80259768D01*
X62868499Y-79766900D01*
X62888184Y-79699861D01*
X62940988Y-79654106D01*
X62992499Y-79642900D01*
X63247101Y-79642900D01*
X63314140Y-79662585D01*
X63359895Y-79715389D01*
X63371101Y-79766900D01*
X63371101Y-79940276D01*
X63377508Y-79999883D01*
X63427802Y-80134728D01*
X63427806Y-80134735D01*
X63514052Y-80249944D01*
X63514055Y-80249947D01*
X63629264Y-80336193D01*
X63629271Y-80336197D01*
X63764117Y-80386491D01*
X63764116Y-80386491D01*
X63771044Y-80387235D01*
X63823727Y-80392900D01*
X65919472Y-80392899D01*
X65979083Y-80386491D01*
X66113931Y-80336196D01*
X66229146Y-80249946D01*
X66315396Y-80134731D01*
X66365691Y-79999883D01*
X66372100Y-79940273D01*
X66372099Y-77844528D01*
X66365691Y-77784917D01*
X66362086Y-77775252D01*
X66315397Y-77650071D01*
X66315393Y-77650064D01*
X66229147Y-77534855D01*
X66229144Y-77534852D01*
X66113935Y-77448606D01*
X66113928Y-77448602D01*
X65979082Y-77398308D01*
X65979083Y-77398308D01*
X65919483Y-77391901D01*
X65919481Y-77391900D01*
X65919473Y-77391900D01*
X65919464Y-77391900D01*
X63823729Y-77391900D01*
X63823723Y-77391901D01*
X63764116Y-77398308D01*
X63629271Y-77448602D01*
X63629264Y-77448606D01*
X63514055Y-77534852D01*
X63514052Y-77534855D01*
X63427806Y-77650064D01*
X63427802Y-77650071D01*
X63377508Y-77784917D01*
X63373163Y-77825336D01*
X63371101Y-77844523D01*
X63371100Y-77844535D01*
X63371100Y-78017900D01*
X63351415Y-78084939D01*
X63298611Y-78130694D01*
X63247100Y-78141900D01*
X62473680Y-78141900D01*
X62328692Y-78170740D01*
X62328682Y-78170743D01*
X62192111Y-78227312D01*
X62192098Y-78227319D01*
X62148429Y-78256499D01*
X62148428Y-78256499D01*
X62069189Y-78309444D01*
X62069181Y-78309450D01*
X61843450Y-78535181D01*
X61782127Y-78568666D01*
X61755769Y-78571500D01*
X60520129Y-78571500D01*
X60520123Y-78571501D01*
X60460516Y-78577908D01*
X60325671Y-78628202D01*
X60325664Y-78628206D01*
X60210455Y-78714452D01*
X60210452Y-78714455D01*
X60124206Y-78829664D01*
X60124202Y-78829671D01*
X60073908Y-78964517D01*
X60067501Y-79024116D01*
X60067500Y-79024135D01*
X60067500Y-80919870D01*
X60067501Y-80919876D01*
X60073908Y-80979483D01*
X60124202Y-81114328D01*
X60124206Y-81114335D01*
X60210452Y-81229544D01*
X60210455Y-81229547D01*
X60325664Y-81315793D01*
X60325673Y-81315798D01*
X60405904Y-81345722D01*
X60461838Y-81387593D01*
X60486256Y-81453057D01*
X60471405Y-81521330D01*
X60453802Y-81545886D01*
X60359019Y-81648849D01*
X60232075Y-81843151D01*
X60138842Y-82055699D01*
X60081866Y-82280691D01*
X60081864Y-82280702D01*
X60062700Y-82511993D01*
X60062700Y-82512006D01*
X60081864Y-82743297D01*
X60081866Y-82743308D01*
X60138842Y-82968300D01*
X60232075Y-83180848D01*
X60359016Y-83375147D01*
X60359019Y-83375151D01*
X60359021Y-83375153D01*
X60516216Y-83545913D01*
X60516219Y-83545915D01*
X60516222Y-83545918D01*
X60668662Y-83664567D01*
X60709475Y-83721277D01*
X60716500Y-83762420D01*
X60716500Y-89684118D01*
X60716500Y-89684120D01*
X60716499Y-89684120D01*
X60745340Y-89829107D01*
X60745343Y-89829117D01*
X60801912Y-89965688D01*
X60801920Y-89965702D01*
X60824769Y-89999897D01*
X60824770Y-89999900D01*
X60884046Y-90088614D01*
X60884052Y-90088621D01*
X69063181Y-98267748D01*
X69096666Y-98329071D01*
X69099500Y-98355429D01*
X69099500Y-100412298D01*
X69079815Y-100479337D01*
X69046625Y-100513872D01*
X68978595Y-100561507D01*
X68811505Y-100728597D01*
X68681575Y-100914158D01*
X68626998Y-100957783D01*
X68557500Y-100964977D01*
X68495145Y-100933454D01*
X68478425Y-100914158D01*
X68348494Y-100728597D01*
X68181402Y-100561506D01*
X68181395Y-100561501D01*
X67987834Y-100425967D01*
X67987830Y-100425965D01*
X67935500Y-100401563D01*
X67773663Y-100326097D01*
X67773659Y-100326096D01*
X67773655Y-100326094D01*
X67545413Y-100264938D01*
X67545403Y-100264936D01*
X67310001Y-100244341D01*
X67309999Y-100244341D01*
X67074596Y-100264936D01*
X67074586Y-100264938D01*
X66846344Y-100326094D01*
X66846335Y-100326098D01*
X66632171Y-100425964D01*
X66632169Y-100425965D01*
X66438597Y-100561505D01*
X66271505Y-100728597D01*
X66135965Y-100922169D01*
X66135964Y-100922171D01*
X66036098Y-101136335D01*
X66036094Y-101136344D01*
X65974938Y-101364586D01*
X65974936Y-101364596D01*
X65954341Y-101599999D01*
X65954341Y-101600000D01*
X65974936Y-101835403D01*
X65974938Y-101835413D01*
X66036094Y-102063655D01*
X66036096Y-102063659D01*
X66036097Y-102063663D01*
X66040000Y-102072032D01*
X66135965Y-102277830D01*
X66135967Y-102277834D01*
X66244281Y-102432521D01*
X66271505Y-102471401D01*
X66438599Y-102638495D01*
X66605439Y-102755318D01*
X66624594Y-102768730D01*
X66668219Y-102823307D01*
X66675413Y-102892805D01*
X66643890Y-102955160D01*
X66624595Y-102971880D01*
X66438922Y-103101890D01*
X66438920Y-103101891D01*
X66271891Y-103268920D01*
X66271886Y-103268926D01*
X66136400Y-103462420D01*
X66136399Y-103462422D01*
X66036570Y-103676507D01*
X66036567Y-103676513D01*
X65979364Y-103889999D01*
X65979364Y-103890000D01*
X66876988Y-103890000D01*
X66844075Y-103947007D01*
X66810000Y-104074174D01*
X66810000Y-104205826D01*
X66844075Y-104332993D01*
X66876988Y-104390000D01*
X65979364Y-104390000D01*
X66036567Y-104603486D01*
X66036570Y-104603492D01*
X66136399Y-104817578D01*
X66271894Y-105011082D01*
X66438917Y-105178105D01*
X66632421Y-105313600D01*
X66846507Y-105413429D01*
X66846516Y-105413433D01*
X67060000Y-105470634D01*
X67060000Y-104573012D01*
X67117007Y-104605925D01*
X67244174Y-104640000D01*
X67375826Y-104640000D01*
X67502993Y-104605925D01*
X67560000Y-104573012D01*
X67560000Y-105470633D01*
X67773483Y-105413433D01*
X67773492Y-105413429D01*
X67987578Y-105313600D01*
X68181082Y-105178105D01*
X68348105Y-105011082D01*
X68478119Y-104825405D01*
X68532696Y-104781781D01*
X68602195Y-104774588D01*
X68664549Y-104806110D01*
X68681269Y-104825405D01*
X68811505Y-105011401D01*
X68978599Y-105178495D01*
X69075384Y-105246265D01*
X69172165Y-105314032D01*
X69172167Y-105314033D01*
X69172170Y-105314035D01*
X69386337Y-105413903D01*
X69614592Y-105475063D01*
X69791034Y-105490500D01*
X69849999Y-105495659D01*
X69850000Y-105495659D01*
X69850001Y-105495659D01*
X69908966Y-105490500D01*
X70085408Y-105475063D01*
X70313663Y-105413903D01*
X70527830Y-105314035D01*
X70721401Y-105178495D01*
X70888495Y-105011401D01*
X71018425Y-104825842D01*
X71073002Y-104782217D01*
X71142500Y-104775023D01*
X71204855Y-104806546D01*
X71221575Y-104825842D01*
X71351281Y-105011082D01*
X71351505Y-105011401D01*
X71518599Y-105178495D01*
X71615384Y-105246265D01*
X71712165Y-105314032D01*
X71712167Y-105314033D01*
X71712170Y-105314035D01*
X71926337Y-105413903D01*
X72154592Y-105475063D01*
X72331034Y-105490500D01*
X72389999Y-105495659D01*
X72390000Y-105495659D01*
X72390001Y-105495659D01*
X72448966Y-105490500D01*
X72625408Y-105475063D01*
X72853663Y-105413903D01*
X73067830Y-105314035D01*
X73261401Y-105178495D01*
X73428495Y-105011401D01*
X73558730Y-104825405D01*
X73613307Y-104781781D01*
X73682805Y-104774587D01*
X73745160Y-104806110D01*
X73761879Y-104825405D01*
X73891890Y-105011078D01*
X74058917Y-105178105D01*
X74252421Y-105313600D01*
X74466507Y-105413429D01*
X74466516Y-105413433D01*
X74680000Y-105470634D01*
X74680000Y-104573012D01*
X74737007Y-104605925D01*
X74864174Y-104640000D01*
X74995826Y-104640000D01*
X75122993Y-104605925D01*
X75180000Y-104573012D01*
X75180000Y-105470633D01*
X75393483Y-105413433D01*
X75393492Y-105413429D01*
X75607578Y-105313600D01*
X75801082Y-105178105D01*
X75968105Y-105011082D01*
X76098119Y-104825405D01*
X76152696Y-104781781D01*
X76222195Y-104774588D01*
X76284549Y-104806110D01*
X76301269Y-104825405D01*
X76431505Y-105011401D01*
X76598599Y-105178495D01*
X76695384Y-105246265D01*
X76792165Y-105314032D01*
X76792167Y-105314033D01*
X76792170Y-105314035D01*
X77006337Y-105413903D01*
X77234592Y-105475063D01*
X77411034Y-105490500D01*
X77469999Y-105495659D01*
X77470000Y-105495659D01*
X77470001Y-105495659D01*
X77528966Y-105490500D01*
X77705408Y-105475063D01*
X77933663Y-105413903D01*
X78147830Y-105314035D01*
X78341401Y-105178495D01*
X78508495Y-105011401D01*
X78638425Y-104825842D01*
X78693002Y-104782217D01*
X78762500Y-104775023D01*
X78824855Y-104806546D01*
X78841575Y-104825842D01*
X78971281Y-105011082D01*
X78971505Y-105011401D01*
X79138599Y-105178495D01*
X79235384Y-105246265D01*
X79332165Y-105314032D01*
X79332167Y-105314033D01*
X79332170Y-105314035D01*
X79546337Y-105413903D01*
X79774592Y-105475063D01*
X79951034Y-105490500D01*
X80009999Y-105495659D01*
X80010000Y-105495659D01*
X80010001Y-105495659D01*
X80068966Y-105490500D01*
X80245408Y-105475063D01*
X80473663Y-105413903D01*
X80687830Y-105314035D01*
X80881401Y-105178495D01*
X81048495Y-105011401D01*
X81178730Y-104825405D01*
X81233307Y-104781781D01*
X81302805Y-104774587D01*
X81365160Y-104806110D01*
X81381879Y-104825405D01*
X81511890Y-105011078D01*
X81678917Y-105178105D01*
X81872421Y-105313600D01*
X82086507Y-105413429D01*
X82086516Y-105413433D01*
X82300000Y-105470634D01*
X82300000Y-104573012D01*
X82357007Y-104605925D01*
X82484174Y-104640000D01*
X82615826Y-104640000D01*
X82742993Y-104605925D01*
X82800000Y-104573012D01*
X82800000Y-105470633D01*
X83013483Y-105413433D01*
X83013492Y-105413429D01*
X83227578Y-105313600D01*
X83421082Y-105178105D01*
X83588105Y-105011082D01*
X83718119Y-104825405D01*
X83772696Y-104781781D01*
X83842195Y-104774588D01*
X83904549Y-104806110D01*
X83921269Y-104825405D01*
X84051505Y-105011401D01*
X84218599Y-105178495D01*
X84315384Y-105246265D01*
X84412165Y-105314032D01*
X84412167Y-105314033D01*
X84412170Y-105314035D01*
X84626337Y-105413903D01*
X84854592Y-105475063D01*
X85031034Y-105490500D01*
X85089999Y-105495659D01*
X85090000Y-105495659D01*
X85090001Y-105495659D01*
X85148966Y-105490500D01*
X85325408Y-105475063D01*
X85553663Y-105413903D01*
X85767830Y-105314035D01*
X85961401Y-105178495D01*
X86128495Y-105011401D01*
X86258425Y-104825842D01*
X86313002Y-104782217D01*
X86382500Y-104775023D01*
X86444855Y-104806546D01*
X86461575Y-104825842D01*
X86591281Y-105011082D01*
X86591505Y-105011401D01*
X86758599Y-105178495D01*
X86855384Y-105246265D01*
X86952165Y-105314032D01*
X86952167Y-105314033D01*
X86952170Y-105314035D01*
X87166337Y-105413903D01*
X87394592Y-105475063D01*
X87571034Y-105490500D01*
X87629999Y-105495659D01*
X87630000Y-105495659D01*
X87630001Y-105495659D01*
X87688966Y-105490500D01*
X87865408Y-105475063D01*
X88093663Y-105413903D01*
X88307830Y-105314035D01*
X88501401Y-105178495D01*
X88668495Y-105011401D01*
X88798730Y-104825405D01*
X88853307Y-104781781D01*
X88922805Y-104774587D01*
X88985160Y-104806110D01*
X89001879Y-104825405D01*
X89131890Y-105011078D01*
X89298917Y-105178105D01*
X89492421Y-105313600D01*
X89706507Y-105413429D01*
X89706516Y-105413433D01*
X89920000Y-105470634D01*
X89920000Y-104573012D01*
X89977007Y-104605925D01*
X90104174Y-104640000D01*
X90235826Y-104640000D01*
X90362993Y-104605925D01*
X90420000Y-104573012D01*
X90420000Y-105470633D01*
X90633483Y-105413433D01*
X90633492Y-105413429D01*
X90847578Y-105313600D01*
X91041082Y-105178105D01*
X91208105Y-105011082D01*
X91338119Y-104825405D01*
X91392696Y-104781781D01*
X91462195Y-104774588D01*
X91524549Y-104806110D01*
X91541269Y-104825405D01*
X91671505Y-105011401D01*
X91838599Y-105178495D01*
X91935384Y-105246265D01*
X92032165Y-105314032D01*
X92032167Y-105314033D01*
X92032170Y-105314035D01*
X92246337Y-105413903D01*
X92474592Y-105475063D01*
X92651034Y-105490500D01*
X92709999Y-105495659D01*
X92710000Y-105495659D01*
X92710001Y-105495659D01*
X92768966Y-105490500D01*
X92945408Y-105475063D01*
X93173663Y-105413903D01*
X93387830Y-105314035D01*
X93581401Y-105178495D01*
X93748495Y-105011401D01*
X93878425Y-104825842D01*
X93933002Y-104782217D01*
X94002500Y-104775023D01*
X94064855Y-104806546D01*
X94081575Y-104825842D01*
X94211281Y-105011082D01*
X94211505Y-105011401D01*
X94378599Y-105178495D01*
X94475384Y-105246265D01*
X94572165Y-105314032D01*
X94572167Y-105314033D01*
X94572170Y-105314035D01*
X94786337Y-105413903D01*
X95014592Y-105475063D01*
X95191034Y-105490500D01*
X95249999Y-105495659D01*
X95250000Y-105495659D01*
X95250001Y-105495659D01*
X95308966Y-105490500D01*
X95485408Y-105475063D01*
X95713663Y-105413903D01*
X95927830Y-105314035D01*
X96121401Y-105178495D01*
X96288495Y-105011401D01*
X96418730Y-104825405D01*
X96473307Y-104781781D01*
X96542805Y-104774587D01*
X96605160Y-104806110D01*
X96621879Y-104825405D01*
X96751890Y-105011078D01*
X96918917Y-105178105D01*
X97112421Y-105313600D01*
X97326507Y-105413429D01*
X97326516Y-105413433D01*
X97540000Y-105470634D01*
X97540000Y-104573012D01*
X97597007Y-104605925D01*
X97724174Y-104640000D01*
X97855826Y-104640000D01*
X97982993Y-104605925D01*
X98040000Y-104573012D01*
X98040000Y-105470633D01*
X98253483Y-105413433D01*
X98253492Y-105413429D01*
X98467578Y-105313600D01*
X98661078Y-105178108D01*
X98783133Y-105056053D01*
X98844456Y-105022568D01*
X98914148Y-105027552D01*
X98970082Y-105069423D01*
X98986997Y-105100401D01*
X99036202Y-105232328D01*
X99036206Y-105232335D01*
X99122452Y-105347544D01*
X99122455Y-105347547D01*
X99237664Y-105433793D01*
X99237671Y-105433797D01*
X99372517Y-105484091D01*
X99372516Y-105484091D01*
X99379444Y-105484835D01*
X99432127Y-105490500D01*
X101227872Y-105490499D01*
X101287483Y-105484091D01*
X101422331Y-105433796D01*
X101537546Y-105347546D01*
X101623796Y-105232331D01*
X101674091Y-105097483D01*
X101680500Y-105037873D01*
X101680499Y-103242128D01*
X101674091Y-103182517D01*
X101673002Y-103179598D01*
X101623797Y-103047671D01*
X101623793Y-103047664D01*
X101537547Y-102932455D01*
X101537544Y-102932452D01*
X101422335Y-102846206D01*
X101422328Y-102846202D01*
X101290917Y-102797189D01*
X101234983Y-102755318D01*
X101210566Y-102689853D01*
X101225418Y-102621580D01*
X101246563Y-102593332D01*
X101368495Y-102471401D01*
X101504035Y-102277830D01*
X101603903Y-102063663D01*
X101665063Y-101835408D01*
X101685659Y-101600000D01*
X101665063Y-101364592D01*
X101603903Y-101136337D01*
X101504035Y-100922171D01*
X101498425Y-100914158D01*
X101368494Y-100728597D01*
X101201402Y-100561506D01*
X101201395Y-100561501D01*
X101007834Y-100425967D01*
X101007830Y-100425965D01*
X100955500Y-100401563D01*
X100793663Y-100326097D01*
X100793659Y-100326096D01*
X100793655Y-100326094D01*
X100565413Y-100264938D01*
X100565403Y-100264936D01*
X100330001Y-100244341D01*
X100329999Y-100244341D01*
X100094596Y-100264936D01*
X100094586Y-100264938D01*
X99866344Y-100326094D01*
X99866335Y-100326098D01*
X99652171Y-100425964D01*
X99652169Y-100425965D01*
X99458597Y-100561505D01*
X99291505Y-100728597D01*
X99161575Y-100914158D01*
X99106998Y-100957783D01*
X99037500Y-100964977D01*
X98975145Y-100933454D01*
X98958425Y-100914158D01*
X98828494Y-100728597D01*
X98661402Y-100561506D01*
X98661395Y-100561501D01*
X98467834Y-100425967D01*
X98467830Y-100425965D01*
X98415500Y-100401563D01*
X98253663Y-100326097D01*
X98253659Y-100326096D01*
X98253655Y-100326094D01*
X98025413Y-100264938D01*
X98025403Y-100264936D01*
X97790001Y-100244341D01*
X97789999Y-100244341D01*
X97554596Y-100264936D01*
X97554586Y-100264938D01*
X97326344Y-100326094D01*
X97326335Y-100326098D01*
X97112171Y-100425964D01*
X97112169Y-100425965D01*
X96918597Y-100561505D01*
X96751505Y-100728597D01*
X96621575Y-100914158D01*
X96566998Y-100957783D01*
X96497500Y-100964977D01*
X96435145Y-100933454D01*
X96418425Y-100914158D01*
X96288494Y-100728597D01*
X96121402Y-100561506D01*
X96121395Y-100561501D01*
X95927834Y-100425967D01*
X95927830Y-100425965D01*
X95875500Y-100401563D01*
X95713663Y-100326097D01*
X95713659Y-100326096D01*
X95713655Y-100326094D01*
X95485413Y-100264938D01*
X95485403Y-100264936D01*
X95250001Y-100244341D01*
X95249999Y-100244341D01*
X95014596Y-100264936D01*
X95014586Y-100264938D01*
X94786344Y-100326094D01*
X94786335Y-100326098D01*
X94572171Y-100425964D01*
X94572169Y-100425965D01*
X94378597Y-100561505D01*
X94211505Y-100728597D01*
X94081575Y-100914158D01*
X94026998Y-100957783D01*
X93957500Y-100964977D01*
X93895145Y-100933454D01*
X93878425Y-100914158D01*
X93748494Y-100728597D01*
X93581402Y-100561506D01*
X93581401Y-100561505D01*
X93388376Y-100426347D01*
X93344751Y-100371770D01*
X93335500Y-100324772D01*
X93335500Y-99006202D01*
X93355185Y-98939163D01*
X93407989Y-98893408D01*
X93420488Y-98888499D01*
X93469334Y-98872314D01*
X93618656Y-98780212D01*
X93742712Y-98656156D01*
X93834814Y-98506834D01*
X93889999Y-98340297D01*
X93900500Y-98237509D01*
X93900499Y-97612492D01*
X93889999Y-97509703D01*
X93834814Y-97343166D01*
X93742712Y-97193844D01*
X93649049Y-97100181D01*
X93615564Y-97038858D01*
X93620548Y-96969166D01*
X93649049Y-96924819D01*
X93688036Y-96885832D01*
X93742712Y-96831156D01*
X93771549Y-96784402D01*
X93823497Y-96737679D01*
X93877088Y-96725500D01*
X95511691Y-96725500D01*
X95578730Y-96745185D01*
X95599372Y-96761819D01*
X95605629Y-96768076D01*
X95605633Y-96768079D01*
X95605635Y-96768081D01*
X95747102Y-96851744D01*
X95788724Y-96863836D01*
X95904926Y-96897597D01*
X95904929Y-96897597D01*
X95904931Y-96897598D01*
X95941806Y-96900500D01*
X95941814Y-96900500D01*
X97098186Y-96900500D01*
X97098194Y-96900500D01*
X97135069Y-96897598D01*
X97135071Y-96897597D01*
X97135073Y-96897597D01*
X97176691Y-96885505D01*
X97292898Y-96851744D01*
X97434365Y-96768081D01*
X97550581Y-96651865D01*
X97634244Y-96510398D01*
X97677533Y-96361397D01*
X97680097Y-96352573D01*
X97680098Y-96352567D01*
X97681013Y-96340936D01*
X97683000Y-96315694D01*
X97683000Y-95917257D01*
X97702685Y-95850218D01*
X97755489Y-95804463D01*
X97824647Y-95794519D01*
X97873355Y-95815188D01*
X97874229Y-95813712D01*
X98022303Y-95901282D01*
X98022306Y-95901283D01*
X98180004Y-95947099D01*
X98180010Y-95947100D01*
X98216850Y-95949999D01*
X98216866Y-95950000D01*
X98545000Y-95950000D01*
X98545000Y-95400000D01*
X99045000Y-95400000D01*
X99045000Y-95950000D01*
X99373134Y-95950000D01*
X99373149Y-95949999D01*
X99409989Y-95947100D01*
X99409995Y-95947099D01*
X99567693Y-95901283D01*
X99567696Y-95901282D01*
X99709052Y-95817685D01*
X99709061Y-95817678D01*
X99825178Y-95701561D01*
X99825185Y-95701552D01*
X99908781Y-95560198D01*
X99954600Y-95402486D01*
X99954795Y-95400001D01*
X99954795Y-95400000D01*
X99045000Y-95400000D01*
X98545000Y-95400000D01*
X97635204Y-95400000D01*
X97610940Y-95426248D01*
X97550979Y-95462114D01*
X97481145Y-95459869D01*
X97441487Y-95435468D01*
X97440531Y-95436702D01*
X97434362Y-95431917D01*
X97356181Y-95385681D01*
X97292898Y-95348256D01*
X97292897Y-95348255D01*
X97292896Y-95348255D01*
X97292893Y-95348254D01*
X97135073Y-95302402D01*
X97135067Y-95302401D01*
X97098201Y-95299500D01*
X97098194Y-95299500D01*
X95941806Y-95299500D01*
X95941798Y-95299500D01*
X95904932Y-95302401D01*
X95904926Y-95302402D01*
X95747106Y-95348254D01*
X95747103Y-95348255D01*
X95605637Y-95431917D01*
X95605629Y-95431923D01*
X95599372Y-95438181D01*
X95538049Y-95471666D01*
X95511691Y-95474500D01*
X93877088Y-95474500D01*
X93810049Y-95454815D01*
X93771549Y-95415597D01*
X93742712Y-95368844D01*
X93618656Y-95244788D01*
X93513679Y-95180038D01*
X93466956Y-95128091D01*
X93455733Y-95059128D01*
X93483577Y-94995046D01*
X93541645Y-94956190D01*
X93578777Y-94950500D01*
X95725172Y-94950500D01*
X95759767Y-94955424D01*
X95904926Y-94997597D01*
X95904929Y-94997597D01*
X95904931Y-94997598D01*
X95941806Y-95000500D01*
X95941814Y-95000500D01*
X97098186Y-95000500D01*
X97098194Y-95000500D01*
X97135069Y-94997598D01*
X97135071Y-94997597D01*
X97135073Y-94997597D01*
X97280233Y-94955424D01*
X97314828Y-94950500D01*
X101627120Y-94950500D01*
X101724662Y-94931096D01*
X101772113Y-94921658D01*
X101877747Y-94877902D01*
X101908688Y-94865087D01*
X101908688Y-94865086D01*
X101908695Y-94865084D01*
X101962408Y-94829194D01*
X102031616Y-94782952D01*
X103983448Y-92831117D01*
X104044771Y-92797633D01*
X104071129Y-92794799D01*
X104471402Y-92794799D01*
X104471408Y-92794799D01*
X104574197Y-92784299D01*
X104740734Y-92729114D01*
X104890056Y-92637012D01*
X105014112Y-92512956D01*
X105106214Y-92363634D01*
X105161399Y-92197097D01*
X105171900Y-92094309D01*
X105171899Y-91469292D01*
X105161399Y-91366503D01*
X105106214Y-91199966D01*
X105014112Y-91050644D01*
X104920449Y-90956981D01*
X104886964Y-90895658D01*
X104891948Y-90825966D01*
X104920449Y-90781619D01*
X104962683Y-90739385D01*
X105014112Y-90687956D01*
X105106214Y-90538634D01*
X105161399Y-90372097D01*
X105171900Y-90269309D01*
X105171899Y-89869028D01*
X105191583Y-89801990D01*
X105208213Y-89781353D01*
X108357597Y-86631971D01*
X108418920Y-86598486D01*
X108488612Y-86603470D01*
X108544545Y-86645342D01*
X108568962Y-86710806D01*
X108569276Y-86720275D01*
X108555232Y-89515011D01*
X108535211Y-89581951D01*
X108518915Y-89602069D01*
X104563486Y-93557500D01*
X104470302Y-93650683D01*
X104470300Y-93650686D01*
X104404408Y-93764812D01*
X104370300Y-93892108D01*
X104370300Y-107833500D01*
X104350615Y-107900539D01*
X104297811Y-107946294D01*
X104246300Y-107957500D01*
X63495300Y-107957500D01*
X63428261Y-107937815D01*
X63382506Y-107885011D01*
X63371300Y-107833500D01*
X63371300Y-93892110D01*
X63371300Y-93892108D01*
X63337192Y-93764814D01*
X63271300Y-93650686D01*
X63178114Y-93557500D01*
X59218319Y-89597705D01*
X59184834Y-89536382D01*
X59182000Y-89510024D01*
X59182000Y-69052100D01*
X59201685Y-68985061D01*
X59254489Y-68939306D01*
X59306000Y-68928100D01*
X108534061Y-68928100D01*
X108601100Y-68947785D01*
G37*
%TD.AperFunction*%
%TA.AperFunction,Conductor*%
G36*
X100522351Y-74034791D02*
G01*
X100554680Y-74058070D01*
X101293781Y-74797171D01*
X101327266Y-74858494D01*
X101330100Y-74884852D01*
X101330100Y-78385209D01*
X101345613Y-78463198D01*
X101348426Y-78477342D01*
X101354137Y-78506051D01*
X101401288Y-78619886D01*
X101401290Y-78619888D01*
X101401290Y-78619889D01*
X101435514Y-78671107D01*
X101435515Y-78671109D01*
X101469741Y-78722333D01*
X101561186Y-78813778D01*
X101561208Y-78813798D01*
X104633581Y-81886171D01*
X104667066Y-81947494D01*
X104669900Y-81973852D01*
X104669900Y-82938302D01*
X104650215Y-83005341D01*
X104633581Y-83025983D01*
X103242782Y-84416781D01*
X103181459Y-84450266D01*
X103155101Y-84453100D01*
X102279329Y-84453100D01*
X102279323Y-84453101D01*
X102219716Y-84459508D01*
X102084871Y-84509802D01*
X102084864Y-84509806D01*
X101969655Y-84596052D01*
X101969652Y-84596055D01*
X101883406Y-84711264D01*
X101883402Y-84711271D01*
X101833108Y-84846117D01*
X101827460Y-84898656D01*
X101826701Y-84905723D01*
X101826700Y-84905735D01*
X101826701Y-87001464D01*
X101826701Y-87001476D01*
X101833108Y-87061083D01*
X101883402Y-87195928D01*
X101883406Y-87195935D01*
X101969652Y-87311144D01*
X101969655Y-87311147D01*
X102084864Y-87397393D01*
X102084871Y-87397397D01*
X102219717Y-87447691D01*
X102219716Y-87447691D01*
X102226644Y-87448435D01*
X102279327Y-87454100D01*
X104375072Y-87454099D01*
X104434683Y-87447691D01*
X104569531Y-87397396D01*
X104684746Y-87311146D01*
X104770996Y-87195931D01*
X104821291Y-87061083D01*
X104827700Y-87001473D01*
X104827699Y-84905728D01*
X104821291Y-84846117D01*
X104821291Y-84846116D01*
X104767897Y-84702959D01*
X104769433Y-84702386D01*
X104756752Y-84644126D01*
X104781161Y-84578659D01*
X104792749Y-84565284D01*
X105482816Y-83875218D01*
X105544139Y-83841733D01*
X105570497Y-83838899D01*
X107021592Y-83838899D01*
X107021592Y-83839748D01*
X107086046Y-83854970D01*
X107134568Y-83905243D01*
X107148700Y-83962732D01*
X107148700Y-85666769D01*
X107129015Y-85733808D01*
X107112381Y-85754450D01*
X103959349Y-88907481D01*
X103898026Y-88940966D01*
X103871668Y-88943800D01*
X103471398Y-88943800D01*
X103471380Y-88943801D01*
X103368603Y-88954300D01*
X103368600Y-88954301D01*
X103202068Y-89009485D01*
X103202063Y-89009487D01*
X103052742Y-89101589D01*
X102928689Y-89225642D01*
X102836587Y-89374963D01*
X102836585Y-89374968D01*
X102815396Y-89438914D01*
X102781401Y-89541503D01*
X102781401Y-89541504D01*
X102781400Y-89541504D01*
X102770900Y-89644283D01*
X102770900Y-90269301D01*
X102770901Y-90269319D01*
X102781400Y-90372096D01*
X102781401Y-90372099D01*
X102836585Y-90538631D01*
X102836587Y-90538636D01*
X102928689Y-90687957D01*
X103022351Y-90781619D01*
X103055836Y-90842942D01*
X103050852Y-90912634D01*
X103022351Y-90956981D01*
X102928689Y-91050642D01*
X102836587Y-91199963D01*
X102836586Y-91199966D01*
X102781401Y-91366503D01*
X102781401Y-91366504D01*
X102781400Y-91366504D01*
X102770900Y-91469283D01*
X102770900Y-91869569D01*
X102751215Y-91936608D01*
X102734581Y-91957250D01*
X101278651Y-93413181D01*
X101217328Y-93446666D01*
X101190970Y-93449500D01*
X97314828Y-93449500D01*
X97280233Y-93444576D01*
X97135073Y-93402402D01*
X97135067Y-93402401D01*
X97098201Y-93399500D01*
X97098194Y-93399500D01*
X95941806Y-93399500D01*
X95941798Y-93399500D01*
X95904932Y-93402401D01*
X95904926Y-93402402D01*
X95759767Y-93444576D01*
X95725172Y-93449500D01*
X92111280Y-93449500D01*
X91966292Y-93478340D01*
X91966282Y-93478343D01*
X91829711Y-93534912D01*
X91829698Y-93534919D01*
X91706784Y-93617048D01*
X91706780Y-93617051D01*
X88649680Y-96674151D01*
X88588357Y-96707636D01*
X88518665Y-96702652D01*
X88462732Y-96660780D01*
X88438315Y-96595316D01*
X88437999Y-96586470D01*
X88437999Y-95934898D01*
X88437998Y-95934881D01*
X88427499Y-95832103D01*
X88427498Y-95832100D01*
X88391811Y-95724405D01*
X88372314Y-95665566D01*
X88280212Y-95516244D01*
X88156156Y-95392188D01*
X88156155Y-95392187D01*
X88084402Y-95347929D01*
X88037678Y-95295981D01*
X88025500Y-95242391D01*
X88025500Y-94133407D01*
X88045185Y-94066368D01*
X88084403Y-94027868D01*
X88156156Y-93983612D01*
X88280212Y-93859556D01*
X88372314Y-93710234D01*
X88427499Y-93543697D01*
X88438000Y-93440909D01*
X88437999Y-92440892D01*
X88427499Y-92338103D01*
X88372314Y-92171566D01*
X88280212Y-92022244D01*
X88156156Y-91898188D01*
X88156155Y-91898187D01*
X88084402Y-91853929D01*
X88037678Y-91801981D01*
X88025500Y-91748391D01*
X88025500Y-90577407D01*
X88045185Y-90510368D01*
X88084403Y-90471868D01*
X88156156Y-90427612D01*
X88280212Y-90303556D01*
X88372314Y-90154234D01*
X88400095Y-90070395D01*
X88439868Y-90012951D01*
X88504384Y-89986128D01*
X88517801Y-89985400D01*
X88799500Y-89985400D01*
X88866539Y-90005085D01*
X88912294Y-90057889D01*
X88923500Y-90109400D01*
X88923500Y-91167070D01*
X88923501Y-91167076D01*
X88929908Y-91226683D01*
X88980202Y-91361528D01*
X88980206Y-91361535D01*
X89066452Y-91476744D01*
X89066455Y-91476747D01*
X89181664Y-91562993D01*
X89181671Y-91562997D01*
X89316517Y-91613291D01*
X89316516Y-91613291D01*
X89323444Y-91614035D01*
X89376127Y-91619700D01*
X91471872Y-91619699D01*
X91531483Y-91613291D01*
X91666331Y-91562996D01*
X91781546Y-91476746D01*
X91867796Y-91361531D01*
X91918091Y-91226683D01*
X91924500Y-91167073D01*
X91924500Y-90843700D01*
X91944185Y-90776661D01*
X91996989Y-90730906D01*
X92048500Y-90719700D01*
X92198996Y-90719700D01*
X92266035Y-90739385D01*
X92311790Y-90792189D01*
X92322216Y-90829817D01*
X92331030Y-90908049D01*
X92390610Y-91078321D01*
X92398697Y-91091191D01*
X92486584Y-91231062D01*
X92614138Y-91358616D01*
X92766878Y-91454589D01*
X92830202Y-91476747D01*
X92937145Y-91514168D01*
X92937150Y-91514169D01*
X93116396Y-91534365D01*
X93116400Y-91534365D01*
X93116404Y-91534365D01*
X93295649Y-91514169D01*
X93295652Y-91514168D01*
X93295655Y-91514168D01*
X93465922Y-91454589D01*
X93618662Y-91358616D01*
X93746216Y-91231062D01*
X93842189Y-91078322D01*
X93901768Y-90908055D01*
X93901769Y-90908049D01*
X93921965Y-90728803D01*
X93921965Y-90728796D01*
X93901769Y-90549550D01*
X93901768Y-90549545D01*
X93867235Y-90450855D01*
X93842189Y-90379278D01*
X93746216Y-90226538D01*
X93618662Y-90098984D01*
X93608104Y-90092350D01*
X93465921Y-90003010D01*
X93295649Y-89943430D01*
X93208730Y-89933637D01*
X93144316Y-89906570D01*
X93134944Y-89898108D01*
X92987321Y-89750485D01*
X92987320Y-89750484D01*
X92875516Y-89638680D01*
X92772588Y-89579255D01*
X92772587Y-89579254D01*
X92738583Y-89559622D01*
X92670961Y-89541503D01*
X92585857Y-89518699D01*
X92427743Y-89518699D01*
X92420147Y-89518699D01*
X92420131Y-89518700D01*
X92048499Y-89518700D01*
X91981460Y-89499015D01*
X91935705Y-89446211D01*
X91924499Y-89394700D01*
X91924499Y-89071329D01*
X91924498Y-89071323D01*
X91922257Y-89050478D01*
X91918091Y-89011717D01*
X91917259Y-89009487D01*
X91867797Y-88876871D01*
X91867793Y-88876864D01*
X91781547Y-88761655D01*
X91781544Y-88761652D01*
X91666335Y-88675406D01*
X91666328Y-88675402D01*
X91531482Y-88625108D01*
X91531483Y-88625108D01*
X91471883Y-88618701D01*
X91471881Y-88618700D01*
X91471873Y-88618700D01*
X91471864Y-88618700D01*
X89376129Y-88618700D01*
X89376123Y-88618701D01*
X89316516Y-88625108D01*
X89181671Y-88675402D01*
X89181664Y-88675406D01*
X89069109Y-88759666D01*
X89003645Y-88784084D01*
X88994798Y-88784400D01*
X88517801Y-88784400D01*
X88450762Y-88764715D01*
X88405007Y-88711911D01*
X88400095Y-88699404D01*
X88392142Y-88675404D01*
X88372314Y-88615566D01*
X88280212Y-88466244D01*
X88156156Y-88342188D01*
X88156155Y-88342187D01*
X88084402Y-88297929D01*
X88037678Y-88245981D01*
X88025500Y-88192391D01*
X88025500Y-86927407D01*
X88045185Y-86860368D01*
X88084403Y-86821868D01*
X88156156Y-86777612D01*
X88280212Y-86653556D01*
X88372314Y-86504234D01*
X88427499Y-86337697D01*
X88438000Y-86234909D01*
X88437999Y-85234892D01*
X88435590Y-85211314D01*
X88427499Y-85132103D01*
X88427498Y-85132100D01*
X88416997Y-85100410D01*
X88372314Y-84965566D01*
X88280212Y-84816244D01*
X88156156Y-84692188D01*
X88156155Y-84692187D01*
X88084402Y-84647929D01*
X88037678Y-84595981D01*
X88025500Y-84542391D01*
X88025500Y-83402407D01*
X88045185Y-83335368D01*
X88084403Y-83296868D01*
X88156156Y-83252612D01*
X88280212Y-83128556D01*
X88372314Y-82979234D01*
X88427499Y-82812697D01*
X88438000Y-82709909D01*
X88437999Y-81709892D01*
X88427499Y-81607103D01*
X88372314Y-81440566D01*
X88280212Y-81291244D01*
X88156156Y-81167188D01*
X88156155Y-81167187D01*
X88084402Y-81122929D01*
X88037678Y-81070981D01*
X88025500Y-81017391D01*
X88025500Y-80167499D01*
X88045185Y-80100460D01*
X88097989Y-80054705D01*
X88149500Y-80043499D01*
X88387871Y-80043499D01*
X88387872Y-80043499D01*
X88447483Y-80037091D01*
X88582331Y-79986796D01*
X88697546Y-79900546D01*
X88783796Y-79785331D01*
X88834091Y-79650483D01*
X88840500Y-79590873D01*
X88840499Y-77695128D01*
X88834091Y-77635517D01*
X88832375Y-77630917D01*
X88783797Y-77500671D01*
X88783793Y-77500664D01*
X88697547Y-77385455D01*
X88697544Y-77385452D01*
X88582335Y-77299206D01*
X88582328Y-77299202D01*
X88447482Y-77248908D01*
X88447483Y-77248908D01*
X88387883Y-77242501D01*
X88387881Y-77242500D01*
X88387873Y-77242500D01*
X88387864Y-77242500D01*
X86492129Y-77242500D01*
X86492123Y-77242501D01*
X86432516Y-77248908D01*
X86297671Y-77299202D01*
X86297664Y-77299206D01*
X86182455Y-77385452D01*
X86182452Y-77385455D01*
X86096206Y-77500664D01*
X86096202Y-77500671D01*
X86045908Y-77635517D01*
X86039994Y-77690528D01*
X86039501Y-77695123D01*
X86039500Y-77695135D01*
X86039500Y-77805691D01*
X86019815Y-77872730D01*
X86003181Y-77893372D01*
X85342138Y-78554414D01*
X85319333Y-78469306D01*
X85260090Y-78366694D01*
X85176306Y-78282910D01*
X85073694Y-78223667D01*
X84988584Y-78200861D01*
X85698797Y-77490647D01*
X85698797Y-77490645D01*
X85668360Y-77466955D01*
X85668354Y-77466951D01*
X85464302Y-77356523D01*
X85464293Y-77356520D01*
X85244860Y-77281188D01*
X85016007Y-77243000D01*
X84783993Y-77243000D01*
X84555139Y-77281188D01*
X84335706Y-77356520D01*
X84335697Y-77356523D01*
X84131650Y-77466948D01*
X83985262Y-77580887D01*
X83920268Y-77606529D01*
X83851728Y-77592962D01*
X83801403Y-77544494D01*
X83785100Y-77483033D01*
X83785100Y-74714700D01*
X83804785Y-74647661D01*
X83857589Y-74601906D01*
X83909100Y-74590700D01*
X90309100Y-74590700D01*
X90376139Y-74610385D01*
X90421894Y-74663189D01*
X90433100Y-74714700D01*
X90433100Y-74855587D01*
X90413415Y-74922626D01*
X90406050Y-74932896D01*
X90403786Y-74935734D01*
X90307811Y-75088476D01*
X90248231Y-75258745D01*
X90248230Y-75258750D01*
X90228035Y-75437996D01*
X90228035Y-75438003D01*
X90248230Y-75617249D01*
X90248231Y-75617254D01*
X90307811Y-75787523D01*
X90367585Y-75882652D01*
X90403784Y-75940262D01*
X90531338Y-76067816D01*
X90538285Y-76072181D01*
X90674888Y-76158015D01*
X90684078Y-76163789D01*
X90788715Y-76200403D01*
X90854345Y-76223368D01*
X90854350Y-76223369D01*
X91033596Y-76243565D01*
X91033600Y-76243565D01*
X91033604Y-76243565D01*
X91212849Y-76223369D01*
X91212852Y-76223368D01*
X91212855Y-76223368D01*
X91383122Y-76163789D01*
X91535862Y-76067816D01*
X91663416Y-75940262D01*
X91759389Y-75787522D01*
X91777609Y-75735449D01*
X91818329Y-75678675D01*
X91883282Y-75652926D01*
X91951844Y-75666381D01*
X92002247Y-75714768D01*
X92007445Y-75724891D01*
X92018151Y-75748334D01*
X92018153Y-75748338D01*
X92092276Y-75863676D01*
X92093096Y-75865117D01*
X92095888Y-75869298D01*
X92190107Y-75978030D01*
X92190110Y-75978033D01*
X92298764Y-76072181D01*
X92298767Y-76072184D01*
X92298769Y-76072185D01*
X92298770Y-76072186D01*
X92419806Y-76149970D01*
X92454910Y-76166001D01*
X92507715Y-76211756D01*
X92527400Y-76278795D01*
X92527400Y-76649603D01*
X92507715Y-76716642D01*
X92454912Y-76762397D01*
X92419818Y-76778423D01*
X92419808Y-76778428D01*
X92419806Y-76778430D01*
X92386153Y-76800057D01*
X92298767Y-76856215D01*
X92298763Y-76856218D01*
X92190126Y-76950352D01*
X92190107Y-76950369D01*
X92190106Y-76950371D01*
X92095885Y-77059109D01*
X92095883Y-77059111D01*
X92095883Y-77059112D01*
X92095881Y-77059115D01*
X92018155Y-77180057D01*
X92018152Y-77180063D01*
X91958383Y-77310941D01*
X91917877Y-77448891D01*
X91917874Y-77448903D01*
X91897400Y-77591310D01*
X91897400Y-78163202D01*
X91902544Y-78235139D01*
X91913503Y-78272462D01*
X91917263Y-78325041D01*
X91897400Y-78463198D01*
X91897400Y-79035089D01*
X91917874Y-79177496D01*
X91917876Y-79177504D01*
X91958383Y-79315459D01*
X91971556Y-79344304D01*
X92018152Y-79446336D01*
X92018153Y-79446338D01*
X92092276Y-79561676D01*
X92093096Y-79563117D01*
X92095888Y-79567298D01*
X92190107Y-79676030D01*
X92190110Y-79676033D01*
X92298764Y-79770181D01*
X92298767Y-79770184D01*
X92298769Y-79770185D01*
X92298770Y-79770186D01*
X92419806Y-79847970D01*
X92454910Y-79864001D01*
X92507715Y-79909756D01*
X92527400Y-79976795D01*
X92527400Y-80459603D01*
X92507715Y-80526642D01*
X92454912Y-80572397D01*
X92419818Y-80588423D01*
X92419808Y-80588428D01*
X92419806Y-80588430D01*
X92386153Y-80610057D01*
X92298767Y-80666215D01*
X92298763Y-80666218D01*
X92190126Y-80760352D01*
X92190107Y-80760369D01*
X92190106Y-80760371D01*
X92095885Y-80869109D01*
X92095883Y-80869111D01*
X92095883Y-80869112D01*
X92095881Y-80869115D01*
X92018155Y-80990057D01*
X92018152Y-80990063D01*
X91958383Y-81120941D01*
X91917877Y-81258891D01*
X91917874Y-81258903D01*
X91897400Y-81401310D01*
X91897400Y-81973202D01*
X91902544Y-82045139D01*
X91913503Y-82082462D01*
X91917263Y-82135041D01*
X91897400Y-82273198D01*
X91897400Y-82845089D01*
X91917874Y-82987496D01*
X91917876Y-82987504D01*
X91958383Y-83125459D01*
X91977605Y-83167549D01*
X92018152Y-83256336D01*
X92018153Y-83256338D01*
X92092276Y-83371676D01*
X92093096Y-83373117D01*
X92095888Y-83377298D01*
X92190107Y-83486030D01*
X92190110Y-83486033D01*
X92298764Y-83580181D01*
X92298767Y-83580184D01*
X92298769Y-83580185D01*
X92298770Y-83580186D01*
X92419806Y-83657970D01*
X92454910Y-83674001D01*
X92507715Y-83719756D01*
X92527400Y-83786795D01*
X92527400Y-84269603D01*
X92507715Y-84336642D01*
X92454912Y-84382397D01*
X92419818Y-84398423D01*
X92419808Y-84398428D01*
X92419806Y-84398430D01*
X92391251Y-84416781D01*
X92298767Y-84476215D01*
X92298763Y-84476218D01*
X92190126Y-84570352D01*
X92190107Y-84570369D01*
X92190106Y-84570371D01*
X92095885Y-84679109D01*
X92095883Y-84679111D01*
X92095883Y-84679112D01*
X92095881Y-84679115D01*
X92018155Y-84800057D01*
X92018152Y-84800063D01*
X91958383Y-84930941D01*
X91917877Y-85068891D01*
X91917874Y-85068903D01*
X91897400Y-85211310D01*
X91897400Y-85783202D01*
X91902544Y-85855139D01*
X91913503Y-85892462D01*
X91917263Y-85945041D01*
X91897400Y-86083198D01*
X91897400Y-86655089D01*
X91917874Y-86797496D01*
X91917877Y-86797508D01*
X91925035Y-86821886D01*
X91958383Y-86935459D01*
X91971556Y-86964304D01*
X92018152Y-87066336D01*
X92018153Y-87066338D01*
X92092276Y-87181676D01*
X92093096Y-87183117D01*
X92095888Y-87187298D01*
X92190107Y-87296030D01*
X92190110Y-87296033D01*
X92298764Y-87390181D01*
X92298767Y-87390184D01*
X92298769Y-87390185D01*
X92298770Y-87390186D01*
X92419806Y-87467970D01*
X92419814Y-87467974D01*
X92419823Y-87467979D01*
X92544542Y-87524936D01*
X92548841Y-87527185D01*
X92550592Y-87527699D01*
X92688644Y-87568235D01*
X92688645Y-87568235D01*
X92688648Y-87568236D01*
X92731083Y-87574336D01*
X92830959Y-87588697D01*
X92887299Y-87588697D01*
X92887309Y-87588700D01*
X92938664Y-87588700D01*
X93222447Y-87588700D01*
X93289486Y-87608385D01*
X93310128Y-87625019D01*
X93399041Y-87713932D01*
X93399042Y-87713933D01*
X93455193Y-87770084D01*
X93486168Y-87801059D01*
X93588607Y-87869507D01*
X93588616Y-87869512D01*
X93609639Y-87878220D01*
X93702448Y-87916663D01*
X93709145Y-87917995D01*
X93751425Y-87926405D01*
X93751441Y-87926408D01*
X93751461Y-87926412D01*
X93823291Y-87940699D01*
X93823292Y-87940700D01*
X93823293Y-87940700D01*
X93823294Y-87940700D01*
X96489883Y-87940700D01*
X96556922Y-87960385D01*
X96602677Y-88013189D01*
X96607586Y-88025689D01*
X96627086Y-88084534D01*
X96719188Y-88233856D01*
X96843244Y-88357912D01*
X96992566Y-88450014D01*
X97159103Y-88505199D01*
X97261891Y-88515700D01*
X97886908Y-88515699D01*
X97886916Y-88515698D01*
X97886919Y-88515698D01*
X97965145Y-88507707D01*
X97989697Y-88505199D01*
X98156234Y-88450014D01*
X98305556Y-88357912D01*
X98399219Y-88264249D01*
X98460542Y-88230764D01*
X98530234Y-88235748D01*
X98574581Y-88264249D01*
X98668244Y-88357912D01*
X98739996Y-88402168D01*
X98786721Y-88454115D01*
X98798900Y-88507707D01*
X98798900Y-88818340D01*
X98779215Y-88885379D01*
X98771847Y-88895653D01*
X98770184Y-88897737D01*
X98674211Y-89050476D01*
X98614631Y-89220745D01*
X98614630Y-89220750D01*
X98594435Y-89399996D01*
X98594435Y-89400003D01*
X98614630Y-89579249D01*
X98614631Y-89579254D01*
X98674211Y-89749523D01*
X98724221Y-89829113D01*
X98770184Y-89902262D01*
X98897738Y-90029816D01*
X99050478Y-90125789D01*
X99131775Y-90154236D01*
X99220745Y-90185368D01*
X99220750Y-90185369D01*
X99399996Y-90205565D01*
X99400000Y-90205565D01*
X99400004Y-90205565D01*
X99579249Y-90185369D01*
X99579252Y-90185368D01*
X99579255Y-90185368D01*
X99749522Y-90125789D01*
X99902262Y-90029816D01*
X100029816Y-89902262D01*
X100125789Y-89749522D01*
X100185368Y-89579255D01*
X100187580Y-89559622D01*
X100205565Y-89400003D01*
X100205565Y-89399996D01*
X100185369Y-89220750D01*
X100185368Y-89220745D01*
X100181154Y-89208701D01*
X100125789Y-89050478D01*
X100116271Y-89035331D01*
X100100031Y-89009485D01*
X100029816Y-88897738D01*
X100029811Y-88897733D01*
X100026952Y-88894147D01*
X100000544Y-88829460D01*
X99999900Y-88816835D01*
X99999900Y-88507707D01*
X100019585Y-88440668D01*
X100058803Y-88402168D01*
X100130556Y-88357912D01*
X100254612Y-88233856D01*
X100346714Y-88084534D01*
X100401899Y-87917997D01*
X100412400Y-87815209D01*
X100412399Y-86815192D01*
X100410591Y-86797496D01*
X100401899Y-86712403D01*
X100401898Y-86712400D01*
X100383177Y-86655904D01*
X100346714Y-86545866D01*
X100254612Y-86396544D01*
X100130556Y-86272488D01*
X100130555Y-86272487D01*
X100083802Y-86243649D01*
X100037078Y-86191700D01*
X100024900Y-86138111D01*
X100024900Y-85034287D01*
X100044585Y-84967248D01*
X100083802Y-84928748D01*
X100130556Y-84899912D01*
X100254612Y-84775856D01*
X100346714Y-84626534D01*
X100401899Y-84459997D01*
X100412400Y-84357209D01*
X100412399Y-83357192D01*
X100411124Y-83344714D01*
X100401899Y-83254403D01*
X100401898Y-83254400D01*
X100393439Y-83228872D01*
X100346714Y-83087866D01*
X100254612Y-82938544D01*
X100130556Y-82814488D01*
X100130555Y-82814487D01*
X100083802Y-82785649D01*
X100037078Y-82733700D01*
X100024900Y-82680111D01*
X100024900Y-81576287D01*
X100044585Y-81509248D01*
X100083802Y-81470748D01*
X100130556Y-81441912D01*
X100254612Y-81317856D01*
X100346714Y-81168534D01*
X100401899Y-81001997D01*
X100412400Y-80899209D01*
X100412399Y-79899192D01*
X100412067Y-79895946D01*
X100401899Y-79796403D01*
X100401898Y-79796400D01*
X100394135Y-79772972D01*
X100346714Y-79629866D01*
X100254612Y-79480544D01*
X100130556Y-79356488D01*
X100130555Y-79356487D01*
X100083802Y-79327649D01*
X100037078Y-79275700D01*
X100024900Y-79222111D01*
X100024900Y-77980287D01*
X100044585Y-77913248D01*
X100083802Y-77874748D01*
X100130556Y-77845912D01*
X100254612Y-77721856D01*
X100346714Y-77572534D01*
X100401899Y-77405997D01*
X100412400Y-77303209D01*
X100412399Y-76303192D01*
X100411032Y-76289814D01*
X100401899Y-76200403D01*
X100401898Y-76200400D01*
X100385186Y-76149968D01*
X100346714Y-76033866D01*
X100254612Y-75884544D01*
X100130556Y-75760488D01*
X100130555Y-75760487D01*
X100083802Y-75731649D01*
X100037078Y-75679700D01*
X100024900Y-75626111D01*
X100024900Y-74522287D01*
X100044585Y-74455248D01*
X100083802Y-74416748D01*
X100130556Y-74387912D01*
X100254612Y-74263856D01*
X100346714Y-74114534D01*
X100349293Y-74106749D01*
X100389060Y-74049306D01*
X100453575Y-74022480D01*
X100522351Y-74034791D01*
G37*
%TD.AperFunction*%
%TA.AperFunction,Conductor*%
G36*
X86003181Y-79392627D02*
G01*
X86036666Y-79453950D01*
X86039500Y-79480307D01*
X86039500Y-79590869D01*
X86039501Y-79590876D01*
X86045908Y-79650483D01*
X86096202Y-79785328D01*
X86096206Y-79785335D01*
X86182452Y-79900544D01*
X86182455Y-79900547D01*
X86297664Y-79986793D01*
X86297671Y-79986797D01*
X86334942Y-80000698D01*
X86432517Y-80037091D01*
X86492127Y-80043500D01*
X86700500Y-80043499D01*
X86767539Y-80063183D01*
X86813294Y-80115987D01*
X86824500Y-80167499D01*
X86824500Y-81017391D01*
X86804815Y-81084430D01*
X86765598Y-81122929D01*
X86693844Y-81167187D01*
X86693843Y-81167188D01*
X86600181Y-81260851D01*
X86538858Y-81294336D01*
X86469166Y-81289352D01*
X86424819Y-81260851D01*
X86331157Y-81167189D01*
X86331156Y-81167188D01*
X86181834Y-81075086D01*
X86015297Y-81019901D01*
X86015295Y-81019900D01*
X85912510Y-81009400D01*
X85287498Y-81009400D01*
X85287480Y-81009401D01*
X85184703Y-81019900D01*
X85184700Y-81019901D01*
X85018168Y-81075085D01*
X85018163Y-81075087D01*
X84868842Y-81167189D01*
X84744789Y-81291242D01*
X84652687Y-81440563D01*
X84652685Y-81440568D01*
X84652240Y-81441911D01*
X84597501Y-81607103D01*
X84597501Y-81607104D01*
X84597500Y-81607104D01*
X84587000Y-81709883D01*
X84587000Y-81846400D01*
X84567315Y-81913439D01*
X84514511Y-81959194D01*
X84463000Y-81970400D01*
X83880011Y-81970400D01*
X83812972Y-81950715D01*
X83767217Y-81897911D01*
X83757273Y-81828753D01*
X83760411Y-81814630D01*
X83768722Y-81772848D01*
X83768722Y-81772845D01*
X83785101Y-81690506D01*
X83785101Y-81567293D01*
X83785101Y-81562183D01*
X83785100Y-81562157D01*
X83785100Y-79802966D01*
X83804785Y-79735927D01*
X83857589Y-79690172D01*
X83926747Y-79680228D01*
X83985262Y-79705113D01*
X84131644Y-79819047D01*
X84131648Y-79819050D01*
X84335697Y-79929476D01*
X84335706Y-79929479D01*
X84555139Y-80004811D01*
X84783993Y-80043000D01*
X85016007Y-80043000D01*
X85244860Y-80004811D01*
X85464293Y-79929479D01*
X85464301Y-79929476D01*
X85668355Y-79819047D01*
X85698797Y-79795351D01*
X85698798Y-79795351D01*
X84988585Y-79085138D01*
X85073694Y-79062333D01*
X85176306Y-79003090D01*
X85260090Y-78919306D01*
X85319333Y-78816694D01*
X85342138Y-78731584D01*
X86003181Y-79392627D01*
G37*
%TD.AperFunction*%
%TD*%
M02*
