%TF.GenerationSoftware,KiCad,Pcbnew,8.0.0*%
%TF.CreationDate,2024-03-24T12:33:32+02:00*%
%TF.ProjectId,Sensing systemV3,53656e73-696e-4672-9073-797374656d56,rev?*%
%TF.SameCoordinates,Original*%
%TF.FileFunction,Copper,L2,Bot*%
%TF.FilePolarity,Positive*%
%FSLAX46Y46*%
G04 Gerber Fmt 4.6, Leading zero omitted, Abs format (unit mm)*
G04 Created by KiCad (PCBNEW 8.0.0) date 2024-03-24 12:33:32*
%MOMM*%
%LPD*%
G01*
G04 APERTURE LIST*
%TA.AperFunction,ComponentPad*%
%ADD10R,1.800000X1.800000*%
%TD*%
%TA.AperFunction,ComponentPad*%
%ADD11C,1.800000*%
%TD*%
%TA.AperFunction,ComponentPad*%
%ADD12O,1.700000X1.700000*%
%TD*%
%TA.AperFunction,ComponentPad*%
%ADD13R,1.700000X1.700000*%
%TD*%
%TA.AperFunction,ViaPad*%
%ADD14C,0.600000*%
%TD*%
%TA.AperFunction,Conductor*%
%ADD15C,0.200000*%
%TD*%
%TA.AperFunction,Conductor*%
%ADD16C,0.500000*%
%TD*%
%TA.AperFunction,Conductor*%
%ADD17C,0.250000*%
%TD*%
G04 APERTURE END LIST*
D10*
%TO.P,D2,1,K*%
%TO.N,Net-(D2-K)*%
X80935000Y-78638400D03*
D11*
%TO.P,D2,2,A*%
%TO.N,BATT*%
X78395000Y-78638400D03*
%TD*%
D10*
%TO.P,D5,1,K*%
%TO.N,/PA3*%
X87440000Y-78643000D03*
D11*
%TO.P,D5,2,A*%
%TO.N,GND*%
X84900000Y-78643000D03*
%TD*%
D10*
%TO.P,D6,1,K*%
%TO.N,/PA4*%
X106070400Y-82438400D03*
D11*
%TO.P,D6,2,A*%
%TO.N,GND*%
X106070400Y-79898400D03*
%TD*%
D10*
%TO.P,D4,1,K*%
%TO.N,/PA7*%
X61441600Y-73507600D03*
D11*
%TO.P,D4,2,A*%
%TO.N,GND*%
X61441600Y-76047600D03*
%TD*%
D10*
%TO.P,D1,1,K*%
%TO.N,Net-(D1-K)*%
X61468000Y-79972000D03*
D11*
%TO.P,D1,2,A*%
%TO.N,BATT*%
X61468000Y-82512000D03*
%TD*%
D10*
%TO.P,D3,1,K*%
%TO.N,Net-(D3-K)*%
X106078400Y-75939800D03*
D11*
%TO.P,D3,2,A*%
%TO.N,BATT*%
X106078400Y-73399800D03*
%TD*%
D12*
%TO.P,J1,28,Pin_28*%
%TO.N,3V3*%
X67310000Y-101600000D03*
%TO.P,J1,27,Pin_27*%
%TO.N,GND*%
X67310000Y-104140000D03*
%TO.P,J1,26,Pin_26*%
%TO.N,BATT*%
X69850000Y-101600000D03*
%TO.P,J1,25,Pin_25*%
%TO.N,/AB0*%
X69850000Y-104140000D03*
%TO.P,J1,24,Pin_24*%
%TO.N,/RESV1*%
X72390000Y-101600000D03*
%TO.P,J1,23,Pin_23*%
%TO.N,/PC5*%
X72390000Y-104140000D03*
%TO.P,J1,22,Pin_22*%
%TO.N,/PE8*%
X74930000Y-101600000D03*
%TO.P,J1,21,Pin_21*%
%TO.N,GND*%
X74930000Y-104140000D03*
%TO.P,J1,20,Pin_20*%
%TO.N,/PE9*%
X77470000Y-101600000D03*
%TO.P,J1,19,Pin_19*%
%TO.N,/PC4*%
X77470000Y-104140000D03*
%TO.P,J1,18,Pin_18*%
%TO.N,/PE10*%
X80010000Y-101600000D03*
%TO.P,J1,17,Pin_17*%
%TO.N,/PA7*%
X80010000Y-104140000D03*
%TO.P,J1,16,Pin_16*%
%TO.N,/PE11*%
X82550000Y-101600000D03*
%TO.P,J1,15,Pin_15*%
%TO.N,GND*%
X82550000Y-104140000D03*
%TO.P,J1,14,Pin_14*%
%TO.N,/PE12*%
X85090000Y-101600000D03*
%TO.P,J1,13,Pin_13*%
%TO.N,/PA6*%
X85090000Y-104140000D03*
%TO.P,J1,12,Pin_12*%
%TO.N,/PE13*%
X87630000Y-101600000D03*
%TO.P,J1,11,Pin_11*%
%TO.N,/PA5*%
X87630000Y-104140000D03*
%TO.P,J1,10,Pin_10*%
%TO.N,/PE14*%
X90170000Y-101600000D03*
%TO.P,J1,9,Pin_9*%
%TO.N,GND*%
X90170000Y-104140000D03*
%TO.P,J1,8,Pin_8*%
%TO.N,/PE15*%
X92710000Y-101600000D03*
%TO.P,J1,7,Pin_7*%
%TO.N,/PA4*%
X92710000Y-104140000D03*
%TO.P,J1,6,Pin_6*%
%TO.N,/RESV2*%
X95250000Y-101600000D03*
%TO.P,J1,5,Pin_5*%
%TO.N,/PA3*%
X95250000Y-104140000D03*
%TO.P,J1,4,Pin_4*%
%TO.N,BATT*%
X97790000Y-101600000D03*
%TO.P,J1,3,Pin_3*%
%TO.N,GND*%
X97790000Y-104140000D03*
%TO.P,J1,2,Pin_2*%
%TO.N,3V3*%
X100330000Y-101600000D03*
D13*
%TO.P,J1,1,Pin_1*%
%TO.N,/RESV3*%
X100330000Y-104140000D03*
%TD*%
D14*
%TO.N,3V3*%
X91033600Y-75438000D03*
%TO.N,/PA3*%
X93116400Y-90728800D03*
%TO.N,/PA4*%
X99400000Y-89400000D03*
%TO.N,/PA7*%
X67818000Y-90271600D03*
%TD*%
D15*
%TO.N,3V3*%
X90600000Y-91870000D02*
X100330000Y-101600000D01*
X90600000Y-75871600D02*
X90600000Y-91870000D01*
X91033600Y-75438000D02*
X90600000Y-75871600D01*
%TO.N,/PA3*%
X93128800Y-90728800D02*
X93116400Y-90728800D01*
X94600000Y-92200000D02*
X93128800Y-90728800D01*
D16*
%TO.N,BATT*%
X83633600Y-73399800D02*
X106078400Y-73399800D01*
X78395000Y-78638400D02*
X83633600Y-73399800D01*
X78395000Y-78486000D02*
X78395000Y-78638400D01*
X65494000Y-78486000D02*
X78395000Y-78486000D01*
X61468000Y-82512000D02*
X65494000Y-78486000D01*
D15*
%TO.N,/PA4*%
X103800000Y-93600000D02*
X99600000Y-89400000D01*
X99600000Y-89400000D02*
X99400000Y-89400000D01*
X103232600Y-107400000D02*
X103800000Y-106832600D01*
X103800000Y-106832600D02*
X103800000Y-93600000D01*
X92710000Y-104140000D02*
X95970000Y-107400000D01*
X95970000Y-107400000D02*
X103232600Y-107400000D01*
D17*
%TO.N,GND*%
X106070400Y-79552800D02*
X106056800Y-79539200D01*
D15*
%TO.N,/PA3*%
X103000000Y-105800000D02*
X102400000Y-106400000D01*
X94600000Y-92200000D02*
X103000000Y-100600000D01*
X102400000Y-106400000D02*
X97510000Y-106400000D01*
X97510000Y-106400000D02*
X95250000Y-104140000D01*
X103000000Y-100600000D02*
X103000000Y-105800000D01*
%TO.N,/PA7*%
X64668400Y-97147600D02*
X64668400Y-105708400D01*
X67818000Y-93998000D02*
X64668400Y-97147600D01*
X67818000Y-90271600D02*
X67818000Y-93998000D01*
X65510000Y-106550000D02*
X77600000Y-106550000D01*
X77600000Y-106550000D02*
X80010000Y-104140000D01*
X64668400Y-105708400D02*
X65510000Y-106550000D01*
%TD*%
%TA.AperFunction,Conductor*%
%TO.N,GND*%
G36*
X108601100Y-68947785D02*
G01*
X108646855Y-69000589D01*
X108658058Y-69052721D01*
X108638507Y-72943499D01*
X108555232Y-89515011D01*
X108535211Y-89581951D01*
X108518915Y-89602069D01*
X104594537Y-93526448D01*
X104533214Y-93559933D01*
X104463522Y-93554949D01*
X104407589Y-93513077D01*
X104387081Y-93470861D01*
X104359577Y-93368215D01*
X104330639Y-93318095D01*
X104280520Y-93231284D01*
X104168716Y-93119480D01*
X104168715Y-93119479D01*
X104164385Y-93115149D01*
X104164374Y-93115139D01*
X100159837Y-89110602D01*
X100130475Y-89063871D01*
X100125789Y-89050479D01*
X100125789Y-89050478D01*
X100029816Y-88897738D01*
X99902262Y-88770184D01*
X99749523Y-88674211D01*
X99579254Y-88614631D01*
X99579249Y-88614630D01*
X99400004Y-88594435D01*
X99399996Y-88594435D01*
X99220750Y-88614630D01*
X99220745Y-88614631D01*
X99050476Y-88674211D01*
X98897737Y-88770184D01*
X98770184Y-88897737D01*
X98674211Y-89050476D01*
X98614631Y-89220745D01*
X98614630Y-89220750D01*
X98594435Y-89399996D01*
X98594435Y-89400003D01*
X98614630Y-89579249D01*
X98614631Y-89579254D01*
X98674211Y-89749523D01*
X98686662Y-89769338D01*
X98770184Y-89902262D01*
X98897738Y-90029816D01*
X99050478Y-90125789D01*
X99220745Y-90185368D01*
X99220750Y-90185369D01*
X99399997Y-90205565D01*
X99400000Y-90205565D01*
X99400001Y-90205565D01*
X99419209Y-90203400D01*
X99481159Y-90196420D01*
X99549980Y-90208474D01*
X99582724Y-90231959D01*
X103163181Y-93812416D01*
X103196666Y-93873739D01*
X103199500Y-93900097D01*
X103199500Y-99650903D01*
X103179815Y-99717942D01*
X103127011Y-99763697D01*
X103057853Y-99773641D01*
X102994297Y-99744616D01*
X102987819Y-99738584D01*
X93945526Y-90696291D01*
X93912041Y-90634968D01*
X93909987Y-90622492D01*
X93901769Y-90549550D01*
X93901768Y-90549545D01*
X93867235Y-90450855D01*
X93842189Y-90379278D01*
X93746216Y-90226538D01*
X93618662Y-90098984D01*
X93608096Y-90092345D01*
X93465923Y-90003011D01*
X93295654Y-89943431D01*
X93295649Y-89943430D01*
X93116404Y-89923235D01*
X93116396Y-89923235D01*
X92937150Y-89943430D01*
X92937145Y-89943431D01*
X92766876Y-90003011D01*
X92614137Y-90098984D01*
X92486584Y-90226537D01*
X92390611Y-90379276D01*
X92331031Y-90549545D01*
X92331030Y-90549550D01*
X92310835Y-90728796D01*
X92310835Y-90728803D01*
X92331030Y-90908049D01*
X92331031Y-90908054D01*
X92390611Y-91078323D01*
X92486584Y-91231062D01*
X92614138Y-91358616D01*
X92766878Y-91454589D01*
X92937145Y-91514168D01*
X92937150Y-91514169D01*
X93038041Y-91525536D01*
X93102456Y-91552602D01*
X93111840Y-91561075D01*
X102363181Y-100812416D01*
X102396666Y-100873739D01*
X102399500Y-100900097D01*
X102399500Y-105499903D01*
X102379815Y-105566942D01*
X102363181Y-105587584D01*
X102187584Y-105763181D01*
X102126261Y-105796666D01*
X102099903Y-105799500D01*
X97810098Y-105799500D01*
X97743059Y-105779815D01*
X97722417Y-105763181D01*
X97576319Y-105617083D01*
X97542834Y-105555760D01*
X97540000Y-105529402D01*
X97540000Y-104573012D01*
X97597007Y-104605925D01*
X97724174Y-104640000D01*
X97855826Y-104640000D01*
X97982993Y-104605925D01*
X98040000Y-104573012D01*
X98040000Y-105470633D01*
X98253483Y-105413433D01*
X98253492Y-105413429D01*
X98467578Y-105313600D01*
X98661078Y-105178108D01*
X98783133Y-105056053D01*
X98844456Y-105022568D01*
X98914148Y-105027552D01*
X98970082Y-105069423D01*
X98986997Y-105100401D01*
X99036202Y-105232328D01*
X99036206Y-105232335D01*
X99122452Y-105347544D01*
X99122455Y-105347547D01*
X99237664Y-105433793D01*
X99237671Y-105433797D01*
X99372517Y-105484091D01*
X99372516Y-105484091D01*
X99379444Y-105484835D01*
X99432127Y-105490500D01*
X101227872Y-105490499D01*
X101287483Y-105484091D01*
X101422331Y-105433796D01*
X101537546Y-105347546D01*
X101623796Y-105232331D01*
X101674091Y-105097483D01*
X101680500Y-105037873D01*
X101680499Y-103242128D01*
X101674091Y-103182517D01*
X101673002Y-103179598D01*
X101623797Y-103047671D01*
X101623793Y-103047664D01*
X101537547Y-102932455D01*
X101537544Y-102932452D01*
X101422335Y-102846206D01*
X101422328Y-102846202D01*
X101290917Y-102797189D01*
X101234983Y-102755318D01*
X101210566Y-102689853D01*
X101225418Y-102621580D01*
X101246563Y-102593332D01*
X101368495Y-102471401D01*
X101504035Y-102277830D01*
X101603903Y-102063663D01*
X101665063Y-101835408D01*
X101685659Y-101600000D01*
X101665063Y-101364592D01*
X101603903Y-101136337D01*
X101504035Y-100922171D01*
X101498425Y-100914158D01*
X101368494Y-100728597D01*
X101201402Y-100561506D01*
X101201395Y-100561501D01*
X101007834Y-100425967D01*
X101007830Y-100425965D01*
X101007828Y-100425964D01*
X100793663Y-100326097D01*
X100793659Y-100326096D01*
X100793655Y-100326094D01*
X100565413Y-100264938D01*
X100565403Y-100264936D01*
X100330001Y-100244341D01*
X100329999Y-100244341D01*
X100094596Y-100264936D01*
X100094583Y-100264939D01*
X99966241Y-100299327D01*
X99896392Y-100297664D01*
X99846468Y-100267233D01*
X91236819Y-91657584D01*
X91203334Y-91596261D01*
X91200500Y-91569903D01*
X91200500Y-79898405D01*
X104665602Y-79898405D01*
X104684761Y-80129618D01*
X104741717Y-80354535D01*
X104834915Y-80567006D01*
X104919212Y-80696033D01*
X105628261Y-79986984D01*
X105651067Y-80072094D01*
X105710310Y-80174706D01*
X105794094Y-80258490D01*
X105896706Y-80317733D01*
X105981814Y-80340538D01*
X105320771Y-81001581D01*
X105259448Y-81035066D01*
X105233091Y-81037900D01*
X105122530Y-81037900D01*
X105122523Y-81037901D01*
X105062916Y-81044308D01*
X104928071Y-81094602D01*
X104928064Y-81094606D01*
X104812855Y-81180852D01*
X104812852Y-81180855D01*
X104726606Y-81296064D01*
X104726602Y-81296071D01*
X104676308Y-81430917D01*
X104671237Y-81478087D01*
X104669901Y-81490523D01*
X104669900Y-81490535D01*
X104669900Y-83386270D01*
X104669901Y-83386276D01*
X104676308Y-83445883D01*
X104726602Y-83580728D01*
X104726606Y-83580735D01*
X104812852Y-83695944D01*
X104812855Y-83695947D01*
X104928064Y-83782193D01*
X104928071Y-83782197D01*
X105062917Y-83832491D01*
X105062916Y-83832491D01*
X105069844Y-83833235D01*
X105122527Y-83838900D01*
X107018272Y-83838899D01*
X107077883Y-83832491D01*
X107212731Y-83782196D01*
X107327946Y-83695946D01*
X107414196Y-83580731D01*
X107464491Y-83445883D01*
X107470900Y-83386273D01*
X107470899Y-81490528D01*
X107464491Y-81430917D01*
X107448332Y-81387593D01*
X107414197Y-81296071D01*
X107414193Y-81296064D01*
X107327947Y-81180855D01*
X107327944Y-81180852D01*
X107212735Y-81094606D01*
X107212728Y-81094602D01*
X107077882Y-81044308D01*
X107077883Y-81044308D01*
X107018283Y-81037901D01*
X107018281Y-81037900D01*
X107018273Y-81037900D01*
X107018265Y-81037900D01*
X106907708Y-81037900D01*
X106840669Y-81018215D01*
X106820027Y-81001581D01*
X106158985Y-80340537D01*
X106244094Y-80317733D01*
X106346706Y-80258490D01*
X106430490Y-80174706D01*
X106489733Y-80072094D01*
X106512538Y-79986985D01*
X107221586Y-80696033D01*
X107305882Y-80567011D01*
X107399082Y-80354535D01*
X107456038Y-80129618D01*
X107475198Y-79898405D01*
X107475198Y-79898394D01*
X107456038Y-79667181D01*
X107399082Y-79442264D01*
X107305884Y-79229793D01*
X107221586Y-79100765D01*
X106512537Y-79809814D01*
X106489733Y-79724706D01*
X106430490Y-79622094D01*
X106346706Y-79538310D01*
X106244094Y-79479067D01*
X106158984Y-79456261D01*
X106869197Y-78746047D01*
X106869197Y-78746045D01*
X106838760Y-78722355D01*
X106838754Y-78722351D01*
X106634702Y-78611923D01*
X106634693Y-78611920D01*
X106415260Y-78536588D01*
X106186407Y-78498400D01*
X105954393Y-78498400D01*
X105725539Y-78536588D01*
X105506106Y-78611920D01*
X105506097Y-78611923D01*
X105302050Y-78722349D01*
X105271600Y-78746047D01*
X105981815Y-79456261D01*
X105896706Y-79479067D01*
X105794094Y-79538310D01*
X105710310Y-79622094D01*
X105651067Y-79724706D01*
X105628261Y-79809815D01*
X104919211Y-79100765D01*
X104834916Y-79229790D01*
X104741717Y-79442264D01*
X104684761Y-79667181D01*
X104665602Y-79898394D01*
X104665602Y-79898405D01*
X91200500Y-79898405D01*
X91200500Y-76315674D01*
X91220185Y-76248635D01*
X91272989Y-76202880D01*
X91283546Y-76198632D01*
X91383122Y-76163789D01*
X91535862Y-76067816D01*
X91663416Y-75940262D01*
X91759389Y-75787522D01*
X91818968Y-75617255D01*
X91822073Y-75589696D01*
X91839165Y-75438003D01*
X91839165Y-75437996D01*
X91818969Y-75258750D01*
X91818968Y-75258745D01*
X91759388Y-75088476D01*
X91698723Y-74991929D01*
X91663416Y-74935738D01*
X91535862Y-74808184D01*
X91518801Y-74797464D01*
X91383123Y-74712211D01*
X91212854Y-74652631D01*
X91212849Y-74652630D01*
X91033604Y-74632435D01*
X91033596Y-74632435D01*
X90854350Y-74652630D01*
X90854345Y-74652631D01*
X90684076Y-74712211D01*
X90531337Y-74808184D01*
X90403784Y-74935737D01*
X90307810Y-75088478D01*
X90248230Y-75258750D01*
X90238437Y-75345668D01*
X90211370Y-75410082D01*
X90202899Y-75419465D01*
X90119478Y-75502886D01*
X90069361Y-75589694D01*
X90069359Y-75589696D01*
X90040425Y-75639809D01*
X90040424Y-75639810D01*
X90040423Y-75639815D01*
X89999499Y-75792543D01*
X89999499Y-75792545D01*
X89999499Y-75960646D01*
X89999500Y-75960659D01*
X89999500Y-91783330D01*
X89999499Y-91783348D01*
X89999499Y-91949054D01*
X89999498Y-91949054D01*
X90040423Y-92101787D01*
X90040424Y-92101788D01*
X90051482Y-92120940D01*
X90051484Y-92120943D01*
X90119477Y-92238712D01*
X90119481Y-92238717D01*
X90238349Y-92357585D01*
X90238355Y-92357590D01*
X97916333Y-100035568D01*
X97949818Y-100096891D01*
X97944834Y-100166583D01*
X97902962Y-100222516D01*
X97837498Y-100246933D01*
X97817844Y-100246777D01*
X97790001Y-100244341D01*
X97789999Y-100244341D01*
X97554596Y-100264936D01*
X97554586Y-100264938D01*
X97326344Y-100326094D01*
X97326335Y-100326098D01*
X97112171Y-100425964D01*
X97112169Y-100425965D01*
X96918597Y-100561505D01*
X96751505Y-100728597D01*
X96621575Y-100914158D01*
X96566998Y-100957783D01*
X96497500Y-100964977D01*
X96435145Y-100933454D01*
X96418425Y-100914158D01*
X96288494Y-100728597D01*
X96121402Y-100561506D01*
X96121395Y-100561501D01*
X95927834Y-100425967D01*
X95927830Y-100425965D01*
X95927828Y-100425964D01*
X95713663Y-100326097D01*
X95713659Y-100326096D01*
X95713655Y-100326094D01*
X95485413Y-100264938D01*
X95485403Y-100264936D01*
X95250001Y-100244341D01*
X95249999Y-100244341D01*
X95014596Y-100264936D01*
X95014586Y-100264938D01*
X94786344Y-100326094D01*
X94786335Y-100326098D01*
X94572171Y-100425964D01*
X94572169Y-100425965D01*
X94378597Y-100561505D01*
X94211505Y-100728597D01*
X94081575Y-100914158D01*
X94026998Y-100957783D01*
X93957500Y-100964977D01*
X93895145Y-100933454D01*
X93878425Y-100914158D01*
X93748494Y-100728597D01*
X93581402Y-100561506D01*
X93581395Y-100561501D01*
X93387834Y-100425967D01*
X93387830Y-100425965D01*
X93387828Y-100425964D01*
X93173663Y-100326097D01*
X93173659Y-100326096D01*
X93173655Y-100326094D01*
X92945413Y-100264938D01*
X92945403Y-100264936D01*
X92710001Y-100244341D01*
X92709999Y-100244341D01*
X92474596Y-100264936D01*
X92474586Y-100264938D01*
X92246344Y-100326094D01*
X92246335Y-100326098D01*
X92032171Y-100425964D01*
X92032169Y-100425965D01*
X91838597Y-100561505D01*
X91671505Y-100728597D01*
X91541575Y-100914158D01*
X91486998Y-100957783D01*
X91417500Y-100964977D01*
X91355145Y-100933454D01*
X91338425Y-100914158D01*
X91208494Y-100728597D01*
X91041402Y-100561506D01*
X91041395Y-100561501D01*
X90847834Y-100425967D01*
X90847830Y-100425965D01*
X90847828Y-100425964D01*
X90633663Y-100326097D01*
X90633659Y-100326096D01*
X90633655Y-100326094D01*
X90405413Y-100264938D01*
X90405403Y-100264936D01*
X90170001Y-100244341D01*
X90169999Y-100244341D01*
X89934596Y-100264936D01*
X89934586Y-100264938D01*
X89706344Y-100326094D01*
X89706335Y-100326098D01*
X89492171Y-100425964D01*
X89492169Y-100425965D01*
X89298597Y-100561505D01*
X89131505Y-100728597D01*
X89001575Y-100914158D01*
X88946998Y-100957783D01*
X88877500Y-100964977D01*
X88815145Y-100933454D01*
X88798425Y-100914158D01*
X88668494Y-100728597D01*
X88501402Y-100561506D01*
X88501395Y-100561501D01*
X88307834Y-100425967D01*
X88307830Y-100425965D01*
X88307828Y-100425964D01*
X88093663Y-100326097D01*
X88093659Y-100326096D01*
X88093655Y-100326094D01*
X87865413Y-100264938D01*
X87865403Y-100264936D01*
X87630001Y-100244341D01*
X87629999Y-100244341D01*
X87394596Y-100264936D01*
X87394586Y-100264938D01*
X87166344Y-100326094D01*
X87166335Y-100326098D01*
X86952171Y-100425964D01*
X86952169Y-100425965D01*
X86758597Y-100561505D01*
X86591505Y-100728597D01*
X86461575Y-100914158D01*
X86406998Y-100957783D01*
X86337500Y-100964977D01*
X86275145Y-100933454D01*
X86258425Y-100914158D01*
X86128494Y-100728597D01*
X85961402Y-100561506D01*
X85961395Y-100561501D01*
X85767834Y-100425967D01*
X85767830Y-100425965D01*
X85767828Y-100425964D01*
X85553663Y-100326097D01*
X85553659Y-100326096D01*
X85553655Y-100326094D01*
X85325413Y-100264938D01*
X85325403Y-100264936D01*
X85090001Y-100244341D01*
X85089999Y-100244341D01*
X84854596Y-100264936D01*
X84854586Y-100264938D01*
X84626344Y-100326094D01*
X84626335Y-100326098D01*
X84412171Y-100425964D01*
X84412169Y-100425965D01*
X84218597Y-100561505D01*
X84051505Y-100728597D01*
X83921575Y-100914158D01*
X83866998Y-100957783D01*
X83797500Y-100964977D01*
X83735145Y-100933454D01*
X83718425Y-100914158D01*
X83588494Y-100728597D01*
X83421402Y-100561506D01*
X83421395Y-100561501D01*
X83227834Y-100425967D01*
X83227830Y-100425965D01*
X83227828Y-100425964D01*
X83013663Y-100326097D01*
X83013659Y-100326096D01*
X83013655Y-100326094D01*
X82785413Y-100264938D01*
X82785403Y-100264936D01*
X82550001Y-100244341D01*
X82549999Y-100244341D01*
X82314596Y-100264936D01*
X82314586Y-100264938D01*
X82086344Y-100326094D01*
X82086335Y-100326098D01*
X81872171Y-100425964D01*
X81872169Y-100425965D01*
X81678597Y-100561505D01*
X81511505Y-100728597D01*
X81381575Y-100914158D01*
X81326998Y-100957783D01*
X81257500Y-100964977D01*
X81195145Y-100933454D01*
X81178425Y-100914158D01*
X81048494Y-100728597D01*
X80881402Y-100561506D01*
X80881395Y-100561501D01*
X80687834Y-100425967D01*
X80687830Y-100425965D01*
X80687828Y-100425964D01*
X80473663Y-100326097D01*
X80473659Y-100326096D01*
X80473655Y-100326094D01*
X80245413Y-100264938D01*
X80245403Y-100264936D01*
X80010001Y-100244341D01*
X80009999Y-100244341D01*
X79774596Y-100264936D01*
X79774586Y-100264938D01*
X79546344Y-100326094D01*
X79546335Y-100326098D01*
X79332171Y-100425964D01*
X79332169Y-100425965D01*
X79138597Y-100561505D01*
X78971505Y-100728597D01*
X78841575Y-100914158D01*
X78786998Y-100957783D01*
X78717500Y-100964977D01*
X78655145Y-100933454D01*
X78638425Y-100914158D01*
X78508494Y-100728597D01*
X78341402Y-100561506D01*
X78341395Y-100561501D01*
X78147834Y-100425967D01*
X78147830Y-100425965D01*
X78147828Y-100425964D01*
X77933663Y-100326097D01*
X77933659Y-100326096D01*
X77933655Y-100326094D01*
X77705413Y-100264938D01*
X77705403Y-100264936D01*
X77470001Y-100244341D01*
X77469999Y-100244341D01*
X77234596Y-100264936D01*
X77234586Y-100264938D01*
X77006344Y-100326094D01*
X77006335Y-100326098D01*
X76792171Y-100425964D01*
X76792169Y-100425965D01*
X76598597Y-100561505D01*
X76431505Y-100728597D01*
X76301575Y-100914158D01*
X76246998Y-100957783D01*
X76177500Y-100964977D01*
X76115145Y-100933454D01*
X76098425Y-100914158D01*
X75968494Y-100728597D01*
X75801402Y-100561506D01*
X75801395Y-100561501D01*
X75607834Y-100425967D01*
X75607830Y-100425965D01*
X75607828Y-100425964D01*
X75393663Y-100326097D01*
X75393659Y-100326096D01*
X75393655Y-100326094D01*
X75165413Y-100264938D01*
X75165403Y-100264936D01*
X74930001Y-100244341D01*
X74929999Y-100244341D01*
X74694596Y-100264936D01*
X74694586Y-100264938D01*
X74466344Y-100326094D01*
X74466335Y-100326098D01*
X74252171Y-100425964D01*
X74252169Y-100425965D01*
X74058597Y-100561505D01*
X73891505Y-100728597D01*
X73761575Y-100914158D01*
X73706998Y-100957783D01*
X73637500Y-100964977D01*
X73575145Y-100933454D01*
X73558425Y-100914158D01*
X73428494Y-100728597D01*
X73261402Y-100561506D01*
X73261395Y-100561501D01*
X73067834Y-100425967D01*
X73067830Y-100425965D01*
X73067828Y-100425964D01*
X72853663Y-100326097D01*
X72853659Y-100326096D01*
X72853655Y-100326094D01*
X72625413Y-100264938D01*
X72625403Y-100264936D01*
X72390001Y-100244341D01*
X72389999Y-100244341D01*
X72154596Y-100264936D01*
X72154586Y-100264938D01*
X71926344Y-100326094D01*
X71926335Y-100326098D01*
X71712171Y-100425964D01*
X71712169Y-100425965D01*
X71518597Y-100561505D01*
X71351505Y-100728597D01*
X71221575Y-100914158D01*
X71166998Y-100957783D01*
X71097500Y-100964977D01*
X71035145Y-100933454D01*
X71018425Y-100914158D01*
X70888494Y-100728597D01*
X70721402Y-100561506D01*
X70721395Y-100561501D01*
X70527834Y-100425967D01*
X70527830Y-100425965D01*
X70527828Y-100425964D01*
X70313663Y-100326097D01*
X70313659Y-100326096D01*
X70313655Y-100326094D01*
X70085413Y-100264938D01*
X70085403Y-100264936D01*
X69850001Y-100244341D01*
X69849999Y-100244341D01*
X69614596Y-100264936D01*
X69614586Y-100264938D01*
X69386344Y-100326094D01*
X69386335Y-100326098D01*
X69172171Y-100425964D01*
X69172169Y-100425965D01*
X68978597Y-100561505D01*
X68811505Y-100728597D01*
X68681575Y-100914158D01*
X68626998Y-100957783D01*
X68557500Y-100964977D01*
X68495145Y-100933454D01*
X68478425Y-100914158D01*
X68348494Y-100728597D01*
X68181402Y-100561506D01*
X68181395Y-100561501D01*
X67987834Y-100425967D01*
X67987830Y-100425965D01*
X67987828Y-100425964D01*
X67773663Y-100326097D01*
X67773659Y-100326096D01*
X67773655Y-100326094D01*
X67545413Y-100264938D01*
X67545403Y-100264936D01*
X67310001Y-100244341D01*
X67309999Y-100244341D01*
X67074596Y-100264936D01*
X67074586Y-100264938D01*
X66846344Y-100326094D01*
X66846335Y-100326098D01*
X66632171Y-100425964D01*
X66632169Y-100425965D01*
X66438597Y-100561505D01*
X66271505Y-100728597D01*
X66135965Y-100922169D01*
X66135964Y-100922171D01*
X66036098Y-101136335D01*
X66036094Y-101136344D01*
X65974938Y-101364586D01*
X65974936Y-101364596D01*
X65954341Y-101599999D01*
X65954341Y-101600000D01*
X65974936Y-101835403D01*
X65974938Y-101835413D01*
X66036094Y-102063655D01*
X66036096Y-102063659D01*
X66036097Y-102063663D01*
X66040000Y-102072032D01*
X66135965Y-102277830D01*
X66135967Y-102277834D01*
X66244281Y-102432521D01*
X66271505Y-102471401D01*
X66438599Y-102638495D01*
X66605439Y-102755318D01*
X66624594Y-102768730D01*
X66668219Y-102823307D01*
X66675413Y-102892805D01*
X66643890Y-102955160D01*
X66624595Y-102971880D01*
X66438922Y-103101890D01*
X66438920Y-103101891D01*
X66271891Y-103268920D01*
X66271886Y-103268926D01*
X66136400Y-103462420D01*
X66136399Y-103462422D01*
X66036570Y-103676507D01*
X66036567Y-103676513D01*
X65979364Y-103889999D01*
X65979364Y-103890000D01*
X66876988Y-103890000D01*
X66844075Y-103947007D01*
X66810000Y-104074174D01*
X66810000Y-104205826D01*
X66844075Y-104332993D01*
X66876988Y-104390000D01*
X65979364Y-104390000D01*
X66036567Y-104603486D01*
X66036570Y-104603492D01*
X66136399Y-104817578D01*
X66271894Y-105011082D01*
X66438917Y-105178105D01*
X66632421Y-105313600D01*
X66846507Y-105413429D01*
X66846516Y-105413433D01*
X67060000Y-105470634D01*
X67060000Y-104573012D01*
X67117007Y-104605925D01*
X67244174Y-104640000D01*
X67375826Y-104640000D01*
X67502993Y-104605925D01*
X67560000Y-104573012D01*
X67560000Y-105470633D01*
X67773483Y-105413433D01*
X67773492Y-105413429D01*
X67987578Y-105313600D01*
X68181082Y-105178105D01*
X68348105Y-105011082D01*
X68478119Y-104825405D01*
X68532696Y-104781781D01*
X68602195Y-104774588D01*
X68664549Y-104806110D01*
X68681269Y-104825405D01*
X68811505Y-105011401D01*
X68978599Y-105178495D01*
X69075384Y-105246265D01*
X69172165Y-105314032D01*
X69172167Y-105314033D01*
X69172170Y-105314035D01*
X69386337Y-105413903D01*
X69614592Y-105475063D01*
X69791034Y-105490500D01*
X69849999Y-105495659D01*
X69850000Y-105495659D01*
X69850001Y-105495659D01*
X69908966Y-105490500D01*
X70085408Y-105475063D01*
X70313663Y-105413903D01*
X70527830Y-105314035D01*
X70721401Y-105178495D01*
X70888495Y-105011401D01*
X71018425Y-104825842D01*
X71073002Y-104782217D01*
X71142500Y-104775023D01*
X71204855Y-104806546D01*
X71221575Y-104825842D01*
X71351281Y-105011082D01*
X71351505Y-105011401D01*
X71518599Y-105178495D01*
X71615384Y-105246265D01*
X71712165Y-105314032D01*
X71712167Y-105314033D01*
X71712170Y-105314035D01*
X71926337Y-105413903D01*
X72154592Y-105475063D01*
X72331034Y-105490500D01*
X72389999Y-105495659D01*
X72390000Y-105495659D01*
X72390001Y-105495659D01*
X72448966Y-105490500D01*
X72625408Y-105475063D01*
X72853663Y-105413903D01*
X73067830Y-105314035D01*
X73261401Y-105178495D01*
X73428495Y-105011401D01*
X73558730Y-104825405D01*
X73613307Y-104781781D01*
X73682805Y-104774587D01*
X73745160Y-104806110D01*
X73761879Y-104825405D01*
X73891890Y-105011078D01*
X74058917Y-105178105D01*
X74252421Y-105313600D01*
X74466507Y-105413429D01*
X74466516Y-105413433D01*
X74680000Y-105470634D01*
X74680000Y-104573012D01*
X74737007Y-104605925D01*
X74864174Y-104640000D01*
X74995826Y-104640000D01*
X75122993Y-104605925D01*
X75180000Y-104573012D01*
X75180000Y-105470633D01*
X75393483Y-105413433D01*
X75393492Y-105413429D01*
X75607578Y-105313600D01*
X75801082Y-105178105D01*
X75968105Y-105011082D01*
X76098119Y-104825405D01*
X76152696Y-104781781D01*
X76222195Y-104774588D01*
X76284549Y-104806110D01*
X76301269Y-104825405D01*
X76431505Y-105011401D01*
X76598599Y-105178495D01*
X76695384Y-105246265D01*
X76792165Y-105314032D01*
X76792167Y-105314033D01*
X76792170Y-105314035D01*
X77006337Y-105413903D01*
X77234592Y-105475063D01*
X77470000Y-105495659D01*
X77497843Y-105493222D01*
X77566340Y-105506987D01*
X77616525Y-105555600D01*
X77632460Y-105623628D01*
X77609087Y-105689473D01*
X77596333Y-105704431D01*
X77537584Y-105763181D01*
X77387582Y-105913182D01*
X77326262Y-105946666D01*
X77299903Y-105949500D01*
X65810097Y-105949500D01*
X65743058Y-105929815D01*
X65722416Y-105913181D01*
X65305219Y-105495984D01*
X65271734Y-105434661D01*
X65268900Y-105408303D01*
X65268900Y-97447696D01*
X65288585Y-97380657D01*
X65305214Y-97360020D01*
X68176506Y-94488727D01*
X68176511Y-94488724D01*
X68186714Y-94478520D01*
X68186716Y-94478520D01*
X68298520Y-94366716D01*
X68357064Y-94265314D01*
X68377577Y-94229785D01*
X68418501Y-94077057D01*
X68418501Y-93918943D01*
X68418501Y-93911348D01*
X68418500Y-93911330D01*
X68418500Y-90854012D01*
X68438185Y-90786973D01*
X68445555Y-90776697D01*
X68447810Y-90773867D01*
X68447816Y-90773862D01*
X68543789Y-90621122D01*
X68603368Y-90450855D01*
X68623565Y-90271600D01*
X68616452Y-90208474D01*
X68603369Y-90092350D01*
X68603368Y-90092345D01*
X68551261Y-89943432D01*
X68543789Y-89922078D01*
X68447816Y-89769338D01*
X68320262Y-89641784D01*
X68250111Y-89597705D01*
X68167523Y-89545811D01*
X67997254Y-89486231D01*
X67997249Y-89486230D01*
X67818004Y-89466035D01*
X67817996Y-89466035D01*
X67638750Y-89486230D01*
X67638745Y-89486231D01*
X67468476Y-89545811D01*
X67315737Y-89641784D01*
X67188184Y-89769337D01*
X67092211Y-89922076D01*
X67032631Y-90092345D01*
X67032630Y-90092350D01*
X67012435Y-90271596D01*
X67012435Y-90271603D01*
X67032630Y-90450849D01*
X67032631Y-90450854D01*
X67092211Y-90621123D01*
X67188185Y-90773863D01*
X67190445Y-90776697D01*
X67191334Y-90778875D01*
X67191889Y-90779758D01*
X67191734Y-90779855D01*
X67216855Y-90841383D01*
X67217500Y-90854012D01*
X67217500Y-93697902D01*
X67197815Y-93764941D01*
X67181181Y-93785583D01*
X64187881Y-96778882D01*
X64187879Y-96778885D01*
X64137761Y-96865694D01*
X64137759Y-96865696D01*
X64108825Y-96915809D01*
X64108824Y-96915810D01*
X64108823Y-96915815D01*
X64067899Y-97068543D01*
X64067899Y-97068545D01*
X64067899Y-97236646D01*
X64067900Y-97236659D01*
X64067900Y-105621730D01*
X64067899Y-105621748D01*
X64067899Y-105787454D01*
X64067898Y-105787454D01*
X64108823Y-105940185D01*
X64137758Y-105990300D01*
X64137759Y-105990304D01*
X64137760Y-105990304D01*
X64187879Y-106077114D01*
X64187881Y-106077117D01*
X64306749Y-106195985D01*
X64306755Y-106195990D01*
X65025139Y-106914374D01*
X65025149Y-106914385D01*
X65029479Y-106918715D01*
X65029480Y-106918716D01*
X65141284Y-107030520D01*
X65141286Y-107030521D01*
X65141290Y-107030524D01*
X65199936Y-107064383D01*
X65199941Y-107064385D01*
X65278209Y-107109574D01*
X65278210Y-107109574D01*
X65278215Y-107109577D01*
X65430943Y-107150500D01*
X65589057Y-107150500D01*
X77513331Y-107150500D01*
X77513347Y-107150501D01*
X77520943Y-107150501D01*
X77679054Y-107150501D01*
X77679057Y-107150501D01*
X77831785Y-107109577D01*
X77910061Y-107064384D01*
X77968716Y-107030520D01*
X78080520Y-106918716D01*
X78080520Y-106918714D01*
X78090724Y-106908511D01*
X78090728Y-106908506D01*
X79526470Y-105472763D01*
X79587791Y-105439280D01*
X79646238Y-105440670D01*
X79774592Y-105475063D01*
X79951034Y-105490500D01*
X80009999Y-105495659D01*
X80010000Y-105495659D01*
X80010001Y-105495659D01*
X80068966Y-105490500D01*
X80245408Y-105475063D01*
X80473663Y-105413903D01*
X80687830Y-105314035D01*
X80881401Y-105178495D01*
X81048495Y-105011401D01*
X81178730Y-104825405D01*
X81233307Y-104781781D01*
X81302805Y-104774587D01*
X81365160Y-104806110D01*
X81381879Y-104825405D01*
X81511890Y-105011078D01*
X81678917Y-105178105D01*
X81872421Y-105313600D01*
X82086507Y-105413429D01*
X82086516Y-105413433D01*
X82300000Y-105470634D01*
X82300000Y-104573012D01*
X82357007Y-104605925D01*
X82484174Y-104640000D01*
X82615826Y-104640000D01*
X82742993Y-104605925D01*
X82800000Y-104573012D01*
X82800000Y-105470633D01*
X83013483Y-105413433D01*
X83013492Y-105413429D01*
X83227578Y-105313600D01*
X83421082Y-105178105D01*
X83588105Y-105011082D01*
X83718119Y-104825405D01*
X83772696Y-104781781D01*
X83842195Y-104774588D01*
X83904549Y-104806110D01*
X83921269Y-104825405D01*
X84051505Y-105011401D01*
X84218599Y-105178495D01*
X84315384Y-105246265D01*
X84412165Y-105314032D01*
X84412167Y-105314033D01*
X84412170Y-105314035D01*
X84626337Y-105413903D01*
X84854592Y-105475063D01*
X85031034Y-105490500D01*
X85089999Y-105495659D01*
X85090000Y-105495659D01*
X85090001Y-105495659D01*
X85148966Y-105490500D01*
X85325408Y-105475063D01*
X85553663Y-105413903D01*
X85767830Y-105314035D01*
X85961401Y-105178495D01*
X86128495Y-105011401D01*
X86258425Y-104825842D01*
X86313002Y-104782217D01*
X86382500Y-104775023D01*
X86444855Y-104806546D01*
X86461575Y-104825842D01*
X86591281Y-105011082D01*
X86591505Y-105011401D01*
X86758599Y-105178495D01*
X86855384Y-105246265D01*
X86952165Y-105314032D01*
X86952167Y-105314033D01*
X86952170Y-105314035D01*
X87166337Y-105413903D01*
X87394592Y-105475063D01*
X87571034Y-105490500D01*
X87629999Y-105495659D01*
X87630000Y-105495659D01*
X87630001Y-105495659D01*
X87688966Y-105490500D01*
X87865408Y-105475063D01*
X88093663Y-105413903D01*
X88307830Y-105314035D01*
X88501401Y-105178495D01*
X88668495Y-105011401D01*
X88798730Y-104825405D01*
X88853307Y-104781781D01*
X88922805Y-104774587D01*
X88985160Y-104806110D01*
X89001879Y-104825405D01*
X89131890Y-105011078D01*
X89298917Y-105178105D01*
X89492421Y-105313600D01*
X89706507Y-105413429D01*
X89706516Y-105413433D01*
X89920000Y-105470634D01*
X89920000Y-104573012D01*
X89977007Y-104605925D01*
X90104174Y-104640000D01*
X90235826Y-104640000D01*
X90362993Y-104605925D01*
X90420000Y-104573012D01*
X90420000Y-105470633D01*
X90633483Y-105413433D01*
X90633492Y-105413429D01*
X90847578Y-105313600D01*
X91041082Y-105178105D01*
X91208105Y-105011082D01*
X91338119Y-104825405D01*
X91392696Y-104781781D01*
X91462195Y-104774588D01*
X91524549Y-104806110D01*
X91541269Y-104825405D01*
X91671505Y-105011401D01*
X91838599Y-105178495D01*
X91935384Y-105246265D01*
X92032165Y-105314032D01*
X92032167Y-105314033D01*
X92032170Y-105314035D01*
X92246337Y-105413903D01*
X92474592Y-105475063D01*
X92651034Y-105490500D01*
X92709999Y-105495659D01*
X92710000Y-105495659D01*
X92710001Y-105495659D01*
X92768966Y-105490500D01*
X92945408Y-105475063D01*
X93073757Y-105440672D01*
X93143606Y-105442335D01*
X93193531Y-105472766D01*
X95466584Y-107745819D01*
X95500069Y-107807142D01*
X95495085Y-107876834D01*
X95453213Y-107932767D01*
X95387749Y-107957184D01*
X95378903Y-107957500D01*
X63495300Y-107957500D01*
X63428261Y-107937815D01*
X63382506Y-107885011D01*
X63371300Y-107833500D01*
X63371300Y-93892110D01*
X63371300Y-93892108D01*
X63337192Y-93764814D01*
X63271300Y-93650686D01*
X63178114Y-93557500D01*
X59218319Y-89597705D01*
X59184834Y-89536382D01*
X59182000Y-89510024D01*
X59182000Y-82512006D01*
X60062700Y-82512006D01*
X60081864Y-82743297D01*
X60081866Y-82743308D01*
X60138842Y-82968300D01*
X60232075Y-83180848D01*
X60359016Y-83375147D01*
X60359019Y-83375151D01*
X60359021Y-83375153D01*
X60516216Y-83545913D01*
X60516219Y-83545915D01*
X60516222Y-83545918D01*
X60699365Y-83688464D01*
X60699371Y-83688468D01*
X60699374Y-83688470D01*
X60903497Y-83798936D01*
X61017487Y-83838068D01*
X61123015Y-83874297D01*
X61123017Y-83874297D01*
X61123019Y-83874298D01*
X61351951Y-83912500D01*
X61351952Y-83912500D01*
X61584048Y-83912500D01*
X61584049Y-83912500D01*
X61812981Y-83874298D01*
X62032503Y-83798936D01*
X62236626Y-83688470D01*
X62419784Y-83545913D01*
X62576979Y-83375153D01*
X62703924Y-83180849D01*
X62797157Y-82968300D01*
X62854134Y-82743305D01*
X62854135Y-82743297D01*
X62873300Y-82512006D01*
X62873300Y-82511993D01*
X62854135Y-82280708D01*
X62854134Y-82280695D01*
X62852546Y-82274424D01*
X62855166Y-82204607D01*
X62885066Y-82156300D01*
X65768549Y-79272819D01*
X65829872Y-79239334D01*
X65856230Y-79236500D01*
X77047030Y-79236500D01*
X77114069Y-79256185D01*
X77155122Y-79303563D01*
X77156638Y-79302743D01*
X77159079Y-79307254D01*
X77286016Y-79501547D01*
X77286019Y-79501551D01*
X77286021Y-79501553D01*
X77443216Y-79672313D01*
X77443219Y-79672315D01*
X77443222Y-79672318D01*
X77626365Y-79814864D01*
X77626371Y-79814868D01*
X77626374Y-79814870D01*
X77830497Y-79925336D01*
X77924607Y-79957644D01*
X78050015Y-80000697D01*
X78050017Y-80000697D01*
X78050019Y-80000698D01*
X78278951Y-80038900D01*
X78278952Y-80038900D01*
X78511048Y-80038900D01*
X78511049Y-80038900D01*
X78739981Y-80000698D01*
X78959503Y-79925336D01*
X79163626Y-79814870D01*
X79188706Y-79795350D01*
X79306212Y-79703891D01*
X79346784Y-79672313D01*
X79355130Y-79663246D01*
X79415010Y-79627254D01*
X79484849Y-79629349D01*
X79542468Y-79668869D01*
X79562544Y-79703891D01*
X79591203Y-79780730D01*
X79591206Y-79780735D01*
X79677452Y-79895944D01*
X79677455Y-79895947D01*
X79792664Y-79982193D01*
X79792671Y-79982197D01*
X79927517Y-80032491D01*
X79927516Y-80032491D01*
X79934444Y-80033235D01*
X79987127Y-80038900D01*
X81882872Y-80038899D01*
X81942483Y-80032491D01*
X82077331Y-79982196D01*
X82192546Y-79895946D01*
X82278796Y-79780731D01*
X82329091Y-79645883D01*
X82335500Y-79586273D01*
X82335500Y-78643005D01*
X83495202Y-78643005D01*
X83514361Y-78874218D01*
X83571317Y-79099135D01*
X83664515Y-79311606D01*
X83748812Y-79440633D01*
X84457861Y-78731584D01*
X84480667Y-78816694D01*
X84539910Y-78919306D01*
X84623694Y-79003090D01*
X84726306Y-79062333D01*
X84811414Y-79085138D01*
X84101201Y-79795351D01*
X84131649Y-79819050D01*
X84335697Y-79929476D01*
X84335706Y-79929479D01*
X84555139Y-80004811D01*
X84783993Y-80043000D01*
X85016007Y-80043000D01*
X85244860Y-80004811D01*
X85464293Y-79929479D01*
X85464301Y-79929476D01*
X85668355Y-79819047D01*
X85698797Y-79795351D01*
X85698798Y-79795350D01*
X84988585Y-79085137D01*
X85073694Y-79062333D01*
X85176306Y-79003090D01*
X85260090Y-78919306D01*
X85319333Y-78816694D01*
X85342138Y-78731584D01*
X86003181Y-79392627D01*
X86036666Y-79453950D01*
X86039500Y-79480307D01*
X86039500Y-79590869D01*
X86039501Y-79590876D01*
X86045908Y-79650483D01*
X86096202Y-79785328D01*
X86096206Y-79785335D01*
X86182452Y-79900544D01*
X86182455Y-79900547D01*
X86297664Y-79986793D01*
X86297671Y-79986797D01*
X86432517Y-80037091D01*
X86432516Y-80037091D01*
X86439444Y-80037835D01*
X86492127Y-80043500D01*
X88387872Y-80043499D01*
X88447483Y-80037091D01*
X88582331Y-79986796D01*
X88697546Y-79900546D01*
X88783796Y-79785331D01*
X88834091Y-79650483D01*
X88840500Y-79590873D01*
X88840499Y-77695128D01*
X88834091Y-77635517D01*
X88832375Y-77630917D01*
X88783797Y-77500671D01*
X88783793Y-77500664D01*
X88697547Y-77385455D01*
X88697544Y-77385452D01*
X88582335Y-77299206D01*
X88582328Y-77299202D01*
X88447482Y-77248908D01*
X88447483Y-77248908D01*
X88387883Y-77242501D01*
X88387881Y-77242500D01*
X88387873Y-77242500D01*
X88387864Y-77242500D01*
X86492129Y-77242500D01*
X86492123Y-77242501D01*
X86432516Y-77248908D01*
X86297671Y-77299202D01*
X86297664Y-77299206D01*
X86182455Y-77385452D01*
X86182452Y-77385455D01*
X86096206Y-77500664D01*
X86096202Y-77500671D01*
X86045908Y-77635517D01*
X86039995Y-77690523D01*
X86039501Y-77695123D01*
X86039500Y-77695135D01*
X86039500Y-77805691D01*
X86019815Y-77872730D01*
X86003181Y-77893372D01*
X85342138Y-78554414D01*
X85319333Y-78469306D01*
X85260090Y-78366694D01*
X85176306Y-78282910D01*
X85073694Y-78223667D01*
X84988584Y-78200861D01*
X85698797Y-77490647D01*
X85698797Y-77490645D01*
X85668360Y-77466955D01*
X85668354Y-77466951D01*
X85464302Y-77356523D01*
X85464293Y-77356520D01*
X85244860Y-77281188D01*
X85016007Y-77243000D01*
X84783993Y-77243000D01*
X84555139Y-77281188D01*
X84335706Y-77356520D01*
X84335697Y-77356523D01*
X84131650Y-77466949D01*
X84101200Y-77490647D01*
X84811415Y-78200861D01*
X84726306Y-78223667D01*
X84623694Y-78282910D01*
X84539910Y-78366694D01*
X84480667Y-78469306D01*
X84457861Y-78554415D01*
X83748811Y-77845365D01*
X83664516Y-77974390D01*
X83571317Y-78186864D01*
X83514361Y-78411781D01*
X83495202Y-78642994D01*
X83495202Y-78643005D01*
X82335500Y-78643005D01*
X82335499Y-77690528D01*
X82330299Y-77642157D01*
X82329091Y-77630916D01*
X82278797Y-77496071D01*
X82278793Y-77496064D01*
X82192547Y-77380855D01*
X82192544Y-77380852D01*
X82077335Y-77294606D01*
X82077328Y-77294602D01*
X81942482Y-77244308D01*
X81942483Y-77244308D01*
X81882883Y-77237901D01*
X81882881Y-77237900D01*
X81882873Y-77237900D01*
X81882865Y-77237900D01*
X81156229Y-77237900D01*
X81089190Y-77218215D01*
X81043435Y-77165411D01*
X81033491Y-77096253D01*
X81062516Y-77032697D01*
X81068548Y-77026219D01*
X83908148Y-74186619D01*
X83969471Y-74153134D01*
X83995829Y-74150300D01*
X104828715Y-74150300D01*
X104895754Y-74169985D01*
X104932523Y-74206478D01*
X104969415Y-74262945D01*
X104969416Y-74262946D01*
X104969421Y-74262953D01*
X105064203Y-74365914D01*
X105095124Y-74428567D01*
X105087264Y-74497993D01*
X105043116Y-74552148D01*
X105016306Y-74566077D01*
X104936069Y-74596003D01*
X104936064Y-74596006D01*
X104820855Y-74682252D01*
X104820852Y-74682255D01*
X104734606Y-74797464D01*
X104734602Y-74797471D01*
X104684308Y-74932317D01*
X104677901Y-74991916D01*
X104677901Y-74991923D01*
X104677900Y-74991935D01*
X104677900Y-76887670D01*
X104677901Y-76887676D01*
X104684308Y-76947283D01*
X104734602Y-77082128D01*
X104734606Y-77082135D01*
X104820852Y-77197344D01*
X104820855Y-77197347D01*
X104936064Y-77283593D01*
X104936071Y-77283597D01*
X105070917Y-77333891D01*
X105070916Y-77333891D01*
X105077844Y-77334635D01*
X105130527Y-77340300D01*
X107026272Y-77340299D01*
X107085883Y-77333891D01*
X107220731Y-77283596D01*
X107335946Y-77197346D01*
X107422196Y-77082131D01*
X107472491Y-76947283D01*
X107478900Y-76887673D01*
X107478899Y-74991928D01*
X107472491Y-74932317D01*
X107464515Y-74910933D01*
X107422197Y-74797471D01*
X107422193Y-74797464D01*
X107335947Y-74682255D01*
X107335944Y-74682252D01*
X107220735Y-74596006D01*
X107220728Y-74596002D01*
X107140494Y-74566077D01*
X107084560Y-74524206D01*
X107060143Y-74458741D01*
X107074995Y-74390468D01*
X107092590Y-74365921D01*
X107187379Y-74262953D01*
X107314324Y-74068649D01*
X107407557Y-73856100D01*
X107464534Y-73631105D01*
X107483700Y-73399800D01*
X107483700Y-73399793D01*
X107464535Y-73168502D01*
X107464533Y-73168491D01*
X107407557Y-72943499D01*
X107314324Y-72730951D01*
X107187383Y-72536652D01*
X107187380Y-72536649D01*
X107187379Y-72536647D01*
X107030184Y-72365887D01*
X107030179Y-72365883D01*
X107030177Y-72365881D01*
X106847034Y-72223335D01*
X106847028Y-72223331D01*
X106642904Y-72112864D01*
X106642895Y-72112861D01*
X106423384Y-72037502D01*
X106251682Y-72008850D01*
X106194449Y-71999300D01*
X105962351Y-71999300D01*
X105916564Y-72006940D01*
X105733415Y-72037502D01*
X105513904Y-72112861D01*
X105513895Y-72112864D01*
X105309771Y-72223331D01*
X105309765Y-72223335D01*
X105126622Y-72365881D01*
X105126619Y-72365884D01*
X104969415Y-72536654D01*
X104932523Y-72593122D01*
X104879377Y-72638478D01*
X104828715Y-72649300D01*
X83559680Y-72649300D01*
X83414692Y-72678140D01*
X83414682Y-72678143D01*
X83278111Y-72734712D01*
X83278098Y-72734719D01*
X83155184Y-72816848D01*
X83155180Y-72816851D01*
X78747362Y-77224668D01*
X78686039Y-77258153D01*
X78639272Y-77259296D01*
X78511049Y-77237900D01*
X78278951Y-77237900D01*
X78240550Y-77244308D01*
X78050015Y-77276102D01*
X77830504Y-77351461D01*
X77830495Y-77351464D01*
X77626371Y-77461931D01*
X77626365Y-77461935D01*
X77443222Y-77604481D01*
X77443219Y-77604484D01*
X77359449Y-77695483D01*
X77299562Y-77731473D01*
X77268219Y-77735500D01*
X65420080Y-77735500D01*
X65275092Y-77764340D01*
X65275086Y-77764342D01*
X65138508Y-77820914D01*
X65138496Y-77820921D01*
X65089269Y-77853813D01*
X65015588Y-77903044D01*
X65015580Y-77903050D01*
X63080180Y-79838451D01*
X63018857Y-79871936D01*
X62949165Y-79866952D01*
X62893232Y-79825080D01*
X62868815Y-79759616D01*
X62868499Y-79750770D01*
X62868499Y-79024129D01*
X62868498Y-79024123D01*
X62868497Y-79024116D01*
X62862091Y-78964517D01*
X62845228Y-78919306D01*
X62811797Y-78829671D01*
X62811793Y-78829664D01*
X62725547Y-78714455D01*
X62725544Y-78714452D01*
X62610335Y-78628206D01*
X62610328Y-78628202D01*
X62475482Y-78577908D01*
X62475483Y-78577908D01*
X62415883Y-78571501D01*
X62415881Y-78571500D01*
X62415873Y-78571500D01*
X62415864Y-78571500D01*
X60520129Y-78571500D01*
X60520123Y-78571501D01*
X60460516Y-78577908D01*
X60325671Y-78628202D01*
X60325664Y-78628206D01*
X60210455Y-78714452D01*
X60210452Y-78714455D01*
X60124206Y-78829664D01*
X60124202Y-78829671D01*
X60073908Y-78964517D01*
X60067501Y-79024116D01*
X60067501Y-79024123D01*
X60067500Y-79024135D01*
X60067500Y-80919870D01*
X60067501Y-80919876D01*
X60073908Y-80979483D01*
X60124202Y-81114328D01*
X60124206Y-81114335D01*
X60210452Y-81229544D01*
X60210455Y-81229547D01*
X60325664Y-81315793D01*
X60325673Y-81315798D01*
X60405904Y-81345722D01*
X60461838Y-81387593D01*
X60486256Y-81453057D01*
X60471405Y-81521330D01*
X60453802Y-81545886D01*
X60359019Y-81648849D01*
X60232075Y-81843151D01*
X60138842Y-82055699D01*
X60081866Y-82280691D01*
X60081864Y-82280702D01*
X60062700Y-82511993D01*
X60062700Y-82512006D01*
X59182000Y-82512006D01*
X59182000Y-76047605D01*
X60036802Y-76047605D01*
X60055961Y-76278818D01*
X60112917Y-76503735D01*
X60206115Y-76716206D01*
X60290412Y-76845233D01*
X60999461Y-76136184D01*
X61022267Y-76221294D01*
X61081510Y-76323906D01*
X61165294Y-76407690D01*
X61267906Y-76466933D01*
X61353014Y-76489738D01*
X60642801Y-77199951D01*
X60673249Y-77223650D01*
X60877297Y-77334076D01*
X60877306Y-77334079D01*
X61096739Y-77409411D01*
X61325593Y-77447600D01*
X61557607Y-77447600D01*
X61786460Y-77409411D01*
X62005893Y-77334079D01*
X62005901Y-77334076D01*
X62209955Y-77223647D01*
X62240397Y-77199951D01*
X62240398Y-77199950D01*
X61530185Y-76489737D01*
X61615294Y-76466933D01*
X61717906Y-76407690D01*
X61801690Y-76323906D01*
X61860933Y-76221294D01*
X61883738Y-76136185D01*
X62592786Y-76845233D01*
X62677082Y-76716211D01*
X62770282Y-76503735D01*
X62827238Y-76278818D01*
X62846398Y-76047605D01*
X62846398Y-76047594D01*
X62827238Y-75816381D01*
X62770282Y-75591464D01*
X62677084Y-75378993D01*
X62592786Y-75249965D01*
X61883737Y-75959014D01*
X61860933Y-75873906D01*
X61801690Y-75771294D01*
X61717906Y-75687510D01*
X61615294Y-75628267D01*
X61530184Y-75605461D01*
X62191227Y-74944418D01*
X62252550Y-74910933D01*
X62278907Y-74908099D01*
X62389472Y-74908099D01*
X62449083Y-74901691D01*
X62583931Y-74851396D01*
X62699146Y-74765146D01*
X62785396Y-74649931D01*
X62835691Y-74515083D01*
X62842100Y-74455473D01*
X62842099Y-72559728D01*
X62835691Y-72500117D01*
X62785626Y-72365887D01*
X62785397Y-72365271D01*
X62785393Y-72365264D01*
X62699147Y-72250055D01*
X62699144Y-72250052D01*
X62583935Y-72163806D01*
X62583928Y-72163802D01*
X62449082Y-72113508D01*
X62449083Y-72113508D01*
X62389483Y-72107101D01*
X62389481Y-72107100D01*
X62389473Y-72107100D01*
X62389464Y-72107100D01*
X60493729Y-72107100D01*
X60493723Y-72107101D01*
X60434116Y-72113508D01*
X60299271Y-72163802D01*
X60299264Y-72163806D01*
X60184055Y-72250052D01*
X60184052Y-72250055D01*
X60097806Y-72365264D01*
X60097802Y-72365271D01*
X60047508Y-72500117D01*
X60041101Y-72559716D01*
X60041101Y-72559723D01*
X60041100Y-72559735D01*
X60041100Y-74455470D01*
X60041101Y-74455476D01*
X60047508Y-74515083D01*
X60097802Y-74649928D01*
X60097806Y-74649935D01*
X60184052Y-74765144D01*
X60184055Y-74765147D01*
X60299264Y-74851393D01*
X60299271Y-74851397D01*
X60344218Y-74868161D01*
X60434117Y-74901691D01*
X60493727Y-74908100D01*
X60604293Y-74908099D01*
X60671330Y-74927783D01*
X60691972Y-74944418D01*
X61353015Y-75605461D01*
X61267906Y-75628267D01*
X61165294Y-75687510D01*
X61081510Y-75771294D01*
X61022267Y-75873906D01*
X60999461Y-75959015D01*
X60290411Y-75249965D01*
X60206116Y-75378990D01*
X60112917Y-75591464D01*
X60055961Y-75816381D01*
X60036802Y-76047594D01*
X60036802Y-76047605D01*
X59182000Y-76047605D01*
X59182000Y-69052100D01*
X59201685Y-68985061D01*
X59254489Y-68939306D01*
X59306000Y-68928100D01*
X108534061Y-68928100D01*
X108601100Y-68947785D01*
G37*
%TD.AperFunction*%
%TD*%
M02*
